G04 #@! TF.GenerationSoftware,KiCad,Pcbnew,(5.0.2)-1*
G04 #@! TF.CreationDate,2019-02-27T10:37:22-05:00*
G04 #@! TF.ProjectId,AR-22 Controller,41522d32-3220-4436-9f6e-74726f6c6c65,rev?*
G04 #@! TF.SameCoordinates,Original*
G04 #@! TF.FileFunction,Copper,L1,Top*
G04 #@! TF.FilePolarity,Positive*
%FSLAX46Y46*%
G04 Gerber Fmt 4.6, Leading zero omitted, Abs format (unit mm)*
G04 Created by KiCad (PCBNEW (5.0.2)-1) date 2/27/2019 10:37:22 AM*
%MOMM*%
%LPD*%
G01*
G04 APERTURE LIST*
G04 #@! TA.AperFunction,ComponentPad*
%ADD10C,1.700000*%
G04 #@! TD*
G04 #@! TA.AperFunction,ComponentPad*
%ADD11O,1.700000X1.700000*%
G04 #@! TD*
G04 #@! TA.AperFunction,ComponentPad*
%ADD12R,1.700000X1.700000*%
G04 #@! TD*
G04 #@! TA.AperFunction,ComponentPad*
%ADD13C,1.701800*%
G04 #@! TD*
G04 #@! TA.AperFunction,ComponentPad*
%ADD14R,1.701800X1.701800*%
G04 #@! TD*
G04 #@! TA.AperFunction,ComponentPad*
%ADD15C,1.600000*%
G04 #@! TD*
G04 #@! TA.AperFunction,ComponentPad*
%ADD16R,1.600000X1.600000*%
G04 #@! TD*
G04 #@! TA.AperFunction,ComponentPad*
%ADD17O,1.600000X1.600000*%
G04 #@! TD*
G04 #@! TA.AperFunction,ComponentPad*
%ADD18C,1.524000*%
G04 #@! TD*
G04 #@! TA.AperFunction,ComponentPad*
%ADD19R,1.524000X1.524000*%
G04 #@! TD*
G04 #@! TA.AperFunction,ComponentPad*
%ADD20C,1.905000*%
G04 #@! TD*
G04 #@! TA.AperFunction,ComponentPad*
%ADD21R,1.905000X1.905000*%
G04 #@! TD*
G04 #@! TA.AperFunction,ComponentPad*
%ADD22C,2.200000*%
G04 #@! TD*
G04 #@! TA.AperFunction,ComponentPad*
%ADD23O,2.200000X2.200000*%
G04 #@! TD*
G04 #@! TA.AperFunction,Conductor*
%ADD24C,0.508000*%
G04 #@! TD*
G04 #@! TA.AperFunction,Conductor*
%ADD25C,1.016000*%
G04 #@! TD*
G04 #@! TA.AperFunction,Conductor*
%ADD26C,0.254000*%
G04 #@! TD*
G04 APERTURE END LIST*
D10*
G04 #@! TO.P,J10,1*
G04 #@! TO.N,Net-(D1-Pad2)*
X145796000Y-93853000D03*
D11*
G04 #@! TO.P,J10,2*
G04 #@! TO.N,Net-(C3-Pad1)*
X145796000Y-91313000D03*
G04 #@! TO.P,J10,3*
G04 #@! TO.N,/D18*
X145796000Y-88773000D03*
D12*
G04 #@! TO.P,J10,4*
G04 #@! TO.N,GND*
X145796000Y-86233000D03*
G04 #@! TD*
D13*
G04 #@! TO.P,A1,SCL*
G04 #@! TO.N,Net-(A1-PadSCL)*
X122896323Y-69024781D03*
G04 #@! TO.P,A1,SDA*
G04 #@! TO.N,Net-(A1-PadSDA)*
X125436323Y-69024781D03*
G04 #@! TO.P,A1,AREF*
G04 #@! TO.N,Net-(A1-PadAREF)*
X127976323Y-69024781D03*
D14*
G04 #@! TO.P,A1,GND*
G04 #@! TO.N,GND*
X130516323Y-69024781D03*
D13*
G04 #@! TO.P,A1,D13*
G04 #@! TO.N,Net-(A1-PadD13)*
X133056323Y-69024781D03*
G04 #@! TO.P,A1,D12*
G04 #@! TO.N,Net-(A1-PadD12)*
X135596323Y-69024781D03*
G04 #@! TO.P,A1,D11*
G04 #@! TO.N,Net-(A1-PadD11)*
X138136323Y-69024781D03*
G04 #@! TO.P,A1,D10*
G04 #@! TO.N,/D10*
X140676323Y-69024781D03*
G04 #@! TO.P,A1,D9*
G04 #@! TO.N,/D9*
X143216323Y-69024781D03*
G04 #@! TO.P,A1,D8*
G04 #@! TO.N,/D8*
X145756323Y-69024781D03*
G04 #@! TO.P,A1,D7*
G04 #@! TO.N,Net-(A1-PadD7)*
X149820323Y-69024781D03*
G04 #@! TO.P,A1,D6*
G04 #@! TO.N,/D6*
X152360323Y-69024781D03*
G04 #@! TO.P,A1,D5*
G04 #@! TO.N,/D5*
X154900323Y-69024781D03*
G04 #@! TO.P,A1,D4*
G04 #@! TO.N,/D4*
X157440323Y-69024781D03*
G04 #@! TO.P,A1,D3*
G04 #@! TO.N,/D3*
X159980323Y-69024781D03*
G04 #@! TO.P,A1,D2*
G04 #@! TO.N,/D2*
X162520323Y-69024781D03*
G04 #@! TO.P,A1,D1*
G04 #@! TO.N,Net-(A1-PadD1)*
X165060323Y-69024781D03*
G04 #@! TO.P,A1,D0*
G04 #@! TO.N,Net-(A1-PadD0)*
X167600323Y-69024781D03*
G04 #@! TO.P,A1,D14*
G04 #@! TO.N,Net-(A1-PadD14)*
X172680323Y-69024781D03*
G04 #@! TO.P,A1,D15*
G04 #@! TO.N,Net-(A1-PadD15)*
X175220323Y-69024781D03*
G04 #@! TO.P,A1,D16*
G04 #@! TO.N,Net-(A1-PadD16)*
X177760323Y-69024781D03*
G04 #@! TO.P,A1,D17*
G04 #@! TO.N,Net-(A1-PadD17)*
X180300323Y-69024781D03*
G04 #@! TO.P,A1,D18*
G04 #@! TO.N,/D18*
X182840323Y-69024781D03*
G04 #@! TO.P,A1,D19*
G04 #@! TO.N,/D19*
X185380323Y-69024781D03*
G04 #@! TO.P,A1,D20*
G04 #@! TO.N,/D20*
X187920323Y-69024781D03*
G04 #@! TO.P,A1,D21*
G04 #@! TO.N,/D21*
X190460323Y-69024781D03*
G04 #@! TO.P,A1,AD15*
G04 #@! TO.N,Net-(A1-PadAD15)*
X195286323Y-117284781D03*
G04 #@! TO.P,A1,AD14*
G04 #@! TO.N,Net-(A1-PadAD14)*
X192746323Y-117284781D03*
G04 #@! TO.P,A1,AD13*
G04 #@! TO.N,Net-(A1-PadAD13)*
X190460323Y-117284781D03*
G04 #@! TO.P,A1,AD12*
G04 #@! TO.N,Net-(A1-PadAD12)*
X187920323Y-117284781D03*
G04 #@! TO.P,A1,AD11*
G04 #@! TO.N,Net-(A1-PadAD11)*
X185380323Y-117284781D03*
G04 #@! TO.P,A1,AD10*
G04 #@! TO.N,Net-(A1-PadAD10)*
X182840323Y-117284781D03*
G04 #@! TO.P,A1,AD9*
G04 #@! TO.N,Net-(A1-PadAD9)*
X180300323Y-117284781D03*
G04 #@! TO.P,A1,AD8*
G04 #@! TO.N,Net-(A1-PadAD8)*
X177760323Y-117284781D03*
G04 #@! TO.P,A1,AD7*
G04 #@! TO.N,Net-(A1-PadAD7)*
X172680323Y-117284781D03*
G04 #@! TO.P,A1,AD6*
G04 #@! TO.N,Net-(A1-PadAD6)*
X170140323Y-117284781D03*
G04 #@! TO.P,A1,AD5*
G04 #@! TO.N,Net-(A1-PadAD5)*
X167600323Y-117284781D03*
G04 #@! TO.P,A1,AD4*
G04 #@! TO.N,Net-(A1-PadAD4)*
X165060323Y-117284781D03*
G04 #@! TO.P,A1,AD3*
G04 #@! TO.N,Net-(A1-PadAD3)*
X162520323Y-117284781D03*
G04 #@! TO.P,A1,AD2*
G04 #@! TO.N,Net-(A1-PadAD2)*
X159980323Y-117284781D03*
G04 #@! TO.P,A1,AD1*
G04 #@! TO.N,Net-(A1-PadAD1)*
X157440323Y-117284781D03*
G04 #@! TO.P,A1,AD0*
G04 #@! TO.N,Net-(A1-PadAD0)*
X154900323Y-117284781D03*
G04 #@! TO.P,A1,VIN*
G04 #@! TO.N,Net-(A1-PadVIN)*
X149820323Y-117284781D03*
D14*
G04 #@! TO.P,A1,GND*
G04 #@! TO.N,GND*
X147280323Y-117284781D03*
X144740323Y-117284781D03*
D13*
G04 #@! TO.P,A1,+5V*
G04 #@! TO.N,+5V*
X142200323Y-117284781D03*
G04 #@! TO.P,A1,3V3*
G04 #@! TO.N,Net-(A1-Pad3V3)*
X139660323Y-117284781D03*
G04 #@! TO.P,A1,RESET*
G04 #@! TO.N,/RESET*
X137120323Y-117284781D03*
G04 #@! TO.P,A1,IOREF*
G04 #@! TO.N,Net-(A1-PadIOREF)*
X134580323Y-117284781D03*
G04 #@! TO.P,A1,NC*
G04 #@! TO.N,Net-(A1-PadNC)*
X132040323Y-117284781D03*
G04 #@! TD*
D15*
G04 #@! TO.P,C1,1*
G04 #@! TO.N,Net-(C1-Pad1)*
X159512000Y-94742000D03*
D16*
G04 #@! TO.P,C1,2*
G04 #@! TO.N,GND*
X159512000Y-92242000D03*
G04 #@! TD*
D15*
G04 #@! TO.P,C2,1*
G04 #@! TO.N,Net-(C2-Pad1)*
X146050000Y-74930000D03*
D17*
G04 #@! TO.P,C2,2*
G04 #@! TO.N,Net-(C2-Pad2)*
X146050000Y-82430000D03*
G04 #@! TD*
D12*
G04 #@! TO.P,J5,1*
G04 #@! TO.N,GND*
X194119500Y-109347000D03*
D11*
G04 #@! TO.P,J5,2*
G04 #@! TO.N,/D19*
X194119500Y-111887000D03*
G04 #@! TD*
D10*
G04 #@! TO.P,J6,1*
G04 #@! TO.N,/D5*
X194119500Y-96647000D03*
D12*
G04 #@! TO.P,J6,2*
G04 #@! TO.N,GND*
X194119500Y-99187000D03*
D11*
G04 #@! TO.P,J6,3*
G04 #@! TO.N,/D6*
X194119500Y-101727000D03*
G04 #@! TD*
D10*
G04 #@! TO.P,J7,1*
G04 #@! TO.N,/D21*
X194056000Y-73660000D03*
D11*
G04 #@! TO.P,J7,2*
G04 #@! TO.N,/D20*
X194056000Y-76200000D03*
G04 #@! TO.P,J7,3*
G04 #@! TO.N,+5V*
X194056000Y-78740000D03*
D12*
G04 #@! TO.P,J7,4*
G04 #@! TO.N,GND*
X194056000Y-81280000D03*
G04 #@! TD*
G04 #@! TO.P,J9,1*
G04 #@! TO.N,/D2*
X193992500Y-83883500D03*
D11*
G04 #@! TO.P,J9,2*
G04 #@! TO.N,/D3*
X193992500Y-86423500D03*
G04 #@! TO.P,J9,3*
G04 #@! TO.N,/D4*
X193992500Y-88963500D03*
G04 #@! TO.P,J9,4*
G04 #@! TO.N,+5V*
X193992500Y-91503500D03*
D12*
G04 #@! TO.P,J9,5*
G04 #@! TO.N,GND*
X193992500Y-94043500D03*
G04 #@! TD*
D13*
G04 #@! TO.P,U1,1*
G04 #@! TO.N,Net-(R2-Pad2)*
X151765000Y-82550000D03*
G04 #@! TO.P,U1,4*
G04 #@! TO.N,/D18*
X156845000Y-74930000D03*
D14*
G04 #@! TO.P,U1,2*
G04 #@! TO.N,GND*
X154305000Y-82550000D03*
G04 #@! TO.P,U1,5*
X154305000Y-74930000D03*
D13*
G04 #@! TO.P,U1,3*
G04 #@! TO.N,Net-(U1-Pad3)*
X156845000Y-82550000D03*
G04 #@! TO.P,U1,6*
G04 #@! TO.N,/D18*
X151765000Y-74930000D03*
G04 #@! TD*
D18*
G04 #@! TO.P,K1,11*
G04 #@! TO.N,N/C*
X138430000Y-78740000D03*
G04 #@! TO.P,K1,2*
X138430000Y-73660000D03*
G04 #@! TO.P,K1,6*
X128270000Y-73660000D03*
G04 #@! TO.P,K1,7*
X128270000Y-78740000D03*
D19*
G04 #@! TO.P,K1,12*
G04 #@! TO.N,GND*
X140970000Y-78740000D03*
D18*
G04 #@! TO.P,K1,10*
G04 #@! TO.N,Net-(K1-Pad10)*
X135890000Y-78740000D03*
G04 #@! TO.P,K1,9*
G04 #@! TO.N,Net-(C2-Pad1)*
X133350000Y-78740000D03*
G04 #@! TO.P,K1,8*
G04 #@! TO.N,Net-(J2-Pad3)*
X130810000Y-78740000D03*
G04 #@! TO.P,K1,5*
X130810000Y-73660000D03*
G04 #@! TO.P,K1,4*
G04 #@! TO.N,Net-(C2-Pad1)*
X133350000Y-73660000D03*
G04 #@! TO.P,K1,3*
G04 #@! TO.N,Net-(K1-Pad3)*
X135890000Y-73660000D03*
G04 #@! TO.P,K1,1*
G04 #@! TO.N,/D10*
X140970000Y-73660000D03*
G04 #@! TD*
G04 #@! TO.P,K2,11*
G04 #@! TO.N,N/C*
X138430000Y-91440000D03*
G04 #@! TO.P,K2,2*
X138430000Y-86360000D03*
G04 #@! TO.P,K2,6*
X128270000Y-86360000D03*
G04 #@! TO.P,K2,7*
X128270000Y-91440000D03*
D19*
G04 #@! TO.P,K2,12*
G04 #@! TO.N,GND*
X140970000Y-91440000D03*
D18*
G04 #@! TO.P,K2,10*
G04 #@! TO.N,Net-(J8-Pad4)*
X135890000Y-91440000D03*
D19*
G04 #@! TO.P,K2,9*
G04 #@! TO.N,GND*
X133350000Y-91440000D03*
D18*
G04 #@! TO.P,K2,8*
G04 #@! TO.N,Net-(J8-Pad3)*
X130810000Y-91440000D03*
G04 #@! TO.P,K2,5*
X130810000Y-86360000D03*
G04 #@! TO.P,K2,4*
G04 #@! TO.N,GND*
X133350000Y-86360000D03*
G04 #@! TO.P,K2,3*
G04 #@! TO.N,Net-(J8-Pad4)*
X135890000Y-86360000D03*
G04 #@! TO.P,K2,1*
G04 #@! TO.N,/D9*
X140970000Y-86360000D03*
G04 #@! TD*
D20*
G04 #@! TO.P,J8,4*
G04 #@! TO.N,Net-(J8-Pad4)*
X120015000Y-90170000D03*
G04 #@! TO.P,J8,3*
G04 #@! TO.N,Net-(J8-Pad3)*
X120015000Y-85090000D03*
G04 #@! TO.P,J8,2*
G04 #@! TO.N,Net-(D1-Pad2)*
X120015000Y-80010000D03*
G04 #@! TO.P,J8,1*
G04 #@! TO.N,Net-(C2-Pad1)*
X120015000Y-74930000D03*
G04 #@! TD*
G04 #@! TO.P,J2,3*
G04 #@! TO.N,Net-(J2-Pad3)*
X120015000Y-97028000D03*
G04 #@! TO.P,J2,2*
G04 #@! TO.N,Net-(J1-Pad3)*
X120015000Y-102108000D03*
D21*
G04 #@! TO.P,J2,1*
G04 #@! TO.N,GND*
X120015000Y-107188000D03*
G04 #@! TD*
D15*
G04 #@! TO.P,C3,1*
G04 #@! TO.N,Net-(C3-Pad1)*
X159512000Y-85852000D03*
D16*
G04 #@! TO.P,C3,2*
G04 #@! TO.N,GND*
X159512000Y-88352000D03*
G04 #@! TD*
D10*
G04 #@! TO.P,J3,2*
G04 #@! TO.N,Net-(C1-Pad1)*
X159575500Y-109283500D03*
G04 #@! TO.P,J3,1*
G04 #@! TO.N,/RESET*
X162115500Y-109283500D03*
G04 #@! TD*
D12*
G04 #@! TO.P,J4,1*
G04 #@! TO.N,GND*
X194119500Y-104394000D03*
D11*
G04 #@! TO.P,J4,2*
G04 #@! TO.N,Net-(J4-Pad2)*
X194119500Y-106934000D03*
G04 #@! TD*
D22*
G04 #@! TO.P,D1,1*
G04 #@! TO.N,Net-(C3-Pad1)*
X149479000Y-98552000D03*
D23*
G04 #@! TO.P,D1,2*
G04 #@! TO.N,Net-(D1-Pad2)*
X139319000Y-98552000D03*
G04 #@! TD*
D10*
G04 #@! TO.P,J1,1*
G04 #@! TO.N,Net-(J1-Pad1)*
X129286000Y-107188000D03*
D11*
G04 #@! TO.P,J1,2*
G04 #@! TO.N,Net-(J1-Pad2)*
X129286000Y-104648000D03*
G04 #@! TO.P,J1,3*
G04 #@! TO.N,Net-(J1-Pad3)*
X129286000Y-102108000D03*
D12*
G04 #@! TO.P,J1,4*
G04 #@! TO.N,GND*
X129286000Y-99568000D03*
G04 #@! TD*
D17*
G04 #@! TO.P,R1,2*
G04 #@! TO.N,Net-(J2-Pad3)*
X130810000Y-82550000D03*
D15*
G04 #@! TO.P,R1,1*
G04 #@! TO.N,Net-(C2-Pad2)*
X138430000Y-82550000D03*
G04 #@! TD*
G04 #@! TO.P,R2,1*
G04 #@! TO.N,Net-(C3-Pad1)*
X151892000Y-94234000D03*
D17*
G04 #@! TO.P,R2,2*
G04 #@! TO.N,Net-(R2-Pad2)*
X151892000Y-86614000D03*
G04 #@! TD*
G04 #@! TO.P,R3,2*
G04 #@! TO.N,/D8*
X180276500Y-106934000D03*
D15*
G04 #@! TO.P,R3,1*
G04 #@! TO.N,Net-(J4-Pad2)*
X187896500Y-106934000D03*
G04 #@! TD*
D24*
G04 #@! TO.N,Net-(C1-Pad1)*
X159575500Y-109283500D02*
X159575500Y-94805500D01*
G04 #@! TO.N,/D18*
X151892000Y-76015315D02*
X151892000Y-74883945D01*
X151892000Y-76465630D02*
X151892000Y-76073000D01*
X151892000Y-76454000D02*
X152146000Y-76708000D01*
X156591000Y-76708000D02*
X156845000Y-76454000D01*
X156845000Y-76454000D02*
X156845000Y-74930000D01*
X152146000Y-76708000D02*
X156591000Y-76708000D01*
X156845000Y-74930000D02*
X179197000Y-74930000D01*
X179197000Y-74930000D02*
X183007000Y-71120000D01*
X183007000Y-71120000D02*
X183007000Y-68961000D01*
D25*
G04 #@! TO.N,Net-(J8-Pad4)*
X120015000Y-90170000D02*
X121031000Y-89154000D01*
X121031000Y-89154000D02*
X135890000Y-89154000D01*
X135890000Y-86360000D02*
X135890000Y-89154000D01*
X135890000Y-89154000D02*
X135890000Y-91440000D01*
G04 #@! TO.N,Net-(J2-Pad3)*
X130810000Y-73660000D02*
X130810000Y-78740000D01*
X130810000Y-78740000D02*
X130810000Y-82550000D01*
D24*
G04 #@! TO.N,/D8*
X180276500Y-106934000D02*
X179145130Y-106934000D01*
X179018130Y-106934000D02*
X173228000Y-106934000D01*
X173228000Y-106934000D02*
X163322000Y-97028000D01*
X163322000Y-97028000D02*
X163322000Y-85694158D01*
X163322000Y-85694158D02*
X163322000Y-81788000D01*
X163322000Y-81788000D02*
X160528000Y-78994000D01*
X160528000Y-78994000D02*
X153162000Y-78994000D01*
X145796000Y-71628000D02*
X145796000Y-71691500D01*
X145796000Y-71691500D02*
X153035000Y-78930500D01*
X145796000Y-70267812D02*
X145796000Y-71691500D01*
X145756323Y-70228135D02*
X145796000Y-70267812D01*
X145756323Y-69024781D02*
X145756323Y-70228135D01*
D25*
G04 #@! TO.N,+5V*
X142200323Y-117284781D02*
X142200323Y-117308323D01*
X142200323Y-117308323D02*
X142240000Y-117268646D01*
X142200323Y-116081427D02*
X142189200Y-116070304D01*
X142200323Y-117284781D02*
X142200323Y-116081427D01*
X142236573Y-116081427D02*
X142200323Y-116081427D01*
X196215000Y-78740000D02*
X197485000Y-80010000D01*
X197485000Y-113538000D02*
X196456218Y-114566782D01*
X194310000Y-78740000D02*
X196215000Y-78740000D01*
X196456218Y-114566782D02*
X143751218Y-114566782D01*
X143751218Y-114566782D02*
X142236573Y-116081427D01*
X195258081Y-91567000D02*
X197485000Y-91567000D01*
X195194581Y-91503500D02*
X195258081Y-91567000D01*
X193992500Y-91503500D02*
X195194581Y-91503500D01*
X197485000Y-80010000D02*
X197485000Y-91567000D01*
X197485000Y-91567000D02*
X197485000Y-113538000D01*
G04 #@! TO.N,Net-(D1-Pad2)*
X117602000Y-91186000D02*
X120904000Y-94488000D01*
X117602000Y-82423000D02*
X119888000Y-80137000D01*
X117602000Y-91186000D02*
X117602000Y-82423000D01*
X119888000Y-80137000D02*
X119888000Y-80010000D01*
D24*
X145796000Y-93726000D02*
X145923000Y-93726000D01*
D25*
X138049000Y-94488000D02*
X138811000Y-94488000D01*
X120904000Y-94488000D02*
X138049000Y-94488000D01*
X145034000Y-94488000D02*
X145669000Y-93853000D01*
X139319000Y-96996366D02*
X139319000Y-94488000D01*
X139319000Y-98552000D02*
X139319000Y-96996366D01*
X138049000Y-94488000D02*
X139319000Y-94488000D01*
X139319000Y-94488000D02*
X145034000Y-94488000D01*
G04 #@! TO.N,Net-(J8-Pad3)*
X120015000Y-85090000D02*
X120967501Y-84137501D01*
X128270000Y-83820000D02*
X130048001Y-85598001D01*
X121285002Y-83820000D02*
X128270000Y-83820000D01*
X130048001Y-85598001D02*
X130810000Y-86360000D01*
D24*
G04 #@! TO.N,/D9*
X140970000Y-86360000D02*
X143256000Y-84074000D01*
X143256000Y-84074000D02*
X143256000Y-68834000D01*
G04 #@! TO.N,/D19*
X192917419Y-111887000D02*
X192790419Y-111760000D01*
X194119500Y-111887000D02*
X192917419Y-111887000D01*
X192790419Y-111760000D02*
X188087000Y-111760000D01*
X188087000Y-111760000D02*
X185293000Y-108966000D01*
X185293000Y-108966000D02*
X185293000Y-68961000D01*
G04 #@! TO.N,Net-(J4-Pad2)*
X187896500Y-106934000D02*
X194119500Y-106934000D01*
X194119500Y-106934000D02*
X194119500Y-106997500D01*
G04 #@! TO.N,Net-(R2-Pad2)*
X151765000Y-82550000D02*
X151765000Y-86487000D01*
X151765000Y-86487000D02*
X151892000Y-86614000D01*
G04 #@! TD*
D26*
G04 #@! TO.N,GND*
G36*
X118074297Y-67130040D02*
X117445582Y-67758755D01*
X117105323Y-68580212D01*
X117105323Y-69469350D01*
X117445582Y-70290807D01*
X118074297Y-70919522D01*
X118895754Y-71259781D01*
X119784892Y-71259781D01*
X120606349Y-70919522D01*
X121235064Y-70290807D01*
X121523733Y-69593900D01*
X121636637Y-69866476D01*
X122054628Y-70284467D01*
X122600759Y-70510681D01*
X123191887Y-70510681D01*
X123738018Y-70284467D01*
X124156009Y-69866476D01*
X124166323Y-69841576D01*
X124176637Y-69866476D01*
X124594628Y-70284467D01*
X125140759Y-70510681D01*
X125731887Y-70510681D01*
X126278018Y-70284467D01*
X126696009Y-69866476D01*
X126706323Y-69841576D01*
X126716637Y-69866476D01*
X127134628Y-70284467D01*
X127680759Y-70510681D01*
X128271887Y-70510681D01*
X128818018Y-70284467D01*
X129050947Y-70051538D01*
X129127096Y-70235379D01*
X129305724Y-70414008D01*
X129539113Y-70510681D01*
X130230573Y-70510681D01*
X130389323Y-70351931D01*
X130389323Y-69151781D01*
X130369323Y-69151781D01*
X130369323Y-68897781D01*
X130389323Y-68897781D01*
X130389323Y-67697631D01*
X130230573Y-67538881D01*
X129539113Y-67538881D01*
X129305724Y-67635554D01*
X129127096Y-67814183D01*
X129050947Y-67998024D01*
X128818018Y-67765095D01*
X128271887Y-67538881D01*
X127680759Y-67538881D01*
X127134628Y-67765095D01*
X126716637Y-68183086D01*
X126706323Y-68207986D01*
X126696009Y-68183086D01*
X126278018Y-67765095D01*
X125731887Y-67538881D01*
X125140759Y-67538881D01*
X124594628Y-67765095D01*
X124176637Y-68183086D01*
X124166323Y-68207986D01*
X124156009Y-68183086D01*
X123738018Y-67765095D01*
X123191887Y-67538881D01*
X122600759Y-67538881D01*
X122054628Y-67765095D01*
X121636637Y-68183086D01*
X121523733Y-68455662D01*
X121235064Y-67758755D01*
X120606349Y-67130040D01*
X120302062Y-67004000D01*
X193308584Y-67004000D01*
X193004297Y-67130040D01*
X192375582Y-67758755D01*
X192035323Y-68580212D01*
X192035323Y-69469350D01*
X192375582Y-70290807D01*
X193004297Y-70919522D01*
X193825754Y-71259781D01*
X194714892Y-71259781D01*
X195536349Y-70919522D01*
X196165064Y-70290807D01*
X196505323Y-69469350D01*
X196505323Y-68580212D01*
X196165064Y-67758755D01*
X195536349Y-67130040D01*
X195232062Y-67004000D01*
X204141000Y-67004000D01*
X204141001Y-119305000D01*
X201583419Y-119305000D01*
X201886349Y-119179522D01*
X202515064Y-118550807D01*
X202855323Y-117729350D01*
X202855323Y-116840212D01*
X202515064Y-116018755D01*
X201886349Y-115390040D01*
X201064892Y-115049781D01*
X200175754Y-115049781D01*
X199354297Y-115390040D01*
X198725582Y-116018755D01*
X198385323Y-116840212D01*
X198385323Y-117729350D01*
X198725582Y-118550807D01*
X199354297Y-119179522D01*
X199657227Y-119305000D01*
X119033419Y-119305000D01*
X119336349Y-119179522D01*
X119965064Y-118550807D01*
X120305323Y-117729350D01*
X120305323Y-116989217D01*
X130554423Y-116989217D01*
X130554423Y-117580345D01*
X130780637Y-118126476D01*
X131198628Y-118544467D01*
X131744759Y-118770681D01*
X132335887Y-118770681D01*
X132882018Y-118544467D01*
X133300009Y-118126476D01*
X133310323Y-118101576D01*
X133320637Y-118126476D01*
X133738628Y-118544467D01*
X134284759Y-118770681D01*
X134875887Y-118770681D01*
X135422018Y-118544467D01*
X135840009Y-118126476D01*
X135850323Y-118101576D01*
X135860637Y-118126476D01*
X136278628Y-118544467D01*
X136824759Y-118770681D01*
X137415887Y-118770681D01*
X137962018Y-118544467D01*
X138380009Y-118126476D01*
X138390323Y-118101576D01*
X138400637Y-118126476D01*
X138818628Y-118544467D01*
X139364759Y-118770681D01*
X139955887Y-118770681D01*
X140502018Y-118544467D01*
X140920009Y-118126476D01*
X140930323Y-118101576D01*
X140940637Y-118126476D01*
X141358628Y-118544467D01*
X141904759Y-118770681D01*
X142495887Y-118770681D01*
X143042018Y-118544467D01*
X143274947Y-118311538D01*
X143351096Y-118495379D01*
X143529724Y-118674008D01*
X143763113Y-118770681D01*
X144454573Y-118770681D01*
X144613323Y-118611931D01*
X144613323Y-117411781D01*
X144867323Y-117411781D01*
X144867323Y-118611931D01*
X145026073Y-118770681D01*
X145717533Y-118770681D01*
X145950922Y-118674008D01*
X146010323Y-118614607D01*
X146069724Y-118674008D01*
X146303113Y-118770681D01*
X146994573Y-118770681D01*
X147153323Y-118611931D01*
X147153323Y-117411781D01*
X144867323Y-117411781D01*
X144613323Y-117411781D01*
X144593323Y-117411781D01*
X144593323Y-117157781D01*
X144613323Y-117157781D01*
X144613323Y-115957631D01*
X144867323Y-115957631D01*
X144867323Y-117157781D01*
X147153323Y-117157781D01*
X147153323Y-115957631D01*
X147407323Y-115957631D01*
X147407323Y-117157781D01*
X147427323Y-117157781D01*
X147427323Y-117411781D01*
X147407323Y-117411781D01*
X147407323Y-118611931D01*
X147566073Y-118770681D01*
X148257533Y-118770681D01*
X148490922Y-118674008D01*
X148669550Y-118495379D01*
X148745699Y-118311538D01*
X148978628Y-118544467D01*
X149524759Y-118770681D01*
X150115887Y-118770681D01*
X150662018Y-118544467D01*
X151080009Y-118126476D01*
X151306223Y-117580345D01*
X151306223Y-116989217D01*
X153414423Y-116989217D01*
X153414423Y-117580345D01*
X153640637Y-118126476D01*
X154058628Y-118544467D01*
X154604759Y-118770681D01*
X155195887Y-118770681D01*
X155742018Y-118544467D01*
X156160009Y-118126476D01*
X156170323Y-118101576D01*
X156180637Y-118126476D01*
X156598628Y-118544467D01*
X157144759Y-118770681D01*
X157735887Y-118770681D01*
X158282018Y-118544467D01*
X158700009Y-118126476D01*
X158710323Y-118101576D01*
X158720637Y-118126476D01*
X159138628Y-118544467D01*
X159684759Y-118770681D01*
X160275887Y-118770681D01*
X160822018Y-118544467D01*
X161240009Y-118126476D01*
X161250323Y-118101576D01*
X161260637Y-118126476D01*
X161678628Y-118544467D01*
X162224759Y-118770681D01*
X162815887Y-118770681D01*
X163362018Y-118544467D01*
X163780009Y-118126476D01*
X163790323Y-118101576D01*
X163800637Y-118126476D01*
X164218628Y-118544467D01*
X164764759Y-118770681D01*
X165355887Y-118770681D01*
X165902018Y-118544467D01*
X166320009Y-118126476D01*
X166330323Y-118101576D01*
X166340637Y-118126476D01*
X166758628Y-118544467D01*
X167304759Y-118770681D01*
X167895887Y-118770681D01*
X168442018Y-118544467D01*
X168860009Y-118126476D01*
X168870323Y-118101576D01*
X168880637Y-118126476D01*
X169298628Y-118544467D01*
X169844759Y-118770681D01*
X170435887Y-118770681D01*
X170982018Y-118544467D01*
X171400009Y-118126476D01*
X171410323Y-118101576D01*
X171420637Y-118126476D01*
X171838628Y-118544467D01*
X172384759Y-118770681D01*
X172975887Y-118770681D01*
X173522018Y-118544467D01*
X173940009Y-118126476D01*
X174166223Y-117580345D01*
X174166223Y-116989217D01*
X176274423Y-116989217D01*
X176274423Y-117580345D01*
X176500637Y-118126476D01*
X176918628Y-118544467D01*
X177464759Y-118770681D01*
X178055887Y-118770681D01*
X178602018Y-118544467D01*
X179020009Y-118126476D01*
X179030323Y-118101576D01*
X179040637Y-118126476D01*
X179458628Y-118544467D01*
X180004759Y-118770681D01*
X180595887Y-118770681D01*
X181142018Y-118544467D01*
X181560009Y-118126476D01*
X181570323Y-118101576D01*
X181580637Y-118126476D01*
X181998628Y-118544467D01*
X182544759Y-118770681D01*
X183135887Y-118770681D01*
X183682018Y-118544467D01*
X184100009Y-118126476D01*
X184110323Y-118101576D01*
X184120637Y-118126476D01*
X184538628Y-118544467D01*
X185084759Y-118770681D01*
X185675887Y-118770681D01*
X186222018Y-118544467D01*
X186640009Y-118126476D01*
X186650323Y-118101576D01*
X186660637Y-118126476D01*
X187078628Y-118544467D01*
X187624759Y-118770681D01*
X188215887Y-118770681D01*
X188762018Y-118544467D01*
X189180009Y-118126476D01*
X189190323Y-118101576D01*
X189200637Y-118126476D01*
X189618628Y-118544467D01*
X190164759Y-118770681D01*
X190755887Y-118770681D01*
X191302018Y-118544467D01*
X191603323Y-118243162D01*
X191904628Y-118544467D01*
X192450759Y-118770681D01*
X193041887Y-118770681D01*
X193588018Y-118544467D01*
X194006009Y-118126476D01*
X194016323Y-118101576D01*
X194026637Y-118126476D01*
X194444628Y-118544467D01*
X194990759Y-118770681D01*
X195581887Y-118770681D01*
X196128018Y-118544467D01*
X196546009Y-118126476D01*
X196772223Y-117580345D01*
X196772223Y-116989217D01*
X196546009Y-116443086D01*
X196128018Y-116025095D01*
X195581887Y-115798881D01*
X194990759Y-115798881D01*
X194444628Y-116025095D01*
X194026637Y-116443086D01*
X194016323Y-116467986D01*
X194006009Y-116443086D01*
X193588018Y-116025095D01*
X193041887Y-115798881D01*
X192450759Y-115798881D01*
X191904628Y-116025095D01*
X191603323Y-116326400D01*
X191302018Y-116025095D01*
X190755887Y-115798881D01*
X190164759Y-115798881D01*
X189618628Y-116025095D01*
X189200637Y-116443086D01*
X189190323Y-116467986D01*
X189180009Y-116443086D01*
X188762018Y-116025095D01*
X188215887Y-115798881D01*
X187624759Y-115798881D01*
X187078628Y-116025095D01*
X186660637Y-116443086D01*
X186650323Y-116467986D01*
X186640009Y-116443086D01*
X186222018Y-116025095D01*
X185675887Y-115798881D01*
X185084759Y-115798881D01*
X184538628Y-116025095D01*
X184120637Y-116443086D01*
X184110323Y-116467986D01*
X184100009Y-116443086D01*
X183682018Y-116025095D01*
X183135887Y-115798881D01*
X182544759Y-115798881D01*
X181998628Y-116025095D01*
X181580637Y-116443086D01*
X181570323Y-116467986D01*
X181560009Y-116443086D01*
X181142018Y-116025095D01*
X180595887Y-115798881D01*
X180004759Y-115798881D01*
X179458628Y-116025095D01*
X179040637Y-116443086D01*
X179030323Y-116467986D01*
X179020009Y-116443086D01*
X178602018Y-116025095D01*
X178055887Y-115798881D01*
X177464759Y-115798881D01*
X176918628Y-116025095D01*
X176500637Y-116443086D01*
X176274423Y-116989217D01*
X174166223Y-116989217D01*
X173940009Y-116443086D01*
X173522018Y-116025095D01*
X172975887Y-115798881D01*
X172384759Y-115798881D01*
X171838628Y-116025095D01*
X171420637Y-116443086D01*
X171410323Y-116467986D01*
X171400009Y-116443086D01*
X170982018Y-116025095D01*
X170435887Y-115798881D01*
X169844759Y-115798881D01*
X169298628Y-116025095D01*
X168880637Y-116443086D01*
X168870323Y-116467986D01*
X168860009Y-116443086D01*
X168442018Y-116025095D01*
X167895887Y-115798881D01*
X167304759Y-115798881D01*
X166758628Y-116025095D01*
X166340637Y-116443086D01*
X166330323Y-116467986D01*
X166320009Y-116443086D01*
X165902018Y-116025095D01*
X165355887Y-115798881D01*
X164764759Y-115798881D01*
X164218628Y-116025095D01*
X163800637Y-116443086D01*
X163790323Y-116467986D01*
X163780009Y-116443086D01*
X163362018Y-116025095D01*
X162815887Y-115798881D01*
X162224759Y-115798881D01*
X161678628Y-116025095D01*
X161260637Y-116443086D01*
X161250323Y-116467986D01*
X161240009Y-116443086D01*
X160822018Y-116025095D01*
X160275887Y-115798881D01*
X159684759Y-115798881D01*
X159138628Y-116025095D01*
X158720637Y-116443086D01*
X158710323Y-116467986D01*
X158700009Y-116443086D01*
X158282018Y-116025095D01*
X157735887Y-115798881D01*
X157144759Y-115798881D01*
X156598628Y-116025095D01*
X156180637Y-116443086D01*
X156170323Y-116467986D01*
X156160009Y-116443086D01*
X155742018Y-116025095D01*
X155195887Y-115798881D01*
X154604759Y-115798881D01*
X154058628Y-116025095D01*
X153640637Y-116443086D01*
X153414423Y-116989217D01*
X151306223Y-116989217D01*
X151080009Y-116443086D01*
X150662018Y-116025095D01*
X150115887Y-115798881D01*
X149524759Y-115798881D01*
X148978628Y-116025095D01*
X148745699Y-116258024D01*
X148669550Y-116074183D01*
X148490922Y-115895554D01*
X148257533Y-115798881D01*
X147566073Y-115798881D01*
X147407323Y-115957631D01*
X147153323Y-115957631D01*
X146994573Y-115798881D01*
X146303113Y-115798881D01*
X146069724Y-115895554D01*
X146010323Y-115954955D01*
X145950922Y-115895554D01*
X145717533Y-115798881D01*
X145026073Y-115798881D01*
X144867323Y-115957631D01*
X144613323Y-115957631D01*
X144454573Y-115798881D01*
X144135565Y-115798881D01*
X144224664Y-115709782D01*
X196343647Y-115709782D01*
X196456218Y-115732174D01*
X196568789Y-115709782D01*
X196568790Y-115709782D01*
X196902194Y-115643464D01*
X197280275Y-115390839D01*
X197344045Y-115295400D01*
X198213620Y-114425826D01*
X198309057Y-114362057D01*
X198561682Y-113983976D01*
X198628000Y-113650572D01*
X198650392Y-113538001D01*
X198628000Y-113425430D01*
X198628000Y-91679572D01*
X198650392Y-91567000D01*
X198628000Y-91454428D01*
X198628000Y-80122570D01*
X198650392Y-80009999D01*
X198614870Y-79831419D01*
X198561682Y-79564024D01*
X198309057Y-79185943D01*
X198213621Y-79122175D01*
X197102827Y-78011382D01*
X197039057Y-77915943D01*
X196660976Y-77663318D01*
X196327572Y-77597000D01*
X196327571Y-77597000D01*
X196215000Y-77574608D01*
X196102429Y-77597000D01*
X195018308Y-77597000D01*
X194828239Y-77470000D01*
X195126625Y-77270625D01*
X195454839Y-76779418D01*
X195570092Y-76200000D01*
X195454839Y-75620582D01*
X195126625Y-75129375D01*
X194844389Y-74940791D01*
X194897185Y-74918922D01*
X195314922Y-74501185D01*
X195541000Y-73955385D01*
X195541000Y-73364615D01*
X195314922Y-72818815D01*
X194897185Y-72401078D01*
X194351385Y-72175000D01*
X193760615Y-72175000D01*
X193214815Y-72401078D01*
X192797078Y-72818815D01*
X192571000Y-73364615D01*
X192571000Y-73955385D01*
X192797078Y-74501185D01*
X193214815Y-74918922D01*
X193267611Y-74940791D01*
X192985375Y-75129375D01*
X192657161Y-75620582D01*
X192541908Y-76200000D01*
X192657161Y-76779418D01*
X192985375Y-77270625D01*
X193283761Y-77470000D01*
X192985375Y-77669375D01*
X192657161Y-78160582D01*
X192541908Y-78740000D01*
X192657161Y-79319418D01*
X192985375Y-79810625D01*
X193007033Y-79825096D01*
X192846302Y-79891673D01*
X192667673Y-80070301D01*
X192571000Y-80303690D01*
X192571000Y-80994250D01*
X192729750Y-81153000D01*
X193929000Y-81153000D01*
X193929000Y-81133000D01*
X194183000Y-81133000D01*
X194183000Y-81153000D01*
X195382250Y-81153000D01*
X195541000Y-80994250D01*
X195541000Y-80303690D01*
X195444327Y-80070301D01*
X195265698Y-79891673D01*
X195244760Y-79883000D01*
X195741555Y-79883000D01*
X196342000Y-80483446D01*
X196342001Y-90424000D01*
X195626390Y-90424000D01*
X195307153Y-90360500D01*
X195307152Y-90360500D01*
X195194581Y-90338108D01*
X195082010Y-90360500D01*
X194954808Y-90360500D01*
X194764739Y-90233500D01*
X195063125Y-90034125D01*
X195391339Y-89542918D01*
X195506592Y-88963500D01*
X195391339Y-88384082D01*
X195063125Y-87892875D01*
X194764739Y-87693500D01*
X195063125Y-87494125D01*
X195391339Y-87002918D01*
X195506592Y-86423500D01*
X195391339Y-85844082D01*
X195063125Y-85352875D01*
X195044881Y-85340684D01*
X195090265Y-85331657D01*
X195300309Y-85191309D01*
X195440657Y-84981265D01*
X195489940Y-84733500D01*
X195489940Y-83033500D01*
X195440657Y-82785735D01*
X195323551Y-82610475D01*
X195444327Y-82489699D01*
X195541000Y-82256310D01*
X195541000Y-81565750D01*
X195382250Y-81407000D01*
X194183000Y-81407000D01*
X194183000Y-81427000D01*
X193929000Y-81427000D01*
X193929000Y-81407000D01*
X192729750Y-81407000D01*
X192571000Y-81565750D01*
X192571000Y-82256310D01*
X192667673Y-82489699D01*
X192726038Y-82548064D01*
X192684691Y-82575691D01*
X192544343Y-82785735D01*
X192495060Y-83033500D01*
X192495060Y-84733500D01*
X192544343Y-84981265D01*
X192684691Y-85191309D01*
X192894735Y-85331657D01*
X192940119Y-85340684D01*
X192921875Y-85352875D01*
X192593661Y-85844082D01*
X192478408Y-86423500D01*
X192593661Y-87002918D01*
X192921875Y-87494125D01*
X193220261Y-87693500D01*
X192921875Y-87892875D01*
X192593661Y-88384082D01*
X192478408Y-88963500D01*
X192593661Y-89542918D01*
X192921875Y-90034125D01*
X193220261Y-90233500D01*
X192921875Y-90432875D01*
X192593661Y-90924082D01*
X192478408Y-91503500D01*
X192593661Y-92082918D01*
X192921875Y-92574125D01*
X192943533Y-92588596D01*
X192782802Y-92655173D01*
X192604173Y-92833801D01*
X192507500Y-93067190D01*
X192507500Y-93757750D01*
X192666250Y-93916500D01*
X193865500Y-93916500D01*
X193865500Y-93896500D01*
X194119500Y-93896500D01*
X194119500Y-93916500D01*
X195318750Y-93916500D01*
X195477500Y-93757750D01*
X195477500Y-93067190D01*
X195380827Y-92833801D01*
X195275877Y-92728852D01*
X195370653Y-92710000D01*
X196342000Y-92710000D01*
X196342001Y-113064553D01*
X195982773Y-113423782D01*
X172054542Y-113423782D01*
X172375323Y-112649350D01*
X172375323Y-111760212D01*
X172035064Y-110938755D01*
X171406349Y-110310040D01*
X170584892Y-109969781D01*
X169695754Y-109969781D01*
X168874297Y-110310040D01*
X168245582Y-110938755D01*
X167905323Y-111760212D01*
X167905323Y-112649350D01*
X168226104Y-113423782D01*
X143863790Y-113423782D01*
X143751218Y-113401390D01*
X143305241Y-113490100D01*
X143176314Y-113576247D01*
X142927161Y-113742725D01*
X142863394Y-113838160D01*
X141636865Y-115064690D01*
X141365144Y-115246248D01*
X141112519Y-115624328D01*
X141023808Y-116070304D01*
X141057323Y-116238794D01*
X141057323Y-116326400D01*
X140940637Y-116443086D01*
X140930323Y-116467986D01*
X140920009Y-116443086D01*
X140502018Y-116025095D01*
X139955887Y-115798881D01*
X139364759Y-115798881D01*
X138818628Y-116025095D01*
X138400637Y-116443086D01*
X138390323Y-116467986D01*
X138380009Y-116443086D01*
X137962018Y-116025095D01*
X137415887Y-115798881D01*
X136824759Y-115798881D01*
X136278628Y-116025095D01*
X135860637Y-116443086D01*
X135850323Y-116467986D01*
X135840009Y-116443086D01*
X135422018Y-116025095D01*
X134875887Y-115798881D01*
X134284759Y-115798881D01*
X133738628Y-116025095D01*
X133320637Y-116443086D01*
X133310323Y-116467986D01*
X133300009Y-116443086D01*
X132882018Y-116025095D01*
X132335887Y-115798881D01*
X131744759Y-115798881D01*
X131198628Y-116025095D01*
X130780637Y-116443086D01*
X130554423Y-116989217D01*
X120305323Y-116989217D01*
X120305323Y-116840212D01*
X119965064Y-116018755D01*
X119336349Y-115390040D01*
X118514892Y-115049781D01*
X117625754Y-115049781D01*
X116804297Y-115390040D01*
X116407000Y-115787337D01*
X116407000Y-107473750D01*
X118427500Y-107473750D01*
X118427500Y-108266809D01*
X118524173Y-108500198D01*
X118702801Y-108678827D01*
X118936190Y-108775500D01*
X119729250Y-108775500D01*
X119888000Y-108616750D01*
X119888000Y-107315000D01*
X120142000Y-107315000D01*
X120142000Y-108616750D01*
X120300750Y-108775500D01*
X121093810Y-108775500D01*
X121327199Y-108678827D01*
X121505827Y-108500198D01*
X121602500Y-108266809D01*
X121602500Y-107473750D01*
X121443750Y-107315000D01*
X120142000Y-107315000D01*
X119888000Y-107315000D01*
X118586250Y-107315000D01*
X118427500Y-107473750D01*
X116407000Y-107473750D01*
X116407000Y-106109191D01*
X118427500Y-106109191D01*
X118427500Y-106902250D01*
X118586250Y-107061000D01*
X119888000Y-107061000D01*
X119888000Y-105759250D01*
X120142000Y-105759250D01*
X120142000Y-107061000D01*
X121443750Y-107061000D01*
X121602500Y-106902250D01*
X121602500Y-106109191D01*
X121505827Y-105875802D01*
X121327199Y-105697173D01*
X121093810Y-105600500D01*
X120300750Y-105600500D01*
X120142000Y-105759250D01*
X119888000Y-105759250D01*
X119729250Y-105600500D01*
X118936190Y-105600500D01*
X118702801Y-105697173D01*
X118524173Y-105875802D01*
X118427500Y-106109191D01*
X116407000Y-106109191D01*
X116407000Y-101792227D01*
X118427500Y-101792227D01*
X118427500Y-102423773D01*
X118669182Y-103007247D01*
X119115753Y-103453818D01*
X119699227Y-103695500D01*
X120330773Y-103695500D01*
X120914247Y-103453818D01*
X121360818Y-103007247D01*
X121602500Y-102423773D01*
X121602500Y-102108000D01*
X127771908Y-102108000D01*
X127887161Y-102687418D01*
X128215375Y-103178625D01*
X128513761Y-103378000D01*
X128215375Y-103577375D01*
X127887161Y-104068582D01*
X127771908Y-104648000D01*
X127887161Y-105227418D01*
X128215375Y-105718625D01*
X128497611Y-105907209D01*
X128444815Y-105929078D01*
X128027078Y-106346815D01*
X127801000Y-106892615D01*
X127801000Y-107483385D01*
X128027078Y-108029185D01*
X128444815Y-108446922D01*
X128990615Y-108673000D01*
X129581385Y-108673000D01*
X130127185Y-108446922D01*
X130544922Y-108029185D01*
X130771000Y-107483385D01*
X130771000Y-106892615D01*
X130544922Y-106346815D01*
X130127185Y-105929078D01*
X130074389Y-105907209D01*
X130356625Y-105718625D01*
X130684839Y-105227418D01*
X130800092Y-104648000D01*
X130684839Y-104068582D01*
X130356625Y-103577375D01*
X130058239Y-103378000D01*
X130356625Y-103178625D01*
X130684839Y-102687418D01*
X130800092Y-102108000D01*
X130684839Y-101528582D01*
X130356625Y-101037375D01*
X130334967Y-101022904D01*
X130495698Y-100956327D01*
X130674327Y-100777699D01*
X130771000Y-100544310D01*
X130771000Y-99853750D01*
X130612250Y-99695000D01*
X129413000Y-99695000D01*
X129413000Y-99715000D01*
X129159000Y-99715000D01*
X129159000Y-99695000D01*
X127959750Y-99695000D01*
X127801000Y-99853750D01*
X127801000Y-100544310D01*
X127897673Y-100777699D01*
X128076302Y-100956327D01*
X128237033Y-101022904D01*
X128215375Y-101037375D01*
X127887161Y-101528582D01*
X127771908Y-102108000D01*
X121602500Y-102108000D01*
X121602500Y-101792227D01*
X121360818Y-101208753D01*
X120914247Y-100762182D01*
X120330773Y-100520500D01*
X119699227Y-100520500D01*
X119115753Y-100762182D01*
X118669182Y-101208753D01*
X118427500Y-101792227D01*
X116407000Y-101792227D01*
X116407000Y-82423000D01*
X116436608Y-82423000D01*
X116459001Y-82535576D01*
X116459000Y-91073429D01*
X116436608Y-91186000D01*
X116459000Y-91298571D01*
X116525318Y-91631975D01*
X116777943Y-92010057D01*
X116873382Y-92073827D01*
X120016175Y-95216620D01*
X120079943Y-95312057D01*
X120272172Y-95440500D01*
X119699227Y-95440500D01*
X119115753Y-95682182D01*
X118669182Y-96128753D01*
X118427500Y-96712227D01*
X118427500Y-97343773D01*
X118669182Y-97927247D01*
X119115753Y-98373818D01*
X119699227Y-98615500D01*
X120330773Y-98615500D01*
X120388255Y-98591690D01*
X127801000Y-98591690D01*
X127801000Y-99282250D01*
X127959750Y-99441000D01*
X129159000Y-99441000D01*
X129159000Y-98241750D01*
X129413000Y-98241750D01*
X129413000Y-99441000D01*
X130612250Y-99441000D01*
X130771000Y-99282250D01*
X130771000Y-98591690D01*
X130674327Y-98358301D01*
X130495698Y-98179673D01*
X130262309Y-98083000D01*
X129571750Y-98083000D01*
X129413000Y-98241750D01*
X129159000Y-98241750D01*
X129000250Y-98083000D01*
X128309691Y-98083000D01*
X128076302Y-98179673D01*
X127897673Y-98358301D01*
X127801000Y-98591690D01*
X120388255Y-98591690D01*
X120914247Y-98373818D01*
X121360818Y-97927247D01*
X121602500Y-97343773D01*
X121602500Y-96712227D01*
X121360818Y-96128753D01*
X120914247Y-95682182D01*
X120789993Y-95630715D01*
X120791428Y-95631000D01*
X120903999Y-95653392D01*
X121016570Y-95631000D01*
X138176001Y-95631000D01*
X138176000Y-96883794D01*
X138176000Y-97229062D01*
X138068135Y-97301135D01*
X137684666Y-97875037D01*
X137550010Y-98552000D01*
X137684666Y-99228963D01*
X138068135Y-99802865D01*
X138642037Y-100186334D01*
X139148120Y-100287000D01*
X139489880Y-100287000D01*
X139995963Y-100186334D01*
X140569865Y-99802865D01*
X140953334Y-99228963D01*
X141087990Y-98552000D01*
X141019343Y-98206887D01*
X147744000Y-98206887D01*
X147744000Y-98897113D01*
X148008138Y-99534799D01*
X148496201Y-100022862D01*
X149133887Y-100287000D01*
X149824113Y-100287000D01*
X150461799Y-100022862D01*
X150949862Y-99534799D01*
X151214000Y-98897113D01*
X151214000Y-98206887D01*
X150949862Y-97569201D01*
X150461799Y-97081138D01*
X149824113Y-96817000D01*
X149133887Y-96817000D01*
X148496201Y-97081138D01*
X148008138Y-97569201D01*
X147744000Y-98206887D01*
X141019343Y-98206887D01*
X140953334Y-97875037D01*
X140569865Y-97301135D01*
X140462000Y-97229062D01*
X140462000Y-95631000D01*
X144921429Y-95631000D01*
X145034000Y-95653392D01*
X145146571Y-95631000D01*
X145146572Y-95631000D01*
X145479976Y-95564682D01*
X145819230Y-95338000D01*
X146091385Y-95338000D01*
X146637185Y-95111922D01*
X147054922Y-94694185D01*
X147281000Y-94148385D01*
X147281000Y-93948561D01*
X150457000Y-93948561D01*
X150457000Y-94519439D01*
X150675466Y-95046862D01*
X151079138Y-95450534D01*
X151606561Y-95669000D01*
X152177439Y-95669000D01*
X152704862Y-95450534D01*
X153108534Y-95046862D01*
X153327000Y-94519439D01*
X153327000Y-93948561D01*
X153108534Y-93421138D01*
X152704862Y-93017466D01*
X152177439Y-92799000D01*
X151606561Y-92799000D01*
X151079138Y-93017466D01*
X150675466Y-93421138D01*
X150457000Y-93948561D01*
X147281000Y-93948561D01*
X147281000Y-93557615D01*
X147054922Y-93011815D01*
X146637185Y-92594078D01*
X146584389Y-92572209D01*
X146650926Y-92527750D01*
X158077000Y-92527750D01*
X158077000Y-93168309D01*
X158173673Y-93401698D01*
X158352301Y-93580327D01*
X158558759Y-93665845D01*
X158295466Y-93929138D01*
X158077000Y-94456561D01*
X158077000Y-95027439D01*
X158295466Y-95554862D01*
X158686501Y-95945897D01*
X158686500Y-108072393D01*
X158316578Y-108442315D01*
X158090500Y-108988115D01*
X158090500Y-109578885D01*
X158316578Y-110124685D01*
X158734315Y-110542422D01*
X159280115Y-110768500D01*
X159870885Y-110768500D01*
X160416685Y-110542422D01*
X160834422Y-110124685D01*
X160845500Y-110097940D01*
X160856578Y-110124685D01*
X161274315Y-110542422D01*
X161820115Y-110768500D01*
X162410885Y-110768500D01*
X162956685Y-110542422D01*
X163374422Y-110124685D01*
X163600500Y-109578885D01*
X163600500Y-108988115D01*
X163374422Y-108442315D01*
X162956685Y-108024578D01*
X162410885Y-107798500D01*
X161820115Y-107798500D01*
X161274315Y-108024578D01*
X160856578Y-108442315D01*
X160845500Y-108469060D01*
X160834422Y-108442315D01*
X160464500Y-108072393D01*
X160464500Y-95818896D01*
X160728534Y-95554862D01*
X160947000Y-95027439D01*
X160947000Y-94456561D01*
X160728534Y-93929138D01*
X160465241Y-93665845D01*
X160671699Y-93580327D01*
X160850327Y-93401698D01*
X160947000Y-93168309D01*
X160947000Y-92527750D01*
X160788250Y-92369000D01*
X159639000Y-92369000D01*
X159639000Y-92389000D01*
X159385000Y-92389000D01*
X159385000Y-92369000D01*
X158235750Y-92369000D01*
X158077000Y-92527750D01*
X146650926Y-92527750D01*
X146866625Y-92383625D01*
X147194839Y-91892418D01*
X147309556Y-91315691D01*
X158077000Y-91315691D01*
X158077000Y-91956250D01*
X158235750Y-92115000D01*
X159385000Y-92115000D01*
X159385000Y-90965750D01*
X159639000Y-90965750D01*
X159639000Y-92115000D01*
X160788250Y-92115000D01*
X160947000Y-91956250D01*
X160947000Y-91315691D01*
X160850327Y-91082302D01*
X160671699Y-90903673D01*
X160438310Y-90807000D01*
X159797750Y-90807000D01*
X159639000Y-90965750D01*
X159385000Y-90965750D01*
X159226250Y-90807000D01*
X158585690Y-90807000D01*
X158352301Y-90903673D01*
X158173673Y-91082302D01*
X158077000Y-91315691D01*
X147309556Y-91315691D01*
X147310092Y-91313000D01*
X147194839Y-90733582D01*
X146866625Y-90242375D01*
X146568239Y-90043000D01*
X146866625Y-89843625D01*
X147194839Y-89352418D01*
X147310092Y-88773000D01*
X147283190Y-88637750D01*
X158077000Y-88637750D01*
X158077000Y-89278309D01*
X158173673Y-89511698D01*
X158352301Y-89690327D01*
X158585690Y-89787000D01*
X159226250Y-89787000D01*
X159385000Y-89628250D01*
X159385000Y-88479000D01*
X159639000Y-88479000D01*
X159639000Y-89628250D01*
X159797750Y-89787000D01*
X160438310Y-89787000D01*
X160671699Y-89690327D01*
X160850327Y-89511698D01*
X160947000Y-89278309D01*
X160947000Y-88637750D01*
X160788250Y-88479000D01*
X159639000Y-88479000D01*
X159385000Y-88479000D01*
X158235750Y-88479000D01*
X158077000Y-88637750D01*
X147283190Y-88637750D01*
X147194839Y-88193582D01*
X146866625Y-87702375D01*
X146844967Y-87687904D01*
X147005698Y-87621327D01*
X147184327Y-87442699D01*
X147281000Y-87209310D01*
X147281000Y-86518750D01*
X147122250Y-86360000D01*
X145923000Y-86360000D01*
X145923000Y-86380000D01*
X145669000Y-86380000D01*
X145669000Y-86360000D01*
X144469750Y-86360000D01*
X144311000Y-86518750D01*
X144311000Y-87209310D01*
X144407673Y-87442699D01*
X144586302Y-87621327D01*
X144747033Y-87687904D01*
X144725375Y-87702375D01*
X144397161Y-88193582D01*
X144281908Y-88773000D01*
X144397161Y-89352418D01*
X144725375Y-89843625D01*
X145023761Y-90043000D01*
X144725375Y-90242375D01*
X144397161Y-90733582D01*
X144281908Y-91313000D01*
X144397161Y-91892418D01*
X144725375Y-92383625D01*
X145007611Y-92572209D01*
X144954815Y-92594078D01*
X144537078Y-93011815D01*
X144399068Y-93345000D01*
X139431572Y-93345000D01*
X139319000Y-93322608D01*
X139206428Y-93345000D01*
X121377446Y-93345000D01*
X119789945Y-91757500D01*
X120330773Y-91757500D01*
X120914247Y-91515818D01*
X121360818Y-91069247D01*
X121602500Y-90485773D01*
X121602500Y-90297000D01*
X127437343Y-90297000D01*
X127085680Y-90648663D01*
X126873000Y-91162119D01*
X126873000Y-91717881D01*
X127085680Y-92231337D01*
X127478663Y-92624320D01*
X127992119Y-92837000D01*
X128547881Y-92837000D01*
X129061337Y-92624320D01*
X129454320Y-92231337D01*
X129540000Y-92024487D01*
X129625680Y-92231337D01*
X130018663Y-92624320D01*
X130532119Y-92837000D01*
X131087881Y-92837000D01*
X131601337Y-92624320D01*
X131953000Y-92272657D01*
X131953000Y-92328310D01*
X132049673Y-92561699D01*
X132228302Y-92740327D01*
X132461691Y-92837000D01*
X133064250Y-92837000D01*
X133223000Y-92678250D01*
X133223000Y-91567000D01*
X133203000Y-91567000D01*
X133203000Y-91313000D01*
X133223000Y-91313000D01*
X133223000Y-91293000D01*
X133477000Y-91293000D01*
X133477000Y-91313000D01*
X133497000Y-91313000D01*
X133497000Y-91567000D01*
X133477000Y-91567000D01*
X133477000Y-92678250D01*
X133635750Y-92837000D01*
X134238309Y-92837000D01*
X134471698Y-92740327D01*
X134650327Y-92561699D01*
X134747000Y-92328310D01*
X134747000Y-92272657D01*
X135098663Y-92624320D01*
X135612119Y-92837000D01*
X136167881Y-92837000D01*
X136681337Y-92624320D01*
X137074320Y-92231337D01*
X137160000Y-92024487D01*
X137245680Y-92231337D01*
X137638663Y-92624320D01*
X138152119Y-92837000D01*
X138707881Y-92837000D01*
X139221337Y-92624320D01*
X139573000Y-92272657D01*
X139573000Y-92328310D01*
X139669673Y-92561699D01*
X139848302Y-92740327D01*
X140081691Y-92837000D01*
X140684250Y-92837000D01*
X140843000Y-92678250D01*
X140843000Y-91567000D01*
X141097000Y-91567000D01*
X141097000Y-92678250D01*
X141255750Y-92837000D01*
X141858309Y-92837000D01*
X142091698Y-92740327D01*
X142270327Y-92561699D01*
X142367000Y-92328310D01*
X142367000Y-91725750D01*
X142208250Y-91567000D01*
X141097000Y-91567000D01*
X140843000Y-91567000D01*
X140823000Y-91567000D01*
X140823000Y-91313000D01*
X140843000Y-91313000D01*
X140843000Y-90201750D01*
X141097000Y-90201750D01*
X141097000Y-91313000D01*
X142208250Y-91313000D01*
X142367000Y-91154250D01*
X142367000Y-90551690D01*
X142270327Y-90318301D01*
X142091698Y-90139673D01*
X141858309Y-90043000D01*
X141255750Y-90043000D01*
X141097000Y-90201750D01*
X140843000Y-90201750D01*
X140684250Y-90043000D01*
X140081691Y-90043000D01*
X139848302Y-90139673D01*
X139669673Y-90318301D01*
X139573000Y-90551690D01*
X139573000Y-90607343D01*
X139221337Y-90255680D01*
X138707881Y-90043000D01*
X138152119Y-90043000D01*
X137638663Y-90255680D01*
X137245680Y-90648663D01*
X137160000Y-90855513D01*
X137074320Y-90648663D01*
X137033000Y-90607343D01*
X137033000Y-89266572D01*
X137055392Y-89154000D01*
X137033000Y-89041428D01*
X137033000Y-87192657D01*
X137074320Y-87151337D01*
X137160000Y-86944487D01*
X137245680Y-87151337D01*
X137638663Y-87544320D01*
X138152119Y-87757000D01*
X138707881Y-87757000D01*
X139221337Y-87544320D01*
X139614320Y-87151337D01*
X139700000Y-86944487D01*
X139785680Y-87151337D01*
X140178663Y-87544320D01*
X140692119Y-87757000D01*
X141247881Y-87757000D01*
X141761337Y-87544320D01*
X142154320Y-87151337D01*
X142367000Y-86637881D01*
X142367000Y-86220235D01*
X143330545Y-85256690D01*
X144311000Y-85256690D01*
X144311000Y-85947250D01*
X144469750Y-86106000D01*
X145669000Y-86106000D01*
X145669000Y-84906750D01*
X145923000Y-84906750D01*
X145923000Y-86106000D01*
X147122250Y-86106000D01*
X147281000Y-85947250D01*
X147281000Y-85256690D01*
X147184327Y-85023301D01*
X147005698Y-84844673D01*
X146772309Y-84748000D01*
X146081750Y-84748000D01*
X145923000Y-84906750D01*
X145669000Y-84906750D01*
X145510250Y-84748000D01*
X144819691Y-84748000D01*
X144586302Y-84844673D01*
X144407673Y-85023301D01*
X144311000Y-85256690D01*
X143330545Y-85256690D01*
X143822707Y-84764529D01*
X143896933Y-84714933D01*
X144093419Y-84420870D01*
X144145000Y-84161556D01*
X144145000Y-84161552D01*
X144162415Y-84074001D01*
X144145000Y-83986450D01*
X144145000Y-82430000D01*
X144586887Y-82430000D01*
X144698260Y-82989909D01*
X145015423Y-83464577D01*
X145490091Y-83781740D01*
X145908667Y-83865000D01*
X146191333Y-83865000D01*
X146609909Y-83781740D01*
X147084577Y-83464577D01*
X147401740Y-82989909D01*
X147513113Y-82430000D01*
X147478192Y-82254436D01*
X150279100Y-82254436D01*
X150279100Y-82845564D01*
X150505314Y-83391695D01*
X150876000Y-83762381D01*
X150876001Y-85567010D01*
X150857423Y-85579423D01*
X150540260Y-86054091D01*
X150428887Y-86614000D01*
X150540260Y-87173909D01*
X150857423Y-87648577D01*
X151332091Y-87965740D01*
X151750667Y-88049000D01*
X152033333Y-88049000D01*
X152451909Y-87965740D01*
X152926577Y-87648577D01*
X153243740Y-87173909D01*
X153355113Y-86614000D01*
X153243740Y-86054091D01*
X152926577Y-85579423D01*
X152907328Y-85566561D01*
X158077000Y-85566561D01*
X158077000Y-86137439D01*
X158295466Y-86664862D01*
X158558759Y-86928155D01*
X158352301Y-87013673D01*
X158173673Y-87192302D01*
X158077000Y-87425691D01*
X158077000Y-88066250D01*
X158235750Y-88225000D01*
X159385000Y-88225000D01*
X159385000Y-88205000D01*
X159639000Y-88205000D01*
X159639000Y-88225000D01*
X160788250Y-88225000D01*
X160947000Y-88066250D01*
X160947000Y-87425691D01*
X160850327Y-87192302D01*
X160671699Y-87013673D01*
X160465241Y-86928155D01*
X160728534Y-86664862D01*
X160947000Y-86137439D01*
X160947000Y-85566561D01*
X160728534Y-85039138D01*
X160324862Y-84635466D01*
X159797439Y-84417000D01*
X159226561Y-84417000D01*
X158699138Y-84635466D01*
X158295466Y-85039138D01*
X158077000Y-85566561D01*
X152907328Y-85566561D01*
X152654000Y-85397293D01*
X152654000Y-83762381D01*
X152839624Y-83576757D01*
X152915773Y-83760598D01*
X153094401Y-83939227D01*
X153327790Y-84035900D01*
X154019250Y-84035900D01*
X154178000Y-83877150D01*
X154178000Y-82677000D01*
X154158000Y-82677000D01*
X154158000Y-82423000D01*
X154178000Y-82423000D01*
X154178000Y-81222850D01*
X154432000Y-81222850D01*
X154432000Y-82423000D01*
X154452000Y-82423000D01*
X154452000Y-82677000D01*
X154432000Y-82677000D01*
X154432000Y-83877150D01*
X154590750Y-84035900D01*
X155282210Y-84035900D01*
X155515599Y-83939227D01*
X155694227Y-83760598D01*
X155770376Y-83576757D01*
X156003305Y-83809686D01*
X156549436Y-84035900D01*
X157140564Y-84035900D01*
X157686695Y-83809686D01*
X158104686Y-83391695D01*
X158330900Y-82845564D01*
X158330900Y-82254436D01*
X158104686Y-81708305D01*
X157686695Y-81290314D01*
X157140564Y-81064100D01*
X156549436Y-81064100D01*
X156003305Y-81290314D01*
X155770376Y-81523243D01*
X155694227Y-81339402D01*
X155515599Y-81160773D01*
X155282210Y-81064100D01*
X154590750Y-81064100D01*
X154432000Y-81222850D01*
X154178000Y-81222850D01*
X154019250Y-81064100D01*
X153327790Y-81064100D01*
X153094401Y-81160773D01*
X152915773Y-81339402D01*
X152839624Y-81523243D01*
X152606695Y-81290314D01*
X152060564Y-81064100D01*
X151469436Y-81064100D01*
X150923305Y-81290314D01*
X150505314Y-81708305D01*
X150279100Y-82254436D01*
X147478192Y-82254436D01*
X147401740Y-81870091D01*
X147084577Y-81395423D01*
X146609909Y-81078260D01*
X146191333Y-80995000D01*
X145908667Y-80995000D01*
X145490091Y-81078260D01*
X145015423Y-81395423D01*
X144698260Y-81870091D01*
X144586887Y-82430000D01*
X144145000Y-82430000D01*
X144145000Y-70197485D01*
X144476009Y-69866476D01*
X144486323Y-69841576D01*
X144496637Y-69866476D01*
X144851299Y-70221138D01*
X144849907Y-70228135D01*
X144907000Y-70515157D01*
X144907001Y-71540441D01*
X144907000Y-71540445D01*
X144907000Y-71603945D01*
X144889584Y-71691500D01*
X144907000Y-71779055D01*
X144907000Y-71779056D01*
X144958581Y-72038370D01*
X145155067Y-72332433D01*
X145229296Y-72382031D01*
X146347091Y-73499827D01*
X146335439Y-73495000D01*
X145764561Y-73495000D01*
X145237138Y-73713466D01*
X144833466Y-74117138D01*
X144615000Y-74644561D01*
X144615000Y-75215439D01*
X144833466Y-75742862D01*
X145237138Y-76146534D01*
X145764561Y-76365000D01*
X146335439Y-76365000D01*
X146862862Y-76146534D01*
X147266534Y-75742862D01*
X147485000Y-75215439D01*
X147485000Y-74644561D01*
X147480174Y-74632909D01*
X152468293Y-79621029D01*
X152688129Y-79767918D01*
X152733643Y-79776971D01*
X152815130Y-79831419D01*
X153074444Y-79883000D01*
X160159765Y-79883000D01*
X162433001Y-82156237D01*
X162433000Y-85781713D01*
X162433001Y-85781718D01*
X162433000Y-96940445D01*
X162415584Y-97028000D01*
X162433000Y-97115555D01*
X162484581Y-97374869D01*
X162681067Y-97668933D01*
X162755296Y-97718531D01*
X172537471Y-107500707D01*
X172587067Y-107574933D01*
X172661293Y-107624529D01*
X172881129Y-107771419D01*
X173228000Y-107840416D01*
X173315556Y-107823000D01*
X179144652Y-107823000D01*
X179241923Y-107968577D01*
X179716591Y-108285740D01*
X180135167Y-108369000D01*
X180417833Y-108369000D01*
X180836409Y-108285740D01*
X181311077Y-107968577D01*
X181628240Y-107493909D01*
X181739613Y-106934000D01*
X181628240Y-106374091D01*
X181311077Y-105899423D01*
X180836409Y-105582260D01*
X180417833Y-105499000D01*
X180135167Y-105499000D01*
X179716591Y-105582260D01*
X179241923Y-105899423D01*
X179144652Y-106045000D01*
X173596236Y-106045000D01*
X164211000Y-96659765D01*
X164211000Y-83820212D01*
X167905323Y-83820212D01*
X167905323Y-84709350D01*
X168245582Y-85530807D01*
X168874297Y-86159522D01*
X169695754Y-86499781D01*
X170584892Y-86499781D01*
X171406349Y-86159522D01*
X172035064Y-85530807D01*
X172375323Y-84709350D01*
X172375323Y-83820212D01*
X172035064Y-82998755D01*
X171406349Y-82370040D01*
X170584892Y-82029781D01*
X169695754Y-82029781D01*
X168874297Y-82370040D01*
X168245582Y-82998755D01*
X167905323Y-83820212D01*
X164211000Y-83820212D01*
X164211000Y-81875555D01*
X164228416Y-81788000D01*
X164209793Y-81694378D01*
X164159419Y-81441130D01*
X163962933Y-81147067D01*
X163888707Y-81097471D01*
X161218531Y-78427296D01*
X161168933Y-78353067D01*
X160874870Y-78156581D01*
X160615556Y-78105000D01*
X160615555Y-78105000D01*
X160528000Y-78087584D01*
X160440445Y-78105000D01*
X153466736Y-78105000D01*
X152958736Y-77597000D01*
X156503445Y-77597000D01*
X156591000Y-77614416D01*
X156678555Y-77597000D01*
X156678556Y-77597000D01*
X156937870Y-77545419D01*
X157231933Y-77348933D01*
X157281531Y-77274704D01*
X157411704Y-77144531D01*
X157485933Y-77094933D01*
X157682419Y-76800870D01*
X157734000Y-76541556D01*
X157734000Y-76541552D01*
X157751415Y-76454001D01*
X157734000Y-76366450D01*
X157734000Y-76142381D01*
X158057381Y-75819000D01*
X179109445Y-75819000D01*
X179197000Y-75836416D01*
X179284555Y-75819000D01*
X179284556Y-75819000D01*
X179543870Y-75767419D01*
X179837933Y-75570933D01*
X179887531Y-75496704D01*
X183573707Y-71810529D01*
X183647933Y-71760933D01*
X183795259Y-71540444D01*
X183844419Y-71466871D01*
X183913416Y-71120000D01*
X183896000Y-71032444D01*
X183896000Y-70070485D01*
X184100009Y-69866476D01*
X184110323Y-69841576D01*
X184120637Y-69866476D01*
X184404001Y-70149840D01*
X184404000Y-108878445D01*
X184386584Y-108966000D01*
X184404000Y-109053555D01*
X184455581Y-109312869D01*
X184652067Y-109606933D01*
X184726296Y-109656531D01*
X187396470Y-112326706D01*
X187446067Y-112400933D01*
X187740130Y-112597419D01*
X187999444Y-112649000D01*
X187999445Y-112649000D01*
X188087000Y-112666416D01*
X188174555Y-112649000D01*
X192457676Y-112649000D01*
X192570549Y-112724419D01*
X192829863Y-112776000D01*
X192829864Y-112776000D01*
X192917418Y-112793416D01*
X192936604Y-112789600D01*
X193048875Y-112957625D01*
X193540082Y-113285839D01*
X193973244Y-113372000D01*
X194265756Y-113372000D01*
X194698918Y-113285839D01*
X195190125Y-112957625D01*
X195518339Y-112466418D01*
X195633592Y-111887000D01*
X195518339Y-111307582D01*
X195190125Y-110816375D01*
X195168467Y-110801904D01*
X195329198Y-110735327D01*
X195507827Y-110556699D01*
X195604500Y-110323310D01*
X195604500Y-109632750D01*
X195445750Y-109474000D01*
X194246500Y-109474000D01*
X194246500Y-109494000D01*
X193992500Y-109494000D01*
X193992500Y-109474000D01*
X192793250Y-109474000D01*
X192634500Y-109632750D01*
X192634500Y-110323310D01*
X192731173Y-110556699D01*
X192909802Y-110735327D01*
X193070533Y-110801904D01*
X193048875Y-110816375D01*
X192996608Y-110894598D01*
X192877975Y-110871000D01*
X192877974Y-110871000D01*
X192790419Y-110853584D01*
X192702864Y-110871000D01*
X188455236Y-110871000D01*
X186182000Y-108597765D01*
X186182000Y-106648561D01*
X186461500Y-106648561D01*
X186461500Y-107219439D01*
X186679966Y-107746862D01*
X187083638Y-108150534D01*
X187611061Y-108369000D01*
X188181939Y-108369000D01*
X188709362Y-108150534D01*
X189036896Y-107823000D01*
X192927517Y-107823000D01*
X192994679Y-107923516D01*
X192909802Y-107958673D01*
X192731173Y-108137301D01*
X192634500Y-108370690D01*
X192634500Y-109061250D01*
X192793250Y-109220000D01*
X193992500Y-109220000D01*
X193992500Y-109200000D01*
X194246500Y-109200000D01*
X194246500Y-109220000D01*
X195445750Y-109220000D01*
X195604500Y-109061250D01*
X195604500Y-108370690D01*
X195507827Y-108137301D01*
X195329198Y-107958673D01*
X195244321Y-107923516D01*
X195518339Y-107513418D01*
X195633592Y-106934000D01*
X195518339Y-106354582D01*
X195190125Y-105863375D01*
X195168467Y-105848904D01*
X195329198Y-105782327D01*
X195507827Y-105603699D01*
X195604500Y-105370310D01*
X195604500Y-104679750D01*
X195445750Y-104521000D01*
X194246500Y-104521000D01*
X194246500Y-104541000D01*
X193992500Y-104541000D01*
X193992500Y-104521000D01*
X192793250Y-104521000D01*
X192634500Y-104679750D01*
X192634500Y-105370310D01*
X192731173Y-105603699D01*
X192909802Y-105782327D01*
X193070533Y-105848904D01*
X193048875Y-105863375D01*
X192927517Y-106045000D01*
X189036896Y-106045000D01*
X188709362Y-105717466D01*
X188181939Y-105499000D01*
X187611061Y-105499000D01*
X187083638Y-105717466D01*
X186679966Y-106121138D01*
X186461500Y-106648561D01*
X186182000Y-106648561D01*
X186182000Y-101727000D01*
X192605408Y-101727000D01*
X192720661Y-102306418D01*
X193048875Y-102797625D01*
X193215559Y-102909000D01*
X193143191Y-102909000D01*
X192909802Y-103005673D01*
X192731173Y-103184301D01*
X192634500Y-103417690D01*
X192634500Y-104108250D01*
X192793250Y-104267000D01*
X193992500Y-104267000D01*
X193992500Y-104247000D01*
X194246500Y-104247000D01*
X194246500Y-104267000D01*
X195445750Y-104267000D01*
X195604500Y-104108250D01*
X195604500Y-103417690D01*
X195507827Y-103184301D01*
X195329198Y-103005673D01*
X195095809Y-102909000D01*
X195023441Y-102909000D01*
X195190125Y-102797625D01*
X195518339Y-102306418D01*
X195633592Y-101727000D01*
X195518339Y-101147582D01*
X195190125Y-100656375D01*
X195168467Y-100641904D01*
X195329198Y-100575327D01*
X195507827Y-100396699D01*
X195604500Y-100163310D01*
X195604500Y-99472750D01*
X195445750Y-99314000D01*
X194246500Y-99314000D01*
X194246500Y-99334000D01*
X193992500Y-99334000D01*
X193992500Y-99314000D01*
X192793250Y-99314000D01*
X192634500Y-99472750D01*
X192634500Y-100163310D01*
X192731173Y-100396699D01*
X192909802Y-100575327D01*
X193070533Y-100641904D01*
X193048875Y-100656375D01*
X192720661Y-101147582D01*
X192605408Y-101727000D01*
X186182000Y-101727000D01*
X186182000Y-94329250D01*
X192507500Y-94329250D01*
X192507500Y-95019810D01*
X192604173Y-95253199D01*
X192782802Y-95431827D01*
X193016191Y-95528500D01*
X193137893Y-95528500D01*
X192860578Y-95805815D01*
X192634500Y-96351615D01*
X192634500Y-96942385D01*
X192860578Y-97488185D01*
X193094543Y-97722150D01*
X192909802Y-97798673D01*
X192731173Y-97977301D01*
X192634500Y-98210690D01*
X192634500Y-98901250D01*
X192793250Y-99060000D01*
X193992500Y-99060000D01*
X193992500Y-99040000D01*
X194246500Y-99040000D01*
X194246500Y-99060000D01*
X195445750Y-99060000D01*
X195604500Y-98901250D01*
X195604500Y-98210690D01*
X195507827Y-97977301D01*
X195329198Y-97798673D01*
X195144457Y-97722150D01*
X195378422Y-97488185D01*
X195604500Y-96942385D01*
X195604500Y-96351615D01*
X195378422Y-95805815D01*
X195062358Y-95489751D01*
X195202198Y-95431827D01*
X195380827Y-95253199D01*
X195477500Y-95019810D01*
X195477500Y-94329250D01*
X195318750Y-94170500D01*
X194119500Y-94170500D01*
X194119500Y-94190500D01*
X193865500Y-94190500D01*
X193865500Y-94170500D01*
X192666250Y-94170500D01*
X192507500Y-94329250D01*
X186182000Y-94329250D01*
X186182000Y-70301043D01*
X186222018Y-70284467D01*
X186640009Y-69866476D01*
X186650323Y-69841576D01*
X186660637Y-69866476D01*
X187078628Y-70284467D01*
X187624759Y-70510681D01*
X188215887Y-70510681D01*
X188762018Y-70284467D01*
X189180009Y-69866476D01*
X189190323Y-69841576D01*
X189200637Y-69866476D01*
X189618628Y-70284467D01*
X190164759Y-70510681D01*
X190755887Y-70510681D01*
X191302018Y-70284467D01*
X191720009Y-69866476D01*
X191946223Y-69320345D01*
X191946223Y-68729217D01*
X191720009Y-68183086D01*
X191302018Y-67765095D01*
X190755887Y-67538881D01*
X190164759Y-67538881D01*
X189618628Y-67765095D01*
X189200637Y-68183086D01*
X189190323Y-68207986D01*
X189180009Y-68183086D01*
X188762018Y-67765095D01*
X188215887Y-67538881D01*
X187624759Y-67538881D01*
X187078628Y-67765095D01*
X186660637Y-68183086D01*
X186650323Y-68207986D01*
X186640009Y-68183086D01*
X186222018Y-67765095D01*
X185675887Y-67538881D01*
X185084759Y-67538881D01*
X184538628Y-67765095D01*
X184120637Y-68183086D01*
X184110323Y-68207986D01*
X184100009Y-68183086D01*
X183682018Y-67765095D01*
X183135887Y-67538881D01*
X182544759Y-67538881D01*
X181998628Y-67765095D01*
X181580637Y-68183086D01*
X181570323Y-68207986D01*
X181560009Y-68183086D01*
X181142018Y-67765095D01*
X180595887Y-67538881D01*
X180004759Y-67538881D01*
X179458628Y-67765095D01*
X179040637Y-68183086D01*
X179030323Y-68207986D01*
X179020009Y-68183086D01*
X178602018Y-67765095D01*
X178055887Y-67538881D01*
X177464759Y-67538881D01*
X176918628Y-67765095D01*
X176500637Y-68183086D01*
X176490323Y-68207986D01*
X176480009Y-68183086D01*
X176062018Y-67765095D01*
X175515887Y-67538881D01*
X174924759Y-67538881D01*
X174378628Y-67765095D01*
X173960637Y-68183086D01*
X173950323Y-68207986D01*
X173940009Y-68183086D01*
X173522018Y-67765095D01*
X172975887Y-67538881D01*
X172384759Y-67538881D01*
X171838628Y-67765095D01*
X171420637Y-68183086D01*
X171194423Y-68729217D01*
X171194423Y-69320345D01*
X171420637Y-69866476D01*
X171838628Y-70284467D01*
X172384759Y-70510681D01*
X172975887Y-70510681D01*
X173522018Y-70284467D01*
X173940009Y-69866476D01*
X173950323Y-69841576D01*
X173960637Y-69866476D01*
X174378628Y-70284467D01*
X174924759Y-70510681D01*
X175515887Y-70510681D01*
X176062018Y-70284467D01*
X176480009Y-69866476D01*
X176490323Y-69841576D01*
X176500637Y-69866476D01*
X176918628Y-70284467D01*
X177464759Y-70510681D01*
X178055887Y-70510681D01*
X178602018Y-70284467D01*
X179020009Y-69866476D01*
X179030323Y-69841576D01*
X179040637Y-69866476D01*
X179458628Y-70284467D01*
X180004759Y-70510681D01*
X180595887Y-70510681D01*
X181142018Y-70284467D01*
X181560009Y-69866476D01*
X181570323Y-69841576D01*
X181580637Y-69866476D01*
X181998628Y-70284467D01*
X182118000Y-70333912D01*
X182118000Y-70751764D01*
X178828765Y-74041000D01*
X158057381Y-74041000D01*
X157686695Y-73670314D01*
X157140564Y-73444100D01*
X156549436Y-73444100D01*
X156003305Y-73670314D01*
X155770376Y-73903243D01*
X155694227Y-73719402D01*
X155515599Y-73540773D01*
X155282210Y-73444100D01*
X154590750Y-73444100D01*
X154432000Y-73602850D01*
X154432000Y-74803000D01*
X154452000Y-74803000D01*
X154452000Y-75057000D01*
X154432000Y-75057000D01*
X154432000Y-75077000D01*
X154178000Y-75077000D01*
X154178000Y-75057000D01*
X154158000Y-75057000D01*
X154158000Y-74803000D01*
X154178000Y-74803000D01*
X154178000Y-73602850D01*
X154019250Y-73444100D01*
X153327790Y-73444100D01*
X153094401Y-73540773D01*
X152915773Y-73719402D01*
X152839624Y-73903243D01*
X152606695Y-73670314D01*
X152060564Y-73444100D01*
X151469436Y-73444100D01*
X150923305Y-73670314D01*
X150505314Y-74088305D01*
X150279100Y-74634436D01*
X150279100Y-74917364D01*
X146685000Y-71323265D01*
X146685000Y-70355367D01*
X146702416Y-70267812D01*
X146687858Y-70194627D01*
X147016009Y-69866476D01*
X147242223Y-69320345D01*
X147242223Y-68729217D01*
X148334423Y-68729217D01*
X148334423Y-69320345D01*
X148560637Y-69866476D01*
X148978628Y-70284467D01*
X149524759Y-70510681D01*
X150115887Y-70510681D01*
X150662018Y-70284467D01*
X151080009Y-69866476D01*
X151090323Y-69841576D01*
X151100637Y-69866476D01*
X151518628Y-70284467D01*
X152064759Y-70510681D01*
X152655887Y-70510681D01*
X153202018Y-70284467D01*
X153620009Y-69866476D01*
X153630323Y-69841576D01*
X153640637Y-69866476D01*
X154058628Y-70284467D01*
X154604759Y-70510681D01*
X155195887Y-70510681D01*
X155742018Y-70284467D01*
X156160009Y-69866476D01*
X156170323Y-69841576D01*
X156180637Y-69866476D01*
X156598628Y-70284467D01*
X157144759Y-70510681D01*
X157735887Y-70510681D01*
X158282018Y-70284467D01*
X158700009Y-69866476D01*
X158710323Y-69841576D01*
X158720637Y-69866476D01*
X159138628Y-70284467D01*
X159684759Y-70510681D01*
X160275887Y-70510681D01*
X160822018Y-70284467D01*
X161240009Y-69866476D01*
X161250323Y-69841576D01*
X161260637Y-69866476D01*
X161678628Y-70284467D01*
X162224759Y-70510681D01*
X162815887Y-70510681D01*
X163362018Y-70284467D01*
X163780009Y-69866476D01*
X163790323Y-69841576D01*
X163800637Y-69866476D01*
X164218628Y-70284467D01*
X164764759Y-70510681D01*
X165355887Y-70510681D01*
X165902018Y-70284467D01*
X166320009Y-69866476D01*
X166330323Y-69841576D01*
X166340637Y-69866476D01*
X166758628Y-70284467D01*
X167304759Y-70510681D01*
X167895887Y-70510681D01*
X168442018Y-70284467D01*
X168860009Y-69866476D01*
X169086223Y-69320345D01*
X169086223Y-68729217D01*
X168860009Y-68183086D01*
X168442018Y-67765095D01*
X167895887Y-67538881D01*
X167304759Y-67538881D01*
X166758628Y-67765095D01*
X166340637Y-68183086D01*
X166330323Y-68207986D01*
X166320009Y-68183086D01*
X165902018Y-67765095D01*
X165355887Y-67538881D01*
X164764759Y-67538881D01*
X164218628Y-67765095D01*
X163800637Y-68183086D01*
X163790323Y-68207986D01*
X163780009Y-68183086D01*
X163362018Y-67765095D01*
X162815887Y-67538881D01*
X162224759Y-67538881D01*
X161678628Y-67765095D01*
X161260637Y-68183086D01*
X161250323Y-68207986D01*
X161240009Y-68183086D01*
X160822018Y-67765095D01*
X160275887Y-67538881D01*
X159684759Y-67538881D01*
X159138628Y-67765095D01*
X158720637Y-68183086D01*
X158710323Y-68207986D01*
X158700009Y-68183086D01*
X158282018Y-67765095D01*
X157735887Y-67538881D01*
X157144759Y-67538881D01*
X156598628Y-67765095D01*
X156180637Y-68183086D01*
X156170323Y-68207986D01*
X156160009Y-68183086D01*
X155742018Y-67765095D01*
X155195887Y-67538881D01*
X154604759Y-67538881D01*
X154058628Y-67765095D01*
X153640637Y-68183086D01*
X153630323Y-68207986D01*
X153620009Y-68183086D01*
X153202018Y-67765095D01*
X152655887Y-67538881D01*
X152064759Y-67538881D01*
X151518628Y-67765095D01*
X151100637Y-68183086D01*
X151090323Y-68207986D01*
X151080009Y-68183086D01*
X150662018Y-67765095D01*
X150115887Y-67538881D01*
X149524759Y-67538881D01*
X148978628Y-67765095D01*
X148560637Y-68183086D01*
X148334423Y-68729217D01*
X147242223Y-68729217D01*
X147016009Y-68183086D01*
X146598018Y-67765095D01*
X146051887Y-67538881D01*
X145460759Y-67538881D01*
X144914628Y-67765095D01*
X144496637Y-68183086D01*
X144486323Y-68207986D01*
X144476009Y-68183086D01*
X144058018Y-67765095D01*
X143511887Y-67538881D01*
X142920759Y-67538881D01*
X142374628Y-67765095D01*
X141956637Y-68183086D01*
X141946323Y-68207986D01*
X141936009Y-68183086D01*
X141518018Y-67765095D01*
X140971887Y-67538881D01*
X140380759Y-67538881D01*
X139834628Y-67765095D01*
X139416637Y-68183086D01*
X139406323Y-68207986D01*
X139396009Y-68183086D01*
X138978018Y-67765095D01*
X138431887Y-67538881D01*
X137840759Y-67538881D01*
X137294628Y-67765095D01*
X136876637Y-68183086D01*
X136866323Y-68207986D01*
X136856009Y-68183086D01*
X136438018Y-67765095D01*
X135891887Y-67538881D01*
X135300759Y-67538881D01*
X134754628Y-67765095D01*
X134336637Y-68183086D01*
X134326323Y-68207986D01*
X134316009Y-68183086D01*
X133898018Y-67765095D01*
X133351887Y-67538881D01*
X132760759Y-67538881D01*
X132214628Y-67765095D01*
X131981699Y-67998024D01*
X131905550Y-67814183D01*
X131726922Y-67635554D01*
X131493533Y-67538881D01*
X130802073Y-67538881D01*
X130643323Y-67697631D01*
X130643323Y-68897781D01*
X130663323Y-68897781D01*
X130663323Y-69151781D01*
X130643323Y-69151781D01*
X130643323Y-70351931D01*
X130802073Y-70510681D01*
X131493533Y-70510681D01*
X131726922Y-70414008D01*
X131905550Y-70235379D01*
X131981699Y-70051538D01*
X132214628Y-70284467D01*
X132760759Y-70510681D01*
X133351887Y-70510681D01*
X133898018Y-70284467D01*
X134316009Y-69866476D01*
X134326323Y-69841576D01*
X134336637Y-69866476D01*
X134754628Y-70284467D01*
X135300759Y-70510681D01*
X135891887Y-70510681D01*
X136438018Y-70284467D01*
X136856009Y-69866476D01*
X136866323Y-69841576D01*
X136876637Y-69866476D01*
X137294628Y-70284467D01*
X137840759Y-70510681D01*
X138431887Y-70510681D01*
X138978018Y-70284467D01*
X139396009Y-69866476D01*
X139406323Y-69841576D01*
X139416637Y-69866476D01*
X139834628Y-70284467D01*
X140380759Y-70510681D01*
X140971887Y-70510681D01*
X141518018Y-70284467D01*
X141936009Y-69866476D01*
X141946323Y-69841576D01*
X141956637Y-69866476D01*
X142367001Y-70276840D01*
X142367000Y-77851690D01*
X142270327Y-77618301D01*
X142091698Y-77439673D01*
X141858309Y-77343000D01*
X141255750Y-77343000D01*
X141097000Y-77501750D01*
X141097000Y-78613000D01*
X141117000Y-78613000D01*
X141117000Y-78867000D01*
X141097000Y-78867000D01*
X141097000Y-79978250D01*
X141255750Y-80137000D01*
X141858309Y-80137000D01*
X142091698Y-80040327D01*
X142270327Y-79861699D01*
X142367000Y-79628310D01*
X142367000Y-83705764D01*
X141109765Y-84963000D01*
X140692119Y-84963000D01*
X140178663Y-85175680D01*
X139785680Y-85568663D01*
X139700000Y-85775513D01*
X139614320Y-85568663D01*
X139221337Y-85175680D01*
X138707881Y-84963000D01*
X138152119Y-84963000D01*
X137638663Y-85175680D01*
X137245680Y-85568663D01*
X137160000Y-85775513D01*
X137074320Y-85568663D01*
X136681337Y-85175680D01*
X136167881Y-84963000D01*
X135612119Y-84963000D01*
X135098663Y-85175680D01*
X134705680Y-85568663D01*
X134626572Y-85759647D01*
X134572397Y-85628857D01*
X134330213Y-85559392D01*
X133529605Y-86360000D01*
X134330213Y-87160608D01*
X134572397Y-87091143D01*
X134622535Y-86950607D01*
X134705680Y-87151337D01*
X134747000Y-87192657D01*
X134747001Y-88011000D01*
X121143571Y-88011000D01*
X121031000Y-87988608D01*
X120918429Y-88011000D01*
X120918428Y-88011000D01*
X120585024Y-88077318D01*
X120206943Y-88329943D01*
X120143174Y-88425380D01*
X119986054Y-88582500D01*
X119699227Y-88582500D01*
X119115753Y-88824182D01*
X118745000Y-89194935D01*
X118745000Y-86065065D01*
X119115753Y-86435818D01*
X119699227Y-86677500D01*
X120330773Y-86677500D01*
X120914247Y-86435818D01*
X121360818Y-85989247D01*
X121602500Y-85405773D01*
X121602500Y-85118947D01*
X121758448Y-84963000D01*
X127796555Y-84963000D01*
X127853834Y-85020279D01*
X127478663Y-85175680D01*
X127085680Y-85568663D01*
X126873000Y-86082119D01*
X126873000Y-86637881D01*
X127085680Y-87151337D01*
X127478663Y-87544320D01*
X127992119Y-87757000D01*
X128547881Y-87757000D01*
X129061337Y-87544320D01*
X129454320Y-87151337D01*
X129540000Y-86944487D01*
X129625680Y-87151337D01*
X130018663Y-87544320D01*
X130532119Y-87757000D01*
X131087881Y-87757000D01*
X131601337Y-87544320D01*
X131805444Y-87340213D01*
X132549392Y-87340213D01*
X132618857Y-87582397D01*
X133142302Y-87769144D01*
X133697368Y-87741362D01*
X134081143Y-87582397D01*
X134150608Y-87340213D01*
X133350000Y-86539605D01*
X132549392Y-87340213D01*
X131805444Y-87340213D01*
X131994320Y-87151337D01*
X132073428Y-86960353D01*
X132127603Y-87091143D01*
X132369787Y-87160608D01*
X133170395Y-86360000D01*
X132369787Y-85559392D01*
X132127603Y-85628857D01*
X132077465Y-85769393D01*
X131994320Y-85568663D01*
X131805444Y-85379787D01*
X132549392Y-85379787D01*
X133350000Y-86180395D01*
X134150608Y-85379787D01*
X134081143Y-85137603D01*
X133557698Y-84950856D01*
X133002632Y-84978638D01*
X132618857Y-85137603D01*
X132549392Y-85379787D01*
X131805444Y-85379787D01*
X131601337Y-85175680D01*
X131087881Y-84963000D01*
X131029445Y-84963000D01*
X130935826Y-84869380D01*
X130935824Y-84869378D01*
X129157827Y-83091382D01*
X129094057Y-82995943D01*
X128715976Y-82743318D01*
X128382572Y-82677000D01*
X128382571Y-82677000D01*
X128270000Y-82654608D01*
X128157429Y-82677000D01*
X121172430Y-82677000D01*
X120839026Y-82743318D01*
X120460945Y-82995943D01*
X120333771Y-83186273D01*
X120238879Y-83249678D01*
X119986057Y-83502500D01*
X119699227Y-83502500D01*
X119115753Y-83744182D01*
X118745000Y-84114935D01*
X118745000Y-82896445D01*
X120043946Y-81597500D01*
X120330773Y-81597500D01*
X120914247Y-81355818D01*
X121360818Y-80909247D01*
X121602500Y-80325773D01*
X121602500Y-79694227D01*
X121360818Y-79110753D01*
X120914247Y-78664182D01*
X120330773Y-78422500D01*
X119699227Y-78422500D01*
X119115753Y-78664182D01*
X118669182Y-79110753D01*
X118427500Y-79694227D01*
X118427500Y-79981054D01*
X116873380Y-81535175D01*
X116777944Y-81598943D01*
X116596769Y-81870091D01*
X116525319Y-81977024D01*
X116436608Y-82423000D01*
X116407000Y-82423000D01*
X116407000Y-74614227D01*
X118427500Y-74614227D01*
X118427500Y-75245773D01*
X118669182Y-75829247D01*
X119115753Y-76275818D01*
X119699227Y-76517500D01*
X120330773Y-76517500D01*
X120914247Y-76275818D01*
X121360818Y-75829247D01*
X121602500Y-75245773D01*
X121602500Y-74614227D01*
X121360818Y-74030753D01*
X120914247Y-73584182D01*
X120426423Y-73382119D01*
X126873000Y-73382119D01*
X126873000Y-73937881D01*
X127085680Y-74451337D01*
X127478663Y-74844320D01*
X127992119Y-75057000D01*
X128547881Y-75057000D01*
X129061337Y-74844320D01*
X129454320Y-74451337D01*
X129540000Y-74244487D01*
X129625680Y-74451337D01*
X129667000Y-74492657D01*
X129667001Y-77907342D01*
X129625680Y-77948663D01*
X129540000Y-78155513D01*
X129454320Y-77948663D01*
X129061337Y-77555680D01*
X128547881Y-77343000D01*
X127992119Y-77343000D01*
X127478663Y-77555680D01*
X127085680Y-77948663D01*
X126873000Y-78462119D01*
X126873000Y-79017881D01*
X127085680Y-79531337D01*
X127478663Y-79924320D01*
X127992119Y-80137000D01*
X128547881Y-80137000D01*
X129061337Y-79924320D01*
X129454320Y-79531337D01*
X129540000Y-79324487D01*
X129625680Y-79531337D01*
X129667000Y-79572657D01*
X129667001Y-81677688D01*
X129458260Y-81990091D01*
X129346887Y-82550000D01*
X129458260Y-83109909D01*
X129775423Y-83584577D01*
X130250091Y-83901740D01*
X130668667Y-83985000D01*
X130951333Y-83985000D01*
X131369909Y-83901740D01*
X131844577Y-83584577D01*
X132161740Y-83109909D01*
X132273113Y-82550000D01*
X132216336Y-82264561D01*
X136995000Y-82264561D01*
X136995000Y-82835439D01*
X137213466Y-83362862D01*
X137617138Y-83766534D01*
X138144561Y-83985000D01*
X138715439Y-83985000D01*
X139242862Y-83766534D01*
X139646534Y-83362862D01*
X139865000Y-82835439D01*
X139865000Y-82264561D01*
X139646534Y-81737138D01*
X139242862Y-81333466D01*
X138715439Y-81115000D01*
X138144561Y-81115000D01*
X137617138Y-81333466D01*
X137213466Y-81737138D01*
X136995000Y-82264561D01*
X132216336Y-82264561D01*
X132161740Y-81990091D01*
X131953000Y-81677689D01*
X131953000Y-79572657D01*
X131994320Y-79531337D01*
X132080000Y-79324487D01*
X132165680Y-79531337D01*
X132558663Y-79924320D01*
X133072119Y-80137000D01*
X133627881Y-80137000D01*
X134141337Y-79924320D01*
X134534320Y-79531337D01*
X134620000Y-79324487D01*
X134705680Y-79531337D01*
X135098663Y-79924320D01*
X135612119Y-80137000D01*
X136167881Y-80137000D01*
X136681337Y-79924320D01*
X137074320Y-79531337D01*
X137160000Y-79324487D01*
X137245680Y-79531337D01*
X137638663Y-79924320D01*
X138152119Y-80137000D01*
X138707881Y-80137000D01*
X139221337Y-79924320D01*
X139573000Y-79572657D01*
X139573000Y-79628310D01*
X139669673Y-79861699D01*
X139848302Y-80040327D01*
X140081691Y-80137000D01*
X140684250Y-80137000D01*
X140843000Y-79978250D01*
X140843000Y-78867000D01*
X140823000Y-78867000D01*
X140823000Y-78613000D01*
X140843000Y-78613000D01*
X140843000Y-77501750D01*
X140684250Y-77343000D01*
X140081691Y-77343000D01*
X139848302Y-77439673D01*
X139669673Y-77618301D01*
X139573000Y-77851690D01*
X139573000Y-77907343D01*
X139221337Y-77555680D01*
X138707881Y-77343000D01*
X138152119Y-77343000D01*
X137638663Y-77555680D01*
X137245680Y-77948663D01*
X137160000Y-78155513D01*
X137074320Y-77948663D01*
X136681337Y-77555680D01*
X136167881Y-77343000D01*
X135612119Y-77343000D01*
X135098663Y-77555680D01*
X134705680Y-77948663D01*
X134620000Y-78155513D01*
X134534320Y-77948663D01*
X134141337Y-77555680D01*
X133627881Y-77343000D01*
X133072119Y-77343000D01*
X132558663Y-77555680D01*
X132165680Y-77948663D01*
X132080000Y-78155513D01*
X131994320Y-77948663D01*
X131953000Y-77907343D01*
X131953000Y-74492657D01*
X131994320Y-74451337D01*
X132080000Y-74244487D01*
X132165680Y-74451337D01*
X132558663Y-74844320D01*
X133072119Y-75057000D01*
X133627881Y-75057000D01*
X134141337Y-74844320D01*
X134534320Y-74451337D01*
X134620000Y-74244487D01*
X134705680Y-74451337D01*
X135098663Y-74844320D01*
X135612119Y-75057000D01*
X136167881Y-75057000D01*
X136681337Y-74844320D01*
X137074320Y-74451337D01*
X137160000Y-74244487D01*
X137245680Y-74451337D01*
X137638663Y-74844320D01*
X138152119Y-75057000D01*
X138707881Y-75057000D01*
X139221337Y-74844320D01*
X139614320Y-74451337D01*
X139700000Y-74244487D01*
X139785680Y-74451337D01*
X140178663Y-74844320D01*
X140692119Y-75057000D01*
X141247881Y-75057000D01*
X141761337Y-74844320D01*
X142154320Y-74451337D01*
X142367000Y-73937881D01*
X142367000Y-73382119D01*
X142154320Y-72868663D01*
X141761337Y-72475680D01*
X141247881Y-72263000D01*
X140692119Y-72263000D01*
X140178663Y-72475680D01*
X139785680Y-72868663D01*
X139700000Y-73075513D01*
X139614320Y-72868663D01*
X139221337Y-72475680D01*
X138707881Y-72263000D01*
X138152119Y-72263000D01*
X137638663Y-72475680D01*
X137245680Y-72868663D01*
X137160000Y-73075513D01*
X137074320Y-72868663D01*
X136681337Y-72475680D01*
X136167881Y-72263000D01*
X135612119Y-72263000D01*
X135098663Y-72475680D01*
X134705680Y-72868663D01*
X134620000Y-73075513D01*
X134534320Y-72868663D01*
X134141337Y-72475680D01*
X133627881Y-72263000D01*
X133072119Y-72263000D01*
X132558663Y-72475680D01*
X132165680Y-72868663D01*
X132080000Y-73075513D01*
X131994320Y-72868663D01*
X131601337Y-72475680D01*
X131087881Y-72263000D01*
X130532119Y-72263000D01*
X130018663Y-72475680D01*
X129625680Y-72868663D01*
X129540000Y-73075513D01*
X129454320Y-72868663D01*
X129061337Y-72475680D01*
X128547881Y-72263000D01*
X127992119Y-72263000D01*
X127478663Y-72475680D01*
X127085680Y-72868663D01*
X126873000Y-73382119D01*
X120426423Y-73382119D01*
X120330773Y-73342500D01*
X119699227Y-73342500D01*
X119115753Y-73584182D01*
X118669182Y-74030753D01*
X118427500Y-74614227D01*
X116407000Y-74614227D01*
X116407000Y-67004000D01*
X118378584Y-67004000D01*
X118074297Y-67130040D01*
X118074297Y-67130040D01*
G37*
X118074297Y-67130040D02*
X117445582Y-67758755D01*
X117105323Y-68580212D01*
X117105323Y-69469350D01*
X117445582Y-70290807D01*
X118074297Y-70919522D01*
X118895754Y-71259781D01*
X119784892Y-71259781D01*
X120606349Y-70919522D01*
X121235064Y-70290807D01*
X121523733Y-69593900D01*
X121636637Y-69866476D01*
X122054628Y-70284467D01*
X122600759Y-70510681D01*
X123191887Y-70510681D01*
X123738018Y-70284467D01*
X124156009Y-69866476D01*
X124166323Y-69841576D01*
X124176637Y-69866476D01*
X124594628Y-70284467D01*
X125140759Y-70510681D01*
X125731887Y-70510681D01*
X126278018Y-70284467D01*
X126696009Y-69866476D01*
X126706323Y-69841576D01*
X126716637Y-69866476D01*
X127134628Y-70284467D01*
X127680759Y-70510681D01*
X128271887Y-70510681D01*
X128818018Y-70284467D01*
X129050947Y-70051538D01*
X129127096Y-70235379D01*
X129305724Y-70414008D01*
X129539113Y-70510681D01*
X130230573Y-70510681D01*
X130389323Y-70351931D01*
X130389323Y-69151781D01*
X130369323Y-69151781D01*
X130369323Y-68897781D01*
X130389323Y-68897781D01*
X130389323Y-67697631D01*
X130230573Y-67538881D01*
X129539113Y-67538881D01*
X129305724Y-67635554D01*
X129127096Y-67814183D01*
X129050947Y-67998024D01*
X128818018Y-67765095D01*
X128271887Y-67538881D01*
X127680759Y-67538881D01*
X127134628Y-67765095D01*
X126716637Y-68183086D01*
X126706323Y-68207986D01*
X126696009Y-68183086D01*
X126278018Y-67765095D01*
X125731887Y-67538881D01*
X125140759Y-67538881D01*
X124594628Y-67765095D01*
X124176637Y-68183086D01*
X124166323Y-68207986D01*
X124156009Y-68183086D01*
X123738018Y-67765095D01*
X123191887Y-67538881D01*
X122600759Y-67538881D01*
X122054628Y-67765095D01*
X121636637Y-68183086D01*
X121523733Y-68455662D01*
X121235064Y-67758755D01*
X120606349Y-67130040D01*
X120302062Y-67004000D01*
X193308584Y-67004000D01*
X193004297Y-67130040D01*
X192375582Y-67758755D01*
X192035323Y-68580212D01*
X192035323Y-69469350D01*
X192375582Y-70290807D01*
X193004297Y-70919522D01*
X193825754Y-71259781D01*
X194714892Y-71259781D01*
X195536349Y-70919522D01*
X196165064Y-70290807D01*
X196505323Y-69469350D01*
X196505323Y-68580212D01*
X196165064Y-67758755D01*
X195536349Y-67130040D01*
X195232062Y-67004000D01*
X204141000Y-67004000D01*
X204141001Y-119305000D01*
X201583419Y-119305000D01*
X201886349Y-119179522D01*
X202515064Y-118550807D01*
X202855323Y-117729350D01*
X202855323Y-116840212D01*
X202515064Y-116018755D01*
X201886349Y-115390040D01*
X201064892Y-115049781D01*
X200175754Y-115049781D01*
X199354297Y-115390040D01*
X198725582Y-116018755D01*
X198385323Y-116840212D01*
X198385323Y-117729350D01*
X198725582Y-118550807D01*
X199354297Y-119179522D01*
X199657227Y-119305000D01*
X119033419Y-119305000D01*
X119336349Y-119179522D01*
X119965064Y-118550807D01*
X120305323Y-117729350D01*
X120305323Y-116989217D01*
X130554423Y-116989217D01*
X130554423Y-117580345D01*
X130780637Y-118126476D01*
X131198628Y-118544467D01*
X131744759Y-118770681D01*
X132335887Y-118770681D01*
X132882018Y-118544467D01*
X133300009Y-118126476D01*
X133310323Y-118101576D01*
X133320637Y-118126476D01*
X133738628Y-118544467D01*
X134284759Y-118770681D01*
X134875887Y-118770681D01*
X135422018Y-118544467D01*
X135840009Y-118126476D01*
X135850323Y-118101576D01*
X135860637Y-118126476D01*
X136278628Y-118544467D01*
X136824759Y-118770681D01*
X137415887Y-118770681D01*
X137962018Y-118544467D01*
X138380009Y-118126476D01*
X138390323Y-118101576D01*
X138400637Y-118126476D01*
X138818628Y-118544467D01*
X139364759Y-118770681D01*
X139955887Y-118770681D01*
X140502018Y-118544467D01*
X140920009Y-118126476D01*
X140930323Y-118101576D01*
X140940637Y-118126476D01*
X141358628Y-118544467D01*
X141904759Y-118770681D01*
X142495887Y-118770681D01*
X143042018Y-118544467D01*
X143274947Y-118311538D01*
X143351096Y-118495379D01*
X143529724Y-118674008D01*
X143763113Y-118770681D01*
X144454573Y-118770681D01*
X144613323Y-118611931D01*
X144613323Y-117411781D01*
X144867323Y-117411781D01*
X144867323Y-118611931D01*
X145026073Y-118770681D01*
X145717533Y-118770681D01*
X145950922Y-118674008D01*
X146010323Y-118614607D01*
X146069724Y-118674008D01*
X146303113Y-118770681D01*
X146994573Y-118770681D01*
X147153323Y-118611931D01*
X147153323Y-117411781D01*
X144867323Y-117411781D01*
X144613323Y-117411781D01*
X144593323Y-117411781D01*
X144593323Y-117157781D01*
X144613323Y-117157781D01*
X144613323Y-115957631D01*
X144867323Y-115957631D01*
X144867323Y-117157781D01*
X147153323Y-117157781D01*
X147153323Y-115957631D01*
X147407323Y-115957631D01*
X147407323Y-117157781D01*
X147427323Y-117157781D01*
X147427323Y-117411781D01*
X147407323Y-117411781D01*
X147407323Y-118611931D01*
X147566073Y-118770681D01*
X148257533Y-118770681D01*
X148490922Y-118674008D01*
X148669550Y-118495379D01*
X148745699Y-118311538D01*
X148978628Y-118544467D01*
X149524759Y-118770681D01*
X150115887Y-118770681D01*
X150662018Y-118544467D01*
X151080009Y-118126476D01*
X151306223Y-117580345D01*
X151306223Y-116989217D01*
X153414423Y-116989217D01*
X153414423Y-117580345D01*
X153640637Y-118126476D01*
X154058628Y-118544467D01*
X154604759Y-118770681D01*
X155195887Y-118770681D01*
X155742018Y-118544467D01*
X156160009Y-118126476D01*
X156170323Y-118101576D01*
X156180637Y-118126476D01*
X156598628Y-118544467D01*
X157144759Y-118770681D01*
X157735887Y-118770681D01*
X158282018Y-118544467D01*
X158700009Y-118126476D01*
X158710323Y-118101576D01*
X158720637Y-118126476D01*
X159138628Y-118544467D01*
X159684759Y-118770681D01*
X160275887Y-118770681D01*
X160822018Y-118544467D01*
X161240009Y-118126476D01*
X161250323Y-118101576D01*
X161260637Y-118126476D01*
X161678628Y-118544467D01*
X162224759Y-118770681D01*
X162815887Y-118770681D01*
X163362018Y-118544467D01*
X163780009Y-118126476D01*
X163790323Y-118101576D01*
X163800637Y-118126476D01*
X164218628Y-118544467D01*
X164764759Y-118770681D01*
X165355887Y-118770681D01*
X165902018Y-118544467D01*
X166320009Y-118126476D01*
X166330323Y-118101576D01*
X166340637Y-118126476D01*
X166758628Y-118544467D01*
X167304759Y-118770681D01*
X167895887Y-118770681D01*
X168442018Y-118544467D01*
X168860009Y-118126476D01*
X168870323Y-118101576D01*
X168880637Y-118126476D01*
X169298628Y-118544467D01*
X169844759Y-118770681D01*
X170435887Y-118770681D01*
X170982018Y-118544467D01*
X171400009Y-118126476D01*
X171410323Y-118101576D01*
X171420637Y-118126476D01*
X171838628Y-118544467D01*
X172384759Y-118770681D01*
X172975887Y-118770681D01*
X173522018Y-118544467D01*
X173940009Y-118126476D01*
X174166223Y-117580345D01*
X174166223Y-116989217D01*
X176274423Y-116989217D01*
X176274423Y-117580345D01*
X176500637Y-118126476D01*
X176918628Y-118544467D01*
X177464759Y-118770681D01*
X178055887Y-118770681D01*
X178602018Y-118544467D01*
X179020009Y-118126476D01*
X179030323Y-118101576D01*
X179040637Y-118126476D01*
X179458628Y-118544467D01*
X180004759Y-118770681D01*
X180595887Y-118770681D01*
X181142018Y-118544467D01*
X181560009Y-118126476D01*
X181570323Y-118101576D01*
X181580637Y-118126476D01*
X181998628Y-118544467D01*
X182544759Y-118770681D01*
X183135887Y-118770681D01*
X183682018Y-118544467D01*
X184100009Y-118126476D01*
X184110323Y-118101576D01*
X184120637Y-118126476D01*
X184538628Y-118544467D01*
X185084759Y-118770681D01*
X185675887Y-118770681D01*
X186222018Y-118544467D01*
X186640009Y-118126476D01*
X186650323Y-118101576D01*
X186660637Y-118126476D01*
X187078628Y-118544467D01*
X187624759Y-118770681D01*
X188215887Y-118770681D01*
X188762018Y-118544467D01*
X189180009Y-118126476D01*
X189190323Y-118101576D01*
X189200637Y-118126476D01*
X189618628Y-118544467D01*
X190164759Y-118770681D01*
X190755887Y-118770681D01*
X191302018Y-118544467D01*
X191603323Y-118243162D01*
X191904628Y-118544467D01*
X192450759Y-118770681D01*
X193041887Y-118770681D01*
X193588018Y-118544467D01*
X194006009Y-118126476D01*
X194016323Y-118101576D01*
X194026637Y-118126476D01*
X194444628Y-118544467D01*
X194990759Y-118770681D01*
X195581887Y-118770681D01*
X196128018Y-118544467D01*
X196546009Y-118126476D01*
X196772223Y-117580345D01*
X196772223Y-116989217D01*
X196546009Y-116443086D01*
X196128018Y-116025095D01*
X195581887Y-115798881D01*
X194990759Y-115798881D01*
X194444628Y-116025095D01*
X194026637Y-116443086D01*
X194016323Y-116467986D01*
X194006009Y-116443086D01*
X193588018Y-116025095D01*
X193041887Y-115798881D01*
X192450759Y-115798881D01*
X191904628Y-116025095D01*
X191603323Y-116326400D01*
X191302018Y-116025095D01*
X190755887Y-115798881D01*
X190164759Y-115798881D01*
X189618628Y-116025095D01*
X189200637Y-116443086D01*
X189190323Y-116467986D01*
X189180009Y-116443086D01*
X188762018Y-116025095D01*
X188215887Y-115798881D01*
X187624759Y-115798881D01*
X187078628Y-116025095D01*
X186660637Y-116443086D01*
X186650323Y-116467986D01*
X186640009Y-116443086D01*
X186222018Y-116025095D01*
X185675887Y-115798881D01*
X185084759Y-115798881D01*
X184538628Y-116025095D01*
X184120637Y-116443086D01*
X184110323Y-116467986D01*
X184100009Y-116443086D01*
X183682018Y-116025095D01*
X183135887Y-115798881D01*
X182544759Y-115798881D01*
X181998628Y-116025095D01*
X181580637Y-116443086D01*
X181570323Y-116467986D01*
X181560009Y-116443086D01*
X181142018Y-116025095D01*
X180595887Y-115798881D01*
X180004759Y-115798881D01*
X179458628Y-116025095D01*
X179040637Y-116443086D01*
X179030323Y-116467986D01*
X179020009Y-116443086D01*
X178602018Y-116025095D01*
X178055887Y-115798881D01*
X177464759Y-115798881D01*
X176918628Y-116025095D01*
X176500637Y-116443086D01*
X176274423Y-116989217D01*
X174166223Y-116989217D01*
X173940009Y-116443086D01*
X173522018Y-116025095D01*
X172975887Y-115798881D01*
X172384759Y-115798881D01*
X171838628Y-116025095D01*
X171420637Y-116443086D01*
X171410323Y-116467986D01*
X171400009Y-116443086D01*
X170982018Y-116025095D01*
X170435887Y-115798881D01*
X169844759Y-115798881D01*
X169298628Y-116025095D01*
X168880637Y-116443086D01*
X168870323Y-116467986D01*
X168860009Y-116443086D01*
X168442018Y-116025095D01*
X167895887Y-115798881D01*
X167304759Y-115798881D01*
X166758628Y-116025095D01*
X166340637Y-116443086D01*
X166330323Y-116467986D01*
X166320009Y-116443086D01*
X165902018Y-116025095D01*
X165355887Y-115798881D01*
X164764759Y-115798881D01*
X164218628Y-116025095D01*
X163800637Y-116443086D01*
X163790323Y-116467986D01*
X163780009Y-116443086D01*
X163362018Y-116025095D01*
X162815887Y-115798881D01*
X162224759Y-115798881D01*
X161678628Y-116025095D01*
X161260637Y-116443086D01*
X161250323Y-116467986D01*
X161240009Y-116443086D01*
X160822018Y-116025095D01*
X160275887Y-115798881D01*
X159684759Y-115798881D01*
X159138628Y-116025095D01*
X158720637Y-116443086D01*
X158710323Y-116467986D01*
X158700009Y-116443086D01*
X158282018Y-116025095D01*
X157735887Y-115798881D01*
X157144759Y-115798881D01*
X156598628Y-116025095D01*
X156180637Y-116443086D01*
X156170323Y-116467986D01*
X156160009Y-116443086D01*
X155742018Y-116025095D01*
X155195887Y-115798881D01*
X154604759Y-115798881D01*
X154058628Y-116025095D01*
X153640637Y-116443086D01*
X153414423Y-116989217D01*
X151306223Y-116989217D01*
X151080009Y-116443086D01*
X150662018Y-116025095D01*
X150115887Y-115798881D01*
X149524759Y-115798881D01*
X148978628Y-116025095D01*
X148745699Y-116258024D01*
X148669550Y-116074183D01*
X148490922Y-115895554D01*
X148257533Y-115798881D01*
X147566073Y-115798881D01*
X147407323Y-115957631D01*
X147153323Y-115957631D01*
X146994573Y-115798881D01*
X146303113Y-115798881D01*
X146069724Y-115895554D01*
X146010323Y-115954955D01*
X145950922Y-115895554D01*
X145717533Y-115798881D01*
X145026073Y-115798881D01*
X144867323Y-115957631D01*
X144613323Y-115957631D01*
X144454573Y-115798881D01*
X144135565Y-115798881D01*
X144224664Y-115709782D01*
X196343647Y-115709782D01*
X196456218Y-115732174D01*
X196568789Y-115709782D01*
X196568790Y-115709782D01*
X196902194Y-115643464D01*
X197280275Y-115390839D01*
X197344045Y-115295400D01*
X198213620Y-114425826D01*
X198309057Y-114362057D01*
X198561682Y-113983976D01*
X198628000Y-113650572D01*
X198650392Y-113538001D01*
X198628000Y-113425430D01*
X198628000Y-91679572D01*
X198650392Y-91567000D01*
X198628000Y-91454428D01*
X198628000Y-80122570D01*
X198650392Y-80009999D01*
X198614870Y-79831419D01*
X198561682Y-79564024D01*
X198309057Y-79185943D01*
X198213621Y-79122175D01*
X197102827Y-78011382D01*
X197039057Y-77915943D01*
X196660976Y-77663318D01*
X196327572Y-77597000D01*
X196327571Y-77597000D01*
X196215000Y-77574608D01*
X196102429Y-77597000D01*
X195018308Y-77597000D01*
X194828239Y-77470000D01*
X195126625Y-77270625D01*
X195454839Y-76779418D01*
X195570092Y-76200000D01*
X195454839Y-75620582D01*
X195126625Y-75129375D01*
X194844389Y-74940791D01*
X194897185Y-74918922D01*
X195314922Y-74501185D01*
X195541000Y-73955385D01*
X195541000Y-73364615D01*
X195314922Y-72818815D01*
X194897185Y-72401078D01*
X194351385Y-72175000D01*
X193760615Y-72175000D01*
X193214815Y-72401078D01*
X192797078Y-72818815D01*
X192571000Y-73364615D01*
X192571000Y-73955385D01*
X192797078Y-74501185D01*
X193214815Y-74918922D01*
X193267611Y-74940791D01*
X192985375Y-75129375D01*
X192657161Y-75620582D01*
X192541908Y-76200000D01*
X192657161Y-76779418D01*
X192985375Y-77270625D01*
X193283761Y-77470000D01*
X192985375Y-77669375D01*
X192657161Y-78160582D01*
X192541908Y-78740000D01*
X192657161Y-79319418D01*
X192985375Y-79810625D01*
X193007033Y-79825096D01*
X192846302Y-79891673D01*
X192667673Y-80070301D01*
X192571000Y-80303690D01*
X192571000Y-80994250D01*
X192729750Y-81153000D01*
X193929000Y-81153000D01*
X193929000Y-81133000D01*
X194183000Y-81133000D01*
X194183000Y-81153000D01*
X195382250Y-81153000D01*
X195541000Y-80994250D01*
X195541000Y-80303690D01*
X195444327Y-80070301D01*
X195265698Y-79891673D01*
X195244760Y-79883000D01*
X195741555Y-79883000D01*
X196342000Y-80483446D01*
X196342001Y-90424000D01*
X195626390Y-90424000D01*
X195307153Y-90360500D01*
X195307152Y-90360500D01*
X195194581Y-90338108D01*
X195082010Y-90360500D01*
X194954808Y-90360500D01*
X194764739Y-90233500D01*
X195063125Y-90034125D01*
X195391339Y-89542918D01*
X195506592Y-88963500D01*
X195391339Y-88384082D01*
X195063125Y-87892875D01*
X194764739Y-87693500D01*
X195063125Y-87494125D01*
X195391339Y-87002918D01*
X195506592Y-86423500D01*
X195391339Y-85844082D01*
X195063125Y-85352875D01*
X195044881Y-85340684D01*
X195090265Y-85331657D01*
X195300309Y-85191309D01*
X195440657Y-84981265D01*
X195489940Y-84733500D01*
X195489940Y-83033500D01*
X195440657Y-82785735D01*
X195323551Y-82610475D01*
X195444327Y-82489699D01*
X195541000Y-82256310D01*
X195541000Y-81565750D01*
X195382250Y-81407000D01*
X194183000Y-81407000D01*
X194183000Y-81427000D01*
X193929000Y-81427000D01*
X193929000Y-81407000D01*
X192729750Y-81407000D01*
X192571000Y-81565750D01*
X192571000Y-82256310D01*
X192667673Y-82489699D01*
X192726038Y-82548064D01*
X192684691Y-82575691D01*
X192544343Y-82785735D01*
X192495060Y-83033500D01*
X192495060Y-84733500D01*
X192544343Y-84981265D01*
X192684691Y-85191309D01*
X192894735Y-85331657D01*
X192940119Y-85340684D01*
X192921875Y-85352875D01*
X192593661Y-85844082D01*
X192478408Y-86423500D01*
X192593661Y-87002918D01*
X192921875Y-87494125D01*
X193220261Y-87693500D01*
X192921875Y-87892875D01*
X192593661Y-88384082D01*
X192478408Y-88963500D01*
X192593661Y-89542918D01*
X192921875Y-90034125D01*
X193220261Y-90233500D01*
X192921875Y-90432875D01*
X192593661Y-90924082D01*
X192478408Y-91503500D01*
X192593661Y-92082918D01*
X192921875Y-92574125D01*
X192943533Y-92588596D01*
X192782802Y-92655173D01*
X192604173Y-92833801D01*
X192507500Y-93067190D01*
X192507500Y-93757750D01*
X192666250Y-93916500D01*
X193865500Y-93916500D01*
X193865500Y-93896500D01*
X194119500Y-93896500D01*
X194119500Y-93916500D01*
X195318750Y-93916500D01*
X195477500Y-93757750D01*
X195477500Y-93067190D01*
X195380827Y-92833801D01*
X195275877Y-92728852D01*
X195370653Y-92710000D01*
X196342000Y-92710000D01*
X196342001Y-113064553D01*
X195982773Y-113423782D01*
X172054542Y-113423782D01*
X172375323Y-112649350D01*
X172375323Y-111760212D01*
X172035064Y-110938755D01*
X171406349Y-110310040D01*
X170584892Y-109969781D01*
X169695754Y-109969781D01*
X168874297Y-110310040D01*
X168245582Y-110938755D01*
X167905323Y-111760212D01*
X167905323Y-112649350D01*
X168226104Y-113423782D01*
X143863790Y-113423782D01*
X143751218Y-113401390D01*
X143305241Y-113490100D01*
X143176314Y-113576247D01*
X142927161Y-113742725D01*
X142863394Y-113838160D01*
X141636865Y-115064690D01*
X141365144Y-115246248D01*
X141112519Y-115624328D01*
X141023808Y-116070304D01*
X141057323Y-116238794D01*
X141057323Y-116326400D01*
X140940637Y-116443086D01*
X140930323Y-116467986D01*
X140920009Y-116443086D01*
X140502018Y-116025095D01*
X139955887Y-115798881D01*
X139364759Y-115798881D01*
X138818628Y-116025095D01*
X138400637Y-116443086D01*
X138390323Y-116467986D01*
X138380009Y-116443086D01*
X137962018Y-116025095D01*
X137415887Y-115798881D01*
X136824759Y-115798881D01*
X136278628Y-116025095D01*
X135860637Y-116443086D01*
X135850323Y-116467986D01*
X135840009Y-116443086D01*
X135422018Y-116025095D01*
X134875887Y-115798881D01*
X134284759Y-115798881D01*
X133738628Y-116025095D01*
X133320637Y-116443086D01*
X133310323Y-116467986D01*
X133300009Y-116443086D01*
X132882018Y-116025095D01*
X132335887Y-115798881D01*
X131744759Y-115798881D01*
X131198628Y-116025095D01*
X130780637Y-116443086D01*
X130554423Y-116989217D01*
X120305323Y-116989217D01*
X120305323Y-116840212D01*
X119965064Y-116018755D01*
X119336349Y-115390040D01*
X118514892Y-115049781D01*
X117625754Y-115049781D01*
X116804297Y-115390040D01*
X116407000Y-115787337D01*
X116407000Y-107473750D01*
X118427500Y-107473750D01*
X118427500Y-108266809D01*
X118524173Y-108500198D01*
X118702801Y-108678827D01*
X118936190Y-108775500D01*
X119729250Y-108775500D01*
X119888000Y-108616750D01*
X119888000Y-107315000D01*
X120142000Y-107315000D01*
X120142000Y-108616750D01*
X120300750Y-108775500D01*
X121093810Y-108775500D01*
X121327199Y-108678827D01*
X121505827Y-108500198D01*
X121602500Y-108266809D01*
X121602500Y-107473750D01*
X121443750Y-107315000D01*
X120142000Y-107315000D01*
X119888000Y-107315000D01*
X118586250Y-107315000D01*
X118427500Y-107473750D01*
X116407000Y-107473750D01*
X116407000Y-106109191D01*
X118427500Y-106109191D01*
X118427500Y-106902250D01*
X118586250Y-107061000D01*
X119888000Y-107061000D01*
X119888000Y-105759250D01*
X120142000Y-105759250D01*
X120142000Y-107061000D01*
X121443750Y-107061000D01*
X121602500Y-106902250D01*
X121602500Y-106109191D01*
X121505827Y-105875802D01*
X121327199Y-105697173D01*
X121093810Y-105600500D01*
X120300750Y-105600500D01*
X120142000Y-105759250D01*
X119888000Y-105759250D01*
X119729250Y-105600500D01*
X118936190Y-105600500D01*
X118702801Y-105697173D01*
X118524173Y-105875802D01*
X118427500Y-106109191D01*
X116407000Y-106109191D01*
X116407000Y-101792227D01*
X118427500Y-101792227D01*
X118427500Y-102423773D01*
X118669182Y-103007247D01*
X119115753Y-103453818D01*
X119699227Y-103695500D01*
X120330773Y-103695500D01*
X120914247Y-103453818D01*
X121360818Y-103007247D01*
X121602500Y-102423773D01*
X121602500Y-102108000D01*
X127771908Y-102108000D01*
X127887161Y-102687418D01*
X128215375Y-103178625D01*
X128513761Y-103378000D01*
X128215375Y-103577375D01*
X127887161Y-104068582D01*
X127771908Y-104648000D01*
X127887161Y-105227418D01*
X128215375Y-105718625D01*
X128497611Y-105907209D01*
X128444815Y-105929078D01*
X128027078Y-106346815D01*
X127801000Y-106892615D01*
X127801000Y-107483385D01*
X128027078Y-108029185D01*
X128444815Y-108446922D01*
X128990615Y-108673000D01*
X129581385Y-108673000D01*
X130127185Y-108446922D01*
X130544922Y-108029185D01*
X130771000Y-107483385D01*
X130771000Y-106892615D01*
X130544922Y-106346815D01*
X130127185Y-105929078D01*
X130074389Y-105907209D01*
X130356625Y-105718625D01*
X130684839Y-105227418D01*
X130800092Y-104648000D01*
X130684839Y-104068582D01*
X130356625Y-103577375D01*
X130058239Y-103378000D01*
X130356625Y-103178625D01*
X130684839Y-102687418D01*
X130800092Y-102108000D01*
X130684839Y-101528582D01*
X130356625Y-101037375D01*
X130334967Y-101022904D01*
X130495698Y-100956327D01*
X130674327Y-100777699D01*
X130771000Y-100544310D01*
X130771000Y-99853750D01*
X130612250Y-99695000D01*
X129413000Y-99695000D01*
X129413000Y-99715000D01*
X129159000Y-99715000D01*
X129159000Y-99695000D01*
X127959750Y-99695000D01*
X127801000Y-99853750D01*
X127801000Y-100544310D01*
X127897673Y-100777699D01*
X128076302Y-100956327D01*
X128237033Y-101022904D01*
X128215375Y-101037375D01*
X127887161Y-101528582D01*
X127771908Y-102108000D01*
X121602500Y-102108000D01*
X121602500Y-101792227D01*
X121360818Y-101208753D01*
X120914247Y-100762182D01*
X120330773Y-100520500D01*
X119699227Y-100520500D01*
X119115753Y-100762182D01*
X118669182Y-101208753D01*
X118427500Y-101792227D01*
X116407000Y-101792227D01*
X116407000Y-82423000D01*
X116436608Y-82423000D01*
X116459001Y-82535576D01*
X116459000Y-91073429D01*
X116436608Y-91186000D01*
X116459000Y-91298571D01*
X116525318Y-91631975D01*
X116777943Y-92010057D01*
X116873382Y-92073827D01*
X120016175Y-95216620D01*
X120079943Y-95312057D01*
X120272172Y-95440500D01*
X119699227Y-95440500D01*
X119115753Y-95682182D01*
X118669182Y-96128753D01*
X118427500Y-96712227D01*
X118427500Y-97343773D01*
X118669182Y-97927247D01*
X119115753Y-98373818D01*
X119699227Y-98615500D01*
X120330773Y-98615500D01*
X120388255Y-98591690D01*
X127801000Y-98591690D01*
X127801000Y-99282250D01*
X127959750Y-99441000D01*
X129159000Y-99441000D01*
X129159000Y-98241750D01*
X129413000Y-98241750D01*
X129413000Y-99441000D01*
X130612250Y-99441000D01*
X130771000Y-99282250D01*
X130771000Y-98591690D01*
X130674327Y-98358301D01*
X130495698Y-98179673D01*
X130262309Y-98083000D01*
X129571750Y-98083000D01*
X129413000Y-98241750D01*
X129159000Y-98241750D01*
X129000250Y-98083000D01*
X128309691Y-98083000D01*
X128076302Y-98179673D01*
X127897673Y-98358301D01*
X127801000Y-98591690D01*
X120388255Y-98591690D01*
X120914247Y-98373818D01*
X121360818Y-97927247D01*
X121602500Y-97343773D01*
X121602500Y-96712227D01*
X121360818Y-96128753D01*
X120914247Y-95682182D01*
X120789993Y-95630715D01*
X120791428Y-95631000D01*
X120903999Y-95653392D01*
X121016570Y-95631000D01*
X138176001Y-95631000D01*
X138176000Y-96883794D01*
X138176000Y-97229062D01*
X138068135Y-97301135D01*
X137684666Y-97875037D01*
X137550010Y-98552000D01*
X137684666Y-99228963D01*
X138068135Y-99802865D01*
X138642037Y-100186334D01*
X139148120Y-100287000D01*
X139489880Y-100287000D01*
X139995963Y-100186334D01*
X140569865Y-99802865D01*
X140953334Y-99228963D01*
X141087990Y-98552000D01*
X141019343Y-98206887D01*
X147744000Y-98206887D01*
X147744000Y-98897113D01*
X148008138Y-99534799D01*
X148496201Y-100022862D01*
X149133887Y-100287000D01*
X149824113Y-100287000D01*
X150461799Y-100022862D01*
X150949862Y-99534799D01*
X151214000Y-98897113D01*
X151214000Y-98206887D01*
X150949862Y-97569201D01*
X150461799Y-97081138D01*
X149824113Y-96817000D01*
X149133887Y-96817000D01*
X148496201Y-97081138D01*
X148008138Y-97569201D01*
X147744000Y-98206887D01*
X141019343Y-98206887D01*
X140953334Y-97875037D01*
X140569865Y-97301135D01*
X140462000Y-97229062D01*
X140462000Y-95631000D01*
X144921429Y-95631000D01*
X145034000Y-95653392D01*
X145146571Y-95631000D01*
X145146572Y-95631000D01*
X145479976Y-95564682D01*
X145819230Y-95338000D01*
X146091385Y-95338000D01*
X146637185Y-95111922D01*
X147054922Y-94694185D01*
X147281000Y-94148385D01*
X147281000Y-93948561D01*
X150457000Y-93948561D01*
X150457000Y-94519439D01*
X150675466Y-95046862D01*
X151079138Y-95450534D01*
X151606561Y-95669000D01*
X152177439Y-95669000D01*
X152704862Y-95450534D01*
X153108534Y-95046862D01*
X153327000Y-94519439D01*
X153327000Y-93948561D01*
X153108534Y-93421138D01*
X152704862Y-93017466D01*
X152177439Y-92799000D01*
X151606561Y-92799000D01*
X151079138Y-93017466D01*
X150675466Y-93421138D01*
X150457000Y-93948561D01*
X147281000Y-93948561D01*
X147281000Y-93557615D01*
X147054922Y-93011815D01*
X146637185Y-92594078D01*
X146584389Y-92572209D01*
X146650926Y-92527750D01*
X158077000Y-92527750D01*
X158077000Y-93168309D01*
X158173673Y-93401698D01*
X158352301Y-93580327D01*
X158558759Y-93665845D01*
X158295466Y-93929138D01*
X158077000Y-94456561D01*
X158077000Y-95027439D01*
X158295466Y-95554862D01*
X158686501Y-95945897D01*
X158686500Y-108072393D01*
X158316578Y-108442315D01*
X158090500Y-108988115D01*
X158090500Y-109578885D01*
X158316578Y-110124685D01*
X158734315Y-110542422D01*
X159280115Y-110768500D01*
X159870885Y-110768500D01*
X160416685Y-110542422D01*
X160834422Y-110124685D01*
X160845500Y-110097940D01*
X160856578Y-110124685D01*
X161274315Y-110542422D01*
X161820115Y-110768500D01*
X162410885Y-110768500D01*
X162956685Y-110542422D01*
X163374422Y-110124685D01*
X163600500Y-109578885D01*
X163600500Y-108988115D01*
X163374422Y-108442315D01*
X162956685Y-108024578D01*
X162410885Y-107798500D01*
X161820115Y-107798500D01*
X161274315Y-108024578D01*
X160856578Y-108442315D01*
X160845500Y-108469060D01*
X160834422Y-108442315D01*
X160464500Y-108072393D01*
X160464500Y-95818896D01*
X160728534Y-95554862D01*
X160947000Y-95027439D01*
X160947000Y-94456561D01*
X160728534Y-93929138D01*
X160465241Y-93665845D01*
X160671699Y-93580327D01*
X160850327Y-93401698D01*
X160947000Y-93168309D01*
X160947000Y-92527750D01*
X160788250Y-92369000D01*
X159639000Y-92369000D01*
X159639000Y-92389000D01*
X159385000Y-92389000D01*
X159385000Y-92369000D01*
X158235750Y-92369000D01*
X158077000Y-92527750D01*
X146650926Y-92527750D01*
X146866625Y-92383625D01*
X147194839Y-91892418D01*
X147309556Y-91315691D01*
X158077000Y-91315691D01*
X158077000Y-91956250D01*
X158235750Y-92115000D01*
X159385000Y-92115000D01*
X159385000Y-90965750D01*
X159639000Y-90965750D01*
X159639000Y-92115000D01*
X160788250Y-92115000D01*
X160947000Y-91956250D01*
X160947000Y-91315691D01*
X160850327Y-91082302D01*
X160671699Y-90903673D01*
X160438310Y-90807000D01*
X159797750Y-90807000D01*
X159639000Y-90965750D01*
X159385000Y-90965750D01*
X159226250Y-90807000D01*
X158585690Y-90807000D01*
X158352301Y-90903673D01*
X158173673Y-91082302D01*
X158077000Y-91315691D01*
X147309556Y-91315691D01*
X147310092Y-91313000D01*
X147194839Y-90733582D01*
X146866625Y-90242375D01*
X146568239Y-90043000D01*
X146866625Y-89843625D01*
X147194839Y-89352418D01*
X147310092Y-88773000D01*
X147283190Y-88637750D01*
X158077000Y-88637750D01*
X158077000Y-89278309D01*
X158173673Y-89511698D01*
X158352301Y-89690327D01*
X158585690Y-89787000D01*
X159226250Y-89787000D01*
X159385000Y-89628250D01*
X159385000Y-88479000D01*
X159639000Y-88479000D01*
X159639000Y-89628250D01*
X159797750Y-89787000D01*
X160438310Y-89787000D01*
X160671699Y-89690327D01*
X160850327Y-89511698D01*
X160947000Y-89278309D01*
X160947000Y-88637750D01*
X160788250Y-88479000D01*
X159639000Y-88479000D01*
X159385000Y-88479000D01*
X158235750Y-88479000D01*
X158077000Y-88637750D01*
X147283190Y-88637750D01*
X147194839Y-88193582D01*
X146866625Y-87702375D01*
X146844967Y-87687904D01*
X147005698Y-87621327D01*
X147184327Y-87442699D01*
X147281000Y-87209310D01*
X147281000Y-86518750D01*
X147122250Y-86360000D01*
X145923000Y-86360000D01*
X145923000Y-86380000D01*
X145669000Y-86380000D01*
X145669000Y-86360000D01*
X144469750Y-86360000D01*
X144311000Y-86518750D01*
X144311000Y-87209310D01*
X144407673Y-87442699D01*
X144586302Y-87621327D01*
X144747033Y-87687904D01*
X144725375Y-87702375D01*
X144397161Y-88193582D01*
X144281908Y-88773000D01*
X144397161Y-89352418D01*
X144725375Y-89843625D01*
X145023761Y-90043000D01*
X144725375Y-90242375D01*
X144397161Y-90733582D01*
X144281908Y-91313000D01*
X144397161Y-91892418D01*
X144725375Y-92383625D01*
X145007611Y-92572209D01*
X144954815Y-92594078D01*
X144537078Y-93011815D01*
X144399068Y-93345000D01*
X139431572Y-93345000D01*
X139319000Y-93322608D01*
X139206428Y-93345000D01*
X121377446Y-93345000D01*
X119789945Y-91757500D01*
X120330773Y-91757500D01*
X120914247Y-91515818D01*
X121360818Y-91069247D01*
X121602500Y-90485773D01*
X121602500Y-90297000D01*
X127437343Y-90297000D01*
X127085680Y-90648663D01*
X126873000Y-91162119D01*
X126873000Y-91717881D01*
X127085680Y-92231337D01*
X127478663Y-92624320D01*
X127992119Y-92837000D01*
X128547881Y-92837000D01*
X129061337Y-92624320D01*
X129454320Y-92231337D01*
X129540000Y-92024487D01*
X129625680Y-92231337D01*
X130018663Y-92624320D01*
X130532119Y-92837000D01*
X131087881Y-92837000D01*
X131601337Y-92624320D01*
X131953000Y-92272657D01*
X131953000Y-92328310D01*
X132049673Y-92561699D01*
X132228302Y-92740327D01*
X132461691Y-92837000D01*
X133064250Y-92837000D01*
X133223000Y-92678250D01*
X133223000Y-91567000D01*
X133203000Y-91567000D01*
X133203000Y-91313000D01*
X133223000Y-91313000D01*
X133223000Y-91293000D01*
X133477000Y-91293000D01*
X133477000Y-91313000D01*
X133497000Y-91313000D01*
X133497000Y-91567000D01*
X133477000Y-91567000D01*
X133477000Y-92678250D01*
X133635750Y-92837000D01*
X134238309Y-92837000D01*
X134471698Y-92740327D01*
X134650327Y-92561699D01*
X134747000Y-92328310D01*
X134747000Y-92272657D01*
X135098663Y-92624320D01*
X135612119Y-92837000D01*
X136167881Y-92837000D01*
X136681337Y-92624320D01*
X137074320Y-92231337D01*
X137160000Y-92024487D01*
X137245680Y-92231337D01*
X137638663Y-92624320D01*
X138152119Y-92837000D01*
X138707881Y-92837000D01*
X139221337Y-92624320D01*
X139573000Y-92272657D01*
X139573000Y-92328310D01*
X139669673Y-92561699D01*
X139848302Y-92740327D01*
X140081691Y-92837000D01*
X140684250Y-92837000D01*
X140843000Y-92678250D01*
X140843000Y-91567000D01*
X141097000Y-91567000D01*
X141097000Y-92678250D01*
X141255750Y-92837000D01*
X141858309Y-92837000D01*
X142091698Y-92740327D01*
X142270327Y-92561699D01*
X142367000Y-92328310D01*
X142367000Y-91725750D01*
X142208250Y-91567000D01*
X141097000Y-91567000D01*
X140843000Y-91567000D01*
X140823000Y-91567000D01*
X140823000Y-91313000D01*
X140843000Y-91313000D01*
X140843000Y-90201750D01*
X141097000Y-90201750D01*
X141097000Y-91313000D01*
X142208250Y-91313000D01*
X142367000Y-91154250D01*
X142367000Y-90551690D01*
X142270327Y-90318301D01*
X142091698Y-90139673D01*
X141858309Y-90043000D01*
X141255750Y-90043000D01*
X141097000Y-90201750D01*
X140843000Y-90201750D01*
X140684250Y-90043000D01*
X140081691Y-90043000D01*
X139848302Y-90139673D01*
X139669673Y-90318301D01*
X139573000Y-90551690D01*
X139573000Y-90607343D01*
X139221337Y-90255680D01*
X138707881Y-90043000D01*
X138152119Y-90043000D01*
X137638663Y-90255680D01*
X137245680Y-90648663D01*
X137160000Y-90855513D01*
X137074320Y-90648663D01*
X137033000Y-90607343D01*
X137033000Y-89266572D01*
X137055392Y-89154000D01*
X137033000Y-89041428D01*
X137033000Y-87192657D01*
X137074320Y-87151337D01*
X137160000Y-86944487D01*
X137245680Y-87151337D01*
X137638663Y-87544320D01*
X138152119Y-87757000D01*
X138707881Y-87757000D01*
X139221337Y-87544320D01*
X139614320Y-87151337D01*
X139700000Y-86944487D01*
X139785680Y-87151337D01*
X140178663Y-87544320D01*
X140692119Y-87757000D01*
X141247881Y-87757000D01*
X141761337Y-87544320D01*
X142154320Y-87151337D01*
X142367000Y-86637881D01*
X142367000Y-86220235D01*
X143330545Y-85256690D01*
X144311000Y-85256690D01*
X144311000Y-85947250D01*
X144469750Y-86106000D01*
X145669000Y-86106000D01*
X145669000Y-84906750D01*
X145923000Y-84906750D01*
X145923000Y-86106000D01*
X147122250Y-86106000D01*
X147281000Y-85947250D01*
X147281000Y-85256690D01*
X147184327Y-85023301D01*
X147005698Y-84844673D01*
X146772309Y-84748000D01*
X146081750Y-84748000D01*
X145923000Y-84906750D01*
X145669000Y-84906750D01*
X145510250Y-84748000D01*
X144819691Y-84748000D01*
X144586302Y-84844673D01*
X144407673Y-85023301D01*
X144311000Y-85256690D01*
X143330545Y-85256690D01*
X143822707Y-84764529D01*
X143896933Y-84714933D01*
X144093419Y-84420870D01*
X144145000Y-84161556D01*
X144145000Y-84161552D01*
X144162415Y-84074001D01*
X144145000Y-83986450D01*
X144145000Y-82430000D01*
X144586887Y-82430000D01*
X144698260Y-82989909D01*
X145015423Y-83464577D01*
X145490091Y-83781740D01*
X145908667Y-83865000D01*
X146191333Y-83865000D01*
X146609909Y-83781740D01*
X147084577Y-83464577D01*
X147401740Y-82989909D01*
X147513113Y-82430000D01*
X147478192Y-82254436D01*
X150279100Y-82254436D01*
X150279100Y-82845564D01*
X150505314Y-83391695D01*
X150876000Y-83762381D01*
X150876001Y-85567010D01*
X150857423Y-85579423D01*
X150540260Y-86054091D01*
X150428887Y-86614000D01*
X150540260Y-87173909D01*
X150857423Y-87648577D01*
X151332091Y-87965740D01*
X151750667Y-88049000D01*
X152033333Y-88049000D01*
X152451909Y-87965740D01*
X152926577Y-87648577D01*
X153243740Y-87173909D01*
X153355113Y-86614000D01*
X153243740Y-86054091D01*
X152926577Y-85579423D01*
X152907328Y-85566561D01*
X158077000Y-85566561D01*
X158077000Y-86137439D01*
X158295466Y-86664862D01*
X158558759Y-86928155D01*
X158352301Y-87013673D01*
X158173673Y-87192302D01*
X158077000Y-87425691D01*
X158077000Y-88066250D01*
X158235750Y-88225000D01*
X159385000Y-88225000D01*
X159385000Y-88205000D01*
X159639000Y-88205000D01*
X159639000Y-88225000D01*
X160788250Y-88225000D01*
X160947000Y-88066250D01*
X160947000Y-87425691D01*
X160850327Y-87192302D01*
X160671699Y-87013673D01*
X160465241Y-86928155D01*
X160728534Y-86664862D01*
X160947000Y-86137439D01*
X160947000Y-85566561D01*
X160728534Y-85039138D01*
X160324862Y-84635466D01*
X159797439Y-84417000D01*
X159226561Y-84417000D01*
X158699138Y-84635466D01*
X158295466Y-85039138D01*
X158077000Y-85566561D01*
X152907328Y-85566561D01*
X152654000Y-85397293D01*
X152654000Y-83762381D01*
X152839624Y-83576757D01*
X152915773Y-83760598D01*
X153094401Y-83939227D01*
X153327790Y-84035900D01*
X154019250Y-84035900D01*
X154178000Y-83877150D01*
X154178000Y-82677000D01*
X154158000Y-82677000D01*
X154158000Y-82423000D01*
X154178000Y-82423000D01*
X154178000Y-81222850D01*
X154432000Y-81222850D01*
X154432000Y-82423000D01*
X154452000Y-82423000D01*
X154452000Y-82677000D01*
X154432000Y-82677000D01*
X154432000Y-83877150D01*
X154590750Y-84035900D01*
X155282210Y-84035900D01*
X155515599Y-83939227D01*
X155694227Y-83760598D01*
X155770376Y-83576757D01*
X156003305Y-83809686D01*
X156549436Y-84035900D01*
X157140564Y-84035900D01*
X157686695Y-83809686D01*
X158104686Y-83391695D01*
X158330900Y-82845564D01*
X158330900Y-82254436D01*
X158104686Y-81708305D01*
X157686695Y-81290314D01*
X157140564Y-81064100D01*
X156549436Y-81064100D01*
X156003305Y-81290314D01*
X155770376Y-81523243D01*
X155694227Y-81339402D01*
X155515599Y-81160773D01*
X155282210Y-81064100D01*
X154590750Y-81064100D01*
X154432000Y-81222850D01*
X154178000Y-81222850D01*
X154019250Y-81064100D01*
X153327790Y-81064100D01*
X153094401Y-81160773D01*
X152915773Y-81339402D01*
X152839624Y-81523243D01*
X152606695Y-81290314D01*
X152060564Y-81064100D01*
X151469436Y-81064100D01*
X150923305Y-81290314D01*
X150505314Y-81708305D01*
X150279100Y-82254436D01*
X147478192Y-82254436D01*
X147401740Y-81870091D01*
X147084577Y-81395423D01*
X146609909Y-81078260D01*
X146191333Y-80995000D01*
X145908667Y-80995000D01*
X145490091Y-81078260D01*
X145015423Y-81395423D01*
X144698260Y-81870091D01*
X144586887Y-82430000D01*
X144145000Y-82430000D01*
X144145000Y-70197485D01*
X144476009Y-69866476D01*
X144486323Y-69841576D01*
X144496637Y-69866476D01*
X144851299Y-70221138D01*
X144849907Y-70228135D01*
X144907000Y-70515157D01*
X144907001Y-71540441D01*
X144907000Y-71540445D01*
X144907000Y-71603945D01*
X144889584Y-71691500D01*
X144907000Y-71779055D01*
X144907000Y-71779056D01*
X144958581Y-72038370D01*
X145155067Y-72332433D01*
X145229296Y-72382031D01*
X146347091Y-73499827D01*
X146335439Y-73495000D01*
X145764561Y-73495000D01*
X145237138Y-73713466D01*
X144833466Y-74117138D01*
X144615000Y-74644561D01*
X144615000Y-75215439D01*
X144833466Y-75742862D01*
X145237138Y-76146534D01*
X145764561Y-76365000D01*
X146335439Y-76365000D01*
X146862862Y-76146534D01*
X147266534Y-75742862D01*
X147485000Y-75215439D01*
X147485000Y-74644561D01*
X147480174Y-74632909D01*
X152468293Y-79621029D01*
X152688129Y-79767918D01*
X152733643Y-79776971D01*
X152815130Y-79831419D01*
X153074444Y-79883000D01*
X160159765Y-79883000D01*
X162433001Y-82156237D01*
X162433000Y-85781713D01*
X162433001Y-85781718D01*
X162433000Y-96940445D01*
X162415584Y-97028000D01*
X162433000Y-97115555D01*
X162484581Y-97374869D01*
X162681067Y-97668933D01*
X162755296Y-97718531D01*
X172537471Y-107500707D01*
X172587067Y-107574933D01*
X172661293Y-107624529D01*
X172881129Y-107771419D01*
X173228000Y-107840416D01*
X173315556Y-107823000D01*
X179144652Y-107823000D01*
X179241923Y-107968577D01*
X179716591Y-108285740D01*
X180135167Y-108369000D01*
X180417833Y-108369000D01*
X180836409Y-108285740D01*
X181311077Y-107968577D01*
X181628240Y-107493909D01*
X181739613Y-106934000D01*
X181628240Y-106374091D01*
X181311077Y-105899423D01*
X180836409Y-105582260D01*
X180417833Y-105499000D01*
X180135167Y-105499000D01*
X179716591Y-105582260D01*
X179241923Y-105899423D01*
X179144652Y-106045000D01*
X173596236Y-106045000D01*
X164211000Y-96659765D01*
X164211000Y-83820212D01*
X167905323Y-83820212D01*
X167905323Y-84709350D01*
X168245582Y-85530807D01*
X168874297Y-86159522D01*
X169695754Y-86499781D01*
X170584892Y-86499781D01*
X171406349Y-86159522D01*
X172035064Y-85530807D01*
X172375323Y-84709350D01*
X172375323Y-83820212D01*
X172035064Y-82998755D01*
X171406349Y-82370040D01*
X170584892Y-82029781D01*
X169695754Y-82029781D01*
X168874297Y-82370040D01*
X168245582Y-82998755D01*
X167905323Y-83820212D01*
X164211000Y-83820212D01*
X164211000Y-81875555D01*
X164228416Y-81788000D01*
X164209793Y-81694378D01*
X164159419Y-81441130D01*
X163962933Y-81147067D01*
X163888707Y-81097471D01*
X161218531Y-78427296D01*
X161168933Y-78353067D01*
X160874870Y-78156581D01*
X160615556Y-78105000D01*
X160615555Y-78105000D01*
X160528000Y-78087584D01*
X160440445Y-78105000D01*
X153466736Y-78105000D01*
X152958736Y-77597000D01*
X156503445Y-77597000D01*
X156591000Y-77614416D01*
X156678555Y-77597000D01*
X156678556Y-77597000D01*
X156937870Y-77545419D01*
X157231933Y-77348933D01*
X157281531Y-77274704D01*
X157411704Y-77144531D01*
X157485933Y-77094933D01*
X157682419Y-76800870D01*
X157734000Y-76541556D01*
X157734000Y-76541552D01*
X157751415Y-76454001D01*
X157734000Y-76366450D01*
X157734000Y-76142381D01*
X158057381Y-75819000D01*
X179109445Y-75819000D01*
X179197000Y-75836416D01*
X179284555Y-75819000D01*
X179284556Y-75819000D01*
X179543870Y-75767419D01*
X179837933Y-75570933D01*
X179887531Y-75496704D01*
X183573707Y-71810529D01*
X183647933Y-71760933D01*
X183795259Y-71540444D01*
X183844419Y-71466871D01*
X183913416Y-71120000D01*
X183896000Y-71032444D01*
X183896000Y-70070485D01*
X184100009Y-69866476D01*
X184110323Y-69841576D01*
X184120637Y-69866476D01*
X184404001Y-70149840D01*
X184404000Y-108878445D01*
X184386584Y-108966000D01*
X184404000Y-109053555D01*
X184455581Y-109312869D01*
X184652067Y-109606933D01*
X184726296Y-109656531D01*
X187396470Y-112326706D01*
X187446067Y-112400933D01*
X187740130Y-112597419D01*
X187999444Y-112649000D01*
X187999445Y-112649000D01*
X188087000Y-112666416D01*
X188174555Y-112649000D01*
X192457676Y-112649000D01*
X192570549Y-112724419D01*
X192829863Y-112776000D01*
X192829864Y-112776000D01*
X192917418Y-112793416D01*
X192936604Y-112789600D01*
X193048875Y-112957625D01*
X193540082Y-113285839D01*
X193973244Y-113372000D01*
X194265756Y-113372000D01*
X194698918Y-113285839D01*
X195190125Y-112957625D01*
X195518339Y-112466418D01*
X195633592Y-111887000D01*
X195518339Y-111307582D01*
X195190125Y-110816375D01*
X195168467Y-110801904D01*
X195329198Y-110735327D01*
X195507827Y-110556699D01*
X195604500Y-110323310D01*
X195604500Y-109632750D01*
X195445750Y-109474000D01*
X194246500Y-109474000D01*
X194246500Y-109494000D01*
X193992500Y-109494000D01*
X193992500Y-109474000D01*
X192793250Y-109474000D01*
X192634500Y-109632750D01*
X192634500Y-110323310D01*
X192731173Y-110556699D01*
X192909802Y-110735327D01*
X193070533Y-110801904D01*
X193048875Y-110816375D01*
X192996608Y-110894598D01*
X192877975Y-110871000D01*
X192877974Y-110871000D01*
X192790419Y-110853584D01*
X192702864Y-110871000D01*
X188455236Y-110871000D01*
X186182000Y-108597765D01*
X186182000Y-106648561D01*
X186461500Y-106648561D01*
X186461500Y-107219439D01*
X186679966Y-107746862D01*
X187083638Y-108150534D01*
X187611061Y-108369000D01*
X188181939Y-108369000D01*
X188709362Y-108150534D01*
X189036896Y-107823000D01*
X192927517Y-107823000D01*
X192994679Y-107923516D01*
X192909802Y-107958673D01*
X192731173Y-108137301D01*
X192634500Y-108370690D01*
X192634500Y-109061250D01*
X192793250Y-109220000D01*
X193992500Y-109220000D01*
X193992500Y-109200000D01*
X194246500Y-109200000D01*
X194246500Y-109220000D01*
X195445750Y-109220000D01*
X195604500Y-109061250D01*
X195604500Y-108370690D01*
X195507827Y-108137301D01*
X195329198Y-107958673D01*
X195244321Y-107923516D01*
X195518339Y-107513418D01*
X195633592Y-106934000D01*
X195518339Y-106354582D01*
X195190125Y-105863375D01*
X195168467Y-105848904D01*
X195329198Y-105782327D01*
X195507827Y-105603699D01*
X195604500Y-105370310D01*
X195604500Y-104679750D01*
X195445750Y-104521000D01*
X194246500Y-104521000D01*
X194246500Y-104541000D01*
X193992500Y-104541000D01*
X193992500Y-104521000D01*
X192793250Y-104521000D01*
X192634500Y-104679750D01*
X192634500Y-105370310D01*
X192731173Y-105603699D01*
X192909802Y-105782327D01*
X193070533Y-105848904D01*
X193048875Y-105863375D01*
X192927517Y-106045000D01*
X189036896Y-106045000D01*
X188709362Y-105717466D01*
X188181939Y-105499000D01*
X187611061Y-105499000D01*
X187083638Y-105717466D01*
X186679966Y-106121138D01*
X186461500Y-106648561D01*
X186182000Y-106648561D01*
X186182000Y-101727000D01*
X192605408Y-101727000D01*
X192720661Y-102306418D01*
X193048875Y-102797625D01*
X193215559Y-102909000D01*
X193143191Y-102909000D01*
X192909802Y-103005673D01*
X192731173Y-103184301D01*
X192634500Y-103417690D01*
X192634500Y-104108250D01*
X192793250Y-104267000D01*
X193992500Y-104267000D01*
X193992500Y-104247000D01*
X194246500Y-104247000D01*
X194246500Y-104267000D01*
X195445750Y-104267000D01*
X195604500Y-104108250D01*
X195604500Y-103417690D01*
X195507827Y-103184301D01*
X195329198Y-103005673D01*
X195095809Y-102909000D01*
X195023441Y-102909000D01*
X195190125Y-102797625D01*
X195518339Y-102306418D01*
X195633592Y-101727000D01*
X195518339Y-101147582D01*
X195190125Y-100656375D01*
X195168467Y-100641904D01*
X195329198Y-100575327D01*
X195507827Y-100396699D01*
X195604500Y-100163310D01*
X195604500Y-99472750D01*
X195445750Y-99314000D01*
X194246500Y-99314000D01*
X194246500Y-99334000D01*
X193992500Y-99334000D01*
X193992500Y-99314000D01*
X192793250Y-99314000D01*
X192634500Y-99472750D01*
X192634500Y-100163310D01*
X192731173Y-100396699D01*
X192909802Y-100575327D01*
X193070533Y-100641904D01*
X193048875Y-100656375D01*
X192720661Y-101147582D01*
X192605408Y-101727000D01*
X186182000Y-101727000D01*
X186182000Y-94329250D01*
X192507500Y-94329250D01*
X192507500Y-95019810D01*
X192604173Y-95253199D01*
X192782802Y-95431827D01*
X193016191Y-95528500D01*
X193137893Y-95528500D01*
X192860578Y-95805815D01*
X192634500Y-96351615D01*
X192634500Y-96942385D01*
X192860578Y-97488185D01*
X193094543Y-97722150D01*
X192909802Y-97798673D01*
X192731173Y-97977301D01*
X192634500Y-98210690D01*
X192634500Y-98901250D01*
X192793250Y-99060000D01*
X193992500Y-99060000D01*
X193992500Y-99040000D01*
X194246500Y-99040000D01*
X194246500Y-99060000D01*
X195445750Y-99060000D01*
X195604500Y-98901250D01*
X195604500Y-98210690D01*
X195507827Y-97977301D01*
X195329198Y-97798673D01*
X195144457Y-97722150D01*
X195378422Y-97488185D01*
X195604500Y-96942385D01*
X195604500Y-96351615D01*
X195378422Y-95805815D01*
X195062358Y-95489751D01*
X195202198Y-95431827D01*
X195380827Y-95253199D01*
X195477500Y-95019810D01*
X195477500Y-94329250D01*
X195318750Y-94170500D01*
X194119500Y-94170500D01*
X194119500Y-94190500D01*
X193865500Y-94190500D01*
X193865500Y-94170500D01*
X192666250Y-94170500D01*
X192507500Y-94329250D01*
X186182000Y-94329250D01*
X186182000Y-70301043D01*
X186222018Y-70284467D01*
X186640009Y-69866476D01*
X186650323Y-69841576D01*
X186660637Y-69866476D01*
X187078628Y-70284467D01*
X187624759Y-70510681D01*
X188215887Y-70510681D01*
X188762018Y-70284467D01*
X189180009Y-69866476D01*
X189190323Y-69841576D01*
X189200637Y-69866476D01*
X189618628Y-70284467D01*
X190164759Y-70510681D01*
X190755887Y-70510681D01*
X191302018Y-70284467D01*
X191720009Y-69866476D01*
X191946223Y-69320345D01*
X191946223Y-68729217D01*
X191720009Y-68183086D01*
X191302018Y-67765095D01*
X190755887Y-67538881D01*
X190164759Y-67538881D01*
X189618628Y-67765095D01*
X189200637Y-68183086D01*
X189190323Y-68207986D01*
X189180009Y-68183086D01*
X188762018Y-67765095D01*
X188215887Y-67538881D01*
X187624759Y-67538881D01*
X187078628Y-67765095D01*
X186660637Y-68183086D01*
X186650323Y-68207986D01*
X186640009Y-68183086D01*
X186222018Y-67765095D01*
X185675887Y-67538881D01*
X185084759Y-67538881D01*
X184538628Y-67765095D01*
X184120637Y-68183086D01*
X184110323Y-68207986D01*
X184100009Y-68183086D01*
X183682018Y-67765095D01*
X183135887Y-67538881D01*
X182544759Y-67538881D01*
X181998628Y-67765095D01*
X181580637Y-68183086D01*
X181570323Y-68207986D01*
X181560009Y-68183086D01*
X181142018Y-67765095D01*
X180595887Y-67538881D01*
X180004759Y-67538881D01*
X179458628Y-67765095D01*
X179040637Y-68183086D01*
X179030323Y-68207986D01*
X179020009Y-68183086D01*
X178602018Y-67765095D01*
X178055887Y-67538881D01*
X177464759Y-67538881D01*
X176918628Y-67765095D01*
X176500637Y-68183086D01*
X176490323Y-68207986D01*
X176480009Y-68183086D01*
X176062018Y-67765095D01*
X175515887Y-67538881D01*
X174924759Y-67538881D01*
X174378628Y-67765095D01*
X173960637Y-68183086D01*
X173950323Y-68207986D01*
X173940009Y-68183086D01*
X173522018Y-67765095D01*
X172975887Y-67538881D01*
X172384759Y-67538881D01*
X171838628Y-67765095D01*
X171420637Y-68183086D01*
X171194423Y-68729217D01*
X171194423Y-69320345D01*
X171420637Y-69866476D01*
X171838628Y-70284467D01*
X172384759Y-70510681D01*
X172975887Y-70510681D01*
X173522018Y-70284467D01*
X173940009Y-69866476D01*
X173950323Y-69841576D01*
X173960637Y-69866476D01*
X174378628Y-70284467D01*
X174924759Y-70510681D01*
X175515887Y-70510681D01*
X176062018Y-70284467D01*
X176480009Y-69866476D01*
X176490323Y-69841576D01*
X176500637Y-69866476D01*
X176918628Y-70284467D01*
X177464759Y-70510681D01*
X178055887Y-70510681D01*
X178602018Y-70284467D01*
X179020009Y-69866476D01*
X179030323Y-69841576D01*
X179040637Y-69866476D01*
X179458628Y-70284467D01*
X180004759Y-70510681D01*
X180595887Y-70510681D01*
X181142018Y-70284467D01*
X181560009Y-69866476D01*
X181570323Y-69841576D01*
X181580637Y-69866476D01*
X181998628Y-70284467D01*
X182118000Y-70333912D01*
X182118000Y-70751764D01*
X178828765Y-74041000D01*
X158057381Y-74041000D01*
X157686695Y-73670314D01*
X157140564Y-73444100D01*
X156549436Y-73444100D01*
X156003305Y-73670314D01*
X155770376Y-73903243D01*
X155694227Y-73719402D01*
X155515599Y-73540773D01*
X155282210Y-73444100D01*
X154590750Y-73444100D01*
X154432000Y-73602850D01*
X154432000Y-74803000D01*
X154452000Y-74803000D01*
X154452000Y-75057000D01*
X154432000Y-75057000D01*
X154432000Y-75077000D01*
X154178000Y-75077000D01*
X154178000Y-75057000D01*
X154158000Y-75057000D01*
X154158000Y-74803000D01*
X154178000Y-74803000D01*
X154178000Y-73602850D01*
X154019250Y-73444100D01*
X153327790Y-73444100D01*
X153094401Y-73540773D01*
X152915773Y-73719402D01*
X152839624Y-73903243D01*
X152606695Y-73670314D01*
X152060564Y-73444100D01*
X151469436Y-73444100D01*
X150923305Y-73670314D01*
X150505314Y-74088305D01*
X150279100Y-74634436D01*
X150279100Y-74917364D01*
X146685000Y-71323265D01*
X146685000Y-70355367D01*
X146702416Y-70267812D01*
X146687858Y-70194627D01*
X147016009Y-69866476D01*
X147242223Y-69320345D01*
X147242223Y-68729217D01*
X148334423Y-68729217D01*
X148334423Y-69320345D01*
X148560637Y-69866476D01*
X148978628Y-70284467D01*
X149524759Y-70510681D01*
X150115887Y-70510681D01*
X150662018Y-70284467D01*
X151080009Y-69866476D01*
X151090323Y-69841576D01*
X151100637Y-69866476D01*
X151518628Y-70284467D01*
X152064759Y-70510681D01*
X152655887Y-70510681D01*
X153202018Y-70284467D01*
X153620009Y-69866476D01*
X153630323Y-69841576D01*
X153640637Y-69866476D01*
X154058628Y-70284467D01*
X154604759Y-70510681D01*
X155195887Y-70510681D01*
X155742018Y-70284467D01*
X156160009Y-69866476D01*
X156170323Y-69841576D01*
X156180637Y-69866476D01*
X156598628Y-70284467D01*
X157144759Y-70510681D01*
X157735887Y-70510681D01*
X158282018Y-70284467D01*
X158700009Y-69866476D01*
X158710323Y-69841576D01*
X158720637Y-69866476D01*
X159138628Y-70284467D01*
X159684759Y-70510681D01*
X160275887Y-70510681D01*
X160822018Y-70284467D01*
X161240009Y-69866476D01*
X161250323Y-69841576D01*
X161260637Y-69866476D01*
X161678628Y-70284467D01*
X162224759Y-70510681D01*
X162815887Y-70510681D01*
X163362018Y-70284467D01*
X163780009Y-69866476D01*
X163790323Y-69841576D01*
X163800637Y-69866476D01*
X164218628Y-70284467D01*
X164764759Y-70510681D01*
X165355887Y-70510681D01*
X165902018Y-70284467D01*
X166320009Y-69866476D01*
X166330323Y-69841576D01*
X166340637Y-69866476D01*
X166758628Y-70284467D01*
X167304759Y-70510681D01*
X167895887Y-70510681D01*
X168442018Y-70284467D01*
X168860009Y-69866476D01*
X169086223Y-69320345D01*
X169086223Y-68729217D01*
X168860009Y-68183086D01*
X168442018Y-67765095D01*
X167895887Y-67538881D01*
X167304759Y-67538881D01*
X166758628Y-67765095D01*
X166340637Y-68183086D01*
X166330323Y-68207986D01*
X166320009Y-68183086D01*
X165902018Y-67765095D01*
X165355887Y-67538881D01*
X164764759Y-67538881D01*
X164218628Y-67765095D01*
X163800637Y-68183086D01*
X163790323Y-68207986D01*
X163780009Y-68183086D01*
X163362018Y-67765095D01*
X162815887Y-67538881D01*
X162224759Y-67538881D01*
X161678628Y-67765095D01*
X161260637Y-68183086D01*
X161250323Y-68207986D01*
X161240009Y-68183086D01*
X160822018Y-67765095D01*
X160275887Y-67538881D01*
X159684759Y-67538881D01*
X159138628Y-67765095D01*
X158720637Y-68183086D01*
X158710323Y-68207986D01*
X158700009Y-68183086D01*
X158282018Y-67765095D01*
X157735887Y-67538881D01*
X157144759Y-67538881D01*
X156598628Y-67765095D01*
X156180637Y-68183086D01*
X156170323Y-68207986D01*
X156160009Y-68183086D01*
X155742018Y-67765095D01*
X155195887Y-67538881D01*
X154604759Y-67538881D01*
X154058628Y-67765095D01*
X153640637Y-68183086D01*
X153630323Y-68207986D01*
X153620009Y-68183086D01*
X153202018Y-67765095D01*
X152655887Y-67538881D01*
X152064759Y-67538881D01*
X151518628Y-67765095D01*
X151100637Y-68183086D01*
X151090323Y-68207986D01*
X151080009Y-68183086D01*
X150662018Y-67765095D01*
X150115887Y-67538881D01*
X149524759Y-67538881D01*
X148978628Y-67765095D01*
X148560637Y-68183086D01*
X148334423Y-68729217D01*
X147242223Y-68729217D01*
X147016009Y-68183086D01*
X146598018Y-67765095D01*
X146051887Y-67538881D01*
X145460759Y-67538881D01*
X144914628Y-67765095D01*
X144496637Y-68183086D01*
X144486323Y-68207986D01*
X144476009Y-68183086D01*
X144058018Y-67765095D01*
X143511887Y-67538881D01*
X142920759Y-67538881D01*
X142374628Y-67765095D01*
X141956637Y-68183086D01*
X141946323Y-68207986D01*
X141936009Y-68183086D01*
X141518018Y-67765095D01*
X140971887Y-67538881D01*
X140380759Y-67538881D01*
X139834628Y-67765095D01*
X139416637Y-68183086D01*
X139406323Y-68207986D01*
X139396009Y-68183086D01*
X138978018Y-67765095D01*
X138431887Y-67538881D01*
X137840759Y-67538881D01*
X137294628Y-67765095D01*
X136876637Y-68183086D01*
X136866323Y-68207986D01*
X136856009Y-68183086D01*
X136438018Y-67765095D01*
X135891887Y-67538881D01*
X135300759Y-67538881D01*
X134754628Y-67765095D01*
X134336637Y-68183086D01*
X134326323Y-68207986D01*
X134316009Y-68183086D01*
X133898018Y-67765095D01*
X133351887Y-67538881D01*
X132760759Y-67538881D01*
X132214628Y-67765095D01*
X131981699Y-67998024D01*
X131905550Y-67814183D01*
X131726922Y-67635554D01*
X131493533Y-67538881D01*
X130802073Y-67538881D01*
X130643323Y-67697631D01*
X130643323Y-68897781D01*
X130663323Y-68897781D01*
X130663323Y-69151781D01*
X130643323Y-69151781D01*
X130643323Y-70351931D01*
X130802073Y-70510681D01*
X131493533Y-70510681D01*
X131726922Y-70414008D01*
X131905550Y-70235379D01*
X131981699Y-70051538D01*
X132214628Y-70284467D01*
X132760759Y-70510681D01*
X133351887Y-70510681D01*
X133898018Y-70284467D01*
X134316009Y-69866476D01*
X134326323Y-69841576D01*
X134336637Y-69866476D01*
X134754628Y-70284467D01*
X135300759Y-70510681D01*
X135891887Y-70510681D01*
X136438018Y-70284467D01*
X136856009Y-69866476D01*
X136866323Y-69841576D01*
X136876637Y-69866476D01*
X137294628Y-70284467D01*
X137840759Y-70510681D01*
X138431887Y-70510681D01*
X138978018Y-70284467D01*
X139396009Y-69866476D01*
X139406323Y-69841576D01*
X139416637Y-69866476D01*
X139834628Y-70284467D01*
X140380759Y-70510681D01*
X140971887Y-70510681D01*
X141518018Y-70284467D01*
X141936009Y-69866476D01*
X141946323Y-69841576D01*
X141956637Y-69866476D01*
X142367001Y-70276840D01*
X142367000Y-77851690D01*
X142270327Y-77618301D01*
X142091698Y-77439673D01*
X141858309Y-77343000D01*
X141255750Y-77343000D01*
X141097000Y-77501750D01*
X141097000Y-78613000D01*
X141117000Y-78613000D01*
X141117000Y-78867000D01*
X141097000Y-78867000D01*
X141097000Y-79978250D01*
X141255750Y-80137000D01*
X141858309Y-80137000D01*
X142091698Y-80040327D01*
X142270327Y-79861699D01*
X142367000Y-79628310D01*
X142367000Y-83705764D01*
X141109765Y-84963000D01*
X140692119Y-84963000D01*
X140178663Y-85175680D01*
X139785680Y-85568663D01*
X139700000Y-85775513D01*
X139614320Y-85568663D01*
X139221337Y-85175680D01*
X138707881Y-84963000D01*
X138152119Y-84963000D01*
X137638663Y-85175680D01*
X137245680Y-85568663D01*
X137160000Y-85775513D01*
X137074320Y-85568663D01*
X136681337Y-85175680D01*
X136167881Y-84963000D01*
X135612119Y-84963000D01*
X135098663Y-85175680D01*
X134705680Y-85568663D01*
X134626572Y-85759647D01*
X134572397Y-85628857D01*
X134330213Y-85559392D01*
X133529605Y-86360000D01*
X134330213Y-87160608D01*
X134572397Y-87091143D01*
X134622535Y-86950607D01*
X134705680Y-87151337D01*
X134747000Y-87192657D01*
X134747001Y-88011000D01*
X121143571Y-88011000D01*
X121031000Y-87988608D01*
X120918429Y-88011000D01*
X120918428Y-88011000D01*
X120585024Y-88077318D01*
X120206943Y-88329943D01*
X120143174Y-88425380D01*
X119986054Y-88582500D01*
X119699227Y-88582500D01*
X119115753Y-88824182D01*
X118745000Y-89194935D01*
X118745000Y-86065065D01*
X119115753Y-86435818D01*
X119699227Y-86677500D01*
X120330773Y-86677500D01*
X120914247Y-86435818D01*
X121360818Y-85989247D01*
X121602500Y-85405773D01*
X121602500Y-85118947D01*
X121758448Y-84963000D01*
X127796555Y-84963000D01*
X127853834Y-85020279D01*
X127478663Y-85175680D01*
X127085680Y-85568663D01*
X126873000Y-86082119D01*
X126873000Y-86637881D01*
X127085680Y-87151337D01*
X127478663Y-87544320D01*
X127992119Y-87757000D01*
X128547881Y-87757000D01*
X129061337Y-87544320D01*
X129454320Y-87151337D01*
X129540000Y-86944487D01*
X129625680Y-87151337D01*
X130018663Y-87544320D01*
X130532119Y-87757000D01*
X131087881Y-87757000D01*
X131601337Y-87544320D01*
X131805444Y-87340213D01*
X132549392Y-87340213D01*
X132618857Y-87582397D01*
X133142302Y-87769144D01*
X133697368Y-87741362D01*
X134081143Y-87582397D01*
X134150608Y-87340213D01*
X133350000Y-86539605D01*
X132549392Y-87340213D01*
X131805444Y-87340213D01*
X131994320Y-87151337D01*
X132073428Y-86960353D01*
X132127603Y-87091143D01*
X132369787Y-87160608D01*
X133170395Y-86360000D01*
X132369787Y-85559392D01*
X132127603Y-85628857D01*
X132077465Y-85769393D01*
X131994320Y-85568663D01*
X131805444Y-85379787D01*
X132549392Y-85379787D01*
X133350000Y-86180395D01*
X134150608Y-85379787D01*
X134081143Y-85137603D01*
X133557698Y-84950856D01*
X133002632Y-84978638D01*
X132618857Y-85137603D01*
X132549392Y-85379787D01*
X131805444Y-85379787D01*
X131601337Y-85175680D01*
X131087881Y-84963000D01*
X131029445Y-84963000D01*
X130935826Y-84869380D01*
X130935824Y-84869378D01*
X129157827Y-83091382D01*
X129094057Y-82995943D01*
X128715976Y-82743318D01*
X128382572Y-82677000D01*
X128382571Y-82677000D01*
X128270000Y-82654608D01*
X128157429Y-82677000D01*
X121172430Y-82677000D01*
X120839026Y-82743318D01*
X120460945Y-82995943D01*
X120333771Y-83186273D01*
X120238879Y-83249678D01*
X119986057Y-83502500D01*
X119699227Y-83502500D01*
X119115753Y-83744182D01*
X118745000Y-84114935D01*
X118745000Y-82896445D01*
X120043946Y-81597500D01*
X120330773Y-81597500D01*
X120914247Y-81355818D01*
X121360818Y-80909247D01*
X121602500Y-80325773D01*
X121602500Y-79694227D01*
X121360818Y-79110753D01*
X120914247Y-78664182D01*
X120330773Y-78422500D01*
X119699227Y-78422500D01*
X119115753Y-78664182D01*
X118669182Y-79110753D01*
X118427500Y-79694227D01*
X118427500Y-79981054D01*
X116873380Y-81535175D01*
X116777944Y-81598943D01*
X116596769Y-81870091D01*
X116525319Y-81977024D01*
X116436608Y-82423000D01*
X116407000Y-82423000D01*
X116407000Y-74614227D01*
X118427500Y-74614227D01*
X118427500Y-75245773D01*
X118669182Y-75829247D01*
X119115753Y-76275818D01*
X119699227Y-76517500D01*
X120330773Y-76517500D01*
X120914247Y-76275818D01*
X121360818Y-75829247D01*
X121602500Y-75245773D01*
X121602500Y-74614227D01*
X121360818Y-74030753D01*
X120914247Y-73584182D01*
X120426423Y-73382119D01*
X126873000Y-73382119D01*
X126873000Y-73937881D01*
X127085680Y-74451337D01*
X127478663Y-74844320D01*
X127992119Y-75057000D01*
X128547881Y-75057000D01*
X129061337Y-74844320D01*
X129454320Y-74451337D01*
X129540000Y-74244487D01*
X129625680Y-74451337D01*
X129667000Y-74492657D01*
X129667001Y-77907342D01*
X129625680Y-77948663D01*
X129540000Y-78155513D01*
X129454320Y-77948663D01*
X129061337Y-77555680D01*
X128547881Y-77343000D01*
X127992119Y-77343000D01*
X127478663Y-77555680D01*
X127085680Y-77948663D01*
X126873000Y-78462119D01*
X126873000Y-79017881D01*
X127085680Y-79531337D01*
X127478663Y-79924320D01*
X127992119Y-80137000D01*
X128547881Y-80137000D01*
X129061337Y-79924320D01*
X129454320Y-79531337D01*
X129540000Y-79324487D01*
X129625680Y-79531337D01*
X129667000Y-79572657D01*
X129667001Y-81677688D01*
X129458260Y-81990091D01*
X129346887Y-82550000D01*
X129458260Y-83109909D01*
X129775423Y-83584577D01*
X130250091Y-83901740D01*
X130668667Y-83985000D01*
X130951333Y-83985000D01*
X131369909Y-83901740D01*
X131844577Y-83584577D01*
X132161740Y-83109909D01*
X132273113Y-82550000D01*
X132216336Y-82264561D01*
X136995000Y-82264561D01*
X136995000Y-82835439D01*
X137213466Y-83362862D01*
X137617138Y-83766534D01*
X138144561Y-83985000D01*
X138715439Y-83985000D01*
X139242862Y-83766534D01*
X139646534Y-83362862D01*
X139865000Y-82835439D01*
X139865000Y-82264561D01*
X139646534Y-81737138D01*
X139242862Y-81333466D01*
X138715439Y-81115000D01*
X138144561Y-81115000D01*
X137617138Y-81333466D01*
X137213466Y-81737138D01*
X136995000Y-82264561D01*
X132216336Y-82264561D01*
X132161740Y-81990091D01*
X131953000Y-81677689D01*
X131953000Y-79572657D01*
X131994320Y-79531337D01*
X132080000Y-79324487D01*
X132165680Y-79531337D01*
X132558663Y-79924320D01*
X133072119Y-80137000D01*
X133627881Y-80137000D01*
X134141337Y-79924320D01*
X134534320Y-79531337D01*
X134620000Y-79324487D01*
X134705680Y-79531337D01*
X135098663Y-79924320D01*
X135612119Y-80137000D01*
X136167881Y-80137000D01*
X136681337Y-79924320D01*
X137074320Y-79531337D01*
X137160000Y-79324487D01*
X137245680Y-79531337D01*
X137638663Y-79924320D01*
X138152119Y-80137000D01*
X138707881Y-80137000D01*
X139221337Y-79924320D01*
X139573000Y-79572657D01*
X139573000Y-79628310D01*
X139669673Y-79861699D01*
X139848302Y-80040327D01*
X140081691Y-80137000D01*
X140684250Y-80137000D01*
X140843000Y-79978250D01*
X140843000Y-78867000D01*
X140823000Y-78867000D01*
X140823000Y-78613000D01*
X140843000Y-78613000D01*
X140843000Y-77501750D01*
X140684250Y-77343000D01*
X140081691Y-77343000D01*
X139848302Y-77439673D01*
X139669673Y-77618301D01*
X139573000Y-77851690D01*
X139573000Y-77907343D01*
X139221337Y-77555680D01*
X138707881Y-77343000D01*
X138152119Y-77343000D01*
X137638663Y-77555680D01*
X137245680Y-77948663D01*
X137160000Y-78155513D01*
X137074320Y-77948663D01*
X136681337Y-77555680D01*
X136167881Y-77343000D01*
X135612119Y-77343000D01*
X135098663Y-77555680D01*
X134705680Y-77948663D01*
X134620000Y-78155513D01*
X134534320Y-77948663D01*
X134141337Y-77555680D01*
X133627881Y-77343000D01*
X133072119Y-77343000D01*
X132558663Y-77555680D01*
X132165680Y-77948663D01*
X132080000Y-78155513D01*
X131994320Y-77948663D01*
X131953000Y-77907343D01*
X131953000Y-74492657D01*
X131994320Y-74451337D01*
X132080000Y-74244487D01*
X132165680Y-74451337D01*
X132558663Y-74844320D01*
X133072119Y-75057000D01*
X133627881Y-75057000D01*
X134141337Y-74844320D01*
X134534320Y-74451337D01*
X134620000Y-74244487D01*
X134705680Y-74451337D01*
X135098663Y-74844320D01*
X135612119Y-75057000D01*
X136167881Y-75057000D01*
X136681337Y-74844320D01*
X137074320Y-74451337D01*
X137160000Y-74244487D01*
X137245680Y-74451337D01*
X137638663Y-74844320D01*
X138152119Y-75057000D01*
X138707881Y-75057000D01*
X139221337Y-74844320D01*
X139614320Y-74451337D01*
X139700000Y-74244487D01*
X139785680Y-74451337D01*
X140178663Y-74844320D01*
X140692119Y-75057000D01*
X141247881Y-75057000D01*
X141761337Y-74844320D01*
X142154320Y-74451337D01*
X142367000Y-73937881D01*
X142367000Y-73382119D01*
X142154320Y-72868663D01*
X141761337Y-72475680D01*
X141247881Y-72263000D01*
X140692119Y-72263000D01*
X140178663Y-72475680D01*
X139785680Y-72868663D01*
X139700000Y-73075513D01*
X139614320Y-72868663D01*
X139221337Y-72475680D01*
X138707881Y-72263000D01*
X138152119Y-72263000D01*
X137638663Y-72475680D01*
X137245680Y-72868663D01*
X137160000Y-73075513D01*
X137074320Y-72868663D01*
X136681337Y-72475680D01*
X136167881Y-72263000D01*
X135612119Y-72263000D01*
X135098663Y-72475680D01*
X134705680Y-72868663D01*
X134620000Y-73075513D01*
X134534320Y-72868663D01*
X134141337Y-72475680D01*
X133627881Y-72263000D01*
X133072119Y-72263000D01*
X132558663Y-72475680D01*
X132165680Y-72868663D01*
X132080000Y-73075513D01*
X131994320Y-72868663D01*
X131601337Y-72475680D01*
X131087881Y-72263000D01*
X130532119Y-72263000D01*
X130018663Y-72475680D01*
X129625680Y-72868663D01*
X129540000Y-73075513D01*
X129454320Y-72868663D01*
X129061337Y-72475680D01*
X128547881Y-72263000D01*
X127992119Y-72263000D01*
X127478663Y-72475680D01*
X127085680Y-72868663D01*
X126873000Y-73382119D01*
X120426423Y-73382119D01*
X120330773Y-73342500D01*
X119699227Y-73342500D01*
X119115753Y-73584182D01*
X118669182Y-74030753D01*
X118427500Y-74614227D01*
X116407000Y-74614227D01*
X116407000Y-67004000D01*
X118378584Y-67004000D01*
X118074297Y-67130040D01*
G04 #@! TD*
M02*
