G04 #@! TF.GenerationSoftware,KiCad,Pcbnew,(5.0.2)-1*
G04 #@! TF.CreationDate,2019-02-27T10:38:39-05:00*
G04 #@! TF.ProjectId,AR-22_Power_Supply,41522d32-325f-4506-9f77-65725f537570,rev?*
G04 #@! TF.SameCoordinates,Original*
G04 #@! TF.FileFunction,Legend,Top*
G04 #@! TF.FilePolarity,Positive*
%FSLAX46Y46*%
G04 Gerber Fmt 4.6, Leading zero omitted, Abs format (unit mm)*
G04 Created by KiCad (PCBNEW (5.0.2)-1) date 2/27/2019 10:38:39 AM*
%MOMM*%
%LPD*%
G01*
G04 APERTURE LIST*
%ADD10C,0.200000*%
%ADD11C,0.120000*%
%ADD12C,0.203200*%
%ADD13C,0.150000*%
G04 APERTURE END LIST*
D10*
X162560000Y-33782000D02*
X162560000Y-52324000D01*
X187960000Y-52324000D02*
X187960000Y-33782000D01*
X162560000Y-52324000D02*
X187960000Y-52324000D01*
X162560000Y-33782000D02*
X187960000Y-33782000D01*
D11*
G04 #@! TO.C,C1*
X184424000Y-68540000D02*
G75*
G03X184424000Y-68540000I-6370000J0D01*
G01*
G04 #@! TO.C,C3*
X162870000Y-54825000D02*
X162870000Y-54810000D01*
X162870000Y-56950000D02*
X162870000Y-56935000D01*
X167410000Y-54825000D02*
X167410000Y-54810000D01*
X167410000Y-56950000D02*
X167410000Y-56935000D01*
X167410000Y-54810000D02*
X162870000Y-54810000D01*
X167410000Y-56950000D02*
X162870000Y-56950000D01*
G04 #@! TO.C,C2*
X183618000Y-54810000D02*
X188158000Y-54810000D01*
X183618000Y-56950000D02*
X188158000Y-56950000D01*
X183618000Y-54810000D02*
X183618000Y-54825000D01*
X183618000Y-56935000D02*
X183618000Y-56950000D01*
X188158000Y-54810000D02*
X188158000Y-54825000D01*
X188158000Y-56935000D02*
X188158000Y-56950000D01*
G04 #@! TO.C,J1*
X128210000Y-65592000D02*
X130870000Y-65592000D01*
X128210000Y-62992000D02*
X128210000Y-65592000D01*
X130870000Y-62992000D02*
X130870000Y-65592000D01*
X128210000Y-62992000D02*
X130870000Y-62992000D01*
X128210000Y-61722000D02*
X128210000Y-60392000D01*
X128210000Y-60392000D02*
X129540000Y-60392000D01*
G04 #@! TO.C,J2*
X120710000Y-60392000D02*
X118050000Y-60392000D01*
X120710000Y-68072000D02*
X120710000Y-60392000D01*
X118050000Y-68072000D02*
X118050000Y-60392000D01*
X120710000Y-68072000D02*
X118050000Y-68072000D01*
X120710000Y-69342000D02*
X120710000Y-70672000D01*
X120710000Y-70672000D02*
X119380000Y-70672000D01*
G04 #@! TO.C,*
X161230000Y-32572000D02*
X161230000Y-31242000D01*
X162560000Y-32572000D02*
X161230000Y-32572000D01*
X163830000Y-32572000D02*
X163830000Y-29912000D01*
X163830000Y-29912000D02*
X181670000Y-29912000D01*
X163830000Y-32572000D02*
X181670000Y-32572000D01*
X181670000Y-32572000D02*
X181670000Y-29912000D01*
G04 #@! TO.C,J3*
X141030000Y-80832000D02*
X141030000Y-78172000D01*
X123190000Y-80832000D02*
X141030000Y-80832000D01*
X123190000Y-78172000D02*
X141030000Y-78172000D01*
X123190000Y-80832000D02*
X123190000Y-78172000D01*
X121920000Y-80832000D02*
X120590000Y-80832000D01*
X120590000Y-80832000D02*
X120590000Y-79502000D01*
G04 #@! TO.C,D2*
X149152000Y-76362000D02*
X152092000Y-76362000D01*
X149152000Y-76122000D02*
X152092000Y-76122000D01*
X149152000Y-76242000D02*
X152092000Y-76242000D01*
X150622000Y-70682000D02*
X150622000Y-71702000D01*
X150622000Y-78162000D02*
X150622000Y-77142000D01*
X149152000Y-71702000D02*
X149152000Y-77142000D01*
X152092000Y-71702000D02*
X149152000Y-71702000D01*
X152092000Y-77142000D02*
X152092000Y-71702000D01*
X149152000Y-77142000D02*
X152092000Y-77142000D01*
G04 #@! TO.C,D1*
X137340000Y-72082000D02*
X137340000Y-69142000D01*
X137340000Y-69142000D02*
X131900000Y-69142000D01*
X131900000Y-69142000D02*
X131900000Y-72082000D01*
X131900000Y-72082000D02*
X137340000Y-72082000D01*
X138360000Y-70612000D02*
X137340000Y-70612000D01*
X130880000Y-70612000D02*
X131900000Y-70612000D01*
X136440000Y-72082000D02*
X136440000Y-69142000D01*
X136320000Y-72082000D02*
X136320000Y-69142000D01*
X136560000Y-72082000D02*
X136560000Y-69142000D01*
G04 #@! TO.C,U1*
X180634000Y-52190000D02*
X170394000Y-52190000D01*
X180634000Y-42700000D02*
X170394000Y-42700000D01*
X180634000Y-52190000D02*
X180634000Y-42700000D01*
X170394000Y-52190000D02*
X170394000Y-42700000D01*
X180634000Y-36300000D02*
X179434000Y-36300000D01*
X178235000Y-36300000D02*
X177034000Y-36300000D01*
X175834000Y-36300000D02*
X174634000Y-36300000D01*
X173434000Y-36300000D02*
X172234000Y-36300000D01*
X171034000Y-36300000D02*
X170394000Y-36300000D01*
X180634000Y-42460000D02*
X180634000Y-41260000D01*
X180634000Y-40060000D02*
X180634000Y-38860000D01*
X180634000Y-37660000D02*
X180634000Y-36460000D01*
X170394000Y-42460000D02*
X170394000Y-41260000D01*
X170394000Y-40060000D02*
X170394000Y-38860000D01*
X170394000Y-37660000D02*
X170394000Y-36460000D01*
X178054000Y-54730000D02*
X178054000Y-52190000D01*
X175514000Y-54730000D02*
X175514000Y-52190000D01*
X172974000Y-54730000D02*
X172974000Y-52190000D01*
G04 #@! TO.C,R1*
X138970000Y-63222000D02*
X138970000Y-62892000D01*
X138970000Y-62892000D02*
X145510000Y-62892000D01*
X145510000Y-62892000D02*
X145510000Y-63222000D01*
X138970000Y-65302000D02*
X138970000Y-65632000D01*
X138970000Y-65632000D02*
X145510000Y-65632000D01*
X145510000Y-65632000D02*
X145510000Y-65302000D01*
G04 #@! TO.C,C1*
D12*
X171537333Y-63862857D02*
X171489714Y-63911238D01*
X171346857Y-63959619D01*
X171251619Y-63959619D01*
X171108761Y-63911238D01*
X171013523Y-63814476D01*
X170965904Y-63717714D01*
X170918285Y-63524190D01*
X170918285Y-63379047D01*
X170965904Y-63185523D01*
X171013523Y-63088761D01*
X171108761Y-62992000D01*
X171251619Y-62943619D01*
X171346857Y-62943619D01*
X171489714Y-62992000D01*
X171537333Y-63040380D01*
X172489714Y-63959619D02*
X171918285Y-63959619D01*
X172204000Y-63959619D02*
X172204000Y-62943619D01*
X172108761Y-63088761D01*
X172013523Y-63185523D01*
X171918285Y-63233904D01*
X176665142Y-76744285D02*
X176665142Y-77421619D01*
X176427047Y-76357238D02*
X176188952Y-77082952D01*
X176808000Y-77082952D01*
X177093714Y-76405619D02*
X177760380Y-76405619D01*
X177331809Y-77421619D01*
X178331809Y-76405619D02*
X178427047Y-76405619D01*
X178522285Y-76454000D01*
X178569904Y-76502380D01*
X178617523Y-76599142D01*
X178665142Y-76792666D01*
X178665142Y-77034571D01*
X178617523Y-77228095D01*
X178569904Y-77324857D01*
X178522285Y-77373238D01*
X178427047Y-77421619D01*
X178331809Y-77421619D01*
X178236571Y-77373238D01*
X178188952Y-77324857D01*
X178141333Y-77228095D01*
X178093714Y-77034571D01*
X178093714Y-76792666D01*
X178141333Y-76599142D01*
X178188952Y-76502380D01*
X178236571Y-76454000D01*
X178331809Y-76405619D01*
X179522285Y-76744285D02*
X179522285Y-77421619D01*
X179093714Y-76744285D02*
X179093714Y-77276476D01*
X179141333Y-77373238D01*
X179236571Y-77421619D01*
X179379428Y-77421619D01*
X179474666Y-77373238D01*
X179522285Y-77324857D01*
X180331809Y-76889428D02*
X179998476Y-76889428D01*
X179998476Y-77421619D02*
X179998476Y-76405619D01*
X180474666Y-76405619D01*
X177887333Y-68902857D02*
X177839714Y-68951238D01*
X177696857Y-68999619D01*
X177601619Y-68999619D01*
X177458761Y-68951238D01*
X177363523Y-68854476D01*
X177315904Y-68757714D01*
X177268285Y-68564190D01*
X177268285Y-68419047D01*
X177315904Y-68225523D01*
X177363523Y-68128761D01*
X177458761Y-68032000D01*
X177601619Y-67983619D01*
X177696857Y-67983619D01*
X177839714Y-68032000D01*
X177887333Y-68080380D01*
X178839714Y-68999619D02*
X178268285Y-68999619D01*
X178554000Y-68999619D02*
X178554000Y-67983619D01*
X178458761Y-68128761D01*
X178363523Y-68225523D01*
X178268285Y-68273904D01*
G04 #@! TO.C,C3*
X164933333Y-53956857D02*
X164885714Y-54005238D01*
X164742857Y-54053619D01*
X164647619Y-54053619D01*
X164504761Y-54005238D01*
X164409523Y-53908476D01*
X164361904Y-53811714D01*
X164314285Y-53618190D01*
X164314285Y-53473047D01*
X164361904Y-53279523D01*
X164409523Y-53182761D01*
X164504761Y-53086000D01*
X164647619Y-53037619D01*
X164742857Y-53037619D01*
X164885714Y-53086000D01*
X164933333Y-53134380D01*
X165266666Y-53037619D02*
X165885714Y-53037619D01*
X165552380Y-53424666D01*
X165695238Y-53424666D01*
X165790476Y-53473047D01*
X165838095Y-53521428D01*
X165885714Y-53618190D01*
X165885714Y-53860095D01*
X165838095Y-53956857D01*
X165790476Y-54005238D01*
X165695238Y-54053619D01*
X165409523Y-54053619D01*
X165314285Y-54005238D01*
X165266666Y-53956857D01*
X163457142Y-57609619D02*
X163552380Y-57609619D01*
X163647619Y-57658000D01*
X163695238Y-57706380D01*
X163742857Y-57803142D01*
X163790476Y-57996666D01*
X163790476Y-58238571D01*
X163742857Y-58432095D01*
X163695238Y-58528857D01*
X163647619Y-58577238D01*
X163552380Y-58625619D01*
X163457142Y-58625619D01*
X163361904Y-58577238D01*
X163314285Y-58528857D01*
X163266666Y-58432095D01*
X163219047Y-58238571D01*
X163219047Y-57996666D01*
X163266666Y-57803142D01*
X163314285Y-57706380D01*
X163361904Y-57658000D01*
X163457142Y-57609619D01*
X164219047Y-58528857D02*
X164266666Y-58577238D01*
X164219047Y-58625619D01*
X164171428Y-58577238D01*
X164219047Y-58528857D01*
X164219047Y-58625619D01*
X165219047Y-58625619D02*
X164647619Y-58625619D01*
X164933333Y-58625619D02*
X164933333Y-57609619D01*
X164838095Y-57754761D01*
X164742857Y-57851523D01*
X164647619Y-57899904D01*
X166076190Y-57948285D02*
X166076190Y-58625619D01*
X165647619Y-57948285D02*
X165647619Y-58480476D01*
X165695238Y-58577238D01*
X165790476Y-58625619D01*
X165933333Y-58625619D01*
X166028571Y-58577238D01*
X166076190Y-58528857D01*
X166885714Y-58093428D02*
X166552380Y-58093428D01*
X166552380Y-58625619D02*
X166552380Y-57609619D01*
X167028571Y-57609619D01*
X164996666Y-56242857D02*
X164955714Y-56291238D01*
X164832857Y-56339619D01*
X164750952Y-56339619D01*
X164628095Y-56291238D01*
X164546190Y-56194476D01*
X164505238Y-56097714D01*
X164464285Y-55904190D01*
X164464285Y-55759047D01*
X164505238Y-55565523D01*
X164546190Y-55468761D01*
X164628095Y-55372000D01*
X164750952Y-55323619D01*
X164832857Y-55323619D01*
X164955714Y-55372000D01*
X164996666Y-55420380D01*
X165283333Y-55323619D02*
X165815714Y-55323619D01*
X165529047Y-55710666D01*
X165651904Y-55710666D01*
X165733809Y-55759047D01*
X165774761Y-55807428D01*
X165815714Y-55904190D01*
X165815714Y-56146095D01*
X165774761Y-56242857D01*
X165733809Y-56291238D01*
X165651904Y-56339619D01*
X165406190Y-56339619D01*
X165324285Y-56291238D01*
X165283333Y-56242857D01*
G04 #@! TO.C,C2*
X185721333Y-54042857D02*
X185673714Y-54091238D01*
X185530857Y-54139619D01*
X185435619Y-54139619D01*
X185292761Y-54091238D01*
X185197523Y-53994476D01*
X185149904Y-53897714D01*
X185102285Y-53704190D01*
X185102285Y-53559047D01*
X185149904Y-53365523D01*
X185197523Y-53268761D01*
X185292761Y-53172000D01*
X185435619Y-53123619D01*
X185530857Y-53123619D01*
X185673714Y-53172000D01*
X185721333Y-53220380D01*
X186102285Y-53220380D02*
X186149904Y-53172000D01*
X186245142Y-53123619D01*
X186483238Y-53123619D01*
X186578476Y-53172000D01*
X186626095Y-53220380D01*
X186673714Y-53317142D01*
X186673714Y-53413904D01*
X186626095Y-53559047D01*
X186054666Y-54139619D01*
X186673714Y-54139619D01*
X184245142Y-57863619D02*
X184340380Y-57863619D01*
X184435619Y-57912000D01*
X184483238Y-57960380D01*
X184530857Y-58057142D01*
X184578476Y-58250666D01*
X184578476Y-58492571D01*
X184530857Y-58686095D01*
X184483238Y-58782857D01*
X184435619Y-58831238D01*
X184340380Y-58879619D01*
X184245142Y-58879619D01*
X184149904Y-58831238D01*
X184102285Y-58782857D01*
X184054666Y-58686095D01*
X184007047Y-58492571D01*
X184007047Y-58250666D01*
X184054666Y-58057142D01*
X184102285Y-57960380D01*
X184149904Y-57912000D01*
X184245142Y-57863619D01*
X185007047Y-58782857D02*
X185054666Y-58831238D01*
X185007047Y-58879619D01*
X184959428Y-58831238D01*
X185007047Y-58782857D01*
X185007047Y-58879619D01*
X186007047Y-58879619D02*
X185435619Y-58879619D01*
X185721333Y-58879619D02*
X185721333Y-57863619D01*
X185626095Y-58008761D01*
X185530857Y-58105523D01*
X185435619Y-58153904D01*
X186864190Y-58202285D02*
X186864190Y-58879619D01*
X186435619Y-58202285D02*
X186435619Y-58734476D01*
X186483238Y-58831238D01*
X186578476Y-58879619D01*
X186721333Y-58879619D01*
X186816571Y-58831238D01*
X186864190Y-58782857D01*
X187673714Y-58347428D02*
X187340380Y-58347428D01*
X187340380Y-58879619D02*
X187340380Y-57863619D01*
X187816571Y-57863619D01*
X185744666Y-56242857D02*
X185703714Y-56291238D01*
X185580857Y-56339619D01*
X185498952Y-56339619D01*
X185376095Y-56291238D01*
X185294190Y-56194476D01*
X185253238Y-56097714D01*
X185212285Y-55904190D01*
X185212285Y-55759047D01*
X185253238Y-55565523D01*
X185294190Y-55468761D01*
X185376095Y-55372000D01*
X185498952Y-55323619D01*
X185580857Y-55323619D01*
X185703714Y-55372000D01*
X185744666Y-55420380D01*
X186072285Y-55420380D02*
X186113238Y-55372000D01*
X186195142Y-55323619D01*
X186399904Y-55323619D01*
X186481809Y-55372000D01*
X186522761Y-55420380D01*
X186563714Y-55517142D01*
X186563714Y-55613904D01*
X186522761Y-55759047D01*
X186031333Y-56339619D01*
X186563714Y-56339619D01*
G04 #@! TO.C,J1*
D13*
X129206666Y-58844380D02*
X129206666Y-59558666D01*
X129159047Y-59701523D01*
X129063809Y-59796761D01*
X128920952Y-59844380D01*
X128825714Y-59844380D01*
X130206666Y-59844380D02*
X129635238Y-59844380D01*
X129920952Y-59844380D02*
X129920952Y-58844380D01*
X129825714Y-58987238D01*
X129730476Y-59082476D01*
X129635238Y-59130095D01*
D12*
X133047619Y-66706285D02*
X132031619Y-66706285D01*
X132031619Y-66325333D01*
X132080000Y-66230095D01*
X132128380Y-66182476D01*
X132225142Y-66134857D01*
X132370285Y-66134857D01*
X132467047Y-66182476D01*
X132515428Y-66230095D01*
X132563809Y-66325333D01*
X132563809Y-66706285D01*
X133047619Y-65563428D02*
X132999238Y-65658666D01*
X132950857Y-65706285D01*
X132854095Y-65753904D01*
X132563809Y-65753904D01*
X132467047Y-65706285D01*
X132418666Y-65658666D01*
X132370285Y-65563428D01*
X132370285Y-65420571D01*
X132418666Y-65325333D01*
X132467047Y-65277714D01*
X132563809Y-65230095D01*
X132854095Y-65230095D01*
X132950857Y-65277714D01*
X132999238Y-65325333D01*
X133047619Y-65420571D01*
X133047619Y-65563428D01*
X132370285Y-64896761D02*
X133047619Y-64706285D01*
X132563809Y-64515809D01*
X133047619Y-64325333D01*
X132370285Y-64134857D01*
X132999238Y-63372952D02*
X133047619Y-63468190D01*
X133047619Y-63658666D01*
X132999238Y-63753904D01*
X132902476Y-63801523D01*
X132515428Y-63801523D01*
X132418666Y-63753904D01*
X132370285Y-63658666D01*
X132370285Y-63468190D01*
X132418666Y-63372952D01*
X132515428Y-63325333D01*
X132612190Y-63325333D01*
X132708952Y-63801523D01*
X133047619Y-62896761D02*
X132370285Y-62896761D01*
X132563809Y-62896761D02*
X132467047Y-62849142D01*
X132418666Y-62801523D01*
X132370285Y-62706285D01*
X132370285Y-62611047D01*
X133047619Y-61039619D02*
X133047619Y-61515809D01*
X132031619Y-61515809D01*
X132515428Y-60706285D02*
X132515428Y-60372952D01*
X133047619Y-60230095D02*
X133047619Y-60706285D01*
X132031619Y-60706285D01*
X132031619Y-60230095D01*
X133047619Y-59801523D02*
X132031619Y-59801523D01*
X132031619Y-59563428D01*
X132080000Y-59420571D01*
X132176761Y-59325333D01*
X132273523Y-59277714D01*
X132467047Y-59230095D01*
X132612190Y-59230095D01*
X132805714Y-59277714D01*
X132902476Y-59325333D01*
X132999238Y-59420571D01*
X133047619Y-59563428D01*
X133047619Y-59801523D01*
G04 #@! TO.C,J2*
X119046666Y-71833619D02*
X119046666Y-72559333D01*
X118999047Y-72704476D01*
X118903809Y-72801238D01*
X118760952Y-72849619D01*
X118665714Y-72849619D01*
X119475238Y-71930380D02*
X119522857Y-71882000D01*
X119618095Y-71833619D01*
X119856190Y-71833619D01*
X119951428Y-71882000D01*
X119999047Y-71930380D01*
X120046666Y-72027142D01*
X120046666Y-72123904D01*
X119999047Y-72269047D01*
X119427619Y-72849619D01*
X120046666Y-72849619D01*
X122379619Y-70619333D02*
X122379619Y-70047904D01*
X123395619Y-70333619D02*
X122379619Y-70333619D01*
X123395619Y-69571714D02*
X123347238Y-69666952D01*
X123298857Y-69714571D01*
X123202095Y-69762190D01*
X122911809Y-69762190D01*
X122815047Y-69714571D01*
X122766666Y-69666952D01*
X122718285Y-69571714D01*
X122718285Y-69428857D01*
X122766666Y-69333619D01*
X122815047Y-69286000D01*
X122911809Y-69238380D01*
X123202095Y-69238380D01*
X123298857Y-69286000D01*
X123347238Y-69333619D01*
X123395619Y-69428857D01*
X123395619Y-69571714D01*
X123298857Y-67476476D02*
X123347238Y-67524095D01*
X123395619Y-67666952D01*
X123395619Y-67762190D01*
X123347238Y-67905047D01*
X123250476Y-68000285D01*
X123153714Y-68047904D01*
X122960190Y-68095523D01*
X122815047Y-68095523D01*
X122621523Y-68047904D01*
X122524761Y-68000285D01*
X122428000Y-67905047D01*
X122379619Y-67762190D01*
X122379619Y-67666952D01*
X122428000Y-67524095D01*
X122476380Y-67476476D01*
X123395619Y-66905047D02*
X123347238Y-67000285D01*
X123298857Y-67047904D01*
X123202095Y-67095523D01*
X122911809Y-67095523D01*
X122815047Y-67047904D01*
X122766666Y-67000285D01*
X122718285Y-66905047D01*
X122718285Y-66762190D01*
X122766666Y-66666952D01*
X122815047Y-66619333D01*
X122911809Y-66571714D01*
X123202095Y-66571714D01*
X123298857Y-66619333D01*
X123347238Y-66666952D01*
X123395619Y-66762190D01*
X123395619Y-66905047D01*
X122718285Y-66143142D02*
X123395619Y-66143142D01*
X122815047Y-66143142D02*
X122766666Y-66095523D01*
X122718285Y-66000285D01*
X122718285Y-65857428D01*
X122766666Y-65762190D01*
X122863428Y-65714571D01*
X123395619Y-65714571D01*
X122718285Y-65381238D02*
X122718285Y-65000285D01*
X122379619Y-65238380D02*
X123250476Y-65238380D01*
X123347238Y-65190761D01*
X123395619Y-65095523D01*
X123395619Y-65000285D01*
X123395619Y-64666952D02*
X122718285Y-64666952D01*
X122911809Y-64666952D02*
X122815047Y-64619333D01*
X122766666Y-64571714D01*
X122718285Y-64476476D01*
X122718285Y-64381238D01*
X123395619Y-63905047D02*
X123347238Y-64000285D01*
X123298857Y-64047904D01*
X123202095Y-64095523D01*
X122911809Y-64095523D01*
X122815047Y-64047904D01*
X122766666Y-64000285D01*
X122718285Y-63905047D01*
X122718285Y-63762190D01*
X122766666Y-63666952D01*
X122815047Y-63619333D01*
X122911809Y-63571714D01*
X123202095Y-63571714D01*
X123298857Y-63619333D01*
X123347238Y-63666952D01*
X123395619Y-63762190D01*
X123395619Y-63905047D01*
X123395619Y-63000285D02*
X123347238Y-63095523D01*
X123250476Y-63143142D01*
X122379619Y-63143142D01*
X123395619Y-62476476D02*
X123347238Y-62571714D01*
X123250476Y-62619333D01*
X122379619Y-62619333D01*
X123347238Y-61714571D02*
X123395619Y-61809809D01*
X123395619Y-62000285D01*
X123347238Y-62095523D01*
X123250476Y-62143142D01*
X122863428Y-62143142D01*
X122766666Y-62095523D01*
X122718285Y-62000285D01*
X122718285Y-61809809D01*
X122766666Y-61714571D01*
X122863428Y-61666952D01*
X122960190Y-61666952D01*
X123056952Y-62143142D01*
X123395619Y-61238380D02*
X122718285Y-61238380D01*
X122911809Y-61238380D02*
X122815047Y-61190761D01*
X122766666Y-61143142D01*
X122718285Y-61047904D01*
X122718285Y-60952666D01*
G04 #@! TO.C,*
D13*
G04 #@! TO.C,J3*
D12*
X125142666Y-76151619D02*
X125142666Y-76877333D01*
X125095047Y-77022476D01*
X124999809Y-77119238D01*
X124856952Y-77167619D01*
X124761714Y-77167619D01*
X125523619Y-76151619D02*
X126142666Y-76151619D01*
X125809333Y-76538666D01*
X125952190Y-76538666D01*
X126047428Y-76587047D01*
X126095047Y-76635428D01*
X126142666Y-76732190D01*
X126142666Y-76974095D01*
X126095047Y-77070857D01*
X126047428Y-77119238D01*
X125952190Y-77167619D01*
X125666476Y-77167619D01*
X125571238Y-77119238D01*
X125523619Y-77070857D01*
X128683238Y-76151619D02*
X129254666Y-76151619D01*
X128968952Y-77167619D02*
X128968952Y-76151619D01*
X129730857Y-77167619D02*
X129635619Y-77119238D01*
X129588000Y-77070857D01*
X129540380Y-76974095D01*
X129540380Y-76683809D01*
X129588000Y-76587047D01*
X129635619Y-76538666D01*
X129730857Y-76490285D01*
X129873714Y-76490285D01*
X129968952Y-76538666D01*
X130016571Y-76587047D01*
X130064190Y-76683809D01*
X130064190Y-76974095D01*
X130016571Y-77070857D01*
X129968952Y-77119238D01*
X129873714Y-77167619D01*
X129730857Y-77167619D01*
X131207047Y-76877333D02*
X131683238Y-76877333D01*
X131111809Y-77167619D02*
X131445142Y-76151619D01*
X131778476Y-77167619D01*
X132111809Y-77167619D02*
X132111809Y-76490285D01*
X132111809Y-76683809D02*
X132159428Y-76587047D01*
X132207047Y-76538666D01*
X132302285Y-76490285D01*
X132397523Y-76490285D01*
X133159428Y-77167619D02*
X133159428Y-76151619D01*
X133159428Y-77119238D02*
X133064190Y-77167619D01*
X132873714Y-77167619D01*
X132778476Y-77119238D01*
X132730857Y-77070857D01*
X132683238Y-76974095D01*
X132683238Y-76683809D01*
X132730857Y-76587047D01*
X132778476Y-76538666D01*
X132873714Y-76490285D01*
X133064190Y-76490285D01*
X133159428Y-76538666D01*
X134064190Y-76490285D02*
X134064190Y-77167619D01*
X133635619Y-76490285D02*
X133635619Y-77022476D01*
X133683238Y-77119238D01*
X133778476Y-77167619D01*
X133921333Y-77167619D01*
X134016571Y-77119238D01*
X134064190Y-77070857D01*
X134540380Y-77167619D02*
X134540380Y-76490285D01*
X134540380Y-76151619D02*
X134492761Y-76200000D01*
X134540380Y-76248380D01*
X134588000Y-76200000D01*
X134540380Y-76151619D01*
X134540380Y-76248380D01*
X135016571Y-76490285D02*
X135016571Y-77167619D01*
X135016571Y-76587047D02*
X135064190Y-76538666D01*
X135159428Y-76490285D01*
X135302285Y-76490285D01*
X135397523Y-76538666D01*
X135445142Y-76635428D01*
X135445142Y-77167619D01*
X136064190Y-77167619D02*
X135968952Y-77119238D01*
X135921333Y-77070857D01*
X135873714Y-76974095D01*
X135873714Y-76683809D01*
X135921333Y-76587047D01*
X135968952Y-76538666D01*
X136064190Y-76490285D01*
X136207047Y-76490285D01*
X136302285Y-76538666D01*
X136349904Y-76587047D01*
X136397523Y-76683809D01*
X136397523Y-76974095D01*
X136349904Y-77070857D01*
X136302285Y-77119238D01*
X136207047Y-77167619D01*
X136064190Y-77167619D01*
G04 #@! TO.C,D2*
X148541619Y-74906095D02*
X147525619Y-74906095D01*
X147525619Y-74668000D01*
X147574000Y-74525142D01*
X147670761Y-74429904D01*
X147767523Y-74382285D01*
X147961047Y-74334666D01*
X148106190Y-74334666D01*
X148299714Y-74382285D01*
X148396476Y-74429904D01*
X148493238Y-74525142D01*
X148541619Y-74668000D01*
X148541619Y-74906095D01*
X147622380Y-73953714D02*
X147574000Y-73906095D01*
X147525619Y-73810857D01*
X147525619Y-73572761D01*
X147574000Y-73477523D01*
X147622380Y-73429904D01*
X147719142Y-73382285D01*
X147815904Y-73382285D01*
X147961047Y-73429904D01*
X148541619Y-74001333D01*
X148541619Y-73382285D01*
X153551619Y-76564857D02*
X153551619Y-77136285D01*
X153551619Y-76850571D02*
X152535619Y-76850571D01*
X152680761Y-76945809D01*
X152777523Y-77041047D01*
X152825904Y-77136285D01*
X153551619Y-76136285D02*
X152535619Y-76136285D01*
X153551619Y-75564857D01*
X152535619Y-75564857D01*
X152874285Y-74660095D02*
X153551619Y-74660095D01*
X152487238Y-74898190D02*
X153212952Y-75136285D01*
X153212952Y-74517238D01*
X152535619Y-73945809D02*
X152535619Y-73850571D01*
X152584000Y-73755333D01*
X152632380Y-73707714D01*
X152729142Y-73660095D01*
X152922666Y-73612476D01*
X153164571Y-73612476D01*
X153358095Y-73660095D01*
X153454857Y-73707714D01*
X153503238Y-73755333D01*
X153551619Y-73850571D01*
X153551619Y-73945809D01*
X153503238Y-74041047D01*
X153454857Y-74088666D01*
X153358095Y-74136285D01*
X153164571Y-74183904D01*
X152922666Y-74183904D01*
X152729142Y-74136285D01*
X152632380Y-74088666D01*
X152584000Y-74041047D01*
X152535619Y-73945809D01*
X152535619Y-72993428D02*
X152535619Y-72898190D01*
X152584000Y-72802952D01*
X152632380Y-72755333D01*
X152729142Y-72707714D01*
X152922666Y-72660095D01*
X153164571Y-72660095D01*
X153358095Y-72707714D01*
X153454857Y-72755333D01*
X153503238Y-72802952D01*
X153551619Y-72898190D01*
X153551619Y-72993428D01*
X153503238Y-73088666D01*
X153454857Y-73136285D01*
X153358095Y-73183904D01*
X153164571Y-73231523D01*
X152922666Y-73231523D01*
X152729142Y-73183904D01*
X152632380Y-73136285D01*
X152584000Y-73088666D01*
X152535619Y-72993428D01*
X152632380Y-72279142D02*
X152584000Y-72231523D01*
X152535619Y-72136285D01*
X152535619Y-71898190D01*
X152584000Y-71802952D01*
X152632380Y-71755333D01*
X152729142Y-71707714D01*
X152825904Y-71707714D01*
X152971047Y-71755333D01*
X153551619Y-72326761D01*
X153551619Y-71707714D01*
D13*
X148974380Y-79763904D02*
X147974380Y-79763904D01*
X148974380Y-79192476D02*
X148402952Y-79621047D01*
X147974380Y-79192476D02*
X148545809Y-79763904D01*
D12*
X151081619Y-74906095D02*
X150065619Y-74906095D01*
X150065619Y-74668000D01*
X150114000Y-74525142D01*
X150210761Y-74429904D01*
X150307523Y-74382285D01*
X150501047Y-74334666D01*
X150646190Y-74334666D01*
X150839714Y-74382285D01*
X150936476Y-74429904D01*
X151033238Y-74525142D01*
X151081619Y-74668000D01*
X151081619Y-74906095D01*
X150162380Y-73953714D02*
X150114000Y-73906095D01*
X150065619Y-73810857D01*
X150065619Y-73572761D01*
X150114000Y-73477523D01*
X150162380Y-73429904D01*
X150259142Y-73382285D01*
X150355904Y-73382285D01*
X150501047Y-73429904D01*
X151081619Y-74001333D01*
X151081619Y-73382285D01*
G04 #@! TO.C,D1*
X133627904Y-73541619D02*
X133627904Y-72525619D01*
X133866000Y-72525619D01*
X134008857Y-72574000D01*
X134104095Y-72670761D01*
X134151714Y-72767523D01*
X134199333Y-72961047D01*
X134199333Y-73106190D01*
X134151714Y-73299714D01*
X134104095Y-73396476D01*
X134008857Y-73493238D01*
X133866000Y-73541619D01*
X133627904Y-73541619D01*
X135151714Y-73541619D02*
X134580285Y-73541619D01*
X134866000Y-73541619D02*
X134866000Y-72525619D01*
X134770761Y-72670761D01*
X134675523Y-72767523D01*
X134580285Y-72815904D01*
X132477142Y-68601619D02*
X131905714Y-68601619D01*
X132191428Y-68601619D02*
X132191428Y-67585619D01*
X132096190Y-67730761D01*
X132000952Y-67827523D01*
X131905714Y-67875904D01*
X132905714Y-68601619D02*
X132905714Y-67585619D01*
X133477142Y-68601619D01*
X133477142Y-67585619D01*
X134381904Y-67924285D02*
X134381904Y-68601619D01*
X134143809Y-67537238D02*
X133905714Y-68262952D01*
X134524761Y-68262952D01*
X135096190Y-67585619D02*
X135191428Y-67585619D01*
X135286666Y-67634000D01*
X135334285Y-67682380D01*
X135381904Y-67779142D01*
X135429523Y-67972666D01*
X135429523Y-68214571D01*
X135381904Y-68408095D01*
X135334285Y-68504857D01*
X135286666Y-68553238D01*
X135191428Y-68601619D01*
X135096190Y-68601619D01*
X135000952Y-68553238D01*
X134953333Y-68504857D01*
X134905714Y-68408095D01*
X134858095Y-68214571D01*
X134858095Y-67972666D01*
X134905714Y-67779142D01*
X134953333Y-67682380D01*
X135000952Y-67634000D01*
X135096190Y-67585619D01*
X136048571Y-67585619D02*
X136143809Y-67585619D01*
X136239047Y-67634000D01*
X136286666Y-67682380D01*
X136334285Y-67779142D01*
X136381904Y-67972666D01*
X136381904Y-68214571D01*
X136334285Y-68408095D01*
X136286666Y-68504857D01*
X136239047Y-68553238D01*
X136143809Y-68601619D01*
X136048571Y-68601619D01*
X135953333Y-68553238D01*
X135905714Y-68504857D01*
X135858095Y-68408095D01*
X135810476Y-68214571D01*
X135810476Y-67972666D01*
X135858095Y-67779142D01*
X135905714Y-67682380D01*
X135953333Y-67634000D01*
X136048571Y-67585619D01*
X136762857Y-67682380D02*
X136810476Y-67634000D01*
X136905714Y-67585619D01*
X137143809Y-67585619D01*
X137239047Y-67634000D01*
X137286666Y-67682380D01*
X137334285Y-67779142D01*
X137334285Y-67875904D01*
X137286666Y-68021047D01*
X136715238Y-68601619D01*
X137334285Y-68601619D01*
X133627904Y-71071619D02*
X133627904Y-70055619D01*
X133866000Y-70055619D01*
X134008857Y-70104000D01*
X134104095Y-70200761D01*
X134151714Y-70297523D01*
X134199333Y-70491047D01*
X134199333Y-70636190D01*
X134151714Y-70829714D01*
X134104095Y-70926476D01*
X134008857Y-71023238D01*
X133866000Y-71071619D01*
X133627904Y-71071619D01*
X135151714Y-71071619D02*
X134580285Y-71071619D01*
X134866000Y-71071619D02*
X134866000Y-70055619D01*
X134770761Y-70200761D01*
X134675523Y-70297523D01*
X134580285Y-70345904D01*
D13*
X139438095Y-73164380D02*
X139438095Y-72164380D01*
X140009523Y-73164380D02*
X139580952Y-72592952D01*
X140009523Y-72164380D02*
X139438095Y-72735809D01*
G04 #@! TO.C,U1*
D12*
X170688095Y-57863619D02*
X170688095Y-58686095D01*
X170735714Y-58782857D01*
X170783333Y-58831238D01*
X170878571Y-58879619D01*
X171069047Y-58879619D01*
X171164285Y-58831238D01*
X171211904Y-58782857D01*
X171259523Y-58686095D01*
X171259523Y-57863619D01*
X172259523Y-58879619D02*
X171688095Y-58879619D01*
X171973809Y-58879619D02*
X171973809Y-57863619D01*
X171878571Y-58008761D01*
X171783333Y-58105523D01*
X171688095Y-58153904D01*
X175633333Y-58879619D02*
X175157142Y-58879619D01*
X175157142Y-57863619D01*
X175966666Y-58879619D02*
X175966666Y-57863619D01*
X176300000Y-58589333D01*
X176633333Y-57863619D01*
X176633333Y-58879619D01*
X177014285Y-57863619D02*
X177680952Y-57863619D01*
X177252380Y-58879619D01*
X178204761Y-58299047D02*
X178109523Y-58250666D01*
X178061904Y-58202285D01*
X178014285Y-58105523D01*
X178014285Y-58057142D01*
X178061904Y-57960380D01*
X178109523Y-57912000D01*
X178204761Y-57863619D01*
X178395238Y-57863619D01*
X178490476Y-57912000D01*
X178538095Y-57960380D01*
X178585714Y-58057142D01*
X178585714Y-58105523D01*
X178538095Y-58202285D01*
X178490476Y-58250666D01*
X178395238Y-58299047D01*
X178204761Y-58299047D01*
X178109523Y-58347428D01*
X178061904Y-58395809D01*
X178014285Y-58492571D01*
X178014285Y-58686095D01*
X178061904Y-58782857D01*
X178109523Y-58831238D01*
X178204761Y-58879619D01*
X178395238Y-58879619D01*
X178490476Y-58831238D01*
X178538095Y-58782857D01*
X178585714Y-58686095D01*
X178585714Y-58492571D01*
X178538095Y-58395809D01*
X178490476Y-58347428D01*
X178395238Y-58299047D01*
X179538095Y-58879619D02*
X178966666Y-58879619D01*
X179252380Y-58879619D02*
X179252380Y-57863619D01*
X179157142Y-58008761D01*
X179061904Y-58105523D01*
X178966666Y-58153904D01*
X179919047Y-57960380D02*
X179966666Y-57912000D01*
X180061904Y-57863619D01*
X180300000Y-57863619D01*
X180395238Y-57912000D01*
X180442857Y-57960380D01*
X180490476Y-58057142D01*
X180490476Y-58153904D01*
X180442857Y-58299047D01*
X179871428Y-58879619D01*
X180490476Y-58879619D01*
X174752095Y-45925619D02*
X174752095Y-46748095D01*
X174799714Y-46844857D01*
X174847333Y-46893238D01*
X174942571Y-46941619D01*
X175133047Y-46941619D01*
X175228285Y-46893238D01*
X175275904Y-46844857D01*
X175323523Y-46748095D01*
X175323523Y-45925619D01*
X176323523Y-46941619D02*
X175752095Y-46941619D01*
X176037809Y-46941619D02*
X176037809Y-45925619D01*
X175942571Y-46070761D01*
X175847333Y-46167523D01*
X175752095Y-46215904D01*
G04 #@! TO.C,R1*
X142073333Y-62351619D02*
X141740000Y-61867809D01*
X141501904Y-62351619D02*
X141501904Y-61335619D01*
X141882857Y-61335619D01*
X141978095Y-61384000D01*
X142025714Y-61432380D01*
X142073333Y-61529142D01*
X142073333Y-61674285D01*
X142025714Y-61771047D01*
X141978095Y-61819428D01*
X141882857Y-61867809D01*
X141501904Y-61867809D01*
X143025714Y-62351619D02*
X142454285Y-62351619D01*
X142740000Y-62351619D02*
X142740000Y-61335619D01*
X142644761Y-61480761D01*
X142549523Y-61577523D01*
X142454285Y-61625904D01*
X141549523Y-67091619D02*
X140978095Y-67091619D01*
X141263809Y-67091619D02*
X141263809Y-66075619D01*
X141168571Y-66220761D01*
X141073333Y-66317523D01*
X140978095Y-66365904D01*
X141978095Y-67091619D02*
X141978095Y-66075619D01*
X142549523Y-67091619D02*
X142120952Y-66511047D01*
X142549523Y-66075619D02*
X141978095Y-66656190D01*
X143120952Y-66511047D02*
X143025714Y-66462666D01*
X142978095Y-66414285D01*
X142930476Y-66317523D01*
X142930476Y-66269142D01*
X142978095Y-66172380D01*
X143025714Y-66124000D01*
X143120952Y-66075619D01*
X143311428Y-66075619D01*
X143406666Y-66124000D01*
X143454285Y-66172380D01*
X143501904Y-66269142D01*
X143501904Y-66317523D01*
X143454285Y-66414285D01*
X143406666Y-66462666D01*
X143311428Y-66511047D01*
X143120952Y-66511047D01*
X143025714Y-66559428D01*
X142978095Y-66607809D01*
X142930476Y-66704571D01*
X142930476Y-66898095D01*
X142978095Y-66994857D01*
X143025714Y-67043238D01*
X143120952Y-67091619D01*
X143311428Y-67091619D01*
X143406666Y-67043238D01*
X143454285Y-66994857D01*
X143501904Y-66898095D01*
X143501904Y-66704571D01*
X143454285Y-66607809D01*
X143406666Y-66559428D01*
X143311428Y-66511047D01*
X142073333Y-64721619D02*
X141740000Y-64237809D01*
X141501904Y-64721619D02*
X141501904Y-63705619D01*
X141882857Y-63705619D01*
X141978095Y-63754000D01*
X142025714Y-63802380D01*
X142073333Y-63899142D01*
X142073333Y-64044285D01*
X142025714Y-64141047D01*
X141978095Y-64189428D01*
X141882857Y-64237809D01*
X141501904Y-64237809D01*
X143025714Y-64721619D02*
X142454285Y-64721619D01*
X142740000Y-64721619D02*
X142740000Y-63705619D01*
X142644761Y-63850761D01*
X142549523Y-63947523D01*
X142454285Y-63995904D01*
G04 #@! TD*
M02*
