G04 #@! TF.GenerationSoftware,KiCad,Pcbnew,(5.0.2)-1*
G04 #@! TF.CreationDate,2019-02-27T10:38:39-05:00*
G04 #@! TF.ProjectId,AR-22_Power_Supply,41522d32-325f-4506-9f77-65725f537570,rev?*
G04 #@! TF.SameCoordinates,Original*
G04 #@! TF.FileFunction,Soldermask,Bot*
G04 #@! TF.FilePolarity,Negative*
%FSLAX46Y46*%
G04 Gerber Fmt 4.6, Leading zero omitted, Abs format (unit mm)*
G04 Created by KiCad (PCBNEW (5.0.2)-1) date 2/27/2019 10:38:39 AM*
%MOMM*%
%LPD*%
G01*
G04 APERTURE LIST*
%ADD10C,0.100000*%
G04 APERTURE END LIST*
D10*
G36*
X151773000Y-80653000D02*
X149471000Y-80653000D01*
X149471000Y-78351000D01*
X151773000Y-78351000D01*
X151773000Y-80653000D01*
X151773000Y-80653000D01*
G37*
G36*
X139810442Y-78607518D02*
X139876627Y-78614037D01*
X139989853Y-78648384D01*
X140046467Y-78665557D01*
X140185087Y-78739652D01*
X140202991Y-78749222D01*
X140238729Y-78778552D01*
X140340186Y-78861814D01*
X140423448Y-78963271D01*
X140452778Y-78999009D01*
X140452779Y-78999011D01*
X140536443Y-79155533D01*
X140536443Y-79155534D01*
X140587963Y-79325373D01*
X140605359Y-79502000D01*
X140587963Y-79678627D01*
X140553616Y-79791853D01*
X140536443Y-79848467D01*
X140462348Y-79987087D01*
X140452778Y-80004991D01*
X140423448Y-80040729D01*
X140340186Y-80142186D01*
X140238729Y-80225448D01*
X140202991Y-80254778D01*
X140202989Y-80254779D01*
X140046467Y-80338443D01*
X139989853Y-80355616D01*
X139876627Y-80389963D01*
X139810442Y-80396482D01*
X139744260Y-80403000D01*
X139655740Y-80403000D01*
X139589558Y-80396482D01*
X139523373Y-80389963D01*
X139410147Y-80355616D01*
X139353533Y-80338443D01*
X139197011Y-80254779D01*
X139197009Y-80254778D01*
X139161271Y-80225448D01*
X139059814Y-80142186D01*
X138976552Y-80040729D01*
X138947222Y-80004991D01*
X138937652Y-79987087D01*
X138863557Y-79848467D01*
X138846384Y-79791853D01*
X138812037Y-79678627D01*
X138794641Y-79502000D01*
X138812037Y-79325373D01*
X138863557Y-79155534D01*
X138863557Y-79155533D01*
X138947221Y-78999011D01*
X138947222Y-78999009D01*
X138976552Y-78963271D01*
X139059814Y-78861814D01*
X139161271Y-78778552D01*
X139197009Y-78749222D01*
X139214913Y-78739652D01*
X139353533Y-78665557D01*
X139410147Y-78648384D01*
X139523373Y-78614037D01*
X139589558Y-78607518D01*
X139655740Y-78601000D01*
X139744260Y-78601000D01*
X139810442Y-78607518D01*
X139810442Y-78607518D01*
G37*
G36*
X137270442Y-78607518D02*
X137336627Y-78614037D01*
X137449853Y-78648384D01*
X137506467Y-78665557D01*
X137645087Y-78739652D01*
X137662991Y-78749222D01*
X137698729Y-78778552D01*
X137800186Y-78861814D01*
X137883448Y-78963271D01*
X137912778Y-78999009D01*
X137912779Y-78999011D01*
X137996443Y-79155533D01*
X137996443Y-79155534D01*
X138047963Y-79325373D01*
X138065359Y-79502000D01*
X138047963Y-79678627D01*
X138013616Y-79791853D01*
X137996443Y-79848467D01*
X137922348Y-79987087D01*
X137912778Y-80004991D01*
X137883448Y-80040729D01*
X137800186Y-80142186D01*
X137698729Y-80225448D01*
X137662991Y-80254778D01*
X137662989Y-80254779D01*
X137506467Y-80338443D01*
X137449853Y-80355616D01*
X137336627Y-80389963D01*
X137270442Y-80396482D01*
X137204260Y-80403000D01*
X137115740Y-80403000D01*
X137049558Y-80396482D01*
X136983373Y-80389963D01*
X136870147Y-80355616D01*
X136813533Y-80338443D01*
X136657011Y-80254779D01*
X136657009Y-80254778D01*
X136621271Y-80225448D01*
X136519814Y-80142186D01*
X136436552Y-80040729D01*
X136407222Y-80004991D01*
X136397652Y-79987087D01*
X136323557Y-79848467D01*
X136306384Y-79791853D01*
X136272037Y-79678627D01*
X136254641Y-79502000D01*
X136272037Y-79325373D01*
X136323557Y-79155534D01*
X136323557Y-79155533D01*
X136407221Y-78999011D01*
X136407222Y-78999009D01*
X136436552Y-78963271D01*
X136519814Y-78861814D01*
X136621271Y-78778552D01*
X136657009Y-78749222D01*
X136674913Y-78739652D01*
X136813533Y-78665557D01*
X136870147Y-78648384D01*
X136983373Y-78614037D01*
X137049558Y-78607518D01*
X137115740Y-78601000D01*
X137204260Y-78601000D01*
X137270442Y-78607518D01*
X137270442Y-78607518D01*
G37*
G36*
X134730442Y-78607518D02*
X134796627Y-78614037D01*
X134909853Y-78648384D01*
X134966467Y-78665557D01*
X135105087Y-78739652D01*
X135122991Y-78749222D01*
X135158729Y-78778552D01*
X135260186Y-78861814D01*
X135343448Y-78963271D01*
X135372778Y-78999009D01*
X135372779Y-78999011D01*
X135456443Y-79155533D01*
X135456443Y-79155534D01*
X135507963Y-79325373D01*
X135525359Y-79502000D01*
X135507963Y-79678627D01*
X135473616Y-79791853D01*
X135456443Y-79848467D01*
X135382348Y-79987087D01*
X135372778Y-80004991D01*
X135343448Y-80040729D01*
X135260186Y-80142186D01*
X135158729Y-80225448D01*
X135122991Y-80254778D01*
X135122989Y-80254779D01*
X134966467Y-80338443D01*
X134909853Y-80355616D01*
X134796627Y-80389963D01*
X134730442Y-80396482D01*
X134664260Y-80403000D01*
X134575740Y-80403000D01*
X134509558Y-80396482D01*
X134443373Y-80389963D01*
X134330147Y-80355616D01*
X134273533Y-80338443D01*
X134117011Y-80254779D01*
X134117009Y-80254778D01*
X134081271Y-80225448D01*
X133979814Y-80142186D01*
X133896552Y-80040729D01*
X133867222Y-80004991D01*
X133857652Y-79987087D01*
X133783557Y-79848467D01*
X133766384Y-79791853D01*
X133732037Y-79678627D01*
X133714641Y-79502000D01*
X133732037Y-79325373D01*
X133783557Y-79155534D01*
X133783557Y-79155533D01*
X133867221Y-78999011D01*
X133867222Y-78999009D01*
X133896552Y-78963271D01*
X133979814Y-78861814D01*
X134081271Y-78778552D01*
X134117009Y-78749222D01*
X134134913Y-78739652D01*
X134273533Y-78665557D01*
X134330147Y-78648384D01*
X134443373Y-78614037D01*
X134509558Y-78607518D01*
X134575740Y-78601000D01*
X134664260Y-78601000D01*
X134730442Y-78607518D01*
X134730442Y-78607518D01*
G37*
G36*
X132190442Y-78607518D02*
X132256627Y-78614037D01*
X132369853Y-78648384D01*
X132426467Y-78665557D01*
X132565087Y-78739652D01*
X132582991Y-78749222D01*
X132618729Y-78778552D01*
X132720186Y-78861814D01*
X132803448Y-78963271D01*
X132832778Y-78999009D01*
X132832779Y-78999011D01*
X132916443Y-79155533D01*
X132916443Y-79155534D01*
X132967963Y-79325373D01*
X132985359Y-79502000D01*
X132967963Y-79678627D01*
X132933616Y-79791853D01*
X132916443Y-79848467D01*
X132842348Y-79987087D01*
X132832778Y-80004991D01*
X132803448Y-80040729D01*
X132720186Y-80142186D01*
X132618729Y-80225448D01*
X132582991Y-80254778D01*
X132582989Y-80254779D01*
X132426467Y-80338443D01*
X132369853Y-80355616D01*
X132256627Y-80389963D01*
X132190442Y-80396482D01*
X132124260Y-80403000D01*
X132035740Y-80403000D01*
X131969558Y-80396482D01*
X131903373Y-80389963D01*
X131790147Y-80355616D01*
X131733533Y-80338443D01*
X131577011Y-80254779D01*
X131577009Y-80254778D01*
X131541271Y-80225448D01*
X131439814Y-80142186D01*
X131356552Y-80040729D01*
X131327222Y-80004991D01*
X131317652Y-79987087D01*
X131243557Y-79848467D01*
X131226384Y-79791853D01*
X131192037Y-79678627D01*
X131174641Y-79502000D01*
X131192037Y-79325373D01*
X131243557Y-79155534D01*
X131243557Y-79155533D01*
X131327221Y-78999011D01*
X131327222Y-78999009D01*
X131356552Y-78963271D01*
X131439814Y-78861814D01*
X131541271Y-78778552D01*
X131577009Y-78749222D01*
X131594913Y-78739652D01*
X131733533Y-78665557D01*
X131790147Y-78648384D01*
X131903373Y-78614037D01*
X131969558Y-78607518D01*
X132035740Y-78601000D01*
X132124260Y-78601000D01*
X132190442Y-78607518D01*
X132190442Y-78607518D01*
G37*
G36*
X129650442Y-78607518D02*
X129716627Y-78614037D01*
X129829853Y-78648384D01*
X129886467Y-78665557D01*
X130025087Y-78739652D01*
X130042991Y-78749222D01*
X130078729Y-78778552D01*
X130180186Y-78861814D01*
X130263448Y-78963271D01*
X130292778Y-78999009D01*
X130292779Y-78999011D01*
X130376443Y-79155533D01*
X130376443Y-79155534D01*
X130427963Y-79325373D01*
X130445359Y-79502000D01*
X130427963Y-79678627D01*
X130393616Y-79791853D01*
X130376443Y-79848467D01*
X130302348Y-79987087D01*
X130292778Y-80004991D01*
X130263448Y-80040729D01*
X130180186Y-80142186D01*
X130078729Y-80225448D01*
X130042991Y-80254778D01*
X130042989Y-80254779D01*
X129886467Y-80338443D01*
X129829853Y-80355616D01*
X129716627Y-80389963D01*
X129650442Y-80396482D01*
X129584260Y-80403000D01*
X129495740Y-80403000D01*
X129429558Y-80396482D01*
X129363373Y-80389963D01*
X129250147Y-80355616D01*
X129193533Y-80338443D01*
X129037011Y-80254779D01*
X129037009Y-80254778D01*
X129001271Y-80225448D01*
X128899814Y-80142186D01*
X128816552Y-80040729D01*
X128787222Y-80004991D01*
X128777652Y-79987087D01*
X128703557Y-79848467D01*
X128686384Y-79791853D01*
X128652037Y-79678627D01*
X128634641Y-79502000D01*
X128652037Y-79325373D01*
X128703557Y-79155534D01*
X128703557Y-79155533D01*
X128787221Y-78999011D01*
X128787222Y-78999009D01*
X128816552Y-78963271D01*
X128899814Y-78861814D01*
X129001271Y-78778552D01*
X129037009Y-78749222D01*
X129054913Y-78739652D01*
X129193533Y-78665557D01*
X129250147Y-78648384D01*
X129363373Y-78614037D01*
X129429558Y-78607518D01*
X129495740Y-78601000D01*
X129584260Y-78601000D01*
X129650442Y-78607518D01*
X129650442Y-78607518D01*
G37*
G36*
X127110442Y-78607518D02*
X127176627Y-78614037D01*
X127289853Y-78648384D01*
X127346467Y-78665557D01*
X127485087Y-78739652D01*
X127502991Y-78749222D01*
X127538729Y-78778552D01*
X127640186Y-78861814D01*
X127723448Y-78963271D01*
X127752778Y-78999009D01*
X127752779Y-78999011D01*
X127836443Y-79155533D01*
X127836443Y-79155534D01*
X127887963Y-79325373D01*
X127905359Y-79502000D01*
X127887963Y-79678627D01*
X127853616Y-79791853D01*
X127836443Y-79848467D01*
X127762348Y-79987087D01*
X127752778Y-80004991D01*
X127723448Y-80040729D01*
X127640186Y-80142186D01*
X127538729Y-80225448D01*
X127502991Y-80254778D01*
X127502989Y-80254779D01*
X127346467Y-80338443D01*
X127289853Y-80355616D01*
X127176627Y-80389963D01*
X127110442Y-80396482D01*
X127044260Y-80403000D01*
X126955740Y-80403000D01*
X126889558Y-80396482D01*
X126823373Y-80389963D01*
X126710147Y-80355616D01*
X126653533Y-80338443D01*
X126497011Y-80254779D01*
X126497009Y-80254778D01*
X126461271Y-80225448D01*
X126359814Y-80142186D01*
X126276552Y-80040729D01*
X126247222Y-80004991D01*
X126237652Y-79987087D01*
X126163557Y-79848467D01*
X126146384Y-79791853D01*
X126112037Y-79678627D01*
X126094641Y-79502000D01*
X126112037Y-79325373D01*
X126163557Y-79155534D01*
X126163557Y-79155533D01*
X126247221Y-78999011D01*
X126247222Y-78999009D01*
X126276552Y-78963271D01*
X126359814Y-78861814D01*
X126461271Y-78778552D01*
X126497009Y-78749222D01*
X126514913Y-78739652D01*
X126653533Y-78665557D01*
X126710147Y-78648384D01*
X126823373Y-78614037D01*
X126889558Y-78607518D01*
X126955740Y-78601000D01*
X127044260Y-78601000D01*
X127110442Y-78607518D01*
X127110442Y-78607518D01*
G37*
G36*
X124570442Y-78607518D02*
X124636627Y-78614037D01*
X124749853Y-78648384D01*
X124806467Y-78665557D01*
X124945087Y-78739652D01*
X124962991Y-78749222D01*
X124998729Y-78778552D01*
X125100186Y-78861814D01*
X125183448Y-78963271D01*
X125212778Y-78999009D01*
X125212779Y-78999011D01*
X125296443Y-79155533D01*
X125296443Y-79155534D01*
X125347963Y-79325373D01*
X125365359Y-79502000D01*
X125347963Y-79678627D01*
X125313616Y-79791853D01*
X125296443Y-79848467D01*
X125222348Y-79987087D01*
X125212778Y-80004991D01*
X125183448Y-80040729D01*
X125100186Y-80142186D01*
X124998729Y-80225448D01*
X124962991Y-80254778D01*
X124962989Y-80254779D01*
X124806467Y-80338443D01*
X124749853Y-80355616D01*
X124636627Y-80389963D01*
X124570442Y-80396482D01*
X124504260Y-80403000D01*
X124415740Y-80403000D01*
X124349558Y-80396482D01*
X124283373Y-80389963D01*
X124170147Y-80355616D01*
X124113533Y-80338443D01*
X123957011Y-80254779D01*
X123957009Y-80254778D01*
X123921271Y-80225448D01*
X123819814Y-80142186D01*
X123736552Y-80040729D01*
X123707222Y-80004991D01*
X123697652Y-79987087D01*
X123623557Y-79848467D01*
X123606384Y-79791853D01*
X123572037Y-79678627D01*
X123554641Y-79502000D01*
X123572037Y-79325373D01*
X123623557Y-79155534D01*
X123623557Y-79155533D01*
X123707221Y-78999011D01*
X123707222Y-78999009D01*
X123736552Y-78963271D01*
X123819814Y-78861814D01*
X123921271Y-78778552D01*
X123957009Y-78749222D01*
X123974913Y-78739652D01*
X124113533Y-78665557D01*
X124170147Y-78648384D01*
X124283373Y-78614037D01*
X124349558Y-78607518D01*
X124415740Y-78601000D01*
X124504260Y-78601000D01*
X124570442Y-78607518D01*
X124570442Y-78607518D01*
G37*
G36*
X122821000Y-80403000D02*
X121019000Y-80403000D01*
X121019000Y-78601000D01*
X122821000Y-78601000D01*
X122821000Y-80403000D01*
X122821000Y-80403000D01*
G37*
G36*
X178302228Y-70221703D02*
X178457100Y-70285853D01*
X178596481Y-70378985D01*
X178715015Y-70497519D01*
X178808147Y-70636900D01*
X178872297Y-70791772D01*
X178905000Y-70956184D01*
X178905000Y-71123816D01*
X178872297Y-71288228D01*
X178808147Y-71443100D01*
X178715015Y-71582481D01*
X178596481Y-71701015D01*
X178457100Y-71794147D01*
X178302228Y-71858297D01*
X178137816Y-71891000D01*
X177970184Y-71891000D01*
X177805772Y-71858297D01*
X177650900Y-71794147D01*
X177511519Y-71701015D01*
X177392985Y-71582481D01*
X177299853Y-71443100D01*
X177235703Y-71288228D01*
X177203000Y-71123816D01*
X177203000Y-70956184D01*
X177235703Y-70791772D01*
X177299853Y-70636900D01*
X177392985Y-70497519D01*
X177511519Y-70378985D01*
X177650900Y-70285853D01*
X177805772Y-70221703D01*
X177970184Y-70189000D01*
X178137816Y-70189000D01*
X178302228Y-70221703D01*
X178302228Y-70221703D01*
G37*
G36*
X129664180Y-69467662D02*
X129765635Y-69477654D01*
X129982600Y-69543470D01*
X129982602Y-69543471D01*
X129982605Y-69543472D01*
X130182556Y-69650347D01*
X130357818Y-69794182D01*
X130501653Y-69969444D01*
X130608528Y-70169395D01*
X130608529Y-70169398D01*
X130608530Y-70169400D01*
X130674346Y-70386365D01*
X130696569Y-70612000D01*
X130674346Y-70837635D01*
X130638384Y-70956184D01*
X130608528Y-71054605D01*
X130501653Y-71254556D01*
X130357818Y-71429818D01*
X130182556Y-71573653D01*
X129982605Y-71680528D01*
X129982602Y-71680529D01*
X129982600Y-71680530D01*
X129765635Y-71746346D01*
X129664180Y-71756338D01*
X129596545Y-71763000D01*
X129483455Y-71763000D01*
X129415820Y-71756338D01*
X129314365Y-71746346D01*
X129097400Y-71680530D01*
X129097398Y-71680529D01*
X129097395Y-71680528D01*
X128897444Y-71573653D01*
X128722182Y-71429818D01*
X128578347Y-71254556D01*
X128471472Y-71054605D01*
X128441616Y-70956184D01*
X128405654Y-70837635D01*
X128383431Y-70612000D01*
X128405654Y-70386365D01*
X128471470Y-70169400D01*
X128471471Y-70169398D01*
X128471472Y-70169395D01*
X128578347Y-69969444D01*
X128722182Y-69794182D01*
X128897444Y-69650347D01*
X129097395Y-69543472D01*
X129097398Y-69543471D01*
X129097400Y-69543470D01*
X129314365Y-69477654D01*
X129415820Y-69467662D01*
X129483455Y-69461000D01*
X129596545Y-69461000D01*
X129664180Y-69467662D01*
X129664180Y-69467662D01*
G37*
G36*
X140851000Y-71763000D02*
X138549000Y-71763000D01*
X138549000Y-69461000D01*
X140851000Y-69461000D01*
X140851000Y-71763000D01*
X140851000Y-71763000D01*
G37*
G36*
X150746180Y-68197662D02*
X150847635Y-68207654D01*
X151064600Y-68273470D01*
X151064602Y-68273471D01*
X151064605Y-68273472D01*
X151264556Y-68380347D01*
X151439818Y-68524182D01*
X151583653Y-68699444D01*
X151690528Y-68899395D01*
X151690529Y-68899398D01*
X151690530Y-68899400D01*
X151756346Y-69116365D01*
X151778569Y-69342000D01*
X151756346Y-69567635D01*
X151690530Y-69784600D01*
X151690528Y-69784605D01*
X151583653Y-69984556D01*
X151439818Y-70159818D01*
X151264556Y-70303653D01*
X151064605Y-70410528D01*
X151064602Y-70410529D01*
X151064600Y-70410530D01*
X150847635Y-70476346D01*
X150746180Y-70486338D01*
X150678545Y-70493000D01*
X150565455Y-70493000D01*
X150497820Y-70486338D01*
X150396365Y-70476346D01*
X150179400Y-70410530D01*
X150179398Y-70410529D01*
X150179395Y-70410528D01*
X149979444Y-70303653D01*
X149804182Y-70159818D01*
X149660347Y-69984556D01*
X149553472Y-69784605D01*
X149553470Y-69784600D01*
X149487654Y-69567635D01*
X149465431Y-69342000D01*
X149487654Y-69116365D01*
X149553470Y-68899400D01*
X149553471Y-68899398D01*
X149553472Y-68899395D01*
X149660347Y-68699444D01*
X149804182Y-68524182D01*
X149979444Y-68380347D01*
X150179395Y-68273472D01*
X150179398Y-68273471D01*
X150179400Y-68273470D01*
X150396365Y-68207654D01*
X150497820Y-68197662D01*
X150565455Y-68191000D01*
X150678545Y-68191000D01*
X150746180Y-68197662D01*
X150746180Y-68197662D01*
G37*
G36*
X120281000Y-70243000D02*
X118479000Y-70243000D01*
X118479000Y-68441000D01*
X120281000Y-68441000D01*
X120281000Y-70243000D01*
X120281000Y-70243000D01*
G37*
G36*
X119490443Y-65907519D02*
X119556627Y-65914037D01*
X119669853Y-65948384D01*
X119726467Y-65965557D01*
X119865087Y-66039652D01*
X119882991Y-66049222D01*
X119918729Y-66078552D01*
X120020186Y-66161814D01*
X120103448Y-66263271D01*
X120132778Y-66299009D01*
X120132779Y-66299011D01*
X120216443Y-66455533D01*
X120216443Y-66455534D01*
X120267963Y-66625373D01*
X120285359Y-66802000D01*
X120267963Y-66978627D01*
X120233616Y-67091853D01*
X120216443Y-67148467D01*
X120142348Y-67287087D01*
X120132778Y-67304991D01*
X120103448Y-67340729D01*
X120020186Y-67442186D01*
X119918729Y-67525448D01*
X119882991Y-67554778D01*
X119882989Y-67554779D01*
X119726467Y-67638443D01*
X119669853Y-67655616D01*
X119556627Y-67689963D01*
X119490442Y-67696482D01*
X119424260Y-67703000D01*
X119335740Y-67703000D01*
X119269558Y-67696482D01*
X119203373Y-67689963D01*
X119090147Y-67655616D01*
X119033533Y-67638443D01*
X118877011Y-67554779D01*
X118877009Y-67554778D01*
X118841271Y-67525448D01*
X118739814Y-67442186D01*
X118656552Y-67340729D01*
X118627222Y-67304991D01*
X118617652Y-67287087D01*
X118543557Y-67148467D01*
X118526384Y-67091853D01*
X118492037Y-66978627D01*
X118474641Y-66802000D01*
X118492037Y-66625373D01*
X118543557Y-66455534D01*
X118543557Y-66455533D01*
X118627221Y-66299011D01*
X118627222Y-66299009D01*
X118656552Y-66263271D01*
X118739814Y-66161814D01*
X118841271Y-66078552D01*
X118877009Y-66049222D01*
X118894913Y-66039652D01*
X119033533Y-65965557D01*
X119090147Y-65948384D01*
X119203373Y-65914037D01*
X119269557Y-65907519D01*
X119335740Y-65901000D01*
X119424260Y-65901000D01*
X119490443Y-65907519D01*
X119490443Y-65907519D01*
G37*
G36*
X178302228Y-65221703D02*
X178457100Y-65285853D01*
X178596481Y-65378985D01*
X178715015Y-65497519D01*
X178808147Y-65636900D01*
X178872297Y-65791772D01*
X178905000Y-65956184D01*
X178905000Y-66123816D01*
X178872297Y-66288228D01*
X178808147Y-66443100D01*
X178715015Y-66582481D01*
X178596481Y-66701015D01*
X178457100Y-66794147D01*
X178302228Y-66858297D01*
X178137816Y-66891000D01*
X177970184Y-66891000D01*
X177805772Y-66858297D01*
X177650900Y-66794147D01*
X177511519Y-66701015D01*
X177392985Y-66582481D01*
X177299853Y-66443100D01*
X177235703Y-66288228D01*
X177203000Y-66123816D01*
X177203000Y-65956184D01*
X177235703Y-65791772D01*
X177299853Y-65636900D01*
X177392985Y-65497519D01*
X177511519Y-65378985D01*
X177650900Y-65285853D01*
X177805772Y-65221703D01*
X177970184Y-65189000D01*
X178137816Y-65189000D01*
X178302228Y-65221703D01*
X178302228Y-65221703D01*
G37*
G36*
X119490442Y-63367518D02*
X119556627Y-63374037D01*
X119669853Y-63408384D01*
X119726467Y-63425557D01*
X119813311Y-63471977D01*
X119882991Y-63509222D01*
X119918729Y-63538552D01*
X120020186Y-63621814D01*
X120100369Y-63719519D01*
X120132778Y-63759009D01*
X120132779Y-63759011D01*
X120216443Y-63915533D01*
X120233616Y-63972147D01*
X120267963Y-64085373D01*
X120285359Y-64262000D01*
X120267963Y-64438627D01*
X120246243Y-64510228D01*
X120216443Y-64608467D01*
X120147698Y-64737078D01*
X120132778Y-64764991D01*
X120103448Y-64800729D01*
X120020186Y-64902186D01*
X119918729Y-64985448D01*
X119882991Y-65014778D01*
X119882989Y-65014779D01*
X119726467Y-65098443D01*
X119719069Y-65100687D01*
X119556627Y-65149963D01*
X119490443Y-65156481D01*
X119424260Y-65163000D01*
X119335740Y-65163000D01*
X119269557Y-65156481D01*
X119203373Y-65149963D01*
X119040931Y-65100687D01*
X119033533Y-65098443D01*
X118877011Y-65014779D01*
X118877009Y-65014778D01*
X118841271Y-64985448D01*
X118739814Y-64902186D01*
X118656552Y-64800729D01*
X118627222Y-64764991D01*
X118612302Y-64737078D01*
X118543557Y-64608467D01*
X118513757Y-64510228D01*
X118492037Y-64438627D01*
X118474641Y-64262000D01*
X118492037Y-64085373D01*
X118526384Y-63972147D01*
X118543557Y-63915533D01*
X118627221Y-63759011D01*
X118627222Y-63759009D01*
X118659631Y-63719519D01*
X118739814Y-63621814D01*
X118841271Y-63538552D01*
X118877009Y-63509222D01*
X118946689Y-63471977D01*
X119033533Y-63425557D01*
X119090147Y-63408384D01*
X119203373Y-63374037D01*
X119269558Y-63367518D01*
X119335740Y-63361000D01*
X119424260Y-63361000D01*
X119490442Y-63367518D01*
X119490442Y-63367518D01*
G37*
G36*
X129650442Y-63367518D02*
X129716627Y-63374037D01*
X129829853Y-63408384D01*
X129886467Y-63425557D01*
X129973311Y-63471977D01*
X130042991Y-63509222D01*
X130078729Y-63538552D01*
X130180186Y-63621814D01*
X130260369Y-63719519D01*
X130292778Y-63759009D01*
X130292779Y-63759011D01*
X130376443Y-63915533D01*
X130393616Y-63972147D01*
X130427963Y-64085373D01*
X130445359Y-64262000D01*
X130427963Y-64438627D01*
X130406243Y-64510228D01*
X130376443Y-64608467D01*
X130307698Y-64737078D01*
X130292778Y-64764991D01*
X130263448Y-64800729D01*
X130180186Y-64902186D01*
X130078729Y-64985448D01*
X130042991Y-65014778D01*
X130042989Y-65014779D01*
X129886467Y-65098443D01*
X129879069Y-65100687D01*
X129716627Y-65149963D01*
X129650443Y-65156481D01*
X129584260Y-65163000D01*
X129495740Y-65163000D01*
X129429557Y-65156481D01*
X129363373Y-65149963D01*
X129200931Y-65100687D01*
X129193533Y-65098443D01*
X129037011Y-65014779D01*
X129037009Y-65014778D01*
X129001271Y-64985448D01*
X128899814Y-64902186D01*
X128816552Y-64800729D01*
X128787222Y-64764991D01*
X128772302Y-64737078D01*
X128703557Y-64608467D01*
X128673757Y-64510228D01*
X128652037Y-64438627D01*
X128634641Y-64262000D01*
X128652037Y-64085373D01*
X128686384Y-63972147D01*
X128703557Y-63915533D01*
X128787221Y-63759011D01*
X128787222Y-63759009D01*
X128819631Y-63719519D01*
X128899814Y-63621814D01*
X129001271Y-63538552D01*
X129037009Y-63509222D01*
X129106689Y-63471977D01*
X129193533Y-63425557D01*
X129250147Y-63408384D01*
X129363373Y-63374037D01*
X129429558Y-63367518D01*
X129495740Y-63361000D01*
X129584260Y-63361000D01*
X129650442Y-63367518D01*
X129650442Y-63367518D01*
G37*
G36*
X138678228Y-63443703D02*
X138833100Y-63507853D01*
X138972481Y-63600985D01*
X139091015Y-63719519D01*
X139184147Y-63858900D01*
X139248297Y-64013772D01*
X139281000Y-64178184D01*
X139281000Y-64345816D01*
X139248297Y-64510228D01*
X139184147Y-64665100D01*
X139091015Y-64804481D01*
X138972481Y-64923015D01*
X138833100Y-65016147D01*
X138678228Y-65080297D01*
X138513816Y-65113000D01*
X138346184Y-65113000D01*
X138181772Y-65080297D01*
X138026900Y-65016147D01*
X137887519Y-64923015D01*
X137768985Y-64804481D01*
X137675853Y-64665100D01*
X137611703Y-64510228D01*
X137579000Y-64345816D01*
X137579000Y-64178184D01*
X137611703Y-64013772D01*
X137675853Y-63858900D01*
X137768985Y-63719519D01*
X137887519Y-63600985D01*
X138026900Y-63507853D01*
X138181772Y-63443703D01*
X138346184Y-63411000D01*
X138513816Y-63411000D01*
X138678228Y-63443703D01*
X138678228Y-63443703D01*
G37*
G36*
X146216821Y-63423313D02*
X146216824Y-63423314D01*
X146216825Y-63423314D01*
X146377239Y-63471975D01*
X146377241Y-63471976D01*
X146377244Y-63471977D01*
X146525078Y-63550995D01*
X146654659Y-63657341D01*
X146761005Y-63786922D01*
X146840023Y-63934756D01*
X146840024Y-63934759D01*
X146840025Y-63934761D01*
X146885713Y-64085375D01*
X146888687Y-64095179D01*
X146905117Y-64262000D01*
X146888687Y-64428821D01*
X146888686Y-64428824D01*
X146888686Y-64428825D01*
X146863993Y-64510228D01*
X146840023Y-64589244D01*
X146761005Y-64737078D01*
X146654659Y-64866659D01*
X146525078Y-64973005D01*
X146377244Y-65052023D01*
X146377241Y-65052024D01*
X146377239Y-65052025D01*
X146216825Y-65100686D01*
X146216824Y-65100686D01*
X146216821Y-65100687D01*
X146091804Y-65113000D01*
X146008196Y-65113000D01*
X145883179Y-65100687D01*
X145883176Y-65100686D01*
X145883175Y-65100686D01*
X145722761Y-65052025D01*
X145722759Y-65052024D01*
X145722756Y-65052023D01*
X145574922Y-64973005D01*
X145445341Y-64866659D01*
X145338995Y-64737078D01*
X145259977Y-64589244D01*
X145236008Y-64510228D01*
X145211314Y-64428825D01*
X145211314Y-64428824D01*
X145211313Y-64428821D01*
X145194883Y-64262000D01*
X145211313Y-64095179D01*
X145214287Y-64085375D01*
X145259975Y-63934761D01*
X145259976Y-63934759D01*
X145259977Y-63934756D01*
X145338995Y-63786922D01*
X145445341Y-63657341D01*
X145574922Y-63550995D01*
X145722756Y-63471977D01*
X145722759Y-63471976D01*
X145722761Y-63471975D01*
X145883175Y-63423314D01*
X145883176Y-63423314D01*
X145883179Y-63423313D01*
X146008196Y-63411000D01*
X146091804Y-63411000D01*
X146216821Y-63423313D01*
X146216821Y-63423313D01*
G37*
G36*
X119490443Y-60827519D02*
X119556627Y-60834037D01*
X119669853Y-60868384D01*
X119726467Y-60885557D01*
X119865087Y-60959652D01*
X119882991Y-60969222D01*
X119918729Y-60998552D01*
X120020186Y-61081814D01*
X120103448Y-61183271D01*
X120132778Y-61219009D01*
X120132779Y-61219011D01*
X120216443Y-61375533D01*
X120216443Y-61375534D01*
X120267963Y-61545373D01*
X120285359Y-61722000D01*
X120267963Y-61898627D01*
X120233616Y-62011853D01*
X120216443Y-62068467D01*
X120142348Y-62207087D01*
X120132778Y-62224991D01*
X120103448Y-62260729D01*
X120020186Y-62362186D01*
X119918729Y-62445448D01*
X119882991Y-62474778D01*
X119882989Y-62474779D01*
X119726467Y-62558443D01*
X119669853Y-62575616D01*
X119556627Y-62609963D01*
X119490442Y-62616482D01*
X119424260Y-62623000D01*
X119335740Y-62623000D01*
X119269558Y-62616482D01*
X119203373Y-62609963D01*
X119090147Y-62575616D01*
X119033533Y-62558443D01*
X118877011Y-62474779D01*
X118877009Y-62474778D01*
X118841271Y-62445448D01*
X118739814Y-62362186D01*
X118656552Y-62260729D01*
X118627222Y-62224991D01*
X118617652Y-62207087D01*
X118543557Y-62068467D01*
X118526384Y-62011853D01*
X118492037Y-61898627D01*
X118474641Y-61722000D01*
X118492037Y-61545373D01*
X118543557Y-61375534D01*
X118543557Y-61375533D01*
X118627221Y-61219011D01*
X118627222Y-61219009D01*
X118656552Y-61183271D01*
X118739814Y-61081814D01*
X118841271Y-60998552D01*
X118877009Y-60969222D01*
X118894913Y-60959652D01*
X119033533Y-60885557D01*
X119090147Y-60868384D01*
X119203373Y-60834037D01*
X119269557Y-60827519D01*
X119335740Y-60821000D01*
X119424260Y-60821000D01*
X119490443Y-60827519D01*
X119490443Y-60827519D01*
G37*
G36*
X130441000Y-62623000D02*
X128639000Y-62623000D01*
X128639000Y-60821000D01*
X130441000Y-60821000D01*
X130441000Y-62623000D01*
X130441000Y-62623000D01*
G37*
G36*
X173170720Y-54843520D02*
X173359881Y-54900901D01*
X173534212Y-54994083D01*
X173687015Y-55119485D01*
X173812417Y-55272288D01*
X173905599Y-55446620D01*
X173962980Y-55635781D01*
X173977500Y-55783207D01*
X173977500Y-55976794D01*
X173962980Y-56124220D01*
X173905599Y-56313381D01*
X173812417Y-56487712D01*
X173687015Y-56640515D01*
X173534212Y-56765917D01*
X173359880Y-56859099D01*
X173170719Y-56916480D01*
X172974000Y-56935855D01*
X172777280Y-56916480D01*
X172588119Y-56859099D01*
X172413788Y-56765917D01*
X172260985Y-56640515D01*
X172135583Y-56487712D01*
X172042401Y-56313380D01*
X171985020Y-56124219D01*
X171970500Y-55976793D01*
X171970500Y-55783206D01*
X171985020Y-55635780D01*
X172042401Y-55446619D01*
X172135583Y-55272288D01*
X172260985Y-55119485D01*
X172413788Y-54994083D01*
X172588120Y-54900901D01*
X172777281Y-54843520D01*
X172974000Y-54824145D01*
X173170720Y-54843520D01*
X173170720Y-54843520D01*
G37*
G36*
X175710720Y-54843520D02*
X175899881Y-54900901D01*
X176074212Y-54994083D01*
X176227015Y-55119485D01*
X176352417Y-55272288D01*
X176445599Y-55446620D01*
X176502980Y-55635781D01*
X176517500Y-55783207D01*
X176517500Y-55976794D01*
X176502980Y-56124220D01*
X176445599Y-56313381D01*
X176352417Y-56487712D01*
X176227015Y-56640515D01*
X176074212Y-56765917D01*
X175899880Y-56859099D01*
X175710719Y-56916480D01*
X175514000Y-56935855D01*
X175317280Y-56916480D01*
X175128119Y-56859099D01*
X174953788Y-56765917D01*
X174800985Y-56640515D01*
X174675583Y-56487712D01*
X174582401Y-56313380D01*
X174525020Y-56124219D01*
X174510500Y-55976793D01*
X174510500Y-55783206D01*
X174525020Y-55635780D01*
X174582401Y-55446619D01*
X174675583Y-55272288D01*
X174800985Y-55119485D01*
X174953788Y-54994083D01*
X175128120Y-54900901D01*
X175317281Y-54843520D01*
X175514000Y-54824145D01*
X175710720Y-54843520D01*
X175710720Y-54843520D01*
G37*
G36*
X179057500Y-56931000D02*
X177050500Y-56931000D01*
X177050500Y-54829000D01*
X179057500Y-54829000D01*
X179057500Y-56931000D01*
X179057500Y-56931000D01*
G37*
G36*
X183636228Y-55061703D02*
X183791100Y-55125853D01*
X183930481Y-55218985D01*
X184049015Y-55337519D01*
X184142147Y-55476900D01*
X184206297Y-55631772D01*
X184239000Y-55796184D01*
X184239000Y-55963816D01*
X184206297Y-56128228D01*
X184142147Y-56283100D01*
X184049015Y-56422481D01*
X183930481Y-56541015D01*
X183791100Y-56634147D01*
X183636228Y-56698297D01*
X183471816Y-56731000D01*
X183304184Y-56731000D01*
X183139772Y-56698297D01*
X182984900Y-56634147D01*
X182845519Y-56541015D01*
X182726985Y-56422481D01*
X182633853Y-56283100D01*
X182569703Y-56128228D01*
X182537000Y-55963816D01*
X182537000Y-55796184D01*
X182569703Y-55631772D01*
X182633853Y-55476900D01*
X182726985Y-55337519D01*
X182845519Y-55218985D01*
X182984900Y-55125853D01*
X183139772Y-55061703D01*
X183304184Y-55029000D01*
X183471816Y-55029000D01*
X183636228Y-55061703D01*
X183636228Y-55061703D01*
G37*
G36*
X188636228Y-55061703D02*
X188791100Y-55125853D01*
X188930481Y-55218985D01*
X189049015Y-55337519D01*
X189142147Y-55476900D01*
X189206297Y-55631772D01*
X189239000Y-55796184D01*
X189239000Y-55963816D01*
X189206297Y-56128228D01*
X189142147Y-56283100D01*
X189049015Y-56422481D01*
X188930481Y-56541015D01*
X188791100Y-56634147D01*
X188636228Y-56698297D01*
X188471816Y-56731000D01*
X188304184Y-56731000D01*
X188139772Y-56698297D01*
X187984900Y-56634147D01*
X187845519Y-56541015D01*
X187726985Y-56422481D01*
X187633853Y-56283100D01*
X187569703Y-56128228D01*
X187537000Y-55963816D01*
X187537000Y-55796184D01*
X187569703Y-55631772D01*
X187633853Y-55476900D01*
X187726985Y-55337519D01*
X187845519Y-55218985D01*
X187984900Y-55125853D01*
X188139772Y-55061703D01*
X188304184Y-55029000D01*
X188471816Y-55029000D01*
X188636228Y-55061703D01*
X188636228Y-55061703D01*
G37*
G36*
X162888228Y-55061703D02*
X163043100Y-55125853D01*
X163182481Y-55218985D01*
X163301015Y-55337519D01*
X163394147Y-55476900D01*
X163458297Y-55631772D01*
X163491000Y-55796184D01*
X163491000Y-55963816D01*
X163458297Y-56128228D01*
X163394147Y-56283100D01*
X163301015Y-56422481D01*
X163182481Y-56541015D01*
X163043100Y-56634147D01*
X162888228Y-56698297D01*
X162723816Y-56731000D01*
X162556184Y-56731000D01*
X162391772Y-56698297D01*
X162236900Y-56634147D01*
X162097519Y-56541015D01*
X161978985Y-56422481D01*
X161885853Y-56283100D01*
X161821703Y-56128228D01*
X161789000Y-55963816D01*
X161789000Y-55796184D01*
X161821703Y-55631772D01*
X161885853Y-55476900D01*
X161978985Y-55337519D01*
X162097519Y-55218985D01*
X162236900Y-55125853D01*
X162391772Y-55061703D01*
X162556184Y-55029000D01*
X162723816Y-55029000D01*
X162888228Y-55061703D01*
X162888228Y-55061703D01*
G37*
G36*
X167888228Y-55061703D02*
X168043100Y-55125853D01*
X168182481Y-55218985D01*
X168301015Y-55337519D01*
X168394147Y-55476900D01*
X168458297Y-55631772D01*
X168491000Y-55796184D01*
X168491000Y-55963816D01*
X168458297Y-56128228D01*
X168394147Y-56283100D01*
X168301015Y-56422481D01*
X168182481Y-56541015D01*
X168043100Y-56634147D01*
X167888228Y-56698297D01*
X167723816Y-56731000D01*
X167556184Y-56731000D01*
X167391772Y-56698297D01*
X167236900Y-56634147D01*
X167097519Y-56541015D01*
X166978985Y-56422481D01*
X166885853Y-56283100D01*
X166821703Y-56128228D01*
X166789000Y-55963816D01*
X166789000Y-55796184D01*
X166821703Y-55631772D01*
X166885853Y-55476900D01*
X166978985Y-55337519D01*
X167097519Y-55218985D01*
X167236900Y-55125853D01*
X167391772Y-55061703D01*
X167556184Y-55029000D01*
X167723816Y-55029000D01*
X167888228Y-55061703D01*
X167888228Y-55061703D01*
G37*
G36*
X175690669Y-37427686D02*
X175867058Y-37445059D01*
X176093385Y-37513714D01*
X176206549Y-37548042D01*
X176519425Y-37715279D01*
X176793661Y-37940339D01*
X177018721Y-38214575D01*
X177185958Y-38527451D01*
X177185958Y-38527452D01*
X177288941Y-38866942D01*
X177323714Y-39220000D01*
X177288941Y-39573058D01*
X177220286Y-39799385D01*
X177185958Y-39912549D01*
X177018721Y-40225425D01*
X176793661Y-40499661D01*
X176519425Y-40724721D01*
X176206549Y-40891958D01*
X176093385Y-40926286D01*
X175867058Y-40994941D01*
X175690669Y-41012314D01*
X175602476Y-41021000D01*
X175425524Y-41021000D01*
X175337331Y-41012314D01*
X175160942Y-40994941D01*
X174934615Y-40926286D01*
X174821451Y-40891958D01*
X174508575Y-40724721D01*
X174234339Y-40499661D01*
X174009279Y-40225425D01*
X173842042Y-39912549D01*
X173807714Y-39799385D01*
X173739059Y-39573058D01*
X173704286Y-39220000D01*
X173739059Y-38866942D01*
X173842042Y-38527452D01*
X173842042Y-38527451D01*
X174009279Y-38214575D01*
X174234339Y-37940339D01*
X174508575Y-37715279D01*
X174821451Y-37548042D01*
X174934615Y-37513714D01*
X175160942Y-37445059D01*
X175337331Y-37427686D01*
X175425524Y-37419000D01*
X175602476Y-37419000D01*
X175690669Y-37427686D01*
X175690669Y-37427686D01*
G37*
G36*
X172830443Y-30347519D02*
X172896627Y-30354037D01*
X173009853Y-30388384D01*
X173066467Y-30405557D01*
X173205087Y-30479652D01*
X173222991Y-30489222D01*
X173258729Y-30518552D01*
X173360186Y-30601814D01*
X173443448Y-30703271D01*
X173472778Y-30739009D01*
X173472779Y-30739011D01*
X173556443Y-30895533D01*
X173556443Y-30895534D01*
X173607963Y-31065373D01*
X173625359Y-31242000D01*
X173607963Y-31418627D01*
X173573616Y-31531853D01*
X173556443Y-31588467D01*
X173482348Y-31727087D01*
X173472778Y-31744991D01*
X173443448Y-31780729D01*
X173360186Y-31882186D01*
X173258729Y-31965448D01*
X173222991Y-31994778D01*
X173222989Y-31994779D01*
X173066467Y-32078443D01*
X173009853Y-32095616D01*
X172896627Y-32129963D01*
X172830443Y-32136481D01*
X172764260Y-32143000D01*
X172675740Y-32143000D01*
X172609557Y-32136481D01*
X172543373Y-32129963D01*
X172430147Y-32095616D01*
X172373533Y-32078443D01*
X172217011Y-31994779D01*
X172217009Y-31994778D01*
X172181271Y-31965448D01*
X172079814Y-31882186D01*
X171996552Y-31780729D01*
X171967222Y-31744991D01*
X171957652Y-31727087D01*
X171883557Y-31588467D01*
X171866384Y-31531853D01*
X171832037Y-31418627D01*
X171814641Y-31242000D01*
X171832037Y-31065373D01*
X171883557Y-30895534D01*
X171883557Y-30895533D01*
X171967221Y-30739011D01*
X171967222Y-30739009D01*
X171996552Y-30703271D01*
X172079814Y-30601814D01*
X172181271Y-30518552D01*
X172217009Y-30489222D01*
X172234913Y-30479652D01*
X172373533Y-30405557D01*
X172430147Y-30388384D01*
X172543373Y-30354037D01*
X172609557Y-30347519D01*
X172675740Y-30341000D01*
X172764260Y-30341000D01*
X172830443Y-30347519D01*
X172830443Y-30347519D01*
G37*
G36*
X163461000Y-32143000D02*
X161659000Y-32143000D01*
X161659000Y-30341000D01*
X163461000Y-30341000D01*
X163461000Y-32143000D01*
X163461000Y-32143000D01*
G37*
G36*
X165210443Y-30347519D02*
X165276627Y-30354037D01*
X165389853Y-30388384D01*
X165446467Y-30405557D01*
X165585087Y-30479652D01*
X165602991Y-30489222D01*
X165638729Y-30518552D01*
X165740186Y-30601814D01*
X165823448Y-30703271D01*
X165852778Y-30739009D01*
X165852779Y-30739011D01*
X165936443Y-30895533D01*
X165936443Y-30895534D01*
X165987963Y-31065373D01*
X166005359Y-31242000D01*
X165987963Y-31418627D01*
X165953616Y-31531853D01*
X165936443Y-31588467D01*
X165862348Y-31727087D01*
X165852778Y-31744991D01*
X165823448Y-31780729D01*
X165740186Y-31882186D01*
X165638729Y-31965448D01*
X165602991Y-31994778D01*
X165602989Y-31994779D01*
X165446467Y-32078443D01*
X165389853Y-32095616D01*
X165276627Y-32129963D01*
X165210443Y-32136481D01*
X165144260Y-32143000D01*
X165055740Y-32143000D01*
X164989557Y-32136481D01*
X164923373Y-32129963D01*
X164810147Y-32095616D01*
X164753533Y-32078443D01*
X164597011Y-31994779D01*
X164597009Y-31994778D01*
X164561271Y-31965448D01*
X164459814Y-31882186D01*
X164376552Y-31780729D01*
X164347222Y-31744991D01*
X164337652Y-31727087D01*
X164263557Y-31588467D01*
X164246384Y-31531853D01*
X164212037Y-31418627D01*
X164194641Y-31242000D01*
X164212037Y-31065373D01*
X164263557Y-30895534D01*
X164263557Y-30895533D01*
X164347221Y-30739011D01*
X164347222Y-30739009D01*
X164376552Y-30703271D01*
X164459814Y-30601814D01*
X164561271Y-30518552D01*
X164597009Y-30489222D01*
X164614913Y-30479652D01*
X164753533Y-30405557D01*
X164810147Y-30388384D01*
X164923373Y-30354037D01*
X164989557Y-30347519D01*
X165055740Y-30341000D01*
X165144260Y-30341000D01*
X165210443Y-30347519D01*
X165210443Y-30347519D01*
G37*
G36*
X167750443Y-30347519D02*
X167816627Y-30354037D01*
X167929853Y-30388384D01*
X167986467Y-30405557D01*
X168125087Y-30479652D01*
X168142991Y-30489222D01*
X168178729Y-30518552D01*
X168280186Y-30601814D01*
X168363448Y-30703271D01*
X168392778Y-30739009D01*
X168392779Y-30739011D01*
X168476443Y-30895533D01*
X168476443Y-30895534D01*
X168527963Y-31065373D01*
X168545359Y-31242000D01*
X168527963Y-31418627D01*
X168493616Y-31531853D01*
X168476443Y-31588467D01*
X168402348Y-31727087D01*
X168392778Y-31744991D01*
X168363448Y-31780729D01*
X168280186Y-31882186D01*
X168178729Y-31965448D01*
X168142991Y-31994778D01*
X168142989Y-31994779D01*
X167986467Y-32078443D01*
X167929853Y-32095616D01*
X167816627Y-32129963D01*
X167750443Y-32136481D01*
X167684260Y-32143000D01*
X167595740Y-32143000D01*
X167529557Y-32136481D01*
X167463373Y-32129963D01*
X167350147Y-32095616D01*
X167293533Y-32078443D01*
X167137011Y-31994779D01*
X167137009Y-31994778D01*
X167101271Y-31965448D01*
X166999814Y-31882186D01*
X166916552Y-31780729D01*
X166887222Y-31744991D01*
X166877652Y-31727087D01*
X166803557Y-31588467D01*
X166786384Y-31531853D01*
X166752037Y-31418627D01*
X166734641Y-31242000D01*
X166752037Y-31065373D01*
X166803557Y-30895534D01*
X166803557Y-30895533D01*
X166887221Y-30739011D01*
X166887222Y-30739009D01*
X166916552Y-30703271D01*
X166999814Y-30601814D01*
X167101271Y-30518552D01*
X167137009Y-30489222D01*
X167154913Y-30479652D01*
X167293533Y-30405557D01*
X167350147Y-30388384D01*
X167463373Y-30354037D01*
X167529557Y-30347519D01*
X167595740Y-30341000D01*
X167684260Y-30341000D01*
X167750443Y-30347519D01*
X167750443Y-30347519D01*
G37*
G36*
X170290443Y-30347519D02*
X170356627Y-30354037D01*
X170469853Y-30388384D01*
X170526467Y-30405557D01*
X170665087Y-30479652D01*
X170682991Y-30489222D01*
X170718729Y-30518552D01*
X170820186Y-30601814D01*
X170903448Y-30703271D01*
X170932778Y-30739009D01*
X170932779Y-30739011D01*
X171016443Y-30895533D01*
X171016443Y-30895534D01*
X171067963Y-31065373D01*
X171085359Y-31242000D01*
X171067963Y-31418627D01*
X171033616Y-31531853D01*
X171016443Y-31588467D01*
X170942348Y-31727087D01*
X170932778Y-31744991D01*
X170903448Y-31780729D01*
X170820186Y-31882186D01*
X170718729Y-31965448D01*
X170682991Y-31994778D01*
X170682989Y-31994779D01*
X170526467Y-32078443D01*
X170469853Y-32095616D01*
X170356627Y-32129963D01*
X170290443Y-32136481D01*
X170224260Y-32143000D01*
X170135740Y-32143000D01*
X170069557Y-32136481D01*
X170003373Y-32129963D01*
X169890147Y-32095616D01*
X169833533Y-32078443D01*
X169677011Y-31994779D01*
X169677009Y-31994778D01*
X169641271Y-31965448D01*
X169539814Y-31882186D01*
X169456552Y-31780729D01*
X169427222Y-31744991D01*
X169417652Y-31727087D01*
X169343557Y-31588467D01*
X169326384Y-31531853D01*
X169292037Y-31418627D01*
X169274641Y-31242000D01*
X169292037Y-31065373D01*
X169343557Y-30895534D01*
X169343557Y-30895533D01*
X169427221Y-30739011D01*
X169427222Y-30739009D01*
X169456552Y-30703271D01*
X169539814Y-30601814D01*
X169641271Y-30518552D01*
X169677009Y-30489222D01*
X169694913Y-30479652D01*
X169833533Y-30405557D01*
X169890147Y-30388384D01*
X170003373Y-30354037D01*
X170069557Y-30347519D01*
X170135740Y-30341000D01*
X170224260Y-30341000D01*
X170290443Y-30347519D01*
X170290443Y-30347519D01*
G37*
G36*
X177910443Y-30347519D02*
X177976627Y-30354037D01*
X178089853Y-30388384D01*
X178146467Y-30405557D01*
X178285087Y-30479652D01*
X178302991Y-30489222D01*
X178338729Y-30518552D01*
X178440186Y-30601814D01*
X178523448Y-30703271D01*
X178552778Y-30739009D01*
X178552779Y-30739011D01*
X178636443Y-30895533D01*
X178636443Y-30895534D01*
X178687963Y-31065373D01*
X178705359Y-31242000D01*
X178687963Y-31418627D01*
X178653616Y-31531853D01*
X178636443Y-31588467D01*
X178562348Y-31727087D01*
X178552778Y-31744991D01*
X178523448Y-31780729D01*
X178440186Y-31882186D01*
X178338729Y-31965448D01*
X178302991Y-31994778D01*
X178302989Y-31994779D01*
X178146467Y-32078443D01*
X178089853Y-32095616D01*
X177976627Y-32129963D01*
X177910443Y-32136481D01*
X177844260Y-32143000D01*
X177755740Y-32143000D01*
X177689557Y-32136481D01*
X177623373Y-32129963D01*
X177510147Y-32095616D01*
X177453533Y-32078443D01*
X177297011Y-31994779D01*
X177297009Y-31994778D01*
X177261271Y-31965448D01*
X177159814Y-31882186D01*
X177076552Y-31780729D01*
X177047222Y-31744991D01*
X177037652Y-31727087D01*
X176963557Y-31588467D01*
X176946384Y-31531853D01*
X176912037Y-31418627D01*
X176894641Y-31242000D01*
X176912037Y-31065373D01*
X176963557Y-30895534D01*
X176963557Y-30895533D01*
X177047221Y-30739011D01*
X177047222Y-30739009D01*
X177076552Y-30703271D01*
X177159814Y-30601814D01*
X177261271Y-30518552D01*
X177297009Y-30489222D01*
X177314913Y-30479652D01*
X177453533Y-30405557D01*
X177510147Y-30388384D01*
X177623373Y-30354037D01*
X177689557Y-30347519D01*
X177755740Y-30341000D01*
X177844260Y-30341000D01*
X177910443Y-30347519D01*
X177910443Y-30347519D01*
G37*
G36*
X175370443Y-30347519D02*
X175436627Y-30354037D01*
X175549853Y-30388384D01*
X175606467Y-30405557D01*
X175745087Y-30479652D01*
X175762991Y-30489222D01*
X175798729Y-30518552D01*
X175900186Y-30601814D01*
X175983448Y-30703271D01*
X176012778Y-30739009D01*
X176012779Y-30739011D01*
X176096443Y-30895533D01*
X176096443Y-30895534D01*
X176147963Y-31065373D01*
X176165359Y-31242000D01*
X176147963Y-31418627D01*
X176113616Y-31531853D01*
X176096443Y-31588467D01*
X176022348Y-31727087D01*
X176012778Y-31744991D01*
X175983448Y-31780729D01*
X175900186Y-31882186D01*
X175798729Y-31965448D01*
X175762991Y-31994778D01*
X175762989Y-31994779D01*
X175606467Y-32078443D01*
X175549853Y-32095616D01*
X175436627Y-32129963D01*
X175370443Y-32136481D01*
X175304260Y-32143000D01*
X175215740Y-32143000D01*
X175149557Y-32136481D01*
X175083373Y-32129963D01*
X174970147Y-32095616D01*
X174913533Y-32078443D01*
X174757011Y-31994779D01*
X174757009Y-31994778D01*
X174721271Y-31965448D01*
X174619814Y-31882186D01*
X174536552Y-31780729D01*
X174507222Y-31744991D01*
X174497652Y-31727087D01*
X174423557Y-31588467D01*
X174406384Y-31531853D01*
X174372037Y-31418627D01*
X174354641Y-31242000D01*
X174372037Y-31065373D01*
X174423557Y-30895534D01*
X174423557Y-30895533D01*
X174507221Y-30739011D01*
X174507222Y-30739009D01*
X174536552Y-30703271D01*
X174619814Y-30601814D01*
X174721271Y-30518552D01*
X174757009Y-30489222D01*
X174774913Y-30479652D01*
X174913533Y-30405557D01*
X174970147Y-30388384D01*
X175083373Y-30354037D01*
X175149557Y-30347519D01*
X175215740Y-30341000D01*
X175304260Y-30341000D01*
X175370443Y-30347519D01*
X175370443Y-30347519D01*
G37*
G36*
X180450443Y-30347519D02*
X180516627Y-30354037D01*
X180629853Y-30388384D01*
X180686467Y-30405557D01*
X180825087Y-30479652D01*
X180842991Y-30489222D01*
X180878729Y-30518552D01*
X180980186Y-30601814D01*
X181063448Y-30703271D01*
X181092778Y-30739009D01*
X181092779Y-30739011D01*
X181176443Y-30895533D01*
X181176443Y-30895534D01*
X181227963Y-31065373D01*
X181245359Y-31242000D01*
X181227963Y-31418627D01*
X181193616Y-31531853D01*
X181176443Y-31588467D01*
X181102348Y-31727087D01*
X181092778Y-31744991D01*
X181063448Y-31780729D01*
X180980186Y-31882186D01*
X180878729Y-31965448D01*
X180842991Y-31994778D01*
X180842989Y-31994779D01*
X180686467Y-32078443D01*
X180629853Y-32095616D01*
X180516627Y-32129963D01*
X180450443Y-32136481D01*
X180384260Y-32143000D01*
X180295740Y-32143000D01*
X180229557Y-32136481D01*
X180163373Y-32129963D01*
X180050147Y-32095616D01*
X179993533Y-32078443D01*
X179837011Y-31994779D01*
X179837009Y-31994778D01*
X179801271Y-31965448D01*
X179699814Y-31882186D01*
X179616552Y-31780729D01*
X179587222Y-31744991D01*
X179577652Y-31727087D01*
X179503557Y-31588467D01*
X179486384Y-31531853D01*
X179452037Y-31418627D01*
X179434641Y-31242000D01*
X179452037Y-31065373D01*
X179503557Y-30895534D01*
X179503557Y-30895533D01*
X179587221Y-30739011D01*
X179587222Y-30739009D01*
X179616552Y-30703271D01*
X179699814Y-30601814D01*
X179801271Y-30518552D01*
X179837009Y-30489222D01*
X179854913Y-30479652D01*
X179993533Y-30405557D01*
X180050147Y-30388384D01*
X180163373Y-30354037D01*
X180229557Y-30347519D01*
X180295740Y-30341000D01*
X180384260Y-30341000D01*
X180450443Y-30347519D01*
X180450443Y-30347519D01*
G37*
M02*
