M48
;DRILL file {KiCad (5.0.2)-1} date 2/27/2019 10:37:26 AM
;FORMAT={-:-/ absolute / inch / decimal}
FMAT,2
INCH,TZ
T1C0.0300
T2C0.0315
T3C0.0350
T4C0.0394
T5C0.0433
T6C0.0450
%
G90
G05
T1
X5.55Y-3.4
X5.55Y-2.9
T2
X5.75Y-2.95
X5.75Y-3.2453
X5.15Y-3.25
X5.45Y-3.25
X7.0975Y-4.21
X7.3975Y-4.21
X6.28Y-3.6316
X6.28Y-3.73
X6.28Y-3.38
X6.28Y-3.4784
X5.98Y-3.41
X5.98Y-3.71
T3
X5.05Y-2.9
X5.05Y-3.1
X5.15Y-2.9
X5.15Y-3.1
X5.25Y-2.9
X5.25Y-3.1
X5.35Y-2.9
X5.35Y-3.1
X5.45Y-2.9
X5.45Y-3.1
X5.55Y-3.1
X4.8384Y-2.7175
X4.9384Y-2.7175
X5.0384Y-2.7175
X5.1384Y-2.7175
X5.1984Y-4.6175
X5.2384Y-2.7175
X5.2984Y-4.6175
X5.3384Y-2.7175
X5.3984Y-4.6175
X5.4384Y-2.7175
X5.4984Y-4.6175
X5.5384Y-2.7175
X5.5984Y-4.6175
X5.6384Y-2.7175
X5.6984Y-4.6175
X5.7384Y-2.7175
X5.7984Y-4.6175
X5.8984Y-2.7175
X5.8984Y-4.6175
X5.9984Y-2.7175
X6.0984Y-2.7175
X6.0984Y-4.6175
X6.1984Y-2.7175
X6.1984Y-4.6175
X6.2984Y-2.7175
X6.2984Y-4.6175
X6.3984Y-2.7175
X6.3984Y-4.6175
X6.4984Y-2.7175
X6.4984Y-4.6175
X6.5984Y-2.7175
X6.5984Y-4.6175
X6.6984Y-4.6175
X6.7984Y-2.7175
X6.7984Y-4.6175
X6.8984Y-2.7175
X6.9984Y-2.7175
X6.9984Y-4.6175
X7.0984Y-2.7175
X7.0984Y-4.6175
X7.1984Y-2.7175
X7.1984Y-4.6175
X7.2984Y-2.7175
X7.2984Y-4.6175
X7.3984Y-2.7175
X7.3984Y-4.6175
X7.4984Y-2.7175
X7.4984Y-4.6175
X7.5884Y-4.6175
X7.6884Y-4.6175
X5.975Y-2.95
X5.975Y-3.25
X6.075Y-2.95
X6.075Y-3.25
X6.175Y-2.95
X6.175Y-3.25
X5.05Y-3.4
X5.05Y-3.6
X5.15Y-3.4
X5.15Y-3.6
X5.25Y-3.4
X5.25Y-3.6
X5.35Y-3.4
X5.35Y-3.6
X5.45Y-3.4
X5.45Y-3.6
X5.55Y-3.6
T4
X7.6375Y-3.3025
X7.6375Y-3.4025
X7.6375Y-3.5025
X7.6375Y-3.6025
X7.6375Y-3.7025
X6.2825Y-4.3025
X6.3825Y-4.3025
X7.6425Y-4.305
X7.6425Y-4.405
X7.64Y-2.9
X7.64Y-3.
X7.64Y-3.1
X7.64Y-3.2
X7.6425Y-4.11
X7.6425Y-4.21
X5.09Y-3.92
X5.09Y-4.02
X5.09Y-4.12
X5.09Y-4.22
X5.74Y-3.395
X5.74Y-3.495
X5.74Y-3.595
X5.74Y-3.695
X7.6425Y-3.805
X7.6425Y-3.905
X7.6425Y-4.005
T5
X5.485Y-3.88
X5.885Y-3.88
T6
X4.725Y-3.82
X4.725Y-4.02
X4.725Y-4.22
X4.725Y-2.95
X4.725Y-3.15
X4.725Y-3.35
X4.725Y-3.55
T0
M30
