G04 #@! TF.GenerationSoftware,KiCad,Pcbnew,(5.0.2)-1*
G04 #@! TF.CreationDate,2019-02-27T10:38:39-05:00*
G04 #@! TF.ProjectId,AR-22_Power_Supply,41522d32-325f-4506-9f77-65725f537570,rev?*
G04 #@! TF.SameCoordinates,Original*
G04 #@! TF.FileFunction,Copper,L2,Bot*
G04 #@! TF.FilePolarity,Positive*
%FSLAX46Y46*%
G04 Gerber Fmt 4.6, Leading zero omitted, Abs format (unit mm)*
G04 Created by KiCad (PCBNEW (5.0.2)-1) date 2/27/2019 10:38:39 AM*
%MOMM*%
%LPD*%
G01*
G04 APERTURE LIST*
G04 #@! TA.AperFunction,NonConductor*
%ADD10C,0.254000*%
G04 #@! TD*
G04 #@! TA.AperFunction,ComponentPad*
%ADD11C,1.600000*%
G04 #@! TD*
G04 #@! TA.AperFunction,ComponentPad*
%ADD12R,1.700000X1.700000*%
G04 #@! TD*
G04 #@! TA.AperFunction,ComponentPad*
%ADD13O,1.700000X1.700000*%
G04 #@! TD*
G04 #@! TA.AperFunction,ComponentPad*
%ADD14O,2.200000X2.200000*%
G04 #@! TD*
G04 #@! TA.AperFunction,ComponentPad*
%ADD15R,2.200000X2.200000*%
G04 #@! TD*
G04 #@! TA.AperFunction,ComponentPad*
%ADD16R,1.905000X2.000000*%
G04 #@! TD*
G04 #@! TA.AperFunction,ComponentPad*
%ADD17O,1.905000X2.000000*%
G04 #@! TD*
G04 #@! TA.AperFunction,ComponentPad*
%ADD18O,1.600000X1.600000*%
G04 #@! TD*
G04 #@! TA.AperFunction,Conductor*
%ADD19C,0.508000*%
G04 #@! TD*
G04 #@! TA.AperFunction,Conductor*
%ADD20C,0.254000*%
G04 #@! TD*
G04 APERTURE END LIST*
D10*
X185803714Y-42345428D02*
X185446571Y-43869428D01*
X185160857Y-42780857D01*
X184875142Y-43869428D01*
X184518000Y-42345428D01*
X184018000Y-43434000D02*
X183303714Y-43434000D01*
X184160857Y-43869428D02*
X183660857Y-42345428D01*
X183160857Y-43869428D01*
X182732285Y-42490571D02*
X182660857Y-42418000D01*
X182518000Y-42345428D01*
X182160857Y-42345428D01*
X182018000Y-42418000D01*
X181946571Y-42490571D01*
X181875142Y-42635714D01*
X181875142Y-42780857D01*
X181946571Y-42998571D01*
X182803714Y-43869428D01*
X181875142Y-43869428D01*
X180732285Y-43071142D02*
X181232285Y-43071142D01*
X181232285Y-43869428D02*
X181232285Y-42345428D01*
X180518000Y-42345428D01*
X180089428Y-42345428D02*
X179089428Y-42345428D01*
X180089428Y-43869428D01*
X179089428Y-43869428D01*
X178660857Y-42345428D02*
X178303714Y-43869428D01*
X178018000Y-42780857D01*
X177732285Y-43869428D01*
X177375142Y-42345428D01*
X175660857Y-43288857D02*
X174518000Y-43288857D01*
X172732285Y-43434000D02*
X172018000Y-43434000D01*
X172875142Y-43869428D02*
X172375142Y-42345428D01*
X171875142Y-43869428D01*
X170518000Y-43869428D02*
X171018000Y-43143714D01*
X171375142Y-43869428D02*
X171375142Y-42345428D01*
X170803714Y-42345428D01*
X170660857Y-42418000D01*
X170589428Y-42490571D01*
X170518000Y-42635714D01*
X170518000Y-42853428D01*
X170589428Y-42998571D01*
X170660857Y-43071142D01*
X170803714Y-43143714D01*
X171375142Y-43143714D01*
X169875142Y-43288857D02*
X168732285Y-43288857D01*
X168089428Y-42490571D02*
X168018000Y-42418000D01*
X167875142Y-42345428D01*
X167518000Y-42345428D01*
X167375142Y-42418000D01*
X167303714Y-42490571D01*
X167232285Y-42635714D01*
X167232285Y-42780857D01*
X167303714Y-42998571D01*
X168160857Y-43869428D01*
X167232285Y-43869428D01*
X166660857Y-42490571D02*
X166589428Y-42418000D01*
X166446571Y-42345428D01*
X166089428Y-42345428D01*
X165946571Y-42418000D01*
X165875142Y-42490571D01*
X165803714Y-42635714D01*
X165803714Y-42780857D01*
X165875142Y-42998571D01*
X166732285Y-43869428D01*
X165803714Y-43869428D01*
X184803714Y-46409428D02*
X185303714Y-45683714D01*
X185660857Y-46409428D02*
X185660857Y-44885428D01*
X185089428Y-44885428D01*
X184946571Y-44958000D01*
X184875142Y-45030571D01*
X184803714Y-45175714D01*
X184803714Y-45393428D01*
X184875142Y-45538571D01*
X184946571Y-45611142D01*
X185089428Y-45683714D01*
X185660857Y-45683714D01*
X183946571Y-46409428D02*
X184089428Y-46336857D01*
X184160857Y-46264285D01*
X184232285Y-46119142D01*
X184232285Y-45683714D01*
X184160857Y-45538571D01*
X184089428Y-45466000D01*
X183946571Y-45393428D01*
X183732285Y-45393428D01*
X183589428Y-45466000D01*
X183518000Y-45538571D01*
X183446571Y-45683714D01*
X183446571Y-46119142D01*
X183518000Y-46264285D01*
X183589428Y-46336857D01*
X183732285Y-46409428D01*
X183946571Y-46409428D01*
X183018000Y-45393428D02*
X182446571Y-45393428D01*
X182803714Y-44885428D02*
X182803714Y-46191714D01*
X182732285Y-46336857D01*
X182589428Y-46409428D01*
X182446571Y-46409428D01*
X181303714Y-46409428D02*
X181303714Y-45611142D01*
X181375142Y-45466000D01*
X181518000Y-45393428D01*
X181803714Y-45393428D01*
X181946571Y-45466000D01*
X181303714Y-46336857D02*
X181446571Y-46409428D01*
X181803714Y-46409428D01*
X181946571Y-46336857D01*
X182018000Y-46191714D01*
X182018000Y-46046571D01*
X181946571Y-45901428D01*
X181803714Y-45828857D01*
X181446571Y-45828857D01*
X181303714Y-45756285D01*
X180803714Y-45393428D02*
X180232285Y-45393428D01*
X180589428Y-44885428D02*
X180589428Y-46191714D01*
X180518000Y-46336857D01*
X180375142Y-46409428D01*
X180232285Y-46409428D01*
X179518000Y-46409428D02*
X179660857Y-46336857D01*
X179732285Y-46264285D01*
X179803714Y-46119142D01*
X179803714Y-45683714D01*
X179732285Y-45538571D01*
X179660857Y-45466000D01*
X179518000Y-45393428D01*
X179303714Y-45393428D01*
X179160857Y-45466000D01*
X179089428Y-45538571D01*
X179018000Y-45683714D01*
X179018000Y-46119142D01*
X179089428Y-46264285D01*
X179160857Y-46336857D01*
X179303714Y-46409428D01*
X179518000Y-46409428D01*
X178375142Y-46409428D02*
X178375142Y-45393428D01*
X178375142Y-45683714D02*
X178303714Y-45538571D01*
X178232285Y-45466000D01*
X178089428Y-45393428D01*
X177946571Y-45393428D01*
X175446571Y-46264285D02*
X175518000Y-46336857D01*
X175732285Y-46409428D01*
X175875142Y-46409428D01*
X176089428Y-46336857D01*
X176232285Y-46191714D01*
X176303714Y-46046571D01*
X176375142Y-45756285D01*
X176375142Y-45538571D01*
X176303714Y-45248285D01*
X176232285Y-45103142D01*
X176089428Y-44958000D01*
X175875142Y-44885428D01*
X175732285Y-44885428D01*
X175518000Y-44958000D01*
X175446571Y-45030571D01*
X174589428Y-46409428D02*
X174732285Y-46336857D01*
X174803714Y-46264285D01*
X174875142Y-46119142D01*
X174875142Y-45683714D01*
X174803714Y-45538571D01*
X174732285Y-45466000D01*
X174589428Y-45393428D01*
X174375142Y-45393428D01*
X174232285Y-45466000D01*
X174160857Y-45538571D01*
X174089428Y-45683714D01*
X174089428Y-46119142D01*
X174160857Y-46264285D01*
X174232285Y-46336857D01*
X174375142Y-46409428D01*
X174589428Y-46409428D01*
X173446571Y-45393428D02*
X173446571Y-46409428D01*
X173446571Y-45538571D02*
X173375142Y-45466000D01*
X173232285Y-45393428D01*
X173018000Y-45393428D01*
X172875142Y-45466000D01*
X172803714Y-45611142D01*
X172803714Y-46409428D01*
X172303714Y-45393428D02*
X171732285Y-45393428D01*
X172089428Y-44885428D02*
X172089428Y-46191714D01*
X172018000Y-46336857D01*
X171875142Y-46409428D01*
X171732285Y-46409428D01*
X171232285Y-46409428D02*
X171232285Y-45393428D01*
X171232285Y-45683714D02*
X171160857Y-45538571D01*
X171089428Y-45466000D01*
X170946571Y-45393428D01*
X170803714Y-45393428D01*
X170089428Y-46409428D02*
X170232285Y-46336857D01*
X170303714Y-46264285D01*
X170375142Y-46119142D01*
X170375142Y-45683714D01*
X170303714Y-45538571D01*
X170232285Y-45466000D01*
X170089428Y-45393428D01*
X169875142Y-45393428D01*
X169732285Y-45466000D01*
X169660857Y-45538571D01*
X169589428Y-45683714D01*
X169589428Y-46119142D01*
X169660857Y-46264285D01*
X169732285Y-46336857D01*
X169875142Y-46409428D01*
X170089428Y-46409428D01*
X168732285Y-46409428D02*
X168875142Y-46336857D01*
X168946571Y-46191714D01*
X168946571Y-44885428D01*
X167946571Y-46409428D02*
X168089428Y-46336857D01*
X168160857Y-46191714D01*
X168160857Y-44885428D01*
X166803714Y-46336857D02*
X166946571Y-46409428D01*
X167232285Y-46409428D01*
X167375142Y-46336857D01*
X167446571Y-46191714D01*
X167446571Y-45611142D01*
X167375142Y-45466000D01*
X167232285Y-45393428D01*
X166946571Y-45393428D01*
X166803714Y-45466000D01*
X166732285Y-45611142D01*
X166732285Y-45756285D01*
X167446571Y-45901428D01*
X166089428Y-46409428D02*
X166089428Y-45393428D01*
X166089428Y-45683714D02*
X166018000Y-45538571D01*
X165946571Y-45466000D01*
X165803714Y-45393428D01*
X165660857Y-45393428D01*
X186839428Y-48949428D02*
X186839428Y-47425428D01*
X186268000Y-47425428D01*
X186125142Y-47498000D01*
X186053714Y-47570571D01*
X185982285Y-47715714D01*
X185982285Y-47933428D01*
X186053714Y-48078571D01*
X186125142Y-48151142D01*
X186268000Y-48223714D01*
X186839428Y-48223714D01*
X185125142Y-48949428D02*
X185268000Y-48876857D01*
X185339428Y-48804285D01*
X185410857Y-48659142D01*
X185410857Y-48223714D01*
X185339428Y-48078571D01*
X185268000Y-48006000D01*
X185125142Y-47933428D01*
X184910857Y-47933428D01*
X184768000Y-48006000D01*
X184696571Y-48078571D01*
X184625142Y-48223714D01*
X184625142Y-48659142D01*
X184696571Y-48804285D01*
X184768000Y-48876857D01*
X184910857Y-48949428D01*
X185125142Y-48949428D01*
X184125142Y-47933428D02*
X183839428Y-48949428D01*
X183553714Y-48223714D01*
X183268000Y-48949428D01*
X182982285Y-47933428D01*
X181839428Y-48876857D02*
X181982285Y-48949428D01*
X182268000Y-48949428D01*
X182410857Y-48876857D01*
X182482285Y-48731714D01*
X182482285Y-48151142D01*
X182410857Y-48006000D01*
X182268000Y-47933428D01*
X181982285Y-47933428D01*
X181839428Y-48006000D01*
X181768000Y-48151142D01*
X181768000Y-48296285D01*
X182482285Y-48441428D01*
X181125142Y-48949428D02*
X181125142Y-47933428D01*
X181125142Y-48223714D02*
X181053714Y-48078571D01*
X180982285Y-48006000D01*
X180839428Y-47933428D01*
X180696571Y-47933428D01*
X179196571Y-47425428D02*
X178196571Y-48949428D01*
X178196571Y-47425428D02*
X179196571Y-48949428D01*
X176982285Y-47933428D02*
X176982285Y-48949428D01*
X177625142Y-47933428D02*
X177625142Y-48731714D01*
X177553714Y-48876857D01*
X177410857Y-48949428D01*
X177196571Y-48949428D01*
X177053714Y-48876857D01*
X176982285Y-48804285D01*
X176268000Y-47933428D02*
X176268000Y-49457428D01*
X176268000Y-48006000D02*
X176125142Y-47933428D01*
X175839428Y-47933428D01*
X175696571Y-48006000D01*
X175625142Y-48078571D01*
X175553714Y-48223714D01*
X175553714Y-48659142D01*
X175625142Y-48804285D01*
X175696571Y-48876857D01*
X175839428Y-48949428D01*
X176125142Y-48949428D01*
X176268000Y-48876857D01*
X174910857Y-47933428D02*
X174910857Y-49457428D01*
X174910857Y-48006000D02*
X174768000Y-47933428D01*
X174482285Y-47933428D01*
X174339428Y-48006000D01*
X174268000Y-48078571D01*
X174196571Y-48223714D01*
X174196571Y-48659142D01*
X174268000Y-48804285D01*
X174339428Y-48876857D01*
X174482285Y-48949428D01*
X174768000Y-48949428D01*
X174910857Y-48876857D01*
X173339428Y-48949428D02*
X173482285Y-48876857D01*
X173553714Y-48731714D01*
X173553714Y-47425428D01*
X172910857Y-47933428D02*
X172553714Y-48949428D01*
X172196571Y-47933428D02*
X172553714Y-48949428D01*
X172696571Y-49312285D01*
X172768000Y-49384857D01*
X172910857Y-49457428D01*
X169982285Y-48151142D02*
X169768000Y-48223714D01*
X169696571Y-48296285D01*
X169625142Y-48441428D01*
X169625142Y-48659142D01*
X169696571Y-48804285D01*
X169768000Y-48876857D01*
X169910857Y-48949428D01*
X170482285Y-48949428D01*
X170482285Y-47425428D01*
X169982285Y-47425428D01*
X169839428Y-47498000D01*
X169768000Y-47570571D01*
X169696571Y-47715714D01*
X169696571Y-47860857D01*
X169768000Y-48006000D01*
X169839428Y-48078571D01*
X169982285Y-48151142D01*
X170482285Y-48151142D01*
X168768000Y-48949428D02*
X168910857Y-48876857D01*
X168982285Y-48804285D01*
X169053714Y-48659142D01*
X169053714Y-48223714D01*
X168982285Y-48078571D01*
X168910857Y-48006000D01*
X168768000Y-47933428D01*
X168553714Y-47933428D01*
X168410857Y-48006000D01*
X168339428Y-48078571D01*
X168268000Y-48223714D01*
X168268000Y-48659142D01*
X168339428Y-48804285D01*
X168410857Y-48876857D01*
X168553714Y-48949428D01*
X168768000Y-48949428D01*
X166982285Y-48949428D02*
X166982285Y-48151142D01*
X167053714Y-48006000D01*
X167196571Y-47933428D01*
X167482285Y-47933428D01*
X167625142Y-48006000D01*
X166982285Y-48876857D02*
X167125142Y-48949428D01*
X167482285Y-48949428D01*
X167625142Y-48876857D01*
X167696571Y-48731714D01*
X167696571Y-48586571D01*
X167625142Y-48441428D01*
X167482285Y-48368857D01*
X167125142Y-48368857D01*
X166982285Y-48296285D01*
X166268000Y-48949428D02*
X166268000Y-47933428D01*
X166268000Y-48223714D02*
X166196571Y-48078571D01*
X166125142Y-48006000D01*
X165982285Y-47933428D01*
X165839428Y-47933428D01*
X164696571Y-48949428D02*
X164696571Y-47425428D01*
X164696571Y-48876857D02*
X164839428Y-48949428D01*
X165125142Y-48949428D01*
X165268000Y-48876857D01*
X165339428Y-48804285D01*
X165410857Y-48659142D01*
X165410857Y-48223714D01*
X165339428Y-48078571D01*
X165268000Y-48006000D01*
X165125142Y-47933428D01*
X164839428Y-47933428D01*
X164696571Y-48006000D01*
X182768000Y-49965428D02*
X182268000Y-51489428D01*
X181768000Y-49965428D01*
X180696571Y-51416857D02*
X180839428Y-51489428D01*
X181125142Y-51489428D01*
X181268000Y-51416857D01*
X181339428Y-51271714D01*
X181339428Y-50691142D01*
X181268000Y-50546000D01*
X181125142Y-50473428D01*
X180839428Y-50473428D01*
X180696571Y-50546000D01*
X180625142Y-50691142D01*
X180625142Y-50836285D01*
X181339428Y-50981428D01*
X179982285Y-51489428D02*
X179982285Y-50473428D01*
X179982285Y-50763714D02*
X179910857Y-50618571D01*
X179839428Y-50546000D01*
X179696571Y-50473428D01*
X179553714Y-50473428D01*
X179125142Y-51416857D02*
X178982285Y-51489428D01*
X178696571Y-51489428D01*
X178553714Y-51416857D01*
X178482285Y-51271714D01*
X178482285Y-51199142D01*
X178553714Y-51054000D01*
X178696571Y-50981428D01*
X178910857Y-50981428D01*
X179053714Y-50908857D01*
X179125142Y-50763714D01*
X179125142Y-50691142D01*
X179053714Y-50546000D01*
X178910857Y-50473428D01*
X178696571Y-50473428D01*
X178553714Y-50546000D01*
X177839428Y-51489428D02*
X177839428Y-50473428D01*
X177839428Y-49965428D02*
X177910857Y-50038000D01*
X177839428Y-50110571D01*
X177768000Y-50038000D01*
X177839428Y-49965428D01*
X177839428Y-50110571D01*
X176910857Y-51489428D02*
X177053714Y-51416857D01*
X177125142Y-51344285D01*
X177196571Y-51199142D01*
X177196571Y-50763714D01*
X177125142Y-50618571D01*
X177053714Y-50546000D01*
X176910857Y-50473428D01*
X176696571Y-50473428D01*
X176553714Y-50546000D01*
X176482285Y-50618571D01*
X176410857Y-50763714D01*
X176410857Y-51199142D01*
X176482285Y-51344285D01*
X176553714Y-51416857D01*
X176696571Y-51489428D01*
X176910857Y-51489428D01*
X175768000Y-50473428D02*
X175768000Y-51489428D01*
X175768000Y-50618571D02*
X175696571Y-50546000D01*
X175553714Y-50473428D01*
X175339428Y-50473428D01*
X175196571Y-50546000D01*
X175125142Y-50691142D01*
X175125142Y-51489428D01*
X172982285Y-49965428D02*
X172839428Y-49965428D01*
X172696571Y-50038000D01*
X172625142Y-50110571D01*
X172553714Y-50255714D01*
X172482285Y-50546000D01*
X172482285Y-50908857D01*
X172553714Y-51199142D01*
X172625142Y-51344285D01*
X172696571Y-51416857D01*
X172839428Y-51489428D01*
X172982285Y-51489428D01*
X173125142Y-51416857D01*
X173196571Y-51344285D01*
X173268000Y-51199142D01*
X173339428Y-50908857D01*
X173339428Y-50546000D01*
X173268000Y-50255714D01*
X173196571Y-50110571D01*
X173125142Y-50038000D01*
X172982285Y-49965428D01*
X171125142Y-49965428D02*
X171839428Y-49965428D01*
X171910857Y-50691142D01*
X171839428Y-50618571D01*
X171696571Y-50546000D01*
X171339428Y-50546000D01*
X171196571Y-50618571D01*
X171125142Y-50691142D01*
X171053714Y-50836285D01*
X171053714Y-51199142D01*
X171125142Y-51344285D01*
X171196571Y-51416857D01*
X171339428Y-51489428D01*
X171696571Y-51489428D01*
X171839428Y-51416857D01*
X171910857Y-51344285D01*
X170410857Y-51344285D02*
X170339428Y-51416857D01*
X170410857Y-51489428D01*
X170482285Y-51416857D01*
X170410857Y-51344285D01*
X170410857Y-51489428D01*
X169410857Y-49965428D02*
X169268000Y-49965428D01*
X169125142Y-50038000D01*
X169053714Y-50110571D01*
X168982285Y-50255714D01*
X168910857Y-50546000D01*
X168910857Y-50908857D01*
X168982285Y-51199142D01*
X169053714Y-51344285D01*
X169125142Y-51416857D01*
X169268000Y-51489428D01*
X169410857Y-51489428D01*
X169553714Y-51416857D01*
X169625142Y-51344285D01*
X169696571Y-51199142D01*
X169768000Y-50908857D01*
X169768000Y-50546000D01*
X169696571Y-50255714D01*
X169625142Y-50110571D01*
X169553714Y-50038000D01*
X169410857Y-49965428D01*
D11*
G04 #@! TO.P,C1,1*
G04 #@! TO.N,Net-(C1-Pad1)*
X178054000Y-66040000D03*
G04 #@! TO.P,C1,2*
G04 #@! TO.N,GND*
X178054000Y-71040000D03*
G04 #@! TD*
G04 #@! TO.P,C3,2*
G04 #@! TO.N,GND*
X162640000Y-55880000D03*
G04 #@! TO.P,C3,1*
G04 #@! TO.N,Net-(C3-Pad1)*
X167640000Y-55880000D03*
G04 #@! TD*
G04 #@! TO.P,C2,1*
G04 #@! TO.N,Net-(C1-Pad1)*
X183388000Y-55880000D03*
G04 #@! TO.P,C2,2*
G04 #@! TO.N,GND*
X188388000Y-55880000D03*
G04 #@! TD*
D12*
G04 #@! TO.P,J1,1*
G04 #@! TO.N,GND*
X129540000Y-61722000D03*
D13*
G04 #@! TO.P,J1,2*
G04 #@! TO.N,Net-(J1-Pad2)*
X129540000Y-64262000D03*
G04 #@! TD*
D12*
G04 #@! TO.P,J2,1*
G04 #@! TO.N,Net-(J2-Pad1)*
X119380000Y-69342000D03*
D13*
G04 #@! TO.P,J2,2*
G04 #@! TO.N,Net-(J2-Pad2)*
X119380000Y-66802000D03*
G04 #@! TO.P,J2,3*
G04 #@! TO.N,Net-(D1-Pad2)*
X119380000Y-64262000D03*
G04 #@! TO.P,J2,4*
G04 #@! TO.N,GND*
X119380000Y-61722000D03*
G04 #@! TD*
G04 #@! TO.P,,8*
G04 #@! TO.N,Net-(J4-Pad8)*
X180340000Y-31242000D03*
G04 #@! TO.P,,7*
G04 #@! TO.N,Net-(J4-Pad7)*
X177800000Y-31242000D03*
G04 #@! TO.P,,6*
G04 #@! TO.N,Net-(J4-Pad6)*
X175260000Y-31242000D03*
G04 #@! TO.P,,5*
G04 #@! TO.N,Net-(J4-Pad5)*
X172720000Y-31242000D03*
G04 #@! TO.P,,4*
G04 #@! TO.N,Net-(J4-Pad4)*
X170180000Y-31242000D03*
G04 #@! TO.P,,3*
G04 #@! TO.N,Net-(J4-Pad3)*
X167640000Y-31242000D03*
G04 #@! TO.P,,2*
G04 #@! TO.N,Net-(J4-Pad2)*
X165100000Y-31242000D03*
D12*
G04 #@! TO.P,,1*
G04 #@! TO.N,Net-(J4-Pad1)*
X162560000Y-31242000D03*
G04 #@! TD*
G04 #@! TO.P,J3,1*
G04 #@! TO.N,Net-(J3-Pad1)*
X121920000Y-79502000D03*
D13*
G04 #@! TO.P,J3,2*
G04 #@! TO.N,Net-(J3-Pad2)*
X124460000Y-79502000D03*
G04 #@! TO.P,J3,3*
G04 #@! TO.N,Net-(J3-Pad3)*
X127000000Y-79502000D03*
G04 #@! TO.P,J3,4*
G04 #@! TO.N,Net-(J3-Pad4)*
X129540000Y-79502000D03*
G04 #@! TO.P,J3,5*
G04 #@! TO.N,Net-(J3-Pad5)*
X132080000Y-79502000D03*
G04 #@! TO.P,J3,6*
G04 #@! TO.N,GND*
X134620000Y-79502000D03*
G04 #@! TO.P,J3,7*
G04 #@! TO.N,Net-(J3-Pad7)*
X137160000Y-79502000D03*
G04 #@! TO.P,J3,8*
G04 #@! TO.N,Net-(D2-Pad1)*
X139700000Y-79502000D03*
G04 #@! TD*
D14*
G04 #@! TO.P,D2,2*
G04 #@! TO.N,Net-(C3-Pad1)*
X150622000Y-69342000D03*
D15*
G04 #@! TO.P,D2,1*
G04 #@! TO.N,Net-(D2-Pad1)*
X150622000Y-79502000D03*
G04 #@! TD*
G04 #@! TO.P,D1,1*
G04 #@! TO.N,Net-(C1-Pad1)*
X139700000Y-70612000D03*
D14*
G04 #@! TO.P,D1,2*
G04 #@! TO.N,Net-(D1-Pad2)*
X129540000Y-70612000D03*
G04 #@! TD*
D16*
G04 #@! TO.P,U1,1*
G04 #@! TO.N,Net-(C1-Pad1)*
X178054000Y-55880000D03*
D17*
G04 #@! TO.P,U1,2*
G04 #@! TO.N,GND*
X175514000Y-55880000D03*
G04 #@! TO.P,U1,3*
G04 #@! TO.N,Net-(C3-Pad1)*
X172974000Y-55880000D03*
G04 #@! TD*
D11*
G04 #@! TO.P,R1,1*
G04 #@! TO.N,Net-(J1-Pad2)*
X138430000Y-64262000D03*
D18*
G04 #@! TO.P,R1,2*
G04 #@! TO.N,Net-(C3-Pad1)*
X146050000Y-64262000D03*
G04 #@! TD*
D19*
G04 #@! TO.N,Net-(J1-Pad2)*
X129540000Y-64262000D02*
X138430000Y-64262000D01*
G04 #@! TO.N,Net-(C3-Pad1)*
X147181370Y-64262000D02*
X146050000Y-64262000D01*
X167640000Y-55880000D02*
X159258000Y-64262000D01*
X150622000Y-69342000D02*
X150622000Y-64262000D01*
X159258000Y-64262000D02*
X150622000Y-64262000D01*
X150622000Y-64262000D02*
X147181370Y-64262000D01*
X167640000Y-55880000D02*
X168771370Y-55880000D01*
X168771370Y-55880000D02*
X172974000Y-55880000D01*
G04 #@! TO.N,Net-(C1-Pad1)*
X178054000Y-55880000D02*
X183388000Y-55880000D01*
X178054000Y-55880000D02*
X178054000Y-66040000D01*
X141308000Y-70612000D02*
X144272000Y-73576000D01*
X139700000Y-70612000D02*
X141308000Y-70612000D01*
X170518000Y-73576000D02*
X178054000Y-66040000D01*
X144272000Y-73576000D02*
X170518000Y-73576000D01*
G04 #@! TO.N,Net-(D1-Pad2)*
X128440001Y-69512001D02*
X123190000Y-64262000D01*
X129540000Y-70612000D02*
X128440001Y-69512001D01*
X119380000Y-64262000D02*
X123190000Y-64262000D01*
G04 #@! TO.N,Net-(D2-Pad1)*
X139700000Y-79502000D02*
X150622000Y-79502000D01*
G04 #@! TD*
D20*
G04 #@! TO.N,GND*
G36*
X191568001Y-81078000D02*
X152152584Y-81078000D01*
X152179809Y-81059809D01*
X152320157Y-80849765D01*
X152369440Y-80602000D01*
X152369440Y-78402000D01*
X152320157Y-78154235D01*
X152179809Y-77944191D01*
X151969765Y-77803843D01*
X151722000Y-77754560D01*
X149522000Y-77754560D01*
X149274235Y-77803843D01*
X149064191Y-77944191D01*
X148923843Y-78154235D01*
X148874560Y-78402000D01*
X148874560Y-78613000D01*
X140891983Y-78613000D01*
X140770625Y-78431375D01*
X140279418Y-78103161D01*
X139846256Y-78017000D01*
X139553744Y-78017000D01*
X139120582Y-78103161D01*
X138629375Y-78431375D01*
X138430000Y-78729761D01*
X138230625Y-78431375D01*
X137739418Y-78103161D01*
X137306256Y-78017000D01*
X137013744Y-78017000D01*
X136580582Y-78103161D01*
X136089375Y-78431375D01*
X135876157Y-78750478D01*
X135815183Y-78620642D01*
X135386924Y-78230355D01*
X134976890Y-78060524D01*
X134747000Y-78181845D01*
X134747000Y-79375000D01*
X134767000Y-79375000D01*
X134767000Y-79629000D01*
X134747000Y-79629000D01*
X134747000Y-80822155D01*
X134976890Y-80943476D01*
X135386924Y-80773645D01*
X135815183Y-80383358D01*
X135876157Y-80253522D01*
X136089375Y-80572625D01*
X136580582Y-80900839D01*
X137013744Y-80987000D01*
X137306256Y-80987000D01*
X137739418Y-80900839D01*
X138230625Y-80572625D01*
X138430000Y-80274239D01*
X138629375Y-80572625D01*
X139120582Y-80900839D01*
X139553744Y-80987000D01*
X139846256Y-80987000D01*
X140279418Y-80900839D01*
X140770625Y-80572625D01*
X140891983Y-80391000D01*
X148874560Y-80391000D01*
X148874560Y-80602000D01*
X148923843Y-80849765D01*
X149064191Y-81059809D01*
X149091416Y-81078000D01*
X116788000Y-81078000D01*
X116788000Y-78652000D01*
X120422560Y-78652000D01*
X120422560Y-80352000D01*
X120471843Y-80599765D01*
X120612191Y-80809809D01*
X120822235Y-80950157D01*
X121070000Y-80999440D01*
X122770000Y-80999440D01*
X123017765Y-80950157D01*
X123227809Y-80809809D01*
X123368157Y-80599765D01*
X123377184Y-80554381D01*
X123389375Y-80572625D01*
X123880582Y-80900839D01*
X124313744Y-80987000D01*
X124606256Y-80987000D01*
X125039418Y-80900839D01*
X125530625Y-80572625D01*
X125730000Y-80274239D01*
X125929375Y-80572625D01*
X126420582Y-80900839D01*
X126853744Y-80987000D01*
X127146256Y-80987000D01*
X127579418Y-80900839D01*
X128070625Y-80572625D01*
X128270000Y-80274239D01*
X128469375Y-80572625D01*
X128960582Y-80900839D01*
X129393744Y-80987000D01*
X129686256Y-80987000D01*
X130119418Y-80900839D01*
X130610625Y-80572625D01*
X130810000Y-80274239D01*
X131009375Y-80572625D01*
X131500582Y-80900839D01*
X131933744Y-80987000D01*
X132226256Y-80987000D01*
X132659418Y-80900839D01*
X133150625Y-80572625D01*
X133363843Y-80253522D01*
X133424817Y-80383358D01*
X133853076Y-80773645D01*
X134263110Y-80943476D01*
X134493000Y-80822155D01*
X134493000Y-79629000D01*
X134473000Y-79629000D01*
X134473000Y-79375000D01*
X134493000Y-79375000D01*
X134493000Y-78181845D01*
X134263110Y-78060524D01*
X133853076Y-78230355D01*
X133424817Y-78620642D01*
X133363843Y-78750478D01*
X133150625Y-78431375D01*
X132659418Y-78103161D01*
X132226256Y-78017000D01*
X131933744Y-78017000D01*
X131500582Y-78103161D01*
X131009375Y-78431375D01*
X130810000Y-78729761D01*
X130610625Y-78431375D01*
X130119418Y-78103161D01*
X129686256Y-78017000D01*
X129393744Y-78017000D01*
X128960582Y-78103161D01*
X128469375Y-78431375D01*
X128270000Y-78729761D01*
X128070625Y-78431375D01*
X127579418Y-78103161D01*
X127146256Y-78017000D01*
X126853744Y-78017000D01*
X126420582Y-78103161D01*
X125929375Y-78431375D01*
X125730000Y-78729761D01*
X125530625Y-78431375D01*
X125039418Y-78103161D01*
X124606256Y-78017000D01*
X124313744Y-78017000D01*
X123880582Y-78103161D01*
X123389375Y-78431375D01*
X123377184Y-78449619D01*
X123368157Y-78404235D01*
X123227809Y-78194191D01*
X123017765Y-78053843D01*
X122770000Y-78004560D01*
X121070000Y-78004560D01*
X120822235Y-78053843D01*
X120612191Y-78194191D01*
X120471843Y-78404235D01*
X120422560Y-78652000D01*
X116788000Y-78652000D01*
X116788000Y-64262000D01*
X117865908Y-64262000D01*
X117981161Y-64841418D01*
X118309375Y-65332625D01*
X118607761Y-65532000D01*
X118309375Y-65731375D01*
X117981161Y-66222582D01*
X117865908Y-66802000D01*
X117981161Y-67381418D01*
X118309375Y-67872625D01*
X118327619Y-67884816D01*
X118282235Y-67893843D01*
X118072191Y-68034191D01*
X117931843Y-68244235D01*
X117882560Y-68492000D01*
X117882560Y-70192000D01*
X117931843Y-70439765D01*
X118072191Y-70649809D01*
X118282235Y-70790157D01*
X118530000Y-70839440D01*
X120230000Y-70839440D01*
X120477765Y-70790157D01*
X120687809Y-70649809D01*
X120828157Y-70439765D01*
X120877440Y-70192000D01*
X120877440Y-68492000D01*
X120828157Y-68244235D01*
X120687809Y-68034191D01*
X120477765Y-67893843D01*
X120432381Y-67884816D01*
X120450625Y-67872625D01*
X120778839Y-67381418D01*
X120894092Y-66802000D01*
X120778839Y-66222582D01*
X120450625Y-65731375D01*
X120152239Y-65532000D01*
X120450625Y-65332625D01*
X120571983Y-65151000D01*
X122821765Y-65151000D01*
X127855915Y-70185151D01*
X127771010Y-70612000D01*
X127905666Y-71288963D01*
X128289135Y-71862865D01*
X128863037Y-72246334D01*
X129369120Y-72347000D01*
X129710880Y-72347000D01*
X130216963Y-72246334D01*
X130790865Y-71862865D01*
X131174334Y-71288963D01*
X131308990Y-70612000D01*
X131174334Y-69935037D01*
X130891670Y-69512000D01*
X137952560Y-69512000D01*
X137952560Y-71712000D01*
X138001843Y-71959765D01*
X138142191Y-72169809D01*
X138352235Y-72310157D01*
X138600000Y-72359440D01*
X140800000Y-72359440D01*
X141047765Y-72310157D01*
X141257809Y-72169809D01*
X141398157Y-71959765D01*
X141398219Y-71959454D01*
X143581471Y-74142707D01*
X143631067Y-74216933D01*
X143925130Y-74413419D01*
X144184444Y-74465000D01*
X144184445Y-74465000D01*
X144272000Y-74482416D01*
X144359555Y-74465000D01*
X170430445Y-74465000D01*
X170518000Y-74482416D01*
X170605555Y-74465000D01*
X170605556Y-74465000D01*
X170864870Y-74413419D01*
X171158933Y-74216933D01*
X171208531Y-74142704D01*
X173303490Y-72047745D01*
X177225861Y-72047745D01*
X177299995Y-72293864D01*
X177837223Y-72486965D01*
X178407454Y-72459778D01*
X178808005Y-72293864D01*
X178882139Y-72047745D01*
X178054000Y-71219605D01*
X177225861Y-72047745D01*
X173303490Y-72047745D01*
X174528012Y-70823223D01*
X176607035Y-70823223D01*
X176634222Y-71393454D01*
X176800136Y-71794005D01*
X177046255Y-71868139D01*
X177874395Y-71040000D01*
X178233605Y-71040000D01*
X179061745Y-71868139D01*
X179307864Y-71794005D01*
X179500965Y-71256777D01*
X179473778Y-70686546D01*
X179307864Y-70285995D01*
X179061745Y-70211861D01*
X178233605Y-71040000D01*
X177874395Y-71040000D01*
X177046255Y-70211861D01*
X176800136Y-70285995D01*
X176607035Y-70823223D01*
X174528012Y-70823223D01*
X175318980Y-70032255D01*
X177225861Y-70032255D01*
X178054000Y-70860395D01*
X178882139Y-70032255D01*
X178808005Y-69786136D01*
X178270777Y-69593035D01*
X177700546Y-69620222D01*
X177299995Y-69786136D01*
X177225861Y-70032255D01*
X175318980Y-70032255D01*
X177876236Y-67475000D01*
X178339439Y-67475000D01*
X178866862Y-67256534D01*
X179270534Y-66852862D01*
X179489000Y-66325439D01*
X179489000Y-65754561D01*
X179270534Y-65227138D01*
X178943000Y-64899604D01*
X178943000Y-57527440D01*
X179006500Y-57527440D01*
X179254265Y-57478157D01*
X179464309Y-57337809D01*
X179604657Y-57127765D01*
X179653940Y-56880000D01*
X179653940Y-56769000D01*
X182247604Y-56769000D01*
X182575138Y-57096534D01*
X183102561Y-57315000D01*
X183673439Y-57315000D01*
X184200862Y-57096534D01*
X184409651Y-56887745D01*
X187559861Y-56887745D01*
X187633995Y-57133864D01*
X188171223Y-57326965D01*
X188741454Y-57299778D01*
X189142005Y-57133864D01*
X189216139Y-56887745D01*
X188388000Y-56059605D01*
X187559861Y-56887745D01*
X184409651Y-56887745D01*
X184604534Y-56692862D01*
X184823000Y-56165439D01*
X184823000Y-55663223D01*
X186941035Y-55663223D01*
X186968222Y-56233454D01*
X187134136Y-56634005D01*
X187380255Y-56708139D01*
X188208395Y-55880000D01*
X188567605Y-55880000D01*
X189395745Y-56708139D01*
X189641864Y-56634005D01*
X189834965Y-56096777D01*
X189807778Y-55526546D01*
X189641864Y-55125995D01*
X189395745Y-55051861D01*
X188567605Y-55880000D01*
X188208395Y-55880000D01*
X187380255Y-55051861D01*
X187134136Y-55125995D01*
X186941035Y-55663223D01*
X184823000Y-55663223D01*
X184823000Y-55594561D01*
X184604534Y-55067138D01*
X184409651Y-54872255D01*
X187559861Y-54872255D01*
X188388000Y-55700395D01*
X189216139Y-54872255D01*
X189142005Y-54626136D01*
X188604777Y-54433035D01*
X188034546Y-54460222D01*
X187633995Y-54626136D01*
X187559861Y-54872255D01*
X184409651Y-54872255D01*
X184200862Y-54663466D01*
X183673439Y-54445000D01*
X183102561Y-54445000D01*
X182575138Y-54663466D01*
X182247604Y-54991000D01*
X179653940Y-54991000D01*
X179653940Y-54880000D01*
X179604657Y-54632235D01*
X179464309Y-54422191D01*
X179254265Y-54281843D01*
X179006500Y-54232560D01*
X177101500Y-54232560D01*
X176853735Y-54281843D01*
X176643691Y-54422191D01*
X176506745Y-54627143D01*
X176380924Y-54504027D01*
X175886980Y-54289437D01*
X175641000Y-54409406D01*
X175641000Y-55753000D01*
X175661000Y-55753000D01*
X175661000Y-56007000D01*
X175641000Y-56007000D01*
X175641000Y-57350594D01*
X175886980Y-57470563D01*
X176380924Y-57255973D01*
X176506745Y-57132857D01*
X176643691Y-57337809D01*
X176853735Y-57478157D01*
X177101500Y-57527440D01*
X177165000Y-57527440D01*
X177165001Y-64899603D01*
X176837466Y-65227138D01*
X176619000Y-65754561D01*
X176619000Y-66217764D01*
X170149765Y-72687000D01*
X144640236Y-72687000D01*
X141998531Y-70045296D01*
X141948933Y-69971067D01*
X141654870Y-69774581D01*
X141447440Y-69733320D01*
X141447440Y-69512000D01*
X141398157Y-69264235D01*
X141257809Y-69054191D01*
X141047765Y-68913843D01*
X140800000Y-68864560D01*
X138600000Y-68864560D01*
X138352235Y-68913843D01*
X138142191Y-69054191D01*
X138001843Y-69264235D01*
X137952560Y-69512000D01*
X130891670Y-69512000D01*
X130790865Y-69361135D01*
X130216963Y-68977666D01*
X129710880Y-68877000D01*
X129369120Y-68877000D01*
X129113151Y-68927915D01*
X124447236Y-64262000D01*
X128025908Y-64262000D01*
X128141161Y-64841418D01*
X128469375Y-65332625D01*
X128960582Y-65660839D01*
X129393744Y-65747000D01*
X129686256Y-65747000D01*
X130119418Y-65660839D01*
X130610625Y-65332625D01*
X130731983Y-65151000D01*
X137289604Y-65151000D01*
X137617138Y-65478534D01*
X138144561Y-65697000D01*
X138715439Y-65697000D01*
X139242862Y-65478534D01*
X139646534Y-65074862D01*
X139865000Y-64547439D01*
X139865000Y-64262000D01*
X144586887Y-64262000D01*
X144698260Y-64821909D01*
X145015423Y-65296577D01*
X145490091Y-65613740D01*
X145908667Y-65697000D01*
X146191333Y-65697000D01*
X146609909Y-65613740D01*
X147084577Y-65296577D01*
X147181848Y-65151000D01*
X149733001Y-65151000D01*
X149733000Y-67849344D01*
X149371135Y-68091135D01*
X148987666Y-68665037D01*
X148853010Y-69342000D01*
X148987666Y-70018963D01*
X149371135Y-70592865D01*
X149945037Y-70976334D01*
X150451120Y-71077000D01*
X150792880Y-71077000D01*
X151298963Y-70976334D01*
X151872865Y-70592865D01*
X152256334Y-70018963D01*
X152390990Y-69342000D01*
X152256334Y-68665037D01*
X151872865Y-68091135D01*
X151511000Y-67849345D01*
X151511000Y-65151000D01*
X159170445Y-65151000D01*
X159258000Y-65168416D01*
X159345555Y-65151000D01*
X159345556Y-65151000D01*
X159604870Y-65099419D01*
X159898933Y-64902933D01*
X159948531Y-64828704D01*
X167462236Y-57315000D01*
X167925439Y-57315000D01*
X168452862Y-57096534D01*
X168780396Y-56769000D01*
X171627004Y-56769000D01*
X171829477Y-57072023D01*
X172354589Y-57422891D01*
X172974000Y-57546100D01*
X173593410Y-57422891D01*
X174118523Y-57072023D01*
X174253159Y-56870526D01*
X174647076Y-57255973D01*
X175141020Y-57470563D01*
X175387000Y-57350594D01*
X175387000Y-56007000D01*
X175367000Y-56007000D01*
X175367000Y-55753000D01*
X175387000Y-55753000D01*
X175387000Y-54409406D01*
X175141020Y-54289437D01*
X174647076Y-54504027D01*
X174253159Y-54889474D01*
X174118523Y-54687977D01*
X173593411Y-54337109D01*
X172974000Y-54213900D01*
X172354590Y-54337109D01*
X171829477Y-54687977D01*
X171627004Y-54991000D01*
X168780396Y-54991000D01*
X168452862Y-54663466D01*
X167925439Y-54445000D01*
X167354561Y-54445000D01*
X166827138Y-54663466D01*
X166423466Y-55067138D01*
X166205000Y-55594561D01*
X166205000Y-56057764D01*
X158889765Y-63373000D01*
X150709556Y-63373000D01*
X150622000Y-63355584D01*
X150534444Y-63373000D01*
X147181848Y-63373000D01*
X147084577Y-63227423D01*
X146609909Y-62910260D01*
X146191333Y-62827000D01*
X145908667Y-62827000D01*
X145490091Y-62910260D01*
X145015423Y-63227423D01*
X144698260Y-63702091D01*
X144586887Y-64262000D01*
X139865000Y-64262000D01*
X139865000Y-63976561D01*
X139646534Y-63449138D01*
X139242862Y-63045466D01*
X138715439Y-62827000D01*
X138144561Y-62827000D01*
X137617138Y-63045466D01*
X137289604Y-63373000D01*
X130731983Y-63373000D01*
X130610625Y-63191375D01*
X130588967Y-63176904D01*
X130749698Y-63110327D01*
X130928327Y-62931699D01*
X131025000Y-62698310D01*
X131025000Y-62007750D01*
X130866250Y-61849000D01*
X129667000Y-61849000D01*
X129667000Y-61869000D01*
X129413000Y-61869000D01*
X129413000Y-61849000D01*
X128213750Y-61849000D01*
X128055000Y-62007750D01*
X128055000Y-62698310D01*
X128151673Y-62931699D01*
X128330302Y-63110327D01*
X128491033Y-63176904D01*
X128469375Y-63191375D01*
X128141161Y-63682582D01*
X128025908Y-64262000D01*
X124447236Y-64262000D01*
X123880531Y-63695296D01*
X123830933Y-63621067D01*
X123536870Y-63424581D01*
X123277556Y-63373000D01*
X123277555Y-63373000D01*
X123190000Y-63355584D01*
X123102445Y-63373000D01*
X120571983Y-63373000D01*
X120450625Y-63191375D01*
X120131522Y-62978157D01*
X120261358Y-62917183D01*
X120651645Y-62488924D01*
X120821476Y-62078890D01*
X120700155Y-61849000D01*
X119507000Y-61849000D01*
X119507000Y-61869000D01*
X119253000Y-61869000D01*
X119253000Y-61849000D01*
X118059845Y-61849000D01*
X117938524Y-62078890D01*
X118108355Y-62488924D01*
X118498642Y-62917183D01*
X118628478Y-62978157D01*
X118309375Y-63191375D01*
X117981161Y-63682582D01*
X117865908Y-64262000D01*
X116788000Y-64262000D01*
X116788000Y-61365110D01*
X117938524Y-61365110D01*
X118059845Y-61595000D01*
X119253000Y-61595000D01*
X119253000Y-60401181D01*
X119507000Y-60401181D01*
X119507000Y-61595000D01*
X120700155Y-61595000D01*
X120821476Y-61365110D01*
X120651645Y-60955076D01*
X120460825Y-60745690D01*
X128055000Y-60745690D01*
X128055000Y-61436250D01*
X128213750Y-61595000D01*
X129413000Y-61595000D01*
X129413000Y-60395750D01*
X129667000Y-60395750D01*
X129667000Y-61595000D01*
X130866250Y-61595000D01*
X131025000Y-61436250D01*
X131025000Y-60745690D01*
X130928327Y-60512301D01*
X130749698Y-60333673D01*
X130516309Y-60237000D01*
X129825750Y-60237000D01*
X129667000Y-60395750D01*
X129413000Y-60395750D01*
X129254250Y-60237000D01*
X128563691Y-60237000D01*
X128330302Y-60333673D01*
X128151673Y-60512301D01*
X128055000Y-60745690D01*
X120460825Y-60745690D01*
X120261358Y-60526817D01*
X119736892Y-60280514D01*
X119507000Y-60401181D01*
X119253000Y-60401181D01*
X119023108Y-60280514D01*
X118498642Y-60526817D01*
X118108355Y-60955076D01*
X117938524Y-61365110D01*
X116788000Y-61365110D01*
X116788000Y-59130000D01*
X159188074Y-59130000D01*
X159258000Y-59143909D01*
X159327925Y-59130000D01*
X159327926Y-59130000D01*
X159535028Y-59088805D01*
X159769881Y-58931881D01*
X159926805Y-58697028D01*
X159981909Y-58420000D01*
X159968000Y-58350074D01*
X159968000Y-56887745D01*
X161811861Y-56887745D01*
X161885995Y-57133864D01*
X162423223Y-57326965D01*
X162993454Y-57299778D01*
X163394005Y-57133864D01*
X163468139Y-56887745D01*
X162640000Y-56059605D01*
X161811861Y-56887745D01*
X159968000Y-56887745D01*
X159968000Y-55663223D01*
X161193035Y-55663223D01*
X161220222Y-56233454D01*
X161386136Y-56634005D01*
X161632255Y-56708139D01*
X162460395Y-55880000D01*
X162819605Y-55880000D01*
X163647745Y-56708139D01*
X163893864Y-56634005D01*
X164086965Y-56096777D01*
X164059778Y-55526546D01*
X163893864Y-55125995D01*
X163647745Y-55051861D01*
X162819605Y-55880000D01*
X162460395Y-55880000D01*
X161632255Y-55051861D01*
X161386136Y-55125995D01*
X161193035Y-55663223D01*
X159968000Y-55663223D01*
X159968000Y-54872255D01*
X161811861Y-54872255D01*
X162640000Y-55700395D01*
X163468139Y-54872255D01*
X163394005Y-54626136D01*
X162856777Y-54433035D01*
X162286546Y-54460222D01*
X161885995Y-54626136D01*
X161811861Y-54872255D01*
X159968000Y-54872255D01*
X159968000Y-41384220D01*
X163577429Y-41384220D01*
X163577429Y-52814220D01*
X187958572Y-52814220D01*
X187958572Y-41384220D01*
X176567901Y-41384220D01*
X177233489Y-40939489D01*
X177760620Y-40150580D01*
X177945724Y-39220000D01*
X177760620Y-38289420D01*
X177233489Y-37500511D01*
X176444580Y-36973380D01*
X175748897Y-36835000D01*
X175279103Y-36835000D01*
X174583420Y-36973380D01*
X173794511Y-37500511D01*
X173267380Y-38289420D01*
X173082276Y-39220000D01*
X173267380Y-40150580D01*
X173794511Y-40939489D01*
X174460099Y-41384220D01*
X163577429Y-41384220D01*
X159968000Y-41384220D01*
X159968000Y-30392000D01*
X161062560Y-30392000D01*
X161062560Y-32092000D01*
X161111843Y-32339765D01*
X161252191Y-32549809D01*
X161462235Y-32690157D01*
X161710000Y-32739440D01*
X163410000Y-32739440D01*
X163657765Y-32690157D01*
X163867809Y-32549809D01*
X164008157Y-32339765D01*
X164017184Y-32294381D01*
X164029375Y-32312625D01*
X164520582Y-32640839D01*
X164953744Y-32727000D01*
X165246256Y-32727000D01*
X165679418Y-32640839D01*
X166170625Y-32312625D01*
X166370000Y-32014239D01*
X166569375Y-32312625D01*
X167060582Y-32640839D01*
X167493744Y-32727000D01*
X167786256Y-32727000D01*
X168219418Y-32640839D01*
X168710625Y-32312625D01*
X168910000Y-32014239D01*
X169109375Y-32312625D01*
X169600582Y-32640839D01*
X170033744Y-32727000D01*
X170326256Y-32727000D01*
X170759418Y-32640839D01*
X171250625Y-32312625D01*
X171450000Y-32014239D01*
X171649375Y-32312625D01*
X172140582Y-32640839D01*
X172573744Y-32727000D01*
X172866256Y-32727000D01*
X173299418Y-32640839D01*
X173790625Y-32312625D01*
X173990000Y-32014239D01*
X174189375Y-32312625D01*
X174680582Y-32640839D01*
X175113744Y-32727000D01*
X175406256Y-32727000D01*
X175839418Y-32640839D01*
X176330625Y-32312625D01*
X176530000Y-32014239D01*
X176729375Y-32312625D01*
X177220582Y-32640839D01*
X177653744Y-32727000D01*
X177946256Y-32727000D01*
X178379418Y-32640839D01*
X178870625Y-32312625D01*
X179070000Y-32014239D01*
X179269375Y-32312625D01*
X179760582Y-32640839D01*
X180193744Y-32727000D01*
X180486256Y-32727000D01*
X180919418Y-32640839D01*
X181410625Y-32312625D01*
X181738839Y-31821418D01*
X181854092Y-31242000D01*
X181738839Y-30662582D01*
X181410625Y-30171375D01*
X180919418Y-29843161D01*
X180486256Y-29757000D01*
X180193744Y-29757000D01*
X179760582Y-29843161D01*
X179269375Y-30171375D01*
X179070000Y-30469761D01*
X178870625Y-30171375D01*
X178379418Y-29843161D01*
X177946256Y-29757000D01*
X177653744Y-29757000D01*
X177220582Y-29843161D01*
X176729375Y-30171375D01*
X176530000Y-30469761D01*
X176330625Y-30171375D01*
X175839418Y-29843161D01*
X175406256Y-29757000D01*
X175113744Y-29757000D01*
X174680582Y-29843161D01*
X174189375Y-30171375D01*
X173990000Y-30469761D01*
X173790625Y-30171375D01*
X173299418Y-29843161D01*
X172866256Y-29757000D01*
X172573744Y-29757000D01*
X172140582Y-29843161D01*
X171649375Y-30171375D01*
X171450000Y-30469761D01*
X171250625Y-30171375D01*
X170759418Y-29843161D01*
X170326256Y-29757000D01*
X170033744Y-29757000D01*
X169600582Y-29843161D01*
X169109375Y-30171375D01*
X168910000Y-30469761D01*
X168710625Y-30171375D01*
X168219418Y-29843161D01*
X167786256Y-29757000D01*
X167493744Y-29757000D01*
X167060582Y-29843161D01*
X166569375Y-30171375D01*
X166370000Y-30469761D01*
X166170625Y-30171375D01*
X165679418Y-29843161D01*
X165246256Y-29757000D01*
X164953744Y-29757000D01*
X164520582Y-29843161D01*
X164029375Y-30171375D01*
X164017184Y-30189619D01*
X164008157Y-30144235D01*
X163867809Y-29934191D01*
X163657765Y-29793843D01*
X163410000Y-29744560D01*
X161710000Y-29744560D01*
X161462235Y-29793843D01*
X161252191Y-29934191D01*
X161111843Y-30144235D01*
X161062560Y-30392000D01*
X159968000Y-30392000D01*
X159968000Y-28650000D01*
X191568000Y-28650000D01*
X191568001Y-81078000D01*
X191568001Y-81078000D01*
G37*
X191568001Y-81078000D02*
X152152584Y-81078000D01*
X152179809Y-81059809D01*
X152320157Y-80849765D01*
X152369440Y-80602000D01*
X152369440Y-78402000D01*
X152320157Y-78154235D01*
X152179809Y-77944191D01*
X151969765Y-77803843D01*
X151722000Y-77754560D01*
X149522000Y-77754560D01*
X149274235Y-77803843D01*
X149064191Y-77944191D01*
X148923843Y-78154235D01*
X148874560Y-78402000D01*
X148874560Y-78613000D01*
X140891983Y-78613000D01*
X140770625Y-78431375D01*
X140279418Y-78103161D01*
X139846256Y-78017000D01*
X139553744Y-78017000D01*
X139120582Y-78103161D01*
X138629375Y-78431375D01*
X138430000Y-78729761D01*
X138230625Y-78431375D01*
X137739418Y-78103161D01*
X137306256Y-78017000D01*
X137013744Y-78017000D01*
X136580582Y-78103161D01*
X136089375Y-78431375D01*
X135876157Y-78750478D01*
X135815183Y-78620642D01*
X135386924Y-78230355D01*
X134976890Y-78060524D01*
X134747000Y-78181845D01*
X134747000Y-79375000D01*
X134767000Y-79375000D01*
X134767000Y-79629000D01*
X134747000Y-79629000D01*
X134747000Y-80822155D01*
X134976890Y-80943476D01*
X135386924Y-80773645D01*
X135815183Y-80383358D01*
X135876157Y-80253522D01*
X136089375Y-80572625D01*
X136580582Y-80900839D01*
X137013744Y-80987000D01*
X137306256Y-80987000D01*
X137739418Y-80900839D01*
X138230625Y-80572625D01*
X138430000Y-80274239D01*
X138629375Y-80572625D01*
X139120582Y-80900839D01*
X139553744Y-80987000D01*
X139846256Y-80987000D01*
X140279418Y-80900839D01*
X140770625Y-80572625D01*
X140891983Y-80391000D01*
X148874560Y-80391000D01*
X148874560Y-80602000D01*
X148923843Y-80849765D01*
X149064191Y-81059809D01*
X149091416Y-81078000D01*
X116788000Y-81078000D01*
X116788000Y-78652000D01*
X120422560Y-78652000D01*
X120422560Y-80352000D01*
X120471843Y-80599765D01*
X120612191Y-80809809D01*
X120822235Y-80950157D01*
X121070000Y-80999440D01*
X122770000Y-80999440D01*
X123017765Y-80950157D01*
X123227809Y-80809809D01*
X123368157Y-80599765D01*
X123377184Y-80554381D01*
X123389375Y-80572625D01*
X123880582Y-80900839D01*
X124313744Y-80987000D01*
X124606256Y-80987000D01*
X125039418Y-80900839D01*
X125530625Y-80572625D01*
X125730000Y-80274239D01*
X125929375Y-80572625D01*
X126420582Y-80900839D01*
X126853744Y-80987000D01*
X127146256Y-80987000D01*
X127579418Y-80900839D01*
X128070625Y-80572625D01*
X128270000Y-80274239D01*
X128469375Y-80572625D01*
X128960582Y-80900839D01*
X129393744Y-80987000D01*
X129686256Y-80987000D01*
X130119418Y-80900839D01*
X130610625Y-80572625D01*
X130810000Y-80274239D01*
X131009375Y-80572625D01*
X131500582Y-80900839D01*
X131933744Y-80987000D01*
X132226256Y-80987000D01*
X132659418Y-80900839D01*
X133150625Y-80572625D01*
X133363843Y-80253522D01*
X133424817Y-80383358D01*
X133853076Y-80773645D01*
X134263110Y-80943476D01*
X134493000Y-80822155D01*
X134493000Y-79629000D01*
X134473000Y-79629000D01*
X134473000Y-79375000D01*
X134493000Y-79375000D01*
X134493000Y-78181845D01*
X134263110Y-78060524D01*
X133853076Y-78230355D01*
X133424817Y-78620642D01*
X133363843Y-78750478D01*
X133150625Y-78431375D01*
X132659418Y-78103161D01*
X132226256Y-78017000D01*
X131933744Y-78017000D01*
X131500582Y-78103161D01*
X131009375Y-78431375D01*
X130810000Y-78729761D01*
X130610625Y-78431375D01*
X130119418Y-78103161D01*
X129686256Y-78017000D01*
X129393744Y-78017000D01*
X128960582Y-78103161D01*
X128469375Y-78431375D01*
X128270000Y-78729761D01*
X128070625Y-78431375D01*
X127579418Y-78103161D01*
X127146256Y-78017000D01*
X126853744Y-78017000D01*
X126420582Y-78103161D01*
X125929375Y-78431375D01*
X125730000Y-78729761D01*
X125530625Y-78431375D01*
X125039418Y-78103161D01*
X124606256Y-78017000D01*
X124313744Y-78017000D01*
X123880582Y-78103161D01*
X123389375Y-78431375D01*
X123377184Y-78449619D01*
X123368157Y-78404235D01*
X123227809Y-78194191D01*
X123017765Y-78053843D01*
X122770000Y-78004560D01*
X121070000Y-78004560D01*
X120822235Y-78053843D01*
X120612191Y-78194191D01*
X120471843Y-78404235D01*
X120422560Y-78652000D01*
X116788000Y-78652000D01*
X116788000Y-64262000D01*
X117865908Y-64262000D01*
X117981161Y-64841418D01*
X118309375Y-65332625D01*
X118607761Y-65532000D01*
X118309375Y-65731375D01*
X117981161Y-66222582D01*
X117865908Y-66802000D01*
X117981161Y-67381418D01*
X118309375Y-67872625D01*
X118327619Y-67884816D01*
X118282235Y-67893843D01*
X118072191Y-68034191D01*
X117931843Y-68244235D01*
X117882560Y-68492000D01*
X117882560Y-70192000D01*
X117931843Y-70439765D01*
X118072191Y-70649809D01*
X118282235Y-70790157D01*
X118530000Y-70839440D01*
X120230000Y-70839440D01*
X120477765Y-70790157D01*
X120687809Y-70649809D01*
X120828157Y-70439765D01*
X120877440Y-70192000D01*
X120877440Y-68492000D01*
X120828157Y-68244235D01*
X120687809Y-68034191D01*
X120477765Y-67893843D01*
X120432381Y-67884816D01*
X120450625Y-67872625D01*
X120778839Y-67381418D01*
X120894092Y-66802000D01*
X120778839Y-66222582D01*
X120450625Y-65731375D01*
X120152239Y-65532000D01*
X120450625Y-65332625D01*
X120571983Y-65151000D01*
X122821765Y-65151000D01*
X127855915Y-70185151D01*
X127771010Y-70612000D01*
X127905666Y-71288963D01*
X128289135Y-71862865D01*
X128863037Y-72246334D01*
X129369120Y-72347000D01*
X129710880Y-72347000D01*
X130216963Y-72246334D01*
X130790865Y-71862865D01*
X131174334Y-71288963D01*
X131308990Y-70612000D01*
X131174334Y-69935037D01*
X130891670Y-69512000D01*
X137952560Y-69512000D01*
X137952560Y-71712000D01*
X138001843Y-71959765D01*
X138142191Y-72169809D01*
X138352235Y-72310157D01*
X138600000Y-72359440D01*
X140800000Y-72359440D01*
X141047765Y-72310157D01*
X141257809Y-72169809D01*
X141398157Y-71959765D01*
X141398219Y-71959454D01*
X143581471Y-74142707D01*
X143631067Y-74216933D01*
X143925130Y-74413419D01*
X144184444Y-74465000D01*
X144184445Y-74465000D01*
X144272000Y-74482416D01*
X144359555Y-74465000D01*
X170430445Y-74465000D01*
X170518000Y-74482416D01*
X170605555Y-74465000D01*
X170605556Y-74465000D01*
X170864870Y-74413419D01*
X171158933Y-74216933D01*
X171208531Y-74142704D01*
X173303490Y-72047745D01*
X177225861Y-72047745D01*
X177299995Y-72293864D01*
X177837223Y-72486965D01*
X178407454Y-72459778D01*
X178808005Y-72293864D01*
X178882139Y-72047745D01*
X178054000Y-71219605D01*
X177225861Y-72047745D01*
X173303490Y-72047745D01*
X174528012Y-70823223D01*
X176607035Y-70823223D01*
X176634222Y-71393454D01*
X176800136Y-71794005D01*
X177046255Y-71868139D01*
X177874395Y-71040000D01*
X178233605Y-71040000D01*
X179061745Y-71868139D01*
X179307864Y-71794005D01*
X179500965Y-71256777D01*
X179473778Y-70686546D01*
X179307864Y-70285995D01*
X179061745Y-70211861D01*
X178233605Y-71040000D01*
X177874395Y-71040000D01*
X177046255Y-70211861D01*
X176800136Y-70285995D01*
X176607035Y-70823223D01*
X174528012Y-70823223D01*
X175318980Y-70032255D01*
X177225861Y-70032255D01*
X178054000Y-70860395D01*
X178882139Y-70032255D01*
X178808005Y-69786136D01*
X178270777Y-69593035D01*
X177700546Y-69620222D01*
X177299995Y-69786136D01*
X177225861Y-70032255D01*
X175318980Y-70032255D01*
X177876236Y-67475000D01*
X178339439Y-67475000D01*
X178866862Y-67256534D01*
X179270534Y-66852862D01*
X179489000Y-66325439D01*
X179489000Y-65754561D01*
X179270534Y-65227138D01*
X178943000Y-64899604D01*
X178943000Y-57527440D01*
X179006500Y-57527440D01*
X179254265Y-57478157D01*
X179464309Y-57337809D01*
X179604657Y-57127765D01*
X179653940Y-56880000D01*
X179653940Y-56769000D01*
X182247604Y-56769000D01*
X182575138Y-57096534D01*
X183102561Y-57315000D01*
X183673439Y-57315000D01*
X184200862Y-57096534D01*
X184409651Y-56887745D01*
X187559861Y-56887745D01*
X187633995Y-57133864D01*
X188171223Y-57326965D01*
X188741454Y-57299778D01*
X189142005Y-57133864D01*
X189216139Y-56887745D01*
X188388000Y-56059605D01*
X187559861Y-56887745D01*
X184409651Y-56887745D01*
X184604534Y-56692862D01*
X184823000Y-56165439D01*
X184823000Y-55663223D01*
X186941035Y-55663223D01*
X186968222Y-56233454D01*
X187134136Y-56634005D01*
X187380255Y-56708139D01*
X188208395Y-55880000D01*
X188567605Y-55880000D01*
X189395745Y-56708139D01*
X189641864Y-56634005D01*
X189834965Y-56096777D01*
X189807778Y-55526546D01*
X189641864Y-55125995D01*
X189395745Y-55051861D01*
X188567605Y-55880000D01*
X188208395Y-55880000D01*
X187380255Y-55051861D01*
X187134136Y-55125995D01*
X186941035Y-55663223D01*
X184823000Y-55663223D01*
X184823000Y-55594561D01*
X184604534Y-55067138D01*
X184409651Y-54872255D01*
X187559861Y-54872255D01*
X188388000Y-55700395D01*
X189216139Y-54872255D01*
X189142005Y-54626136D01*
X188604777Y-54433035D01*
X188034546Y-54460222D01*
X187633995Y-54626136D01*
X187559861Y-54872255D01*
X184409651Y-54872255D01*
X184200862Y-54663466D01*
X183673439Y-54445000D01*
X183102561Y-54445000D01*
X182575138Y-54663466D01*
X182247604Y-54991000D01*
X179653940Y-54991000D01*
X179653940Y-54880000D01*
X179604657Y-54632235D01*
X179464309Y-54422191D01*
X179254265Y-54281843D01*
X179006500Y-54232560D01*
X177101500Y-54232560D01*
X176853735Y-54281843D01*
X176643691Y-54422191D01*
X176506745Y-54627143D01*
X176380924Y-54504027D01*
X175886980Y-54289437D01*
X175641000Y-54409406D01*
X175641000Y-55753000D01*
X175661000Y-55753000D01*
X175661000Y-56007000D01*
X175641000Y-56007000D01*
X175641000Y-57350594D01*
X175886980Y-57470563D01*
X176380924Y-57255973D01*
X176506745Y-57132857D01*
X176643691Y-57337809D01*
X176853735Y-57478157D01*
X177101500Y-57527440D01*
X177165000Y-57527440D01*
X177165001Y-64899603D01*
X176837466Y-65227138D01*
X176619000Y-65754561D01*
X176619000Y-66217764D01*
X170149765Y-72687000D01*
X144640236Y-72687000D01*
X141998531Y-70045296D01*
X141948933Y-69971067D01*
X141654870Y-69774581D01*
X141447440Y-69733320D01*
X141447440Y-69512000D01*
X141398157Y-69264235D01*
X141257809Y-69054191D01*
X141047765Y-68913843D01*
X140800000Y-68864560D01*
X138600000Y-68864560D01*
X138352235Y-68913843D01*
X138142191Y-69054191D01*
X138001843Y-69264235D01*
X137952560Y-69512000D01*
X130891670Y-69512000D01*
X130790865Y-69361135D01*
X130216963Y-68977666D01*
X129710880Y-68877000D01*
X129369120Y-68877000D01*
X129113151Y-68927915D01*
X124447236Y-64262000D01*
X128025908Y-64262000D01*
X128141161Y-64841418D01*
X128469375Y-65332625D01*
X128960582Y-65660839D01*
X129393744Y-65747000D01*
X129686256Y-65747000D01*
X130119418Y-65660839D01*
X130610625Y-65332625D01*
X130731983Y-65151000D01*
X137289604Y-65151000D01*
X137617138Y-65478534D01*
X138144561Y-65697000D01*
X138715439Y-65697000D01*
X139242862Y-65478534D01*
X139646534Y-65074862D01*
X139865000Y-64547439D01*
X139865000Y-64262000D01*
X144586887Y-64262000D01*
X144698260Y-64821909D01*
X145015423Y-65296577D01*
X145490091Y-65613740D01*
X145908667Y-65697000D01*
X146191333Y-65697000D01*
X146609909Y-65613740D01*
X147084577Y-65296577D01*
X147181848Y-65151000D01*
X149733001Y-65151000D01*
X149733000Y-67849344D01*
X149371135Y-68091135D01*
X148987666Y-68665037D01*
X148853010Y-69342000D01*
X148987666Y-70018963D01*
X149371135Y-70592865D01*
X149945037Y-70976334D01*
X150451120Y-71077000D01*
X150792880Y-71077000D01*
X151298963Y-70976334D01*
X151872865Y-70592865D01*
X152256334Y-70018963D01*
X152390990Y-69342000D01*
X152256334Y-68665037D01*
X151872865Y-68091135D01*
X151511000Y-67849345D01*
X151511000Y-65151000D01*
X159170445Y-65151000D01*
X159258000Y-65168416D01*
X159345555Y-65151000D01*
X159345556Y-65151000D01*
X159604870Y-65099419D01*
X159898933Y-64902933D01*
X159948531Y-64828704D01*
X167462236Y-57315000D01*
X167925439Y-57315000D01*
X168452862Y-57096534D01*
X168780396Y-56769000D01*
X171627004Y-56769000D01*
X171829477Y-57072023D01*
X172354589Y-57422891D01*
X172974000Y-57546100D01*
X173593410Y-57422891D01*
X174118523Y-57072023D01*
X174253159Y-56870526D01*
X174647076Y-57255973D01*
X175141020Y-57470563D01*
X175387000Y-57350594D01*
X175387000Y-56007000D01*
X175367000Y-56007000D01*
X175367000Y-55753000D01*
X175387000Y-55753000D01*
X175387000Y-54409406D01*
X175141020Y-54289437D01*
X174647076Y-54504027D01*
X174253159Y-54889474D01*
X174118523Y-54687977D01*
X173593411Y-54337109D01*
X172974000Y-54213900D01*
X172354590Y-54337109D01*
X171829477Y-54687977D01*
X171627004Y-54991000D01*
X168780396Y-54991000D01*
X168452862Y-54663466D01*
X167925439Y-54445000D01*
X167354561Y-54445000D01*
X166827138Y-54663466D01*
X166423466Y-55067138D01*
X166205000Y-55594561D01*
X166205000Y-56057764D01*
X158889765Y-63373000D01*
X150709556Y-63373000D01*
X150622000Y-63355584D01*
X150534444Y-63373000D01*
X147181848Y-63373000D01*
X147084577Y-63227423D01*
X146609909Y-62910260D01*
X146191333Y-62827000D01*
X145908667Y-62827000D01*
X145490091Y-62910260D01*
X145015423Y-63227423D01*
X144698260Y-63702091D01*
X144586887Y-64262000D01*
X139865000Y-64262000D01*
X139865000Y-63976561D01*
X139646534Y-63449138D01*
X139242862Y-63045466D01*
X138715439Y-62827000D01*
X138144561Y-62827000D01*
X137617138Y-63045466D01*
X137289604Y-63373000D01*
X130731983Y-63373000D01*
X130610625Y-63191375D01*
X130588967Y-63176904D01*
X130749698Y-63110327D01*
X130928327Y-62931699D01*
X131025000Y-62698310D01*
X131025000Y-62007750D01*
X130866250Y-61849000D01*
X129667000Y-61849000D01*
X129667000Y-61869000D01*
X129413000Y-61869000D01*
X129413000Y-61849000D01*
X128213750Y-61849000D01*
X128055000Y-62007750D01*
X128055000Y-62698310D01*
X128151673Y-62931699D01*
X128330302Y-63110327D01*
X128491033Y-63176904D01*
X128469375Y-63191375D01*
X128141161Y-63682582D01*
X128025908Y-64262000D01*
X124447236Y-64262000D01*
X123880531Y-63695296D01*
X123830933Y-63621067D01*
X123536870Y-63424581D01*
X123277556Y-63373000D01*
X123277555Y-63373000D01*
X123190000Y-63355584D01*
X123102445Y-63373000D01*
X120571983Y-63373000D01*
X120450625Y-63191375D01*
X120131522Y-62978157D01*
X120261358Y-62917183D01*
X120651645Y-62488924D01*
X120821476Y-62078890D01*
X120700155Y-61849000D01*
X119507000Y-61849000D01*
X119507000Y-61869000D01*
X119253000Y-61869000D01*
X119253000Y-61849000D01*
X118059845Y-61849000D01*
X117938524Y-62078890D01*
X118108355Y-62488924D01*
X118498642Y-62917183D01*
X118628478Y-62978157D01*
X118309375Y-63191375D01*
X117981161Y-63682582D01*
X117865908Y-64262000D01*
X116788000Y-64262000D01*
X116788000Y-61365110D01*
X117938524Y-61365110D01*
X118059845Y-61595000D01*
X119253000Y-61595000D01*
X119253000Y-60401181D01*
X119507000Y-60401181D01*
X119507000Y-61595000D01*
X120700155Y-61595000D01*
X120821476Y-61365110D01*
X120651645Y-60955076D01*
X120460825Y-60745690D01*
X128055000Y-60745690D01*
X128055000Y-61436250D01*
X128213750Y-61595000D01*
X129413000Y-61595000D01*
X129413000Y-60395750D01*
X129667000Y-60395750D01*
X129667000Y-61595000D01*
X130866250Y-61595000D01*
X131025000Y-61436250D01*
X131025000Y-60745690D01*
X130928327Y-60512301D01*
X130749698Y-60333673D01*
X130516309Y-60237000D01*
X129825750Y-60237000D01*
X129667000Y-60395750D01*
X129413000Y-60395750D01*
X129254250Y-60237000D01*
X128563691Y-60237000D01*
X128330302Y-60333673D01*
X128151673Y-60512301D01*
X128055000Y-60745690D01*
X120460825Y-60745690D01*
X120261358Y-60526817D01*
X119736892Y-60280514D01*
X119507000Y-60401181D01*
X119253000Y-60401181D01*
X119023108Y-60280514D01*
X118498642Y-60526817D01*
X118108355Y-60955076D01*
X117938524Y-61365110D01*
X116788000Y-61365110D01*
X116788000Y-59130000D01*
X159188074Y-59130000D01*
X159258000Y-59143909D01*
X159327925Y-59130000D01*
X159327926Y-59130000D01*
X159535028Y-59088805D01*
X159769881Y-58931881D01*
X159926805Y-58697028D01*
X159981909Y-58420000D01*
X159968000Y-58350074D01*
X159968000Y-56887745D01*
X161811861Y-56887745D01*
X161885995Y-57133864D01*
X162423223Y-57326965D01*
X162993454Y-57299778D01*
X163394005Y-57133864D01*
X163468139Y-56887745D01*
X162640000Y-56059605D01*
X161811861Y-56887745D01*
X159968000Y-56887745D01*
X159968000Y-55663223D01*
X161193035Y-55663223D01*
X161220222Y-56233454D01*
X161386136Y-56634005D01*
X161632255Y-56708139D01*
X162460395Y-55880000D01*
X162819605Y-55880000D01*
X163647745Y-56708139D01*
X163893864Y-56634005D01*
X164086965Y-56096777D01*
X164059778Y-55526546D01*
X163893864Y-55125995D01*
X163647745Y-55051861D01*
X162819605Y-55880000D01*
X162460395Y-55880000D01*
X161632255Y-55051861D01*
X161386136Y-55125995D01*
X161193035Y-55663223D01*
X159968000Y-55663223D01*
X159968000Y-54872255D01*
X161811861Y-54872255D01*
X162640000Y-55700395D01*
X163468139Y-54872255D01*
X163394005Y-54626136D01*
X162856777Y-54433035D01*
X162286546Y-54460222D01*
X161885995Y-54626136D01*
X161811861Y-54872255D01*
X159968000Y-54872255D01*
X159968000Y-41384220D01*
X163577429Y-41384220D01*
X163577429Y-52814220D01*
X187958572Y-52814220D01*
X187958572Y-41384220D01*
X176567901Y-41384220D01*
X177233489Y-40939489D01*
X177760620Y-40150580D01*
X177945724Y-39220000D01*
X177760620Y-38289420D01*
X177233489Y-37500511D01*
X176444580Y-36973380D01*
X175748897Y-36835000D01*
X175279103Y-36835000D01*
X174583420Y-36973380D01*
X173794511Y-37500511D01*
X173267380Y-38289420D01*
X173082276Y-39220000D01*
X173267380Y-40150580D01*
X173794511Y-40939489D01*
X174460099Y-41384220D01*
X163577429Y-41384220D01*
X159968000Y-41384220D01*
X159968000Y-30392000D01*
X161062560Y-30392000D01*
X161062560Y-32092000D01*
X161111843Y-32339765D01*
X161252191Y-32549809D01*
X161462235Y-32690157D01*
X161710000Y-32739440D01*
X163410000Y-32739440D01*
X163657765Y-32690157D01*
X163867809Y-32549809D01*
X164008157Y-32339765D01*
X164017184Y-32294381D01*
X164029375Y-32312625D01*
X164520582Y-32640839D01*
X164953744Y-32727000D01*
X165246256Y-32727000D01*
X165679418Y-32640839D01*
X166170625Y-32312625D01*
X166370000Y-32014239D01*
X166569375Y-32312625D01*
X167060582Y-32640839D01*
X167493744Y-32727000D01*
X167786256Y-32727000D01*
X168219418Y-32640839D01*
X168710625Y-32312625D01*
X168910000Y-32014239D01*
X169109375Y-32312625D01*
X169600582Y-32640839D01*
X170033744Y-32727000D01*
X170326256Y-32727000D01*
X170759418Y-32640839D01*
X171250625Y-32312625D01*
X171450000Y-32014239D01*
X171649375Y-32312625D01*
X172140582Y-32640839D01*
X172573744Y-32727000D01*
X172866256Y-32727000D01*
X173299418Y-32640839D01*
X173790625Y-32312625D01*
X173990000Y-32014239D01*
X174189375Y-32312625D01*
X174680582Y-32640839D01*
X175113744Y-32727000D01*
X175406256Y-32727000D01*
X175839418Y-32640839D01*
X176330625Y-32312625D01*
X176530000Y-32014239D01*
X176729375Y-32312625D01*
X177220582Y-32640839D01*
X177653744Y-32727000D01*
X177946256Y-32727000D01*
X178379418Y-32640839D01*
X178870625Y-32312625D01*
X179070000Y-32014239D01*
X179269375Y-32312625D01*
X179760582Y-32640839D01*
X180193744Y-32727000D01*
X180486256Y-32727000D01*
X180919418Y-32640839D01*
X181410625Y-32312625D01*
X181738839Y-31821418D01*
X181854092Y-31242000D01*
X181738839Y-30662582D01*
X181410625Y-30171375D01*
X180919418Y-29843161D01*
X180486256Y-29757000D01*
X180193744Y-29757000D01*
X179760582Y-29843161D01*
X179269375Y-30171375D01*
X179070000Y-30469761D01*
X178870625Y-30171375D01*
X178379418Y-29843161D01*
X177946256Y-29757000D01*
X177653744Y-29757000D01*
X177220582Y-29843161D01*
X176729375Y-30171375D01*
X176530000Y-30469761D01*
X176330625Y-30171375D01*
X175839418Y-29843161D01*
X175406256Y-29757000D01*
X175113744Y-29757000D01*
X174680582Y-29843161D01*
X174189375Y-30171375D01*
X173990000Y-30469761D01*
X173790625Y-30171375D01*
X173299418Y-29843161D01*
X172866256Y-29757000D01*
X172573744Y-29757000D01*
X172140582Y-29843161D01*
X171649375Y-30171375D01*
X171450000Y-30469761D01*
X171250625Y-30171375D01*
X170759418Y-29843161D01*
X170326256Y-29757000D01*
X170033744Y-29757000D01*
X169600582Y-29843161D01*
X169109375Y-30171375D01*
X168910000Y-30469761D01*
X168710625Y-30171375D01*
X168219418Y-29843161D01*
X167786256Y-29757000D01*
X167493744Y-29757000D01*
X167060582Y-29843161D01*
X166569375Y-30171375D01*
X166370000Y-30469761D01*
X166170625Y-30171375D01*
X165679418Y-29843161D01*
X165246256Y-29757000D01*
X164953744Y-29757000D01*
X164520582Y-29843161D01*
X164029375Y-30171375D01*
X164017184Y-30189619D01*
X164008157Y-30144235D01*
X163867809Y-29934191D01*
X163657765Y-29793843D01*
X163410000Y-29744560D01*
X161710000Y-29744560D01*
X161462235Y-29793843D01*
X161252191Y-29934191D01*
X161111843Y-30144235D01*
X161062560Y-30392000D01*
X159968000Y-30392000D01*
X159968000Y-28650000D01*
X191568000Y-28650000D01*
X191568001Y-81078000D01*
G04 #@! TD*
M02*
