G04 #@! TF.GenerationSoftware,KiCad,Pcbnew,(5.0.2)-1*
G04 #@! TF.CreationDate,2019-02-27T10:37:22-05:00*
G04 #@! TF.ProjectId,AR-22 Controller,41522d32-3220-4436-9f6e-74726f6c6c65,rev?*
G04 #@! TF.SameCoordinates,Original*
G04 #@! TF.FileFunction,Legend,Top*
G04 #@! TF.FilePolarity,Positive*
%FSLAX46Y46*%
G04 Gerber Fmt 4.6, Leading zero omitted, Abs format (unit mm)*
G04 Created by KiCad (PCBNEW (5.0.2)-1) date 2/27/2019 10:37:22 AM*
%MOMM*%
%LPD*%
G01*
G04 APERTURE LIST*
%ADD10C,0.200000*%
%ADD11C,0.120000*%
%ADD12C,0.127000*%
%ADD13C,0.203200*%
%ADD14C,0.050000*%
%ADD15C,0.152400*%
%ADD16C,0.150000*%
G04 APERTURE END LIST*
D10*
X193040000Y-72263000D02*
X193040000Y-113157000D01*
X198374000Y-113157000D02*
X191008000Y-113157000D01*
X198374000Y-107950000D02*
X191008000Y-107950000D01*
X195834000Y-102870000D02*
X191008000Y-102870000D01*
X196596000Y-95250000D02*
X191008000Y-95250000D01*
X191008000Y-72263000D02*
X191008000Y-113157000D01*
X198374000Y-72263000D02*
X191008000Y-72263000D01*
X195834000Y-82550000D02*
X191008000Y-82550000D01*
D11*
G04 #@! TO.C,J10*
X147126000Y-84903000D02*
X144466000Y-84903000D01*
X147126000Y-92583000D02*
X147126000Y-84903000D01*
X144466000Y-92583000D02*
X144466000Y-84903000D01*
X147126000Y-92583000D02*
X144466000Y-92583000D01*
X147126000Y-93853000D02*
X147126000Y-95183000D01*
X147126000Y-95183000D02*
X145796000Y-95183000D01*
D12*
G04 #@! TO.C,A1*
X191476323Y-70294781D02*
X171664323Y-70294781D01*
X191476323Y-67754781D02*
X191476323Y-70294781D01*
X171664323Y-67754781D02*
X191476323Y-67754781D01*
X171664323Y-70294781D02*
X171664323Y-67754781D01*
X168616323Y-70294781D02*
X148804323Y-70294781D01*
X168616323Y-67754781D02*
X168616323Y-70294781D01*
X148804323Y-67754781D02*
X168616323Y-67754781D01*
X148804323Y-70294781D02*
X148804323Y-67754781D01*
X147280323Y-70294781D02*
X121880323Y-70294781D01*
X147280323Y-67754781D02*
X147280323Y-70294781D01*
X121880323Y-67754781D02*
X147280323Y-67754781D01*
X121880323Y-70294781D02*
X121880323Y-67754781D01*
X196556323Y-118554781D02*
X176744323Y-118554781D01*
X196556323Y-116014781D02*
X196556323Y-118554781D01*
X176744323Y-116014781D02*
X196556323Y-116014781D01*
X176744323Y-118554781D02*
X176744323Y-116014781D01*
X174204323Y-118554781D02*
X153884323Y-118554781D01*
X174204323Y-116014781D02*
X174204323Y-118554781D01*
X153884323Y-116014781D02*
X174204323Y-116014781D01*
X153884323Y-118554781D02*
X153884323Y-116014781D01*
X151344323Y-118554781D02*
X130516323Y-118554781D01*
X151344323Y-116014781D02*
X151344323Y-118554781D01*
X130516323Y-116014781D02*
X151344323Y-116014781D01*
X130516323Y-118554781D02*
X130516323Y-116014781D01*
D11*
G04 #@! TO.C,C1*
X162132000Y-93492000D02*
G75*
G03X162132000Y-93492000I-2620000J0D01*
G01*
X156932000Y-93492000D02*
X162092000Y-93492000D01*
X156932000Y-93452000D02*
X162092000Y-93452000D01*
X156933000Y-93412000D02*
X162091000Y-93412000D01*
X156934000Y-93372000D02*
X162090000Y-93372000D01*
X156936000Y-93332000D02*
X162088000Y-93332000D01*
X156939000Y-93292000D02*
X162085000Y-93292000D01*
X156943000Y-93252000D02*
X158472000Y-93252000D01*
X160552000Y-93252000D02*
X162081000Y-93252000D01*
X156947000Y-93212000D02*
X158472000Y-93212000D01*
X160552000Y-93212000D02*
X162077000Y-93212000D01*
X156951000Y-93172000D02*
X158472000Y-93172000D01*
X160552000Y-93172000D02*
X162073000Y-93172000D01*
X156956000Y-93132000D02*
X158472000Y-93132000D01*
X160552000Y-93132000D02*
X162068000Y-93132000D01*
X156962000Y-93092000D02*
X158472000Y-93092000D01*
X160552000Y-93092000D02*
X162062000Y-93092000D01*
X156969000Y-93052000D02*
X158472000Y-93052000D01*
X160552000Y-93052000D02*
X162055000Y-93052000D01*
X156976000Y-93012000D02*
X158472000Y-93012000D01*
X160552000Y-93012000D02*
X162048000Y-93012000D01*
X156984000Y-92972000D02*
X158472000Y-92972000D01*
X160552000Y-92972000D02*
X162040000Y-92972000D01*
X156992000Y-92932000D02*
X158472000Y-92932000D01*
X160552000Y-92932000D02*
X162032000Y-92932000D01*
X157001000Y-92892000D02*
X158472000Y-92892000D01*
X160552000Y-92892000D02*
X162023000Y-92892000D01*
X157011000Y-92852000D02*
X158472000Y-92852000D01*
X160552000Y-92852000D02*
X162013000Y-92852000D01*
X157021000Y-92812000D02*
X158472000Y-92812000D01*
X160552000Y-92812000D02*
X162003000Y-92812000D01*
X157032000Y-92771000D02*
X158472000Y-92771000D01*
X160552000Y-92771000D02*
X161992000Y-92771000D01*
X157044000Y-92731000D02*
X158472000Y-92731000D01*
X160552000Y-92731000D02*
X161980000Y-92731000D01*
X157057000Y-92691000D02*
X158472000Y-92691000D01*
X160552000Y-92691000D02*
X161967000Y-92691000D01*
X157070000Y-92651000D02*
X158472000Y-92651000D01*
X160552000Y-92651000D02*
X161954000Y-92651000D01*
X157084000Y-92611000D02*
X158472000Y-92611000D01*
X160552000Y-92611000D02*
X161940000Y-92611000D01*
X157098000Y-92571000D02*
X158472000Y-92571000D01*
X160552000Y-92571000D02*
X161926000Y-92571000D01*
X157114000Y-92531000D02*
X158472000Y-92531000D01*
X160552000Y-92531000D02*
X161910000Y-92531000D01*
X157130000Y-92491000D02*
X158472000Y-92491000D01*
X160552000Y-92491000D02*
X161894000Y-92491000D01*
X157147000Y-92451000D02*
X158472000Y-92451000D01*
X160552000Y-92451000D02*
X161877000Y-92451000D01*
X157164000Y-92411000D02*
X158472000Y-92411000D01*
X160552000Y-92411000D02*
X161860000Y-92411000D01*
X157183000Y-92371000D02*
X158472000Y-92371000D01*
X160552000Y-92371000D02*
X161841000Y-92371000D01*
X157202000Y-92331000D02*
X158472000Y-92331000D01*
X160552000Y-92331000D02*
X161822000Y-92331000D01*
X157222000Y-92291000D02*
X158472000Y-92291000D01*
X160552000Y-92291000D02*
X161802000Y-92291000D01*
X157244000Y-92251000D02*
X158472000Y-92251000D01*
X160552000Y-92251000D02*
X161780000Y-92251000D01*
X157265000Y-92211000D02*
X158472000Y-92211000D01*
X160552000Y-92211000D02*
X161759000Y-92211000D01*
X157288000Y-92171000D02*
X158472000Y-92171000D01*
X160552000Y-92171000D02*
X161736000Y-92171000D01*
X157312000Y-92131000D02*
X158472000Y-92131000D01*
X160552000Y-92131000D02*
X161712000Y-92131000D01*
X157337000Y-92091000D02*
X158472000Y-92091000D01*
X160552000Y-92091000D02*
X161687000Y-92091000D01*
X157363000Y-92051000D02*
X158472000Y-92051000D01*
X160552000Y-92051000D02*
X161661000Y-92051000D01*
X157390000Y-92011000D02*
X158472000Y-92011000D01*
X160552000Y-92011000D02*
X161634000Y-92011000D01*
X157417000Y-91971000D02*
X158472000Y-91971000D01*
X160552000Y-91971000D02*
X161607000Y-91971000D01*
X157447000Y-91931000D02*
X158472000Y-91931000D01*
X160552000Y-91931000D02*
X161577000Y-91931000D01*
X157477000Y-91891000D02*
X158472000Y-91891000D01*
X160552000Y-91891000D02*
X161547000Y-91891000D01*
X157508000Y-91851000D02*
X158472000Y-91851000D01*
X160552000Y-91851000D02*
X161516000Y-91851000D01*
X157541000Y-91811000D02*
X158472000Y-91811000D01*
X160552000Y-91811000D02*
X161483000Y-91811000D01*
X157575000Y-91771000D02*
X158472000Y-91771000D01*
X160552000Y-91771000D02*
X161449000Y-91771000D01*
X157611000Y-91731000D02*
X158472000Y-91731000D01*
X160552000Y-91731000D02*
X161413000Y-91731000D01*
X157648000Y-91691000D02*
X158472000Y-91691000D01*
X160552000Y-91691000D02*
X161376000Y-91691000D01*
X157686000Y-91651000D02*
X158472000Y-91651000D01*
X160552000Y-91651000D02*
X161338000Y-91651000D01*
X157727000Y-91611000D02*
X158472000Y-91611000D01*
X160552000Y-91611000D02*
X161297000Y-91611000D01*
X157769000Y-91571000D02*
X158472000Y-91571000D01*
X160552000Y-91571000D02*
X161255000Y-91571000D01*
X157813000Y-91531000D02*
X158472000Y-91531000D01*
X160552000Y-91531000D02*
X161211000Y-91531000D01*
X157859000Y-91491000D02*
X158472000Y-91491000D01*
X160552000Y-91491000D02*
X161165000Y-91491000D01*
X157907000Y-91451000D02*
X158472000Y-91451000D01*
X160552000Y-91451000D02*
X161117000Y-91451000D01*
X157958000Y-91411000D02*
X158472000Y-91411000D01*
X160552000Y-91411000D02*
X161066000Y-91411000D01*
X158012000Y-91371000D02*
X158472000Y-91371000D01*
X160552000Y-91371000D02*
X161012000Y-91371000D01*
X158069000Y-91331000D02*
X158472000Y-91331000D01*
X160552000Y-91331000D02*
X160955000Y-91331000D01*
X158129000Y-91291000D02*
X158472000Y-91291000D01*
X160552000Y-91291000D02*
X160895000Y-91291000D01*
X158193000Y-91251000D02*
X158472000Y-91251000D01*
X160552000Y-91251000D02*
X160831000Y-91251000D01*
X158261000Y-91211000D02*
X158472000Y-91211000D01*
X160552000Y-91211000D02*
X160763000Y-91211000D01*
X158334000Y-91171000D02*
X160690000Y-91171000D01*
X158414000Y-91131000D02*
X160610000Y-91131000D01*
X158501000Y-91091000D02*
X160523000Y-91091000D01*
X158597000Y-91051000D02*
X160427000Y-91051000D01*
X158707000Y-91011000D02*
X160317000Y-91011000D01*
X158835000Y-90971000D02*
X160189000Y-90971000D01*
X158994000Y-90931000D02*
X160030000Y-90931000D01*
X159228000Y-90891000D02*
X159796000Y-90891000D01*
X158037000Y-96296775D02*
X158037000Y-95796775D01*
X157787000Y-96046775D02*
X158287000Y-96046775D01*
G04 #@! TO.C,C2*
X147720000Y-76010000D02*
X144380000Y-76010000D01*
X144380000Y-76010000D02*
X144380000Y-81350000D01*
X144380000Y-81350000D02*
X147720000Y-81350000D01*
X147720000Y-81350000D02*
X147720000Y-76010000D01*
X146050000Y-75970000D02*
X146050000Y-76010000D01*
X146050000Y-81390000D02*
X146050000Y-81350000D01*
G04 #@! TO.C,J5*
X195559500Y-108017000D02*
X195559500Y-113217000D01*
X195559500Y-113217000D02*
X198219500Y-113217000D01*
X198219500Y-113217000D02*
X198219500Y-108017000D01*
X198219500Y-108017000D02*
X195559500Y-108017000D01*
X198219500Y-108967000D02*
X204219500Y-108967000D01*
X204219500Y-108967000D02*
X204219500Y-109727000D01*
X204219500Y-109727000D02*
X198219500Y-109727000D01*
X198219500Y-109027000D02*
X204219500Y-109027000D01*
X198219500Y-109147000D02*
X204219500Y-109147000D01*
X198219500Y-109267000D02*
X204219500Y-109267000D01*
X198219500Y-109387000D02*
X204219500Y-109387000D01*
X198219500Y-109507000D02*
X204219500Y-109507000D01*
X198219500Y-109627000D02*
X204219500Y-109627000D01*
X195229500Y-108967000D02*
X195559500Y-108967000D01*
X195229500Y-109727000D02*
X195559500Y-109727000D01*
X195559500Y-110617000D02*
X198219500Y-110617000D01*
X198219500Y-111507000D02*
X204219500Y-111507000D01*
X204219500Y-111507000D02*
X204219500Y-112267000D01*
X204219500Y-112267000D02*
X198219500Y-112267000D01*
X195162429Y-111507000D02*
X195559500Y-111507000D01*
X195162429Y-112267000D02*
X195559500Y-112267000D01*
X192849500Y-109347000D02*
X192849500Y-108077000D01*
X192849500Y-108077000D02*
X194119500Y-108077000D01*
G04 #@! TO.C,J6*
X195559500Y-95317000D02*
X195559500Y-103057000D01*
X195559500Y-103057000D02*
X198219500Y-103057000D01*
X198219500Y-103057000D02*
X198219500Y-95317000D01*
X198219500Y-95317000D02*
X195559500Y-95317000D01*
X198219500Y-96267000D02*
X204219500Y-96267000D01*
X204219500Y-96267000D02*
X204219500Y-97027000D01*
X204219500Y-97027000D02*
X198219500Y-97027000D01*
X198219500Y-96327000D02*
X204219500Y-96327000D01*
X198219500Y-96447000D02*
X204219500Y-96447000D01*
X198219500Y-96567000D02*
X204219500Y-96567000D01*
X198219500Y-96687000D02*
X204219500Y-96687000D01*
X198219500Y-96807000D02*
X204219500Y-96807000D01*
X198219500Y-96927000D02*
X204219500Y-96927000D01*
X195229500Y-96267000D02*
X195559500Y-96267000D01*
X195229500Y-97027000D02*
X195559500Y-97027000D01*
X195559500Y-97917000D02*
X198219500Y-97917000D01*
X198219500Y-98807000D02*
X204219500Y-98807000D01*
X204219500Y-98807000D02*
X204219500Y-99567000D01*
X204219500Y-99567000D02*
X198219500Y-99567000D01*
X195162429Y-98807000D02*
X195559500Y-98807000D01*
X195162429Y-99567000D02*
X195559500Y-99567000D01*
X195559500Y-100457000D02*
X198219500Y-100457000D01*
X198219500Y-101347000D02*
X204219500Y-101347000D01*
X204219500Y-101347000D02*
X204219500Y-102107000D01*
X204219500Y-102107000D02*
X198219500Y-102107000D01*
X195162429Y-101347000D02*
X195559500Y-101347000D01*
X195162429Y-102107000D02*
X195559500Y-102107000D01*
X192849500Y-96647000D02*
X192849500Y-95377000D01*
X192849500Y-95377000D02*
X194119500Y-95377000D01*
G04 #@! TO.C,J7*
X195496000Y-72330000D02*
X195496000Y-82610000D01*
X195496000Y-82610000D02*
X198156000Y-82610000D01*
X198156000Y-82610000D02*
X198156000Y-72330000D01*
X198156000Y-72330000D02*
X195496000Y-72330000D01*
X198156000Y-73280000D02*
X204156000Y-73280000D01*
X204156000Y-73280000D02*
X204156000Y-74040000D01*
X204156000Y-74040000D02*
X198156000Y-74040000D01*
X198156000Y-73340000D02*
X204156000Y-73340000D01*
X198156000Y-73460000D02*
X204156000Y-73460000D01*
X198156000Y-73580000D02*
X204156000Y-73580000D01*
X198156000Y-73700000D02*
X204156000Y-73700000D01*
X198156000Y-73820000D02*
X204156000Y-73820000D01*
X198156000Y-73940000D02*
X204156000Y-73940000D01*
X195166000Y-73280000D02*
X195496000Y-73280000D01*
X195166000Y-74040000D02*
X195496000Y-74040000D01*
X195496000Y-74930000D02*
X198156000Y-74930000D01*
X198156000Y-75820000D02*
X204156000Y-75820000D01*
X204156000Y-75820000D02*
X204156000Y-76580000D01*
X204156000Y-76580000D02*
X198156000Y-76580000D01*
X195098929Y-75820000D02*
X195496000Y-75820000D01*
X195098929Y-76580000D02*
X195496000Y-76580000D01*
X195496000Y-77470000D02*
X198156000Y-77470000D01*
X198156000Y-78360000D02*
X204156000Y-78360000D01*
X204156000Y-78360000D02*
X204156000Y-79120000D01*
X204156000Y-79120000D02*
X198156000Y-79120000D01*
X195098929Y-78360000D02*
X195496000Y-78360000D01*
X195098929Y-79120000D02*
X195496000Y-79120000D01*
X195496000Y-80010000D02*
X198156000Y-80010000D01*
X198156000Y-80900000D02*
X204156000Y-80900000D01*
X204156000Y-80900000D02*
X204156000Y-81660000D01*
X204156000Y-81660000D02*
X198156000Y-81660000D01*
X195098929Y-80900000D02*
X195496000Y-80900000D01*
X195098929Y-81660000D02*
X195496000Y-81660000D01*
X192786000Y-73660000D02*
X192786000Y-72390000D01*
X192786000Y-72390000D02*
X194056000Y-72390000D01*
G04 #@! TO.C,J9*
X195432500Y-82553500D02*
X195432500Y-95373500D01*
X195432500Y-95373500D02*
X198092500Y-95373500D01*
X198092500Y-95373500D02*
X198092500Y-82553500D01*
X198092500Y-82553500D02*
X195432500Y-82553500D01*
X198092500Y-83503500D02*
X204092500Y-83503500D01*
X204092500Y-83503500D02*
X204092500Y-84263500D01*
X204092500Y-84263500D02*
X198092500Y-84263500D01*
X198092500Y-83563500D02*
X204092500Y-83563500D01*
X198092500Y-83683500D02*
X204092500Y-83683500D01*
X198092500Y-83803500D02*
X204092500Y-83803500D01*
X198092500Y-83923500D02*
X204092500Y-83923500D01*
X198092500Y-84043500D02*
X204092500Y-84043500D01*
X198092500Y-84163500D02*
X204092500Y-84163500D01*
X195102500Y-83503500D02*
X195432500Y-83503500D01*
X195102500Y-84263500D02*
X195432500Y-84263500D01*
X195432500Y-85153500D02*
X198092500Y-85153500D01*
X198092500Y-86043500D02*
X204092500Y-86043500D01*
X204092500Y-86043500D02*
X204092500Y-86803500D01*
X204092500Y-86803500D02*
X198092500Y-86803500D01*
X195035429Y-86043500D02*
X195432500Y-86043500D01*
X195035429Y-86803500D02*
X195432500Y-86803500D01*
X195432500Y-87693500D02*
X198092500Y-87693500D01*
X198092500Y-88583500D02*
X204092500Y-88583500D01*
X204092500Y-88583500D02*
X204092500Y-89343500D01*
X204092500Y-89343500D02*
X198092500Y-89343500D01*
X195035429Y-88583500D02*
X195432500Y-88583500D01*
X195035429Y-89343500D02*
X195432500Y-89343500D01*
X195432500Y-90233500D02*
X198092500Y-90233500D01*
X198092500Y-91123500D02*
X204092500Y-91123500D01*
X204092500Y-91123500D02*
X204092500Y-91883500D01*
X204092500Y-91883500D02*
X198092500Y-91883500D01*
X195035429Y-91123500D02*
X195432500Y-91123500D01*
X195035429Y-91883500D02*
X195432500Y-91883500D01*
X195432500Y-92773500D02*
X198092500Y-92773500D01*
X198092500Y-93663500D02*
X204092500Y-93663500D01*
X204092500Y-93663500D02*
X204092500Y-94423500D01*
X204092500Y-94423500D02*
X198092500Y-94423500D01*
X195035429Y-93663500D02*
X195432500Y-93663500D01*
X195035429Y-94423500D02*
X195432500Y-94423500D01*
X192722500Y-83883500D02*
X192722500Y-82613500D01*
X192722500Y-82613500D02*
X193992500Y-82613500D01*
G04 #@! TO.C,U1*
X150435000Y-77740000D02*
G75*
G02X150435000Y-79740000I0J-1000000D01*
G01*
X150435000Y-79740000D02*
X150435000Y-81390000D01*
X150435000Y-81390000D02*
X158175000Y-81390000D01*
X158175000Y-81390000D02*
X158175000Y-76090000D01*
X158175000Y-76090000D02*
X150435000Y-76090000D01*
X150435000Y-76090000D02*
X150435000Y-77740000D01*
D12*
G04 #@! TO.C,K1*
X127170000Y-79900000D02*
X127170000Y-72500000D01*
X142070000Y-79900000D02*
X142070000Y-72500000D01*
X142070000Y-72500000D02*
X127170000Y-72500000D01*
X142070000Y-79900000D02*
X127170000Y-79900000D01*
G04 #@! TO.C,K2*
X127170000Y-92600000D02*
X127170000Y-85200000D01*
X142070000Y-92600000D02*
X142070000Y-85200000D01*
X142070000Y-85200000D02*
X127170000Y-85200000D01*
X142070000Y-92600000D02*
X127170000Y-92600000D01*
G04 #@! TO.C,J8*
X116205000Y-72390000D02*
X123825000Y-72390000D01*
X116205000Y-92710000D02*
X116205000Y-72390000D01*
X123825000Y-92710000D02*
X116205000Y-92710000D01*
X123825000Y-72390000D02*
X123825000Y-92710000D01*
G04 #@! TO.C,J2*
X123825000Y-109728000D02*
X116205000Y-109728000D01*
X123825000Y-94488000D02*
X123825000Y-109728000D01*
X116205000Y-94488000D02*
X123825000Y-94488000D01*
X116205000Y-109728000D02*
X116205000Y-94488000D01*
D11*
G04 #@! TO.C,C3*
X162132000Y-87102000D02*
G75*
G03X162132000Y-87102000I-2620000J0D01*
G01*
X162092000Y-87102000D02*
X156932000Y-87102000D01*
X162092000Y-87142000D02*
X156932000Y-87142000D01*
X162091000Y-87182000D02*
X156933000Y-87182000D01*
X162090000Y-87222000D02*
X156934000Y-87222000D01*
X162088000Y-87262000D02*
X156936000Y-87262000D01*
X162085000Y-87302000D02*
X156939000Y-87302000D01*
X162081000Y-87342000D02*
X160552000Y-87342000D01*
X158472000Y-87342000D02*
X156943000Y-87342000D01*
X162077000Y-87382000D02*
X160552000Y-87382000D01*
X158472000Y-87382000D02*
X156947000Y-87382000D01*
X162073000Y-87422000D02*
X160552000Y-87422000D01*
X158472000Y-87422000D02*
X156951000Y-87422000D01*
X162068000Y-87462000D02*
X160552000Y-87462000D01*
X158472000Y-87462000D02*
X156956000Y-87462000D01*
X162062000Y-87502000D02*
X160552000Y-87502000D01*
X158472000Y-87502000D02*
X156962000Y-87502000D01*
X162055000Y-87542000D02*
X160552000Y-87542000D01*
X158472000Y-87542000D02*
X156969000Y-87542000D01*
X162048000Y-87582000D02*
X160552000Y-87582000D01*
X158472000Y-87582000D02*
X156976000Y-87582000D01*
X162040000Y-87622000D02*
X160552000Y-87622000D01*
X158472000Y-87622000D02*
X156984000Y-87622000D01*
X162032000Y-87662000D02*
X160552000Y-87662000D01*
X158472000Y-87662000D02*
X156992000Y-87662000D01*
X162023000Y-87702000D02*
X160552000Y-87702000D01*
X158472000Y-87702000D02*
X157001000Y-87702000D01*
X162013000Y-87742000D02*
X160552000Y-87742000D01*
X158472000Y-87742000D02*
X157011000Y-87742000D01*
X162003000Y-87782000D02*
X160552000Y-87782000D01*
X158472000Y-87782000D02*
X157021000Y-87782000D01*
X161992000Y-87823000D02*
X160552000Y-87823000D01*
X158472000Y-87823000D02*
X157032000Y-87823000D01*
X161980000Y-87863000D02*
X160552000Y-87863000D01*
X158472000Y-87863000D02*
X157044000Y-87863000D01*
X161967000Y-87903000D02*
X160552000Y-87903000D01*
X158472000Y-87903000D02*
X157057000Y-87903000D01*
X161954000Y-87943000D02*
X160552000Y-87943000D01*
X158472000Y-87943000D02*
X157070000Y-87943000D01*
X161940000Y-87983000D02*
X160552000Y-87983000D01*
X158472000Y-87983000D02*
X157084000Y-87983000D01*
X161926000Y-88023000D02*
X160552000Y-88023000D01*
X158472000Y-88023000D02*
X157098000Y-88023000D01*
X161910000Y-88063000D02*
X160552000Y-88063000D01*
X158472000Y-88063000D02*
X157114000Y-88063000D01*
X161894000Y-88103000D02*
X160552000Y-88103000D01*
X158472000Y-88103000D02*
X157130000Y-88103000D01*
X161877000Y-88143000D02*
X160552000Y-88143000D01*
X158472000Y-88143000D02*
X157147000Y-88143000D01*
X161860000Y-88183000D02*
X160552000Y-88183000D01*
X158472000Y-88183000D02*
X157164000Y-88183000D01*
X161841000Y-88223000D02*
X160552000Y-88223000D01*
X158472000Y-88223000D02*
X157183000Y-88223000D01*
X161822000Y-88263000D02*
X160552000Y-88263000D01*
X158472000Y-88263000D02*
X157202000Y-88263000D01*
X161802000Y-88303000D02*
X160552000Y-88303000D01*
X158472000Y-88303000D02*
X157222000Y-88303000D01*
X161780000Y-88343000D02*
X160552000Y-88343000D01*
X158472000Y-88343000D02*
X157244000Y-88343000D01*
X161759000Y-88383000D02*
X160552000Y-88383000D01*
X158472000Y-88383000D02*
X157265000Y-88383000D01*
X161736000Y-88423000D02*
X160552000Y-88423000D01*
X158472000Y-88423000D02*
X157288000Y-88423000D01*
X161712000Y-88463000D02*
X160552000Y-88463000D01*
X158472000Y-88463000D02*
X157312000Y-88463000D01*
X161687000Y-88503000D02*
X160552000Y-88503000D01*
X158472000Y-88503000D02*
X157337000Y-88503000D01*
X161661000Y-88543000D02*
X160552000Y-88543000D01*
X158472000Y-88543000D02*
X157363000Y-88543000D01*
X161634000Y-88583000D02*
X160552000Y-88583000D01*
X158472000Y-88583000D02*
X157390000Y-88583000D01*
X161607000Y-88623000D02*
X160552000Y-88623000D01*
X158472000Y-88623000D02*
X157417000Y-88623000D01*
X161577000Y-88663000D02*
X160552000Y-88663000D01*
X158472000Y-88663000D02*
X157447000Y-88663000D01*
X161547000Y-88703000D02*
X160552000Y-88703000D01*
X158472000Y-88703000D02*
X157477000Y-88703000D01*
X161516000Y-88743000D02*
X160552000Y-88743000D01*
X158472000Y-88743000D02*
X157508000Y-88743000D01*
X161483000Y-88783000D02*
X160552000Y-88783000D01*
X158472000Y-88783000D02*
X157541000Y-88783000D01*
X161449000Y-88823000D02*
X160552000Y-88823000D01*
X158472000Y-88823000D02*
X157575000Y-88823000D01*
X161413000Y-88863000D02*
X160552000Y-88863000D01*
X158472000Y-88863000D02*
X157611000Y-88863000D01*
X161376000Y-88903000D02*
X160552000Y-88903000D01*
X158472000Y-88903000D02*
X157648000Y-88903000D01*
X161338000Y-88943000D02*
X160552000Y-88943000D01*
X158472000Y-88943000D02*
X157686000Y-88943000D01*
X161297000Y-88983000D02*
X160552000Y-88983000D01*
X158472000Y-88983000D02*
X157727000Y-88983000D01*
X161255000Y-89023000D02*
X160552000Y-89023000D01*
X158472000Y-89023000D02*
X157769000Y-89023000D01*
X161211000Y-89063000D02*
X160552000Y-89063000D01*
X158472000Y-89063000D02*
X157813000Y-89063000D01*
X161165000Y-89103000D02*
X160552000Y-89103000D01*
X158472000Y-89103000D02*
X157859000Y-89103000D01*
X161117000Y-89143000D02*
X160552000Y-89143000D01*
X158472000Y-89143000D02*
X157907000Y-89143000D01*
X161066000Y-89183000D02*
X160552000Y-89183000D01*
X158472000Y-89183000D02*
X157958000Y-89183000D01*
X161012000Y-89223000D02*
X160552000Y-89223000D01*
X158472000Y-89223000D02*
X158012000Y-89223000D01*
X160955000Y-89263000D02*
X160552000Y-89263000D01*
X158472000Y-89263000D02*
X158069000Y-89263000D01*
X160895000Y-89303000D02*
X160552000Y-89303000D01*
X158472000Y-89303000D02*
X158129000Y-89303000D01*
X160831000Y-89343000D02*
X160552000Y-89343000D01*
X158472000Y-89343000D02*
X158193000Y-89343000D01*
X160763000Y-89383000D02*
X160552000Y-89383000D01*
X158472000Y-89383000D02*
X158261000Y-89383000D01*
X160690000Y-89423000D02*
X158334000Y-89423000D01*
X160610000Y-89463000D02*
X158414000Y-89463000D01*
X160523000Y-89503000D02*
X158501000Y-89503000D01*
X160427000Y-89543000D02*
X158597000Y-89543000D01*
X160317000Y-89583000D02*
X158707000Y-89583000D01*
X160189000Y-89623000D02*
X158835000Y-89623000D01*
X160030000Y-89663000D02*
X158994000Y-89663000D01*
X159796000Y-89703000D02*
X159228000Y-89703000D01*
X160987000Y-84297225D02*
X160987000Y-84797225D01*
X161237000Y-84547225D02*
X160737000Y-84547225D01*
G04 #@! TO.C,J3*
X163385500Y-108013500D02*
X163385500Y-109283500D01*
X162115500Y-108013500D02*
X163385500Y-108013500D01*
X159195500Y-110326429D02*
X159195500Y-110723500D01*
X159955500Y-110326429D02*
X159955500Y-110723500D01*
X159195500Y-119383500D02*
X159195500Y-113383500D01*
X159955500Y-119383500D02*
X159195500Y-119383500D01*
X159955500Y-113383500D02*
X159955500Y-119383500D01*
X160845500Y-110723500D02*
X160845500Y-113383500D01*
X161735500Y-110393500D02*
X161735500Y-110723500D01*
X162495500Y-110393500D02*
X162495500Y-110723500D01*
X161835500Y-113383500D02*
X161835500Y-119383500D01*
X161955500Y-113383500D02*
X161955500Y-119383500D01*
X162075500Y-113383500D02*
X162075500Y-119383500D01*
X162195500Y-113383500D02*
X162195500Y-119383500D01*
X162315500Y-113383500D02*
X162315500Y-119383500D01*
X162435500Y-113383500D02*
X162435500Y-119383500D01*
X161735500Y-119383500D02*
X161735500Y-113383500D01*
X162495500Y-119383500D02*
X161735500Y-119383500D01*
X162495500Y-113383500D02*
X162495500Y-119383500D01*
X163445500Y-113383500D02*
X163445500Y-110723500D01*
X158245500Y-113383500D02*
X163445500Y-113383500D01*
X158245500Y-110723500D02*
X158245500Y-113383500D01*
X163445500Y-110723500D02*
X158245500Y-110723500D01*
G04 #@! TO.C,J4*
X195559500Y-103064000D02*
X195559500Y-108264000D01*
X195559500Y-108264000D02*
X198219500Y-108264000D01*
X198219500Y-108264000D02*
X198219500Y-103064000D01*
X198219500Y-103064000D02*
X195559500Y-103064000D01*
X198219500Y-104014000D02*
X204219500Y-104014000D01*
X204219500Y-104014000D02*
X204219500Y-104774000D01*
X204219500Y-104774000D02*
X198219500Y-104774000D01*
X198219500Y-104074000D02*
X204219500Y-104074000D01*
X198219500Y-104194000D02*
X204219500Y-104194000D01*
X198219500Y-104314000D02*
X204219500Y-104314000D01*
X198219500Y-104434000D02*
X204219500Y-104434000D01*
X198219500Y-104554000D02*
X204219500Y-104554000D01*
X198219500Y-104674000D02*
X204219500Y-104674000D01*
X195229500Y-104014000D02*
X195559500Y-104014000D01*
X195229500Y-104774000D02*
X195559500Y-104774000D01*
X195559500Y-105664000D02*
X198219500Y-105664000D01*
X198219500Y-106554000D02*
X204219500Y-106554000D01*
X204219500Y-106554000D02*
X204219500Y-107314000D01*
X204219500Y-107314000D02*
X198219500Y-107314000D01*
X195162429Y-106554000D02*
X195559500Y-106554000D01*
X195162429Y-107314000D02*
X195559500Y-107314000D01*
X192849500Y-104394000D02*
X192849500Y-103124000D01*
X192849500Y-103124000D02*
X194119500Y-103124000D01*
G04 #@! TO.C,D1*
X147119000Y-100022000D02*
X147119000Y-97082000D01*
X147119000Y-97082000D02*
X141679000Y-97082000D01*
X141679000Y-97082000D02*
X141679000Y-100022000D01*
X141679000Y-100022000D02*
X147119000Y-100022000D01*
X148139000Y-98552000D02*
X147119000Y-98552000D01*
X140659000Y-98552000D02*
X141679000Y-98552000D01*
X146219000Y-100022000D02*
X146219000Y-97082000D01*
X146099000Y-100022000D02*
X146099000Y-97082000D01*
X146339000Y-100022000D02*
X146339000Y-97082000D01*
G04 #@! TO.C,J1*
X130616000Y-98238000D02*
X127956000Y-98238000D01*
X130616000Y-105918000D02*
X130616000Y-98238000D01*
X127956000Y-105918000D02*
X127956000Y-98238000D01*
X130616000Y-105918000D02*
X127956000Y-105918000D01*
X130616000Y-107188000D02*
X130616000Y-108518000D01*
X130616000Y-108518000D02*
X129286000Y-108518000D01*
G04 #@! TO.C,R1*
X131350000Y-81180000D02*
X131350000Y-81510000D01*
X137890000Y-81180000D02*
X131350000Y-81180000D01*
X137890000Y-81510000D02*
X137890000Y-81180000D01*
X131350000Y-83920000D02*
X131350000Y-83590000D01*
X137890000Y-83920000D02*
X131350000Y-83920000D01*
X137890000Y-83590000D02*
X137890000Y-83920000D01*
G04 #@! TO.C,R2*
X150852000Y-93694000D02*
X150522000Y-93694000D01*
X150522000Y-93694000D02*
X150522000Y-87154000D01*
X150522000Y-87154000D02*
X150852000Y-87154000D01*
X152932000Y-93694000D02*
X153262000Y-93694000D01*
X153262000Y-93694000D02*
X153262000Y-87154000D01*
X153262000Y-87154000D02*
X152932000Y-87154000D01*
G04 #@! TO.C,R3*
X180816500Y-105564000D02*
X180816500Y-105894000D01*
X187356500Y-105564000D02*
X180816500Y-105564000D01*
X187356500Y-105894000D02*
X187356500Y-105564000D01*
X180816500Y-108304000D02*
X180816500Y-107974000D01*
X187356500Y-108304000D02*
X180816500Y-108304000D01*
X187356500Y-107974000D02*
X187356500Y-108304000D01*
G04 #@! TO.C,J10*
D13*
X148668619Y-93478047D02*
X147652619Y-93478047D01*
X147652619Y-93091000D01*
X147701000Y-92994238D01*
X147749380Y-92945857D01*
X147846142Y-92897476D01*
X147991285Y-92897476D01*
X148088047Y-92945857D01*
X148136428Y-92994238D01*
X148184809Y-93091000D01*
X148184809Y-93478047D01*
X147652619Y-92462047D02*
X148475095Y-92462047D01*
X148571857Y-92413666D01*
X148620238Y-92365285D01*
X148668619Y-92268523D01*
X148668619Y-92075000D01*
X148620238Y-91978238D01*
X148571857Y-91929857D01*
X148475095Y-91881476D01*
X147652619Y-91881476D01*
X148668619Y-90913857D02*
X148668619Y-91397666D01*
X147652619Y-91397666D01*
X148620238Y-90623571D02*
X148668619Y-90478428D01*
X148668619Y-90236523D01*
X148620238Y-90139761D01*
X148571857Y-90091380D01*
X148475095Y-90043000D01*
X148378333Y-90043000D01*
X148281571Y-90091380D01*
X148233190Y-90139761D01*
X148184809Y-90236523D01*
X148136428Y-90430047D01*
X148088047Y-90526809D01*
X148039666Y-90575190D01*
X147942904Y-90623571D01*
X147846142Y-90623571D01*
X147749380Y-90575190D01*
X147701000Y-90526809D01*
X147652619Y-90430047D01*
X147652619Y-90188142D01*
X147701000Y-90043000D01*
X148136428Y-89607571D02*
X148136428Y-89268904D01*
X148668619Y-89123761D02*
X148668619Y-89607571D01*
X147652619Y-89607571D01*
X147652619Y-89123761D01*
X147652619Y-88059380D02*
X147652619Y-87478809D01*
X148668619Y-87769095D02*
X147652619Y-87769095D01*
X148668619Y-87140142D02*
X147652619Y-87140142D01*
X147652619Y-86753095D01*
X147701000Y-86656333D01*
X147749380Y-86607952D01*
X147846142Y-86559571D01*
X147991285Y-86559571D01*
X148088047Y-86607952D01*
X148136428Y-86656333D01*
X148184809Y-86753095D01*
X148184809Y-87140142D01*
G04 #@! TO.C,A1*
D14*
X92876666Y-92662285D02*
X92876666Y-92186095D01*
X93162380Y-92757523D02*
X92162380Y-92424190D01*
X93162380Y-92090857D01*
X93162380Y-91233714D02*
X93162380Y-91805142D01*
X93162380Y-91519428D02*
X92162380Y-91519428D01*
X92305238Y-91614666D01*
X92400476Y-91709904D01*
X92448095Y-91805142D01*
X212256666Y-101574952D02*
X212256666Y-101098761D01*
X212542380Y-101670190D02*
X211542380Y-101336857D01*
X212542380Y-101003523D01*
X212542380Y-100670190D02*
X211875714Y-100670190D01*
X212066190Y-100670190D02*
X211970952Y-100622571D01*
X211923333Y-100574952D01*
X211875714Y-100479714D01*
X211875714Y-100384476D01*
X212542380Y-99622571D02*
X211542380Y-99622571D01*
X212494761Y-99622571D02*
X212542380Y-99717809D01*
X212542380Y-99908285D01*
X212494761Y-100003523D01*
X212447142Y-100051142D01*
X212351904Y-100098761D01*
X212066190Y-100098761D01*
X211970952Y-100051142D01*
X211923333Y-100003523D01*
X211875714Y-99908285D01*
X211875714Y-99717809D01*
X211923333Y-99622571D01*
X211875714Y-98717809D02*
X212542380Y-98717809D01*
X211875714Y-99146380D02*
X212399523Y-99146380D01*
X212494761Y-99098761D01*
X212542380Y-99003523D01*
X212542380Y-98860666D01*
X212494761Y-98765428D01*
X212447142Y-98717809D01*
X212542380Y-98241619D02*
X211875714Y-98241619D01*
X211542380Y-98241619D02*
X211590000Y-98289238D01*
X211637619Y-98241619D01*
X211590000Y-98194000D01*
X211542380Y-98241619D01*
X211637619Y-98241619D01*
X211875714Y-97765428D02*
X212542380Y-97765428D01*
X211970952Y-97765428D02*
X211923333Y-97717809D01*
X211875714Y-97622571D01*
X211875714Y-97479714D01*
X211923333Y-97384476D01*
X212018571Y-97336857D01*
X212542380Y-97336857D01*
X212542380Y-96717809D02*
X212494761Y-96813047D01*
X212447142Y-96860666D01*
X212351904Y-96908285D01*
X212066190Y-96908285D01*
X211970952Y-96860666D01*
X211923333Y-96813047D01*
X211875714Y-96717809D01*
X211875714Y-96574952D01*
X211923333Y-96479714D01*
X211970952Y-96432095D01*
X212066190Y-96384476D01*
X212351904Y-96384476D01*
X212447142Y-96432095D01*
X212494761Y-96479714D01*
X212542380Y-96574952D01*
X212542380Y-96717809D01*
X212637619Y-96194000D02*
X212637619Y-95432095D01*
X212542380Y-95194000D02*
X211542380Y-95194000D01*
X212256666Y-94860666D01*
X211542380Y-94527333D01*
X212542380Y-94527333D01*
X212494761Y-93670190D02*
X212542380Y-93765428D01*
X212542380Y-93955904D01*
X212494761Y-94051142D01*
X212399523Y-94098761D01*
X212018571Y-94098761D01*
X211923333Y-94051142D01*
X211875714Y-93955904D01*
X211875714Y-93765428D01*
X211923333Y-93670190D01*
X212018571Y-93622571D01*
X212113809Y-93622571D01*
X212209047Y-94098761D01*
X211875714Y-92765428D02*
X212685238Y-92765428D01*
X212780476Y-92813047D01*
X212828095Y-92860666D01*
X212875714Y-92955904D01*
X212875714Y-93098761D01*
X212828095Y-93194000D01*
X212494761Y-92765428D02*
X212542380Y-92860666D01*
X212542380Y-93051142D01*
X212494761Y-93146380D01*
X212447142Y-93194000D01*
X212351904Y-93241619D01*
X212066190Y-93241619D01*
X211970952Y-93194000D01*
X211923333Y-93146380D01*
X211875714Y-93051142D01*
X211875714Y-92860666D01*
X211923333Y-92765428D01*
X212542380Y-91860666D02*
X212018571Y-91860666D01*
X211923333Y-91908285D01*
X211875714Y-92003523D01*
X211875714Y-92194000D01*
X211923333Y-92289238D01*
X212494761Y-91860666D02*
X212542380Y-91955904D01*
X212542380Y-92194000D01*
X212494761Y-92289238D01*
X212399523Y-92336857D01*
X212304285Y-92336857D01*
X212209047Y-92289238D01*
X212161428Y-92194000D01*
X212161428Y-91955904D01*
X212113809Y-91860666D01*
X212637619Y-91622571D02*
X212637619Y-90860666D01*
X211637619Y-90670190D02*
X211590000Y-90622571D01*
X211542380Y-90527333D01*
X211542380Y-90289238D01*
X211590000Y-90194000D01*
X211637619Y-90146380D01*
X211732857Y-90098761D01*
X211828095Y-90098761D01*
X211970952Y-90146380D01*
X212542380Y-90717809D01*
X212542380Y-90098761D01*
X211542380Y-89194000D02*
X211542380Y-89670190D01*
X212018571Y-89717809D01*
X211970952Y-89670190D01*
X211923333Y-89574952D01*
X211923333Y-89336857D01*
X211970952Y-89241619D01*
X212018571Y-89194000D01*
X212113809Y-89146380D01*
X212351904Y-89146380D01*
X212447142Y-89194000D01*
X212494761Y-89241619D01*
X212542380Y-89336857D01*
X212542380Y-89574952D01*
X212494761Y-89670190D01*
X212447142Y-89717809D01*
X211542380Y-88289238D02*
X211542380Y-88479714D01*
X211590000Y-88574952D01*
X211637619Y-88622571D01*
X211780476Y-88717809D01*
X211970952Y-88765428D01*
X212351904Y-88765428D01*
X212447142Y-88717809D01*
X212494761Y-88670190D01*
X212542380Y-88574952D01*
X212542380Y-88384476D01*
X212494761Y-88289238D01*
X212447142Y-88241619D01*
X212351904Y-88194000D01*
X212113809Y-88194000D01*
X212018571Y-88241619D01*
X211970952Y-88289238D01*
X211923333Y-88384476D01*
X211923333Y-88574952D01*
X211970952Y-88670190D01*
X212018571Y-88717809D01*
X212113809Y-88765428D01*
X211542380Y-87574952D02*
X211542380Y-87479714D01*
X211590000Y-87384476D01*
X211637619Y-87336857D01*
X211732857Y-87289238D01*
X211923333Y-87241619D01*
X212161428Y-87241619D01*
X212351904Y-87289238D01*
X212447142Y-87336857D01*
X212494761Y-87384476D01*
X212542380Y-87479714D01*
X212542380Y-87574952D01*
X212494761Y-87670190D01*
X212447142Y-87717809D01*
X212351904Y-87765428D01*
X212161428Y-87813047D01*
X211923333Y-87813047D01*
X211732857Y-87765428D01*
X211637619Y-87717809D01*
X211590000Y-87670190D01*
X211542380Y-87574952D01*
X212637619Y-87051142D02*
X212637619Y-86289238D01*
X212542380Y-86051142D02*
X211542380Y-86051142D01*
X212256666Y-85717809D01*
X211542380Y-85384476D01*
X212542380Y-85384476D01*
X212542380Y-84765428D02*
X212494761Y-84860666D01*
X212447142Y-84908285D01*
X212351904Y-84955904D01*
X212066190Y-84955904D01*
X211970952Y-84908285D01*
X211923333Y-84860666D01*
X211875714Y-84765428D01*
X211875714Y-84622571D01*
X211923333Y-84527333D01*
X211970952Y-84479714D01*
X212066190Y-84432095D01*
X212351904Y-84432095D01*
X212447142Y-84479714D01*
X212494761Y-84527333D01*
X212542380Y-84622571D01*
X212542380Y-84765428D01*
X212542380Y-83574952D02*
X211542380Y-83574952D01*
X212494761Y-83574952D02*
X212542380Y-83670190D01*
X212542380Y-83860666D01*
X212494761Y-83955904D01*
X212447142Y-84003523D01*
X212351904Y-84051142D01*
X212066190Y-84051142D01*
X211970952Y-84003523D01*
X211923333Y-83955904D01*
X211875714Y-83860666D01*
X211875714Y-83670190D01*
X211923333Y-83574952D01*
X212637619Y-83336857D02*
X212637619Y-82574952D01*
X212542380Y-81813047D02*
X212542380Y-82384476D01*
X212542380Y-82098761D02*
X211542380Y-82098761D01*
X211685238Y-82194000D01*
X211780476Y-82289238D01*
X211828095Y-82384476D01*
G04 #@! TO.C,C1*
D13*
X163660666Y-92056857D02*
X163612285Y-92105238D01*
X163467142Y-92153619D01*
X163370380Y-92153619D01*
X163225238Y-92105238D01*
X163128476Y-92008476D01*
X163080095Y-91911714D01*
X163031714Y-91718190D01*
X163031714Y-91573047D01*
X163080095Y-91379523D01*
X163128476Y-91282761D01*
X163225238Y-91186000D01*
X163370380Y-91137619D01*
X163467142Y-91137619D01*
X163612285Y-91186000D01*
X163660666Y-91234380D01*
X164628285Y-92153619D02*
X164047714Y-92153619D01*
X164338000Y-92153619D02*
X164338000Y-91137619D01*
X164241238Y-91282761D01*
X164144476Y-91379523D01*
X164047714Y-91427904D01*
X163757428Y-93804619D02*
X163176857Y-93804619D01*
X163467142Y-93804619D02*
X163467142Y-92788619D01*
X163370380Y-92933761D01*
X163273619Y-93030523D01*
X163176857Y-93078904D01*
X164386380Y-92788619D02*
X164483142Y-92788619D01*
X164579904Y-92837000D01*
X164628285Y-92885380D01*
X164676666Y-92982142D01*
X164725047Y-93175666D01*
X164725047Y-93417571D01*
X164676666Y-93611095D01*
X164628285Y-93707857D01*
X164579904Y-93756238D01*
X164483142Y-93804619D01*
X164386380Y-93804619D01*
X164289619Y-93756238D01*
X164241238Y-93707857D01*
X164192857Y-93611095D01*
X164144476Y-93417571D01*
X164144476Y-93175666D01*
X164192857Y-92982142D01*
X164241238Y-92885380D01*
X164289619Y-92837000D01*
X164386380Y-92788619D01*
X165595904Y-93127285D02*
X165595904Y-93804619D01*
X165160476Y-93127285D02*
X165160476Y-93659476D01*
X165208857Y-93756238D01*
X165305619Y-93804619D01*
X165450761Y-93804619D01*
X165547523Y-93756238D01*
X165595904Y-93707857D01*
X166418380Y-93272428D02*
X166079714Y-93272428D01*
X166079714Y-93804619D02*
X166079714Y-92788619D01*
X166563523Y-92788619D01*
G04 #@! TO.C,C2*
D15*
X146412857Y-78909333D02*
X146461238Y-78957714D01*
X146509619Y-79102857D01*
X146509619Y-79199619D01*
X146461238Y-79344761D01*
X146364476Y-79441523D01*
X146267714Y-79489904D01*
X146074190Y-79538285D01*
X145929047Y-79538285D01*
X145735523Y-79489904D01*
X145638761Y-79441523D01*
X145542000Y-79344761D01*
X145493619Y-79199619D01*
X145493619Y-79102857D01*
X145542000Y-78957714D01*
X145590380Y-78909333D01*
X145590380Y-78522285D02*
X145542000Y-78473904D01*
X145493619Y-78377142D01*
X145493619Y-78135238D01*
X145542000Y-78038476D01*
X145590380Y-77990095D01*
X145687142Y-77941714D01*
X145783904Y-77941714D01*
X145929047Y-77990095D01*
X146509619Y-78570666D01*
X146509619Y-77941714D01*
D13*
X148160619Y-80892952D02*
X148160619Y-80796190D01*
X148209000Y-80699428D01*
X148257380Y-80651047D01*
X148354142Y-80602666D01*
X148547666Y-80554285D01*
X148789571Y-80554285D01*
X148983095Y-80602666D01*
X149079857Y-80651047D01*
X149128238Y-80699428D01*
X149176619Y-80796190D01*
X149176619Y-80892952D01*
X149128238Y-80989714D01*
X149079857Y-81038095D01*
X148983095Y-81086476D01*
X148789571Y-81134857D01*
X148547666Y-81134857D01*
X148354142Y-81086476D01*
X148257380Y-81038095D01*
X148209000Y-80989714D01*
X148160619Y-80892952D01*
X149079857Y-80118857D02*
X149128238Y-80070476D01*
X149176619Y-80118857D01*
X149128238Y-80167238D01*
X149079857Y-80118857D01*
X149176619Y-80118857D01*
X148257380Y-79683428D02*
X148209000Y-79635047D01*
X148160619Y-79538285D01*
X148160619Y-79296380D01*
X148209000Y-79199619D01*
X148257380Y-79151238D01*
X148354142Y-79102857D01*
X148450904Y-79102857D01*
X148596047Y-79151238D01*
X149176619Y-79731809D01*
X149176619Y-79102857D01*
X148257380Y-78715809D02*
X148209000Y-78667428D01*
X148160619Y-78570666D01*
X148160619Y-78328761D01*
X148209000Y-78232000D01*
X148257380Y-78183619D01*
X148354142Y-78135238D01*
X148450904Y-78135238D01*
X148596047Y-78183619D01*
X149176619Y-78764190D01*
X149176619Y-78135238D01*
X148499285Y-77264380D02*
X149176619Y-77264380D01*
X148499285Y-77699809D02*
X149031476Y-77699809D01*
X149128238Y-77651428D01*
X149176619Y-77554666D01*
X149176619Y-77409523D01*
X149128238Y-77312761D01*
X149079857Y-77264380D01*
X148644428Y-76441904D02*
X148644428Y-76780571D01*
X149176619Y-76780571D02*
X148160619Y-76780571D01*
X148160619Y-76296761D01*
G04 #@! TO.C,J5*
X196293619Y-110828666D02*
X197019333Y-110828666D01*
X197164476Y-110877047D01*
X197261238Y-110973809D01*
X197309619Y-111118952D01*
X197309619Y-111215714D01*
X196293619Y-109861047D02*
X196293619Y-110344857D01*
X196777428Y-110393238D01*
X196729047Y-110344857D01*
X196680666Y-110248095D01*
X196680666Y-110006190D01*
X196729047Y-109909428D01*
X196777428Y-109861047D01*
X196874190Y-109812666D01*
X197116095Y-109812666D01*
X197212857Y-109861047D01*
X197261238Y-109909428D01*
X197309619Y-110006190D01*
X197309619Y-110248095D01*
X197261238Y-110344857D01*
X197212857Y-110393238D01*
X192483619Y-111965619D02*
X191999809Y-112304285D01*
X192483619Y-112546190D02*
X191467619Y-112546190D01*
X191467619Y-112159142D01*
X191516000Y-112062380D01*
X191564380Y-112014000D01*
X191661142Y-111965619D01*
X191806285Y-111965619D01*
X191903047Y-112014000D01*
X191951428Y-112062380D01*
X191999809Y-112159142D01*
X191999809Y-112546190D01*
X191951428Y-111530190D02*
X191951428Y-111191523D01*
X192483619Y-111046380D02*
X192483619Y-111530190D01*
X191467619Y-111530190D01*
X191467619Y-111046380D01*
X192435238Y-110659333D02*
X192483619Y-110514190D01*
X192483619Y-110272285D01*
X192435238Y-110175523D01*
X192386857Y-110127142D01*
X192290095Y-110078761D01*
X192193333Y-110078761D01*
X192096571Y-110127142D01*
X192048190Y-110175523D01*
X191999809Y-110272285D01*
X191951428Y-110465809D01*
X191903047Y-110562571D01*
X191854666Y-110610952D01*
X191757904Y-110659333D01*
X191661142Y-110659333D01*
X191564380Y-110610952D01*
X191516000Y-110562571D01*
X191467619Y-110465809D01*
X191467619Y-110223904D01*
X191516000Y-110078761D01*
X191951428Y-109643333D02*
X191951428Y-109304666D01*
X192483619Y-109159523D02*
X192483619Y-109643333D01*
X191467619Y-109643333D01*
X191467619Y-109159523D01*
X191467619Y-108869238D02*
X191467619Y-108288666D01*
X192483619Y-108578952D02*
X191467619Y-108578952D01*
G04 #@! TO.C,J6*
X196547619Y-99652666D02*
X197273333Y-99652666D01*
X197418476Y-99701047D01*
X197515238Y-99797809D01*
X197563619Y-99942952D01*
X197563619Y-100039714D01*
X196547619Y-98733428D02*
X196547619Y-98926952D01*
X196596000Y-99023714D01*
X196644380Y-99072095D01*
X196789523Y-99168857D01*
X196983047Y-99217238D01*
X197370095Y-99217238D01*
X197466857Y-99168857D01*
X197515238Y-99120476D01*
X197563619Y-99023714D01*
X197563619Y-98830190D01*
X197515238Y-98733428D01*
X197466857Y-98685047D01*
X197370095Y-98636666D01*
X197128190Y-98636666D01*
X197031428Y-98685047D01*
X196983047Y-98733428D01*
X196934666Y-98830190D01*
X196934666Y-99023714D01*
X196983047Y-99120476D01*
X197031428Y-99168857D01*
X197128190Y-99217238D01*
X192320333Y-101237142D02*
X192320333Y-100753333D01*
X192610619Y-101333904D02*
X191594619Y-100995238D01*
X192610619Y-100656571D01*
X191594619Y-100414666D02*
X191594619Y-99737333D01*
X192610619Y-100414666D01*
X192610619Y-99737333D01*
X192562238Y-98624571D02*
X192610619Y-98479428D01*
X192610619Y-98237523D01*
X192562238Y-98140761D01*
X192513857Y-98092380D01*
X192417095Y-98044000D01*
X192320333Y-98044000D01*
X192223571Y-98092380D01*
X192175190Y-98140761D01*
X192126809Y-98237523D01*
X192078428Y-98431047D01*
X192030047Y-98527809D01*
X191981666Y-98576190D01*
X191884904Y-98624571D01*
X191788142Y-98624571D01*
X191691380Y-98576190D01*
X191643000Y-98527809D01*
X191594619Y-98431047D01*
X191594619Y-98189142D01*
X191643000Y-98044000D01*
X191594619Y-97705333D02*
X192610619Y-97463428D01*
X191884904Y-97269904D01*
X192610619Y-97076380D01*
X191594619Y-96834476D01*
G04 #@! TO.C,J7*
X196293619Y-77808666D02*
X197019333Y-77808666D01*
X197164476Y-77857047D01*
X197261238Y-77953809D01*
X197309619Y-78098952D01*
X197309619Y-78195714D01*
X196293619Y-77421619D02*
X196293619Y-76744285D01*
X197309619Y-77179714D01*
X192610619Y-80251904D02*
X191594619Y-80251904D01*
X191594619Y-80010000D01*
X191643000Y-79864857D01*
X191739761Y-79768095D01*
X191836523Y-79719714D01*
X192030047Y-79671333D01*
X192175190Y-79671333D01*
X192368714Y-79719714D01*
X192465476Y-79768095D01*
X192562238Y-79864857D01*
X192610619Y-80010000D01*
X192610619Y-80251904D01*
X192610619Y-79235904D02*
X191594619Y-79235904D01*
X192562238Y-78800476D02*
X192610619Y-78655333D01*
X192610619Y-78413428D01*
X192562238Y-78316666D01*
X192513857Y-78268285D01*
X192417095Y-78219904D01*
X192320333Y-78219904D01*
X192223571Y-78268285D01*
X192175190Y-78316666D01*
X192126809Y-78413428D01*
X192078428Y-78606952D01*
X192030047Y-78703714D01*
X191981666Y-78752095D01*
X191884904Y-78800476D01*
X191788142Y-78800476D01*
X191691380Y-78752095D01*
X191643000Y-78703714D01*
X191594619Y-78606952D01*
X191594619Y-78365047D01*
X191643000Y-78219904D01*
X192610619Y-77784476D02*
X191594619Y-77784476D01*
X191594619Y-77397428D01*
X191643000Y-77300666D01*
X191691380Y-77252285D01*
X191788142Y-77203904D01*
X191933285Y-77203904D01*
X192030047Y-77252285D01*
X192078428Y-77300666D01*
X192126809Y-77397428D01*
X192126809Y-77784476D01*
X192610619Y-76284666D02*
X192610619Y-76768476D01*
X191594619Y-76768476D01*
X192320333Y-75994380D02*
X192320333Y-75510571D01*
X192610619Y-76091142D02*
X191594619Y-75752476D01*
X192610619Y-75413809D01*
X192126809Y-74881619D02*
X192610619Y-74881619D01*
X191594619Y-75220285D02*
X192126809Y-74881619D01*
X191594619Y-74542952D01*
G04 #@! TO.C,J9*
X196293619Y-89238666D02*
X197019333Y-89238666D01*
X197164476Y-89287047D01*
X197261238Y-89383809D01*
X197309619Y-89528952D01*
X197309619Y-89625714D01*
X197309619Y-88706476D02*
X197309619Y-88512952D01*
X197261238Y-88416190D01*
X197212857Y-88367809D01*
X197067714Y-88271047D01*
X196874190Y-88222666D01*
X196487142Y-88222666D01*
X196390380Y-88271047D01*
X196342000Y-88319428D01*
X196293619Y-88416190D01*
X196293619Y-88609714D01*
X196342000Y-88706476D01*
X196390380Y-88754857D01*
X196487142Y-88803238D01*
X196729047Y-88803238D01*
X196825809Y-88754857D01*
X196874190Y-88706476D01*
X196922571Y-88609714D01*
X196922571Y-88416190D01*
X196874190Y-88319428D01*
X196825809Y-88271047D01*
X196729047Y-88222666D01*
X191951428Y-92165714D02*
X191951428Y-91827047D01*
X192483619Y-91681904D02*
X192483619Y-92165714D01*
X191467619Y-92165714D01*
X191467619Y-91681904D01*
X192483619Y-91246476D02*
X191467619Y-91246476D01*
X192483619Y-90665904D01*
X191467619Y-90665904D01*
X192386857Y-89601523D02*
X192435238Y-89649904D01*
X192483619Y-89795047D01*
X192483619Y-89891809D01*
X192435238Y-90036952D01*
X192338476Y-90133714D01*
X192241714Y-90182095D01*
X192048190Y-90230476D01*
X191903047Y-90230476D01*
X191709523Y-90182095D01*
X191612761Y-90133714D01*
X191516000Y-90036952D01*
X191467619Y-89891809D01*
X191467619Y-89795047D01*
X191516000Y-89649904D01*
X191564380Y-89601523D01*
X191467619Y-88972571D02*
X191467619Y-88779047D01*
X191516000Y-88682285D01*
X191612761Y-88585523D01*
X191806285Y-88537142D01*
X192144952Y-88537142D01*
X192338476Y-88585523D01*
X192435238Y-88682285D01*
X192483619Y-88779047D01*
X192483619Y-88972571D01*
X192435238Y-89069333D01*
X192338476Y-89166095D01*
X192144952Y-89214476D01*
X191806285Y-89214476D01*
X191612761Y-89166095D01*
X191516000Y-89069333D01*
X191467619Y-88972571D01*
X192483619Y-88101714D02*
X191467619Y-88101714D01*
X191467619Y-87859809D01*
X191516000Y-87714666D01*
X191612761Y-87617904D01*
X191709523Y-87569523D01*
X191903047Y-87521142D01*
X192048190Y-87521142D01*
X192241714Y-87569523D01*
X192338476Y-87617904D01*
X192435238Y-87714666D01*
X192483619Y-87859809D01*
X192483619Y-88101714D01*
X191951428Y-87085714D02*
X191951428Y-86747047D01*
X192483619Y-86601904D02*
X192483619Y-87085714D01*
X191467619Y-87085714D01*
X191467619Y-86601904D01*
X192483619Y-85585904D02*
X191999809Y-85924571D01*
X192483619Y-86166476D02*
X191467619Y-86166476D01*
X191467619Y-85779428D01*
X191516000Y-85682666D01*
X191564380Y-85634285D01*
X191661142Y-85585904D01*
X191806285Y-85585904D01*
X191903047Y-85634285D01*
X191951428Y-85682666D01*
X191999809Y-85779428D01*
X191999809Y-86166476D01*
G04 #@! TO.C,U1*
X153494619Y-79514095D02*
X154317095Y-79514095D01*
X154413857Y-79465714D01*
X154462238Y-79417333D01*
X154510619Y-79320571D01*
X154510619Y-79127047D01*
X154462238Y-79030285D01*
X154413857Y-78981904D01*
X154317095Y-78933523D01*
X153494619Y-78933523D01*
X154510619Y-77917523D02*
X154510619Y-78498095D01*
X154510619Y-78207809D02*
X153494619Y-78207809D01*
X153639761Y-78304571D01*
X153736523Y-78401333D01*
X153784904Y-78498095D01*
X159844619Y-81449333D02*
X159844619Y-81933142D01*
X158828619Y-81933142D01*
X159747857Y-80530095D02*
X159796238Y-80578476D01*
X159844619Y-80723619D01*
X159844619Y-80820380D01*
X159796238Y-80965523D01*
X159699476Y-81062285D01*
X159602714Y-81110666D01*
X159409190Y-81159047D01*
X159264047Y-81159047D01*
X159070523Y-81110666D01*
X158973761Y-81062285D01*
X158877000Y-80965523D01*
X158828619Y-80820380D01*
X158828619Y-80723619D01*
X158877000Y-80578476D01*
X158925380Y-80530095D01*
X159554333Y-80143047D02*
X159554333Y-79659238D01*
X159844619Y-80239809D02*
X158828619Y-79901142D01*
X159844619Y-79562476D01*
X159457571Y-79223809D02*
X159457571Y-78449714D01*
X159844619Y-77433714D02*
X159844619Y-78014285D01*
X159844619Y-77724000D02*
X158828619Y-77724000D01*
X158973761Y-77820761D01*
X159070523Y-77917523D01*
X159118904Y-78014285D01*
X159844619Y-76466095D02*
X159844619Y-77046666D01*
X159844619Y-76756380D02*
X158828619Y-76756380D01*
X158973761Y-76853142D01*
X159070523Y-76949904D01*
X159118904Y-77046666D01*
X158828619Y-75837142D02*
X158828619Y-75740380D01*
X158877000Y-75643619D01*
X158925380Y-75595238D01*
X159022142Y-75546857D01*
X159215666Y-75498476D01*
X159457571Y-75498476D01*
X159651095Y-75546857D01*
X159747857Y-75595238D01*
X159796238Y-75643619D01*
X159844619Y-75740380D01*
X159844619Y-75837142D01*
X159796238Y-75933904D01*
X159747857Y-75982285D01*
X159651095Y-76030666D01*
X159457571Y-76079047D01*
X159215666Y-76079047D01*
X159022142Y-76030666D01*
X158925380Y-75982285D01*
X158877000Y-75933904D01*
X158828619Y-75837142D01*
G04 #@! TO.C,K1*
X143715619Y-76949904D02*
X142699619Y-76949904D01*
X143715619Y-76369333D02*
X143135047Y-76804761D01*
X142699619Y-76369333D02*
X143280190Y-76949904D01*
X143715619Y-75401714D02*
X143715619Y-75982285D01*
X143715619Y-75692000D02*
X142699619Y-75692000D01*
X142844761Y-75788761D01*
X142941523Y-75885523D01*
X142989904Y-75982285D01*
X132757333Y-71833619D02*
X132757333Y-70817619D01*
X133096000Y-71543333D01*
X133434666Y-70817619D01*
X133434666Y-71833619D01*
X134063619Y-71833619D02*
X133966857Y-71785238D01*
X133918476Y-71736857D01*
X133870095Y-71640095D01*
X133870095Y-71349809D01*
X133918476Y-71253047D01*
X133966857Y-71204666D01*
X134063619Y-71156285D01*
X134208761Y-71156285D01*
X134305523Y-71204666D01*
X134353904Y-71253047D01*
X134402285Y-71349809D01*
X134402285Y-71640095D01*
X134353904Y-71736857D01*
X134305523Y-71785238D01*
X134208761Y-71833619D01*
X134063619Y-71833619D01*
X134692571Y-71156285D02*
X135079619Y-71156285D01*
X134837714Y-70817619D02*
X134837714Y-71688476D01*
X134886095Y-71785238D01*
X134982857Y-71833619D01*
X135079619Y-71833619D01*
X135563428Y-71833619D02*
X135466666Y-71785238D01*
X135418285Y-71736857D01*
X135369904Y-71640095D01*
X135369904Y-71349809D01*
X135418285Y-71253047D01*
X135466666Y-71204666D01*
X135563428Y-71156285D01*
X135708571Y-71156285D01*
X135805333Y-71204666D01*
X135853714Y-71253047D01*
X135902095Y-71349809D01*
X135902095Y-71640095D01*
X135853714Y-71736857D01*
X135805333Y-71785238D01*
X135708571Y-71833619D01*
X135563428Y-71833619D01*
X136337523Y-71833619D02*
X136337523Y-71156285D01*
X136337523Y-71349809D02*
X136385904Y-71253047D01*
X136434285Y-71204666D01*
X136531047Y-71156285D01*
X136627809Y-71156285D01*
D16*
X141859047Y-71445428D02*
X142620952Y-71445428D01*
X142240000Y-71826380D02*
X142240000Y-71064476D01*
G04 #@! TO.C,K2*
D13*
X143715619Y-89649904D02*
X142699619Y-89649904D01*
X143715619Y-89069333D02*
X143135047Y-89504761D01*
X142699619Y-89069333D02*
X143280190Y-89649904D01*
X142796380Y-88682285D02*
X142748000Y-88633904D01*
X142699619Y-88537142D01*
X142699619Y-88295238D01*
X142748000Y-88198476D01*
X142796380Y-88150095D01*
X142893142Y-88101714D01*
X142989904Y-88101714D01*
X143135047Y-88150095D01*
X143715619Y-88730666D01*
X143715619Y-88101714D01*
X131475238Y-94693619D02*
X131475238Y-93677619D01*
X131717142Y-93677619D01*
X131862285Y-93726000D01*
X131959047Y-93822761D01*
X132007428Y-93919523D01*
X132055809Y-94113047D01*
X132055809Y-94258190D01*
X132007428Y-94451714D01*
X131959047Y-94548476D01*
X131862285Y-94645238D01*
X131717142Y-94693619D01*
X131475238Y-94693619D01*
X132491238Y-94693619D02*
X132491238Y-94016285D01*
X132491238Y-93677619D02*
X132442857Y-93726000D01*
X132491238Y-93774380D01*
X132539619Y-93726000D01*
X132491238Y-93677619D01*
X132491238Y-93774380D01*
X132975047Y-94693619D02*
X132975047Y-94016285D01*
X132975047Y-94209809D02*
X133023428Y-94113047D01*
X133071809Y-94064666D01*
X133168571Y-94016285D01*
X133265333Y-94016285D01*
X133991047Y-94645238D02*
X133894285Y-94693619D01*
X133700761Y-94693619D01*
X133604000Y-94645238D01*
X133555619Y-94548476D01*
X133555619Y-94161428D01*
X133604000Y-94064666D01*
X133700761Y-94016285D01*
X133894285Y-94016285D01*
X133991047Y-94064666D01*
X134039428Y-94161428D01*
X134039428Y-94258190D01*
X133555619Y-94354952D01*
X134910285Y-94645238D02*
X134813523Y-94693619D01*
X134620000Y-94693619D01*
X134523238Y-94645238D01*
X134474857Y-94596857D01*
X134426476Y-94500095D01*
X134426476Y-94209809D01*
X134474857Y-94113047D01*
X134523238Y-94064666D01*
X134620000Y-94016285D01*
X134813523Y-94016285D01*
X134910285Y-94064666D01*
X135200571Y-94016285D02*
X135587619Y-94016285D01*
X135345714Y-93677619D02*
X135345714Y-94548476D01*
X135394095Y-94645238D01*
X135490857Y-94693619D01*
X135587619Y-94693619D01*
X135926285Y-94693619D02*
X135926285Y-94016285D01*
X135926285Y-93677619D02*
X135877904Y-93726000D01*
X135926285Y-93774380D01*
X135974666Y-93726000D01*
X135926285Y-93677619D01*
X135926285Y-93774380D01*
X136555238Y-94693619D02*
X136458476Y-94645238D01*
X136410095Y-94596857D01*
X136361714Y-94500095D01*
X136361714Y-94209809D01*
X136410095Y-94113047D01*
X136458476Y-94064666D01*
X136555238Y-94016285D01*
X136700380Y-94016285D01*
X136797142Y-94064666D01*
X136845523Y-94113047D01*
X136893904Y-94209809D01*
X136893904Y-94500095D01*
X136845523Y-94596857D01*
X136797142Y-94645238D01*
X136700380Y-94693619D01*
X136555238Y-94693619D01*
X137329333Y-94016285D02*
X137329333Y-94693619D01*
X137329333Y-94113047D02*
X137377714Y-94064666D01*
X137474476Y-94016285D01*
X137619619Y-94016285D01*
X137716380Y-94064666D01*
X137764761Y-94161428D01*
X137764761Y-94693619D01*
D16*
X141859047Y-84145428D02*
X142620952Y-84145428D01*
X142240000Y-84526380D02*
X142240000Y-83764476D01*
G04 #@! TO.C,J8*
D13*
X124538619Y-86190666D02*
X125264333Y-86190666D01*
X125409476Y-86239047D01*
X125506238Y-86335809D01*
X125554619Y-86480952D01*
X125554619Y-86577714D01*
X124974047Y-85561714D02*
X124925666Y-85658476D01*
X124877285Y-85706857D01*
X124780523Y-85755238D01*
X124732142Y-85755238D01*
X124635380Y-85706857D01*
X124587000Y-85658476D01*
X124538619Y-85561714D01*
X124538619Y-85368190D01*
X124587000Y-85271428D01*
X124635380Y-85223047D01*
X124732142Y-85174666D01*
X124780523Y-85174666D01*
X124877285Y-85223047D01*
X124925666Y-85271428D01*
X124974047Y-85368190D01*
X124974047Y-85561714D01*
X125022428Y-85658476D01*
X125070809Y-85706857D01*
X125167571Y-85755238D01*
X125361095Y-85755238D01*
X125457857Y-85706857D01*
X125506238Y-85658476D01*
X125554619Y-85561714D01*
X125554619Y-85368190D01*
X125506238Y-85271428D01*
X125457857Y-85223047D01*
X125361095Y-85174666D01*
X125167571Y-85174666D01*
X125070809Y-85223047D01*
X125022428Y-85271428D01*
X124974047Y-85368190D01*
X125554619Y-82223428D02*
X125070809Y-82562095D01*
X125554619Y-82804000D02*
X124538619Y-82804000D01*
X124538619Y-82416952D01*
X124587000Y-82320190D01*
X124635380Y-82271809D01*
X124732142Y-82223428D01*
X124877285Y-82223428D01*
X124974047Y-82271809D01*
X125022428Y-82320190D01*
X125070809Y-82416952D01*
X125070809Y-82804000D01*
X125554619Y-81642857D02*
X125506238Y-81739619D01*
X125457857Y-81788000D01*
X125361095Y-81836380D01*
X125070809Y-81836380D01*
X124974047Y-81788000D01*
X124925666Y-81739619D01*
X124877285Y-81642857D01*
X124877285Y-81497714D01*
X124925666Y-81400952D01*
X124974047Y-81352571D01*
X125070809Y-81304190D01*
X125361095Y-81304190D01*
X125457857Y-81352571D01*
X125506238Y-81400952D01*
X125554619Y-81497714D01*
X125554619Y-81642857D01*
X124877285Y-81013904D02*
X124877285Y-80626857D01*
X124538619Y-80868761D02*
X125409476Y-80868761D01*
X125506238Y-80820380D01*
X125554619Y-80723619D01*
X125554619Y-80626857D01*
X125554619Y-79852761D02*
X125022428Y-79852761D01*
X124925666Y-79901142D01*
X124877285Y-79997904D01*
X124877285Y-80191428D01*
X124925666Y-80288190D01*
X125506238Y-79852761D02*
X125554619Y-79949523D01*
X125554619Y-80191428D01*
X125506238Y-80288190D01*
X125409476Y-80336571D01*
X125312714Y-80336571D01*
X125215952Y-80288190D01*
X125167571Y-80191428D01*
X125167571Y-79949523D01*
X125119190Y-79852761D01*
X124877285Y-79514095D02*
X124877285Y-79127047D01*
X124538619Y-79368952D02*
X125409476Y-79368952D01*
X125506238Y-79320571D01*
X125554619Y-79223809D01*
X125554619Y-79127047D01*
X125554619Y-78643238D02*
X125506238Y-78740000D01*
X125457857Y-78788380D01*
X125361095Y-78836761D01*
X125070809Y-78836761D01*
X124974047Y-78788380D01*
X124925666Y-78740000D01*
X124877285Y-78643238D01*
X124877285Y-78498095D01*
X124925666Y-78401333D01*
X124974047Y-78352952D01*
X125070809Y-78304571D01*
X125361095Y-78304571D01*
X125457857Y-78352952D01*
X125506238Y-78401333D01*
X125554619Y-78498095D01*
X125554619Y-78643238D01*
X125554619Y-77869142D02*
X124877285Y-77869142D01*
X125070809Y-77869142D02*
X124974047Y-77820761D01*
X124925666Y-77772380D01*
X124877285Y-77675619D01*
X124877285Y-77578857D01*
G04 #@! TO.C,J2*
X124792619Y-107780666D02*
X125518333Y-107780666D01*
X125663476Y-107829047D01*
X125760238Y-107925809D01*
X125808619Y-108070952D01*
X125808619Y-108167714D01*
X124889380Y-107345238D02*
X124841000Y-107296857D01*
X124792619Y-107200095D01*
X124792619Y-106958190D01*
X124841000Y-106861428D01*
X124889380Y-106813047D01*
X124986142Y-106764666D01*
X125082904Y-106764666D01*
X125228047Y-106813047D01*
X125808619Y-107393619D01*
X125808619Y-106764666D01*
X124792619Y-104502857D02*
X124792619Y-103922285D01*
X125808619Y-104212571D02*
X124792619Y-104212571D01*
X125808619Y-103583619D02*
X125131285Y-103583619D01*
X125324809Y-103583619D02*
X125228047Y-103535238D01*
X125179666Y-103486857D01*
X125131285Y-103390095D01*
X125131285Y-103293333D01*
X125808619Y-102519238D02*
X125276428Y-102519238D01*
X125179666Y-102567619D01*
X125131285Y-102664380D01*
X125131285Y-102857904D01*
X125179666Y-102954666D01*
X125760238Y-102519238D02*
X125808619Y-102616000D01*
X125808619Y-102857904D01*
X125760238Y-102954666D01*
X125663476Y-103003047D01*
X125566714Y-103003047D01*
X125469952Y-102954666D01*
X125421571Y-102857904D01*
X125421571Y-102616000D01*
X125373190Y-102519238D01*
X125131285Y-102035428D02*
X125808619Y-102035428D01*
X125228047Y-102035428D02*
X125179666Y-101987047D01*
X125131285Y-101890285D01*
X125131285Y-101745142D01*
X125179666Y-101648380D01*
X125276428Y-101600000D01*
X125808619Y-101600000D01*
X125760238Y-101164571D02*
X125808619Y-101067809D01*
X125808619Y-100874285D01*
X125760238Y-100777523D01*
X125663476Y-100729142D01*
X125615095Y-100729142D01*
X125518333Y-100777523D01*
X125469952Y-100874285D01*
X125469952Y-101019428D01*
X125421571Y-101116190D01*
X125324809Y-101164571D01*
X125276428Y-101164571D01*
X125179666Y-101116190D01*
X125131285Y-101019428D01*
X125131285Y-100874285D01*
X125179666Y-100777523D01*
X125131285Y-100438857D02*
X125131285Y-100051809D01*
X125808619Y-100293714D02*
X124937761Y-100293714D01*
X124841000Y-100245333D01*
X124792619Y-100148571D01*
X124792619Y-100051809D01*
X125808619Y-99568000D02*
X125760238Y-99664761D01*
X125711857Y-99713142D01*
X125615095Y-99761523D01*
X125324809Y-99761523D01*
X125228047Y-99713142D01*
X125179666Y-99664761D01*
X125131285Y-99568000D01*
X125131285Y-99422857D01*
X125179666Y-99326095D01*
X125228047Y-99277714D01*
X125324809Y-99229333D01*
X125615095Y-99229333D01*
X125711857Y-99277714D01*
X125760238Y-99326095D01*
X125808619Y-99422857D01*
X125808619Y-99568000D01*
X125808619Y-98793904D02*
X125131285Y-98793904D01*
X125324809Y-98793904D02*
X125228047Y-98745523D01*
X125179666Y-98697142D01*
X125131285Y-98600380D01*
X125131285Y-98503619D01*
X125808619Y-98164952D02*
X125131285Y-98164952D01*
X125228047Y-98164952D02*
X125179666Y-98116571D01*
X125131285Y-98019809D01*
X125131285Y-97874666D01*
X125179666Y-97777904D01*
X125276428Y-97729523D01*
X125808619Y-97729523D01*
X125276428Y-97729523D02*
X125179666Y-97681142D01*
X125131285Y-97584380D01*
X125131285Y-97439238D01*
X125179666Y-97342476D01*
X125276428Y-97294095D01*
X125808619Y-97294095D01*
X125760238Y-96423238D02*
X125808619Y-96520000D01*
X125808619Y-96713523D01*
X125760238Y-96810285D01*
X125663476Y-96858666D01*
X125276428Y-96858666D01*
X125179666Y-96810285D01*
X125131285Y-96713523D01*
X125131285Y-96520000D01*
X125179666Y-96423238D01*
X125276428Y-96374857D01*
X125373190Y-96374857D01*
X125469952Y-96858666D01*
X125808619Y-95939428D02*
X125131285Y-95939428D01*
X125324809Y-95939428D02*
X125228047Y-95891047D01*
X125179666Y-95842666D01*
X125131285Y-95745904D01*
X125131285Y-95649142D01*
G04 #@! TO.C,C3*
X163660666Y-85833857D02*
X163612285Y-85882238D01*
X163467142Y-85930619D01*
X163370380Y-85930619D01*
X163225238Y-85882238D01*
X163128476Y-85785476D01*
X163080095Y-85688714D01*
X163031714Y-85495190D01*
X163031714Y-85350047D01*
X163080095Y-85156523D01*
X163128476Y-85059761D01*
X163225238Y-84963000D01*
X163370380Y-84914619D01*
X163467142Y-84914619D01*
X163612285Y-84963000D01*
X163660666Y-85011380D01*
X163999333Y-84914619D02*
X164628285Y-84914619D01*
X164289619Y-85301666D01*
X164434761Y-85301666D01*
X164531523Y-85350047D01*
X164579904Y-85398428D01*
X164628285Y-85495190D01*
X164628285Y-85737095D01*
X164579904Y-85833857D01*
X164531523Y-85882238D01*
X164434761Y-85930619D01*
X164144476Y-85930619D01*
X164047714Y-85882238D01*
X163999333Y-85833857D01*
D15*
X163757428Y-87454619D02*
X163176857Y-87454619D01*
X163467142Y-87454619D02*
X163467142Y-86438619D01*
X163370380Y-86583761D01*
X163273619Y-86680523D01*
X163176857Y-86728904D01*
X164386380Y-86438619D02*
X164483142Y-86438619D01*
X164579904Y-86487000D01*
X164628285Y-86535380D01*
X164676666Y-86632142D01*
X164725047Y-86825666D01*
X164725047Y-87067571D01*
X164676666Y-87261095D01*
X164628285Y-87357857D01*
X164579904Y-87406238D01*
X164483142Y-87454619D01*
X164386380Y-87454619D01*
X164289619Y-87406238D01*
X164241238Y-87357857D01*
X164192857Y-87261095D01*
X164144476Y-87067571D01*
X164144476Y-86825666D01*
X164192857Y-86632142D01*
X164241238Y-86535380D01*
X164289619Y-86487000D01*
X164386380Y-86438619D01*
X165595904Y-86777285D02*
X165595904Y-87454619D01*
X165160476Y-86777285D02*
X165160476Y-87309476D01*
X165208857Y-87406238D01*
X165305619Y-87454619D01*
X165450761Y-87454619D01*
X165547523Y-87406238D01*
X165595904Y-87357857D01*
X166418380Y-86922428D02*
X166079714Y-86922428D01*
X166079714Y-87454619D02*
X166079714Y-86438619D01*
X166563523Y-86438619D01*
G04 #@! TO.C,J3*
D13*
X160506833Y-111521119D02*
X160506833Y-112246833D01*
X160458452Y-112391976D01*
X160361690Y-112488738D01*
X160216547Y-112537119D01*
X160119785Y-112537119D01*
X160893880Y-111521119D02*
X161522833Y-111521119D01*
X161184166Y-111908166D01*
X161329309Y-111908166D01*
X161426071Y-111956547D01*
X161474452Y-112004928D01*
X161522833Y-112101690D01*
X161522833Y-112343595D01*
X161474452Y-112440357D01*
X161426071Y-112488738D01*
X161329309Y-112537119D01*
X161039023Y-112537119D01*
X160942261Y-112488738D01*
X160893880Y-112440357D01*
X157951714Y-107520619D02*
X157613047Y-107036809D01*
X157371142Y-107520619D02*
X157371142Y-106504619D01*
X157758190Y-106504619D01*
X157854952Y-106553000D01*
X157903333Y-106601380D01*
X157951714Y-106698142D01*
X157951714Y-106843285D01*
X157903333Y-106940047D01*
X157854952Y-106988428D01*
X157758190Y-107036809D01*
X157371142Y-107036809D01*
X158387142Y-106504619D02*
X158387142Y-107327095D01*
X158435523Y-107423857D01*
X158483904Y-107472238D01*
X158580666Y-107520619D01*
X158774190Y-107520619D01*
X158870952Y-107472238D01*
X158919333Y-107423857D01*
X158967714Y-107327095D01*
X158967714Y-106504619D01*
X159451523Y-107520619D02*
X159451523Y-106504619D01*
X160032095Y-107520619D01*
X160032095Y-106504619D01*
X161241619Y-106456238D02*
X160370761Y-107762523D01*
X161580285Y-106504619D02*
X161580285Y-107327095D01*
X161628666Y-107423857D01*
X161677047Y-107472238D01*
X161773809Y-107520619D01*
X161967333Y-107520619D01*
X162064095Y-107472238D01*
X162112476Y-107423857D01*
X162160857Y-107327095D01*
X162160857Y-106504619D01*
X162644666Y-107520619D02*
X162644666Y-106504619D01*
X163031714Y-106504619D01*
X163128476Y-106553000D01*
X163176857Y-106601380D01*
X163225238Y-106698142D01*
X163225238Y-106843285D01*
X163176857Y-106940047D01*
X163128476Y-106988428D01*
X163031714Y-107036809D01*
X162644666Y-107036809D01*
X163660666Y-107520619D02*
X163660666Y-106504619D01*
X163902571Y-106504619D01*
X164047714Y-106553000D01*
X164144476Y-106649761D01*
X164192857Y-106746523D01*
X164241238Y-106940047D01*
X164241238Y-107085190D01*
X164192857Y-107278714D01*
X164144476Y-107375476D01*
X164047714Y-107472238D01*
X163902571Y-107520619D01*
X163660666Y-107520619D01*
G04 #@! TO.C,J4*
X196357119Y-106002666D02*
X197082833Y-106002666D01*
X197227976Y-106051047D01*
X197324738Y-106147809D01*
X197373119Y-106292952D01*
X197373119Y-106389714D01*
X196695785Y-105083428D02*
X197373119Y-105083428D01*
X196308738Y-105325333D02*
X197034452Y-105567238D01*
X197034452Y-104938285D01*
X192320333Y-106389714D02*
X192320333Y-105905904D01*
X192610619Y-106486476D02*
X191594619Y-106147809D01*
X192610619Y-105809142D01*
X191594619Y-105567238D02*
X191594619Y-104889904D01*
X192610619Y-105567238D01*
X192610619Y-104889904D01*
G04 #@! TO.C,D1*
X142221857Y-101551619D02*
X141641285Y-101551619D01*
X141931571Y-101551619D02*
X141931571Y-100535619D01*
X141834809Y-100680761D01*
X141738047Y-100777523D01*
X141641285Y-100825904D01*
X142657285Y-101551619D02*
X142657285Y-100535619D01*
X143237857Y-101551619D01*
X143237857Y-100535619D01*
X144157095Y-100874285D02*
X144157095Y-101551619D01*
X143915190Y-100487238D02*
X143673285Y-101212952D01*
X144302238Y-101212952D01*
X144882809Y-100535619D02*
X144979571Y-100535619D01*
X145076333Y-100584000D01*
X145124714Y-100632380D01*
X145173095Y-100729142D01*
X145221476Y-100922666D01*
X145221476Y-101164571D01*
X145173095Y-101358095D01*
X145124714Y-101454857D01*
X145076333Y-101503238D01*
X144979571Y-101551619D01*
X144882809Y-101551619D01*
X144786047Y-101503238D01*
X144737666Y-101454857D01*
X144689285Y-101358095D01*
X144640904Y-101164571D01*
X144640904Y-100922666D01*
X144689285Y-100729142D01*
X144737666Y-100632380D01*
X144786047Y-100584000D01*
X144882809Y-100535619D01*
X145850428Y-100535619D02*
X145947190Y-100535619D01*
X146043952Y-100584000D01*
X146092333Y-100632380D01*
X146140714Y-100729142D01*
X146189095Y-100922666D01*
X146189095Y-101164571D01*
X146140714Y-101358095D01*
X146092333Y-101454857D01*
X146043952Y-101503238D01*
X145947190Y-101551619D01*
X145850428Y-101551619D01*
X145753666Y-101503238D01*
X145705285Y-101454857D01*
X145656904Y-101358095D01*
X145608523Y-101164571D01*
X145608523Y-100922666D01*
X145656904Y-100729142D01*
X145705285Y-100632380D01*
X145753666Y-100584000D01*
X145850428Y-100535619D01*
X146576142Y-100632380D02*
X146624523Y-100584000D01*
X146721285Y-100535619D01*
X146963190Y-100535619D01*
X147059952Y-100584000D01*
X147108333Y-100632380D01*
X147156714Y-100729142D01*
X147156714Y-100825904D01*
X147108333Y-100971047D01*
X146527761Y-101551619D01*
X147156714Y-101551619D01*
X143259095Y-99011619D02*
X143259095Y-97995619D01*
X143501000Y-97995619D01*
X143646142Y-98044000D01*
X143742904Y-98140761D01*
X143791285Y-98237523D01*
X143839666Y-98431047D01*
X143839666Y-98576190D01*
X143791285Y-98769714D01*
X143742904Y-98866476D01*
X143646142Y-98963238D01*
X143501000Y-99011619D01*
X143259095Y-99011619D01*
X144807285Y-99011619D02*
X144226714Y-99011619D01*
X144517000Y-99011619D02*
X144517000Y-97995619D01*
X144420238Y-98140761D01*
X144323476Y-98237523D01*
X144226714Y-98285904D01*
D16*
G04 #@! TO.C,J1*
D13*
X131269619Y-106510666D02*
X131995333Y-106510666D01*
X132140476Y-106559047D01*
X132237238Y-106655809D01*
X132285619Y-106800952D01*
X132285619Y-106897714D01*
X132285619Y-105494666D02*
X132285619Y-106075238D01*
X132285619Y-105784952D02*
X131269619Y-105784952D01*
X131414761Y-105881714D01*
X131511523Y-105978476D01*
X131559904Y-106075238D01*
X131269619Y-103982761D02*
X131269619Y-103402190D01*
X132285619Y-103692476D02*
X131269619Y-103692476D01*
X132285619Y-102918380D02*
X132237238Y-103015142D01*
X132188857Y-103063523D01*
X132092095Y-103111904D01*
X131801809Y-103111904D01*
X131705047Y-103063523D01*
X131656666Y-103015142D01*
X131608285Y-102918380D01*
X131608285Y-102773238D01*
X131656666Y-102676476D01*
X131705047Y-102628095D01*
X131801809Y-102579714D01*
X132092095Y-102579714D01*
X132188857Y-102628095D01*
X132237238Y-102676476D01*
X132285619Y-102773238D01*
X132285619Y-102918380D01*
X132285619Y-101370190D02*
X131269619Y-101370190D01*
X131269619Y-100983142D01*
X131318000Y-100886380D01*
X131366380Y-100838000D01*
X131463142Y-100789619D01*
X131608285Y-100789619D01*
X131705047Y-100838000D01*
X131753428Y-100886380D01*
X131801809Y-100983142D01*
X131801809Y-101370190D01*
X132237238Y-100402571D02*
X132285619Y-100257428D01*
X132285619Y-100015523D01*
X132237238Y-99918761D01*
X132188857Y-99870380D01*
X132092095Y-99822000D01*
X131995333Y-99822000D01*
X131898571Y-99870380D01*
X131850190Y-99918761D01*
X131801809Y-100015523D01*
X131753428Y-100209047D01*
X131705047Y-100305809D01*
X131656666Y-100354190D01*
X131559904Y-100402571D01*
X131463142Y-100402571D01*
X131366380Y-100354190D01*
X131318000Y-100305809D01*
X131269619Y-100209047D01*
X131269619Y-99967142D01*
X131318000Y-99822000D01*
X128729619Y-103716666D02*
X129455333Y-103716666D01*
X129600476Y-103765047D01*
X129697238Y-103861809D01*
X129745619Y-104006952D01*
X129745619Y-104103714D01*
X129745619Y-102700666D02*
X129745619Y-103281238D01*
X129745619Y-102990952D02*
X128729619Y-102990952D01*
X128874761Y-103087714D01*
X128971523Y-103184476D01*
X129019904Y-103281238D01*
G04 #@! TO.C,R1*
X134450666Y-83009619D02*
X134112000Y-82525809D01*
X133870095Y-83009619D02*
X133870095Y-81993619D01*
X134257142Y-81993619D01*
X134353904Y-82042000D01*
X134402285Y-82090380D01*
X134450666Y-82187142D01*
X134450666Y-82332285D01*
X134402285Y-82429047D01*
X134353904Y-82477428D01*
X134257142Y-82525809D01*
X133870095Y-82525809D01*
X135418285Y-83009619D02*
X134837714Y-83009619D01*
X135128000Y-83009619D02*
X135128000Y-81993619D01*
X135031238Y-82138761D01*
X134934476Y-82235523D01*
X134837714Y-82283904D01*
X140649476Y-83009619D02*
X140068904Y-83009619D01*
X140359190Y-83009619D02*
X140359190Y-81993619D01*
X140262428Y-82138761D01*
X140165666Y-82235523D01*
X140068904Y-82283904D01*
X141278428Y-81993619D02*
X141375190Y-81993619D01*
X141471952Y-82042000D01*
X141520333Y-82090380D01*
X141568714Y-82187142D01*
X141617095Y-82380666D01*
X141617095Y-82622571D01*
X141568714Y-82816095D01*
X141520333Y-82912857D01*
X141471952Y-82961238D01*
X141375190Y-83009619D01*
X141278428Y-83009619D01*
X141181666Y-82961238D01*
X141133285Y-82912857D01*
X141084904Y-82816095D01*
X141036523Y-82622571D01*
X141036523Y-82380666D01*
X141084904Y-82187142D01*
X141133285Y-82090380D01*
X141181666Y-82042000D01*
X141278428Y-81993619D01*
G04 #@! TO.C,R2*
X152224619Y-90593333D02*
X151740809Y-90932000D01*
X152224619Y-91173904D02*
X151208619Y-91173904D01*
X151208619Y-90786857D01*
X151257000Y-90690095D01*
X151305380Y-90641714D01*
X151402142Y-90593333D01*
X151547285Y-90593333D01*
X151644047Y-90641714D01*
X151692428Y-90690095D01*
X151740809Y-90786857D01*
X151740809Y-91173904D01*
X151305380Y-90206285D02*
X151257000Y-90157904D01*
X151208619Y-90061142D01*
X151208619Y-89819238D01*
X151257000Y-89722476D01*
X151305380Y-89674095D01*
X151402142Y-89625714D01*
X151498904Y-89625714D01*
X151644047Y-89674095D01*
X152224619Y-90254666D01*
X152224619Y-89625714D01*
X154214285Y-91198095D02*
X154891619Y-91198095D01*
X153827238Y-91440000D02*
X154552952Y-91681904D01*
X154552952Y-91052952D01*
X153875619Y-90762666D02*
X153875619Y-90085333D01*
X154891619Y-90520761D01*
X153875619Y-89504761D02*
X153875619Y-89408000D01*
X153924000Y-89311238D01*
X153972380Y-89262857D01*
X154069142Y-89214476D01*
X154262666Y-89166095D01*
X154504571Y-89166095D01*
X154698095Y-89214476D01*
X154794857Y-89262857D01*
X154843238Y-89311238D01*
X154891619Y-89408000D01*
X154891619Y-89504761D01*
X154843238Y-89601523D01*
X154794857Y-89649904D01*
X154698095Y-89698285D01*
X154504571Y-89746666D01*
X154262666Y-89746666D01*
X154069142Y-89698285D01*
X153972380Y-89649904D01*
X153924000Y-89601523D01*
X153875619Y-89504761D01*
G04 #@! TO.C,R3*
X184107666Y-107393619D02*
X183769000Y-106909809D01*
X183527095Y-107393619D02*
X183527095Y-106377619D01*
X183914142Y-106377619D01*
X184010904Y-106426000D01*
X184059285Y-106474380D01*
X184107666Y-106571142D01*
X184107666Y-106716285D01*
X184059285Y-106813047D01*
X184010904Y-106861428D01*
X183914142Y-106909809D01*
X183527095Y-106909809D01*
X184446333Y-106377619D02*
X185075285Y-106377619D01*
X184736619Y-106764666D01*
X184881761Y-106764666D01*
X184978523Y-106813047D01*
X185026904Y-106861428D01*
X185075285Y-106958190D01*
X185075285Y-107200095D01*
X185026904Y-107296857D01*
X184978523Y-107345238D01*
X184881761Y-107393619D01*
X184591476Y-107393619D01*
X184494714Y-107345238D01*
X184446333Y-107296857D01*
X183019095Y-109522380D02*
X183067476Y-109474000D01*
X183164238Y-109425619D01*
X183406142Y-109425619D01*
X183502904Y-109474000D01*
X183551285Y-109522380D01*
X183599666Y-109619142D01*
X183599666Y-109715904D01*
X183551285Y-109861047D01*
X182970714Y-110441619D01*
X183599666Y-110441619D01*
X183986714Y-109522380D02*
X184035095Y-109474000D01*
X184131857Y-109425619D01*
X184373761Y-109425619D01*
X184470523Y-109474000D01*
X184518904Y-109522380D01*
X184567285Y-109619142D01*
X184567285Y-109715904D01*
X184518904Y-109861047D01*
X183938333Y-110441619D01*
X184567285Y-110441619D01*
X185196238Y-109425619D02*
X185293000Y-109425619D01*
X185389761Y-109474000D01*
X185438142Y-109522380D01*
X185486523Y-109619142D01*
X185534904Y-109812666D01*
X185534904Y-110054571D01*
X185486523Y-110248095D01*
X185438142Y-110344857D01*
X185389761Y-110393238D01*
X185293000Y-110441619D01*
X185196238Y-110441619D01*
X185099476Y-110393238D01*
X185051095Y-110344857D01*
X185002714Y-110248095D01*
X184954333Y-110054571D01*
X184954333Y-109812666D01*
X185002714Y-109619142D01*
X185051095Y-109522380D01*
X185099476Y-109474000D01*
X185196238Y-109425619D01*
G04 #@! TD*
M02*
