M48
;DRILL file {KiCad (5.0.2)-1} date 2/27/2019 10:38:42 AM
;FORMAT={-:-/ absolute / inch / decimal}
FMAT,2
INCH,TZ
T1C0.0315
T2C0.0394
T3C0.0433
%
G90
G05
T1
X6.4031Y-2.2
X6.6Y-2.2
X5.45Y-2.53
X5.75Y-2.53
X7.22Y-2.2
X7.4169Y-2.2
X7.01Y-2.6
X7.01Y-2.7969
T2
X4.7Y-2.43
X4.7Y-2.53
X4.7Y-2.63
X4.7Y-2.73
X4.8Y-3.13
X4.9Y-3.13
X5.Y-3.13
X5.1Y-3.13
X5.2Y-3.13
X5.3Y-3.13
X5.4Y-3.13
X5.5Y-3.13
X5.1Y-2.43
X5.1Y-2.53
X6.4Y-1.23
X6.5Y-1.23
X6.6Y-1.23
X6.7Y-1.23
X6.8Y-1.23
X6.9Y-1.23
X7.Y-1.23
X7.1Y-1.23
T3
X5.1Y-2.78
X5.5Y-2.78
X5.93Y-2.73
X5.93Y-3.13
X6.81Y-2.2
X6.91Y-2.2
X7.01Y-2.2
T0
M30
